<?xml version="1.0" encoding="UTF-8" standalone="no"?>
<!-- Created with Inkscape (http://www.inkscape.org/) -->

<svg
   xmlns:dc="http://purl.org/dc/elements/1.1/"
   xmlns:cc="http://creativecommons.org/ns#"
   xmlns:rdf="http://www.w3.org/1999/02/22-rdf-syntax-ns#"
   xmlns:svg="http://www.w3.org/2000/svg"
   xmlns="http://www.w3.org/2000/svg"
   xmlns:sodipodi="http://sodipodi.sourceforge.net/DTD/sodipodi-0.dtd"
   xmlns:inkscape="http://www.inkscape.org/namespaces/inkscape"
   width="485.87573"
   height="77.485519"
   id="svg4392"
   version="1.1"
   inkscape:version="0.48.3.1 r9886"
   sodipodi:docname="02.svg">
  <defs
     id="defs4394">
    <inkscape:path-effect
       effect="skeletal"
       id="path-effect4593"
       is_visible="true"
       pattern="m 39.65337,-47.290044 c 0,-2.76 2.24,-5 5,-5 2.76,0 5,2.24 5,5 0,2.76 -2.24,5 -5,5 -2.76,0 -5,-2.24 -5,-5 z"
       copytype="single_stretched"
       prop_scale="5"
       scale_y_rel="false"
       spacing="0"
       normal_offset="0"
       tang_offset="0"
       prop_units="false"
       vertical_pattern="false"
       fuse_tolerance="0" />
    <inkscape:path-effect
       effect="skeletal"
       id="path-effect4597"
       is_visible="true"
       pattern="m 63.897032,-31.127607 c 0,-2.76 2.24,-5 5,-5 2.76,0 5,2.24 5,5 0,2.76 -2.24,5 -5,5 -2.76,0 -5,-2.24 -5,-5 z"
       copytype="single_stretched"
       prop_scale="5"
       scale_y_rel="false"
       spacing="0"
       normal_offset="0"
       tang_offset="0"
       prop_units="false"
       vertical_pattern="false"
       fuse_tolerance="0" />
  </defs>
  <sodipodi:namedview
     id="base"
     pagecolor="#ffffff"
     bordercolor="#666666"
     borderopacity="1.0"
     inkscape:pageopacity="0.0"
     inkscape:pageshadow="2"
     inkscape:zoom="0.35"
     inkscape:cx="97.460311"
     inkscape:cy="132.34775"
     inkscape:document-units="px"
     inkscape:current-layer="layer1"
     showgrid="false"
     fit-margin-top="0"
     fit-margin-left="0"
     fit-margin-right="0"
     fit-margin-bottom="0"
     inkscape:window-width="560"
     inkscape:window-height="451"
     inkscape:window-x="0"
     inkscape:window-y="25"
     inkscape:window-maximized="0" />
  <metadata
     id="metadata4397">
    <rdf:RDF>
      <cc:Work
         rdf:about="">
        <dc:format>image/svg+xml</dc:format>
        <dc:type
           rdf:resource="http://purl.org/dc/dcmitype/StillImage" />
        <dc:title></dc:title>
      </cc:Work>
    </rdf:RDF>
  </metadata>
  <g
     inkscape:label="Capa 1"
     inkscape:groupmode="layer"
     id="layer1"
     transform="translate(-252.53969,-587.22441)">
    <g
       style="display:inline"
       id="g4108"
       transform="translate(-2792.0929,-1822.7393)">
      <path
         sodipodi:nodetypes="csc"
         inkscape:connector-curvature="0"
         inkscape:original-d="m 3060.3957,2487.086 c 0,0 -14.8238,-36.0005 29.6475,-46.589 44.4713,-10.5884 131.2962,-8.4707 150.3553,28.5887"
         inkscape:path-effect="#path-effect4593"
         id="path4591"
         d="m 3060.3927,2487.0787 c -0.1806,0.07 -0.3636,0.1338 -0.549,0.1895 -0.1809,0.049 -0.3651,0.088 -0.5523,0.1177 -0.37,0.058 -0.7526,0.076 -1.1451,0.055 0,0 0,0 0,0 0,0 0,0 0,0 -0.7674,-0.047 -1.5812,-0.2608 -2.4176,-0.6293 0,0 0,0 0,0 -1.5808,-0.6972 -3.277,-2.0136 -4.9022,-3.9733 0,0 0,0 0,0 -1.4465,-1.732 -2.8538,-4.0134 -3.9833,-6.9241 -1.1295,-2.9106 -1.9815,-6.453 -2.192,-10.6653 0,0 0,0 0,0 0,0 0,0 0,0 -0.1244,-3.9015 0.3642,-8.2095 1.7474,-12.6769 1.3831,-4.4675 3.6631,-9.0947 7.0946,-13.5046 0,0 0,0 0,0 3.9964,-4.7972 8.8308,-9.1214 14.1887,-12.6351 5.3579,-3.5137 11.238,-6.2133 17.1364,-7.8797 0,0 0,0 0,0 0,0 0,0 0,0 6.6452,-2.2341 13.7138,-4.0609 21.0375,-5.4281 7.3238,-1.3672 14.9013,-2.2745 22.5558,-2.7388 3.0511,-0.1983 6.1451,-0.3297 9.2747,-0.3881 13.9986,-0.261 27.6091,0.9884 40.099,3.484 8.5593,1.6384 16.8707,4.021 24.4623,7.0486 7.5916,3.0276 14.4587,6.6951 20.2818,10.6942 3.4392,2.3491 6.5578,4.9286 9.2502,7.593 2.6924,2.6645 4.959,5.4125 6.765,8.096 1.8794,2.7601 3.2149,5.5028 4.0722,8.0189 0.8573,2.516 1.2392,4.8051 1.2527,6.7499 0.013,1.9449 -0.3391,3.546 -0.9492,4.7758 -0.6101,1.2299 -1.4759,2.0897 -2.5218,2.6276 -1.0459,0.5379 -2.2371,0.7415 -3.5338,0.7348 -1.2967,-0.01 -2.701,-0.2217 -4.2189,-0.5386 -1.518,-0.3168 -3.1522,-0.7344 -4.9189,-1.1866 -1.7666,-0.4522 -3.6682,-0.9389 -5.6917,-1.443 -2.0096,-0.5078 -4.1832,-0.9959 -6.5612,-1.4669 -2.378,-0.471 -4.9617,-0.9247 -7.766,-1.4193 -4.8738,-0.873 -10.2592,-1.5758 -16.2437,-2.1077 -5.9845,-0.5318 -12.5737,-0.8946 -19.7487,-1.2932 -10.3182,-0.4573 -21.4152,-0.5787 -33.1048,-0.3648 -2.6134,0.048 -5.2105,0.1106 -7.7877,0.1849 -6.5519,0.2236 -12.8089,0.4724 -18.7392,0.8289 -5.9304,0.3565 -11.5349,0.8216 -16.8158,1.4271 0,0 0,0 0,0 0,0 0,0 0,0 -3.5183,0.5757 -6.6246,0.8927 -9.208,1.2917 -2.5833,0.399 -4.6464,0.8824 -6.2419,1.6741 0,0 0,0 0,0 -1.3089,0.3278 -2.6566,0.9928 -3.9171,1.8401 -1.2606,0.8473 -2.4337,1.8786 -3.4622,3.0016 0,0 0,0 0,0 0,0 0,0 0,0 -1.2177,1.3862 -2.239,3.0132 -3.1633,4.6542 -0.9243,1.641 -1.7502,3.2978 -2.5587,4.8223 0,0 0,0 0,0 -0.9024,1.7301 -1.7929,3.2406 -2.7602,4.4818 0,0 0,0 0,0 -0.5116,0.6571 -1.0522,1.2204 -1.6266,1.6998 0,0 0,0 0,0 0,0 0,0 0,0 -0.2935,0.2495 -0.5982,0.4712 -0.9145,0.6666 -0.1602,0.099 -0.3234,0.1908 -0.4902,0.2752 -0.1746,0.083 -0.352,0.1596 -0.5327,0.23 z"
         style="fill:#000000;fill-rule:evenodd;stroke:none" />
      <path
         sodipodi:nodetypes="csc"
         inkscape:connector-curvature="0"
         inkscape:original-d="m 3346.2824,2477.5564 c 10.5884,-6.353 15.8825,-51.8831 132.355,-36.0005 37.8268,5.1582 27.5298,-3.1765 46.5889,34.9417"
         inkscape:path-effect="#path-effect4597"
         id="path4595"
         d="m 3346.2824,2477.5564 c -0.3647,-0.6079 -0.6199,-1.2701 -0.8521,-1.9407 -0.2323,-0.6707 -0.4457,-1.3492 -0.6788,-2.0453 -0.2331,-0.6961 -0.4896,-1.4107 -0.6996,-2.2069 -0.2101,-0.7962 -0.377,-1.6759 -0.269,-2.7343 0,0 0,0 0,0 -0,-1.2201 0.071,-2.5581 0.2894,-4.0675 0.2186,-1.5094 0.5795,-3.1909 1.2096,-5.1093 1.2219,-3.6974 3.1614,-7.7964 6.0426,-12.0265 2.8812,-4.2301 6.7078,-8.5912 11.6733,-12.6786 5.7681,-4.6125 12.6178,-8.7432 20.1664,-12.0112 7.5485,-3.268 15.7904,-5.6674 24.1507,-7.0558 10.1019,-1.7993 20.7546,-2.6347 31.5359,-2.4895 7.8743,0.106 15.451,0.7204 22.6287,1.6835 7.1777,0.963 13.9573,2.2736 20.2798,3.7875 0,0 0,0 0,0 6.2748,1.6004 13.1007,3.0528 19.7852,4.9134 2.1514,0.531 5.1125,1.3566 8.5501,2.6149 3.0499,1.0228 6.3978,2.9391 9.7645,5.6236 3.4305,3.1485 5.4872,6.0219 6.5838,8.5022 1.6134,3.4627 2.3851,6.2267 2.7715,8.4437 0,0 0,0 0,0 0.727,3.8836 1.109,7.3655 1.2412,10.4615 0.1322,3.096 0.013,5.8076 -0.3294,8.1366 -0.6855,4.6582 -2.2601,7.82 -4.8999,9.1399 -2.6398,1.3199 -6.1645,0.6243 -10.2762,-1.874 -2.0559,-1.2491 -4.2527,-2.9426 -6.5482,-4.987 -2.2955,-2.0444 -4.6877,-4.4401 -7.1651,-7.0318 0,0 0,0 0,0 -1.4216,-1.4367 -2.588,-2.5384 -3.5125,-2.8193 -0.5806,0.01 -0.5163,0.4613 0.3561,1.7344 1.0474,0.9841 1.6388,1.7222 1.7774,1.9455 -0.2324,0.2504 -1.1694,0.5543 -3.0125,0.6219 -6.0356,0.3852 -13.0393,0.7485 -21.3298,0.3627 0,0 0,0 0,0 -11.9733,-0.3292 -24.6946,-1.0318 -37.4848,-1.288 -8.7559,-0.1754 -17.0002,-0.1017 -24.7275,0.3319 -6.2702,0.444 -11.995,0.8475 -17.1156,1.4853 -5.1206,0.6379 -9.6423,1.5143 -13.6786,2.7091 -3.2529,0.7804 -6.3912,1.9073 -9.354,3.1308 -2.9627,1.2235 -5.7498,2.5449 -8.3351,3.7638 -1.35,0.6385 -2.7301,1.3736 -4.1012,2.0553 -1.371,0.6818 -2.732,1.3108 -4.0369,1.8007 0,0 0,0 0,0 -1.0043,0.4041 -2.184,0.8262 -3.3267,1.0924 -1.1427,0.2661 -2.2481,0.3803 -3.2025,0.3059 -0.9544,-0.074 -1.7587,-0.3336 -2.3959,-0.7341 -0.6372,-0.4005 -1.1096,-0.9388 -1.4743,-1.5467 0,0 0,0 0,0 z"
         style="fill:#000000;fill-rule:evenodd;stroke:none" />
    </g>
  </g>
</svg>
