<?xml version="1.0" encoding="UTF-8" standalone="no"?>
<!-- Created with Inkscape (http://www.inkscape.org/) -->

<svg
   xmlns:dc="http://purl.org/dc/elements/1.1/"
   xmlns:cc="http://creativecommons.org/ns#"
   xmlns:rdf="http://www.w3.org/1999/02/22-rdf-syntax-ns#"
   xmlns:svg="http://www.w3.org/2000/svg"
   xmlns="http://www.w3.org/2000/svg"
   xmlns:sodipodi="http://sodipodi.sourceforge.net/DTD/sodipodi-0.dtd"
   xmlns:inkscape="http://www.inkscape.org/namespaces/inkscape"
   width="394.73712"
   height="71.323524"
   id="svg4392"
   version="1.1"
   inkscape:version="0.48.3.1 r9886"
   sodipodi:docname="07.svg">
  <defs
     id="defs4394">
    <inkscape:path-effect
       effect="skeletal"
       id="path-effect4593"
       is_visible="true"
       pattern="m 39.65337,-47.290044 c 0,-2.76 2.24,-5 5,-5 2.76,0 5,2.24 5,5 0,2.76 -2.24,5 -5,5 -2.76,0 -5,-2.24 -5,-5 z"
       copytype="single_stretched"
       prop_scale="5"
       scale_y_rel="false"
       spacing="0"
       normal_offset="0"
       tang_offset="0"
       prop_units="false"
       vertical_pattern="false"
       fuse_tolerance="0" />
    <inkscape:path-effect
       effect="skeletal"
       id="path-effect4597"
       is_visible="true"
       pattern="m 63.897032,-31.127607 c 0,-2.76 2.24,-5 5,-5 2.76,0 5,2.24 5,5 0,2.76 -2.24,5 -5,5 -2.76,0 -5,-2.24 -5,-5 z"
       copytype="single_stretched"
       prop_scale="5"
       scale_y_rel="false"
       spacing="0"
       normal_offset="0"
       tang_offset="0"
       prop_units="false"
       vertical_pattern="false"
       fuse_tolerance="0" />
    <inkscape:path-effect
       effect="skeletal"
       id="path-effect3205-9"
       is_visible="true"
       pattern="m 1328.331,16.398205 c 0,-2.76 2.24,-5 5,-5 2.76,0 5,2.24 5,5 0,2.76 -2.24,5 -5,5 -2.76,0 -5,-2.24 -5,-5 z"
       copytype="single_stretched"
       prop_scale="4"
       scale_y_rel="false"
       spacing="0"
       normal_offset="0"
       tang_offset="0"
       prop_units="false"
       vertical_pattern="false"
       fuse_tolerance="0" />
    <inkscape:path-effect
       effect="skeletal"
       id="path-effect3209-7"
       is_visible="true"
       pattern="m 1328.331,16.398205 c 0,-2.76 2.24,-5 5,-5 2.76,0 5,2.24 5,5 0,2.76 -2.24,5 -5,5 -2.76,0 -5,-2.24 -5,-5 z"
       copytype="single_stretched"
       prop_scale="4"
       scale_y_rel="false"
       spacing="0"
       normal_offset="0"
       tang_offset="0"
       prop_units="false"
       vertical_pattern="false"
       fuse_tolerance="0" />
    <inkscape:path-effect
       effect="skeletal"
       id="path-effect4171"
       is_visible="true"
       pattern="m 68.571429,16.428571 c 0,-2.76 2.24,-5 5,-5 2.76,0 5,2.24 5,5 0,2.76 -2.24,5 -5,5 -2.76,0 -5,-2.24 -5,-5 z"
       copytype="single_stretched"
       prop_scale="2"
       scale_y_rel="false"
       spacing="0"
       normal_offset="0"
       tang_offset="0"
       prop_units="false"
       vertical_pattern="false"
       fuse_tolerance="0" />
    <inkscape:path-effect
       effect="skeletal"
       id="path-effect4175"
       is_visible="true"
       pattern="m 55.714286,19.285714 c 0,-2.76 2.24,-5 5,-5 2.76,0 5,2.24 5,5 0,2.76 -2.24,5 -5,5 -2.76,0 -5,-2.24 -5,-5 z"
       copytype="single_stretched"
       prop_scale="2"
       scale_y_rel="false"
       spacing="0"
       normal_offset="0"
       tang_offset="0"
       prop_units="false"
       vertical_pattern="false"
       fuse_tolerance="0" />
  </defs>
  <sodipodi:namedview
     id="base"
     pagecolor="#ffffff"
     bordercolor="#666666"
     borderopacity="1.0"
     inkscape:pageopacity="0.0"
     inkscape:pageshadow="2"
     inkscape:zoom="0.7"
     inkscape:cx="147.12996"
     inkscape:cy="72.629466"
     inkscape:document-units="px"
     inkscape:current-layer="layer1"
     showgrid="false"
     fit-margin-top="0"
     fit-margin-left="0"
     fit-margin-right="0"
     fit-margin-bottom="0"
     inkscape:window-width="560"
     inkscape:window-height="451"
     inkscape:window-x="0"
     inkscape:window-y="25"
     inkscape:window-maximized="0" />
  <metadata
     id="metadata4397">
    <rdf:RDF>
      <cc:Work
         rdf:about="">
        <dc:format>image/svg+xml</dc:format>
        <dc:type
           rdf:resource="http://purl.org/dc/dcmitype/StillImage" />
        <dc:title></dc:title>
      </cc:Work>
    </rdf:RDF>
  </metadata>
  <g
     inkscape:label="Capa 1"
     inkscape:groupmode="layer"
     id="layer1"
     transform="translate(-571.1406,-640.02268)">
    <g
       style="display:inline"
       id="g4064"
       transform="translate(-602.447,-1731.8273)">
      <path
         sodipodi:nodetypes="csc"
         inkscape:connector-curvature="0"
         inkscape:original-d="m 1405.9255,2438.415 c 0,0 115.8532,-47.1006 125.9652,-44.5726 10.1119,2.528 34.4607,32.1496 34.4607,32.1496"
         inkscape:path-effect="#path-effect3205-9"
         id="path3203-3"
         d="m 1405.9312,2438.4127 c -0.058,-0.1425 -0.1102,-0.2867 -0.1569,-0.4328 -0.042,-0.1449 -0.077,-0.2922 -0.1054,-0.442 0,0 0,0 0,0 -0.056,-0.2988 -0.084,-0.6072 -0.084,-0.9248 0,0 0,0 0,0 0,0 0,0 0,0 -2e-4,-0.6321 0.1094,-1.3007 0.3241,-2.0027 0,0 0,0 0,0 0.4247,-1.3888 1.2626,-2.9086 2.4804,-4.5351 0,0 0,0 0,0 2.3721,-3.1682 6.1907,-6.7434 11.2182,-10.5455 0,0 0,0 0,0 9.2696,-7.011 22.6663,-14.8134 38.7531,-22.2048 7.8329,-3.6036 16.3521,-7.147 25.4294,-10.3998 6.0683,-2.1745 12.0973,-4.1126 18.0101,-5.7837 5.5528,-1.5773 11.355,-3.0149 17.2455,-4.0246 0,0 0,0 0,0 2.0005,-0.3556 4.4106,-0.7107 7.1585,-0.943 0,0 0,0 0,0 0.9623,-0.093 2.2785,-0.1564 3.9209,-0.155 0.9093,-0.1239 2.9475,0.1094 6.0312,0.76 4.762,1.651 7.731,3.4063 9.297,4.9093 0,0 0,0 0,0 2.67,2.1217 4.735,4.1698 6.3838,6.0554 0,0 0,0 0,0 4.58,5.1771 7.7897,10.0737 10.1861,14.4277 3.0975,5.5721 5.0047,10.4689 5.8291,14.3984 0,0 0,0 0,0 0.4621,2.1986 0.587,4.1039 0.3659,5.6642 0,0 0,0 0,0 -0.1153,0.8136 -0.3231,1.5354 -0.6263,2.1571 0,0 0,0 0,0 0,0 0,0 0,0 -0.1537,0.3175 -0.3322,0.609 -0.5359,0.8733 0,0 0,0 0,0 0,0 0,0 -10e-5,0 -0.3571,0.3423 -0.5341,0.5245 -0.6211,0.6207 -0.086,0.095 -0.084,0.1063 -0.084,0.107 0,0 0,0 0,0 0,0 0,0 0,0 0,0 0,0 0,0 0,0 0,0 0,0 -6e-4,-5e-4 -0.011,-0 -0.121,0.062 -0.111,0.067 -0.3237,0.206 -0.7279,0.4913 0,0 0,0 0,0 0,0 0,0 0,0 -0.2971,0.1513 -0.6142,0.2755 -0.9508,0.3729 0,0 0,0 0,0 0,0 0,0 0,0 -0.6624,0.1895 -1.4005,0.2757 -2.2119,0.2618 0,0 0,0 0,0 -1.556,-0.026 -3.3751,-0.4132 -5.4337,-1.1232 0,0 0,0 0,0 -3.6824,-1.2708 -8.1052,-3.5669 -13.1228,-6.5175 -3.9793,-2.3421 -8.1894,-5.0462 -12.5481,-7.4263 0,0 0,0 0,0 -1.6041,-0.8644 -2.9956,-1.5678 -4.1437,-1.9044 0,0 0,0 0,0 -1.1157,-0.2235 -1.0096,-0.1486 0.5333,0.6976 2.2739,0.4481 3.4625,0.6703 3.5296,0.5709 0.4247,0.037 0.5203,0.1159 0.2615,0.2019 0,0 0,0 0,0 -0.72,0.2767 -1.7917,0.7332 -3.3088,1.2671 0,0 0,0 0,0 -4.2203,1.5474 -8.8336,3.4203 -14.0125,5.3902 -5.382,2.0623 -10.994,4.1578 -16.8054,6.2422 -8.6929,3.1179 -17.2195,5.9845 -25.3938,8.449 -16.6672,5.0254 -31.6218,8.3916 -43.1057,9.6225 0,0 0,0 0,0 -6.2262,0.6672 -11.4247,0.7077 -15.3149,0.06 0,0 0,0 0,0 -1.9972,-0.3325 -3.6482,-0.8469 -4.9157,-1.5509 0,0 0,0 0,0 -0.6408,-0.3558 -1.1831,-0.7603 -1.6225,-1.2142 0,0 0,0 0,0 0,0 0,0 0,0 -0.2209,-0.228 -0.4156,-0.4687 -0.5837,-0.7219 0,0 0,0 0,0 -0.084,-0.1269 -0.1618,-0.257 -0.2325,-0.3903 -0.068,-0.1374 -0.1314,-0.2772 -0.1892,-0.4197 z"
         style="fill:#000000;fill-opacity:1;fill-rule:evenodd;stroke:none" />
      <path
         sodipodi:nodetypes="csc"
         inkscape:connector-curvature="0"
         inkscape:original-d="m 1302.2783,2435.887 c 0,0 -70.8468,-43.462 -88.5427,-43.462 -17.6958,0 -36.222,37.5758 -36.222,37.5758"
         inkscape:path-effect="#path-effect3209-7"
         id="path3207-2"
         d="m 1302.2783,2435.887 c -3.9709,6.8772 -22.7409,3.9661 -46.4735,-6.0119 -9.2125,-3.5778 -18.9625,-7.9754 -28.9033,-12.3881 -0.01,-0 -0.014,-0.01 -0.021,-0.01 -3.8783,-1.7102 -7.2965,-3.2662 -10.3879,-4.4673 0,0 0,0 0,0 -2.8077,-0.7744 -3.5717,-1.5386 -2.7568,-1.4622 0,0 0,0 0,0 1.3058,-0.3747 1.5966,-0.5393 1.1809,-0.7688 0,0 0,0 0,0 -0.5825,-0.1315 -1.6487,0.2921 -3.1015,0.95 0,0 0,0 0,0 -1.8902,0.9033 -3.7876,2.1285 -5.703,3.4775 -1.9153,1.349 -3.8475,2.8213 -5.7718,4.2607 0,0 0,0 0,0 -4.6761,3.5435 -8.8675,6.6876 -12.5464,8.7092 0,0 0,0 0,0 -2.0401,1.1207 -3.9054,1.8839 -5.5905,2.2314 0,0 0,0 0,0 -0.8764,0.1808 -1.7009,0.2431 -2.474,0.1838 0,0 0,0 0,0 0,0 0,0 0,0 -0.8329,-0.2502 -1.3311,-0.3732 -1.6469,-0.4443 0,0 0,0 0,0 0,0 0,0 0,0 -0.2697,-0.09 -0.4122,-0.1271 -0.4869,-0.1415 -0.037,-0.01 -0.058,-0.01 -0.069,-0.01 -0.013,0 -0.013,0 -0.013,0 0,0 0,0 -0.01,-0 -0,-0.017 -0.016,-0.032 -0.044,-0.058 -0.056,-0.051 -0.1716,-0.1431 -0.4052,-0.3052 0,0 0,0 0,0 0,0 0,0 0,0 -0.2441,-0.2141 -0.6357,-0.5489 -1.3271,-1.0773 0,0 0,0 0,0 0,0 0,0 0,0 -0.4949,-0.6061 -0.906,-1.3474 -1.2335,-2.2087 0,0 0,0 0,0 -0.6296,-1.6563 -0.9391,-3.7803 -0.9039,-6.2898 0,0 0,0 0,0 0.059,-4.5169 1.2395,-10.3729 4.0632,-17.1214 0,0 0,0 0,0 1.093,-2.7013 2.5167,-5.6025 4.4222,-8.6444 1.9054,-3.0419 4.2936,-6.2253 7.3403,-9.4368 0,0 0,0 0,0 2.4026,-2.5553 5.6098,-5.165 9.8698,-7.5573 0,0 0,0 0,0 3.6483,-2.1267 8.456,-3.6208 14.4498,-3.9955 0,0 0,0 0,0 6.7437,0.076 11.9149,1.1141 15.0093,2.2714 0,0 0,0 0,0 5.1543,1.4976 9.9926,3.373 14.4355,5.3761 0.01,0 0.017,0.01 0.025,0.011 11.7335,5.2615 21.8521,11.4365 30.2517,17.4632 20.7997,15.7349 32.7922,30.586 28.8213,37.4632 z"
         style="fill:#000000;fill-opacity:1;fill-rule:evenodd;stroke:none" />
      <path
         inkscape:connector-curvature="0"
         inkscape:original-d="m 1230.3991,2398.0863 c 0,0 -29.4946,-13.4066 -34.8572,-21.4506"
         inkscape:path-effect="#path-effect4171"
         id="path4169"
         d="m 1230.3991,2398.0863 c -2.2211,4.4418 -10.799,4.763 -19.9869,1.0356 0,0 0,0 0,0 -1.0436,-0.4646 -2.1009,-0.9925 -3.1603,-1.5866 -3.4928,-1.9589 -6.5673,-4.4117 -8.8686,-6.9943 0,0 0,0 0,0 -1.6881,-1.9004 -3.0596,-3.9977 -3.854,-5.9758 -0.3314,-0.8185 -0.5982,-1.6853 -0.7482,-2.5172 -0.15,-0.8319 -0.1836,-1.628 -0.092,-2.3344 0.1836,-1.4129 0.8781,-2.4282 1.8527,-3.0779 0.9746,-0.6497 2.105,-0.9532 3.2653,-1.1965 0.5801,-0.1216 1.1752,-0.2226 1.8037,-0.2831 0.6285,-0.06 1.2915,-0.08 2.0144,0.01 1.6434,0.1215 3.4417,0.4184 5.4819,1.0484 0,0 0,0 0,0 2.7179,0.8239 5.6575,2.0448 8.7166,3.7635 0.9279,0.5214 1.8306,1.0697 2.7021,1.6427 0,0 0,0 0,0 8.3074,5.0208 13.0942,12.0248 10.8732,16.4666 z"
         style="fill:#000000;fill-rule:evenodd;stroke:none" />
      <path
         inkscape:connector-curvature="0"
         inkscape:original-d="m 1513.7259,2390.9361 c 0,0 29.4946,-9.8315 36.6448,-16.0879"
         inkscape:path-effect="#path-effect4175"
         id="path4173"
         d="m 1513.7259,2390.9361 c -0.053,-0.1568 -0.097,-0.3153 -0.1341,-0.4752 0,0 0,0 0,0 -0.036,-0.1548 -0.064,-0.311 -0.086,-0.4684 0,0 0,0 0,0 -0.043,-0.314 -0.058,-0.633 -0.045,-0.9563 0,0 0,0 0,0 0.024,-0.6426 0.1529,-1.3012 0.3801,-1.9687 0,0 0,0 0,0 0.4485,-1.3179 1.273,-2.6687 2.412,-3.9974 0,0 0,0 0,0 2.1908,-2.5553 5.5183,-5.0166 9.5307,-7.013 0.9709,-0.4836 1.9774,-0.9369 3.0124,-1.3565 3.2028,-1.2986 6.279,-2.123 9.0884,-2.5496 0,0 0,0 0,0 2.1347,-0.3277 4.0247,-0.3686 5.7188,-0.2153 1.5044,0.088 2.725,0.4738 3.8438,0.952 1.1188,0.4783 2.1456,1.0715 2.9235,1.9605 0.7779,0.889 1.1984,2.0428 1.1074,3.4263 -0.091,1.3835 -0.7143,2.9847 -1.5902,4.4585 -1.0516,1.7514 -2.6311,3.5258 -4.5035,5.1129 0,0 0,0 0,0 -2.4685,2.0956 -5.5939,3.9808 -9.0712,5.3912 -1.1238,0.4558 -2.2396,0.8451 -3.3364,1.1719 -4.5738,1.369 -8.9093,1.6891 -12.3098,1.1154 0,0 0,0 0,0 -1.7691,-0.2981 -3.2932,-0.836 -4.4752,-1.5953 0,0 0,0 0,0 -0.5987,-0.3847 -1.1114,-0.8255 -1.5244,-1.3206 0,0 0,0 0,0 -0.2074,-0.249 -0.3902,-0.5116 -0.5465,-0.7874 0,0 0,0 0,0 -0.078,-0.1384 -0.1502,-0.2801 -0.2152,-0.425 0,0 0,0 0,0 -0.067,-0.1499 -0.1272,-0.3032 -0.1798,-0.46 z"
         style="fill:#000000;fill-rule:evenodd;stroke:none" />
    </g>
  </g>
</svg>
