<?xml version="1.0" encoding="UTF-8" standalone="no"?>
<!-- Created with Inkscape (http://www.inkscape.org/) -->

<svg
   xmlns:dc="http://purl.org/dc/elements/1.1/"
   xmlns:cc="http://creativecommons.org/ns#"
   xmlns:rdf="http://www.w3.org/1999/02/22-rdf-syntax-ns#"
   xmlns:svg="http://www.w3.org/2000/svg"
   xmlns="http://www.w3.org/2000/svg"
   xmlns:sodipodi="http://sodipodi.sourceforge.net/DTD/sodipodi-0.dtd"
   xmlns:inkscape="http://www.inkscape.org/namespaces/inkscape"
   width="335.40976"
   height="45.99934"
   id="svg4392"
   version="1.1"
   inkscape:version="0.48.3.1 r9886"
   sodipodi:docname="08.svg">
  <defs
     id="defs4394">
    <inkscape:path-effect
       effect="skeletal"
       id="path-effect4593"
       is_visible="true"
       pattern="m 39.65337,-47.290044 c 0,-2.76 2.24,-5 5,-5 2.76,0 5,2.24 5,5 0,2.76 -2.24,5 -5,5 -2.76,0 -5,-2.24 -5,-5 z"
       copytype="single_stretched"
       prop_scale="5"
       scale_y_rel="false"
       spacing="0"
       normal_offset="0"
       tang_offset="0"
       prop_units="false"
       vertical_pattern="false"
       fuse_tolerance="0" />
    <inkscape:path-effect
       effect="skeletal"
       id="path-effect4597"
       is_visible="true"
       pattern="m 63.897032,-31.127607 c 0,-2.76 2.24,-5 5,-5 2.76,0 5,2.24 5,5 0,2.76 -2.24,5 -5,5 -2.76,0 -5,-2.24 -5,-5 z"
       copytype="single_stretched"
       prop_scale="5"
       scale_y_rel="false"
       spacing="0"
       normal_offset="0"
       tang_offset="0"
       prop_units="false"
       vertical_pattern="false"
       fuse_tolerance="0" />
    <inkscape:path-effect
       effect="skeletal"
       id="path-effect3205-9"
       is_visible="true"
       pattern="m 1328.331,16.398205 c 0,-2.76 2.24,-5 5,-5 2.76,0 5,2.24 5,5 0,2.76 -2.24,5 -5,5 -2.76,0 -5,-2.24 -5,-5 z"
       copytype="single_stretched"
       prop_scale="4"
       scale_y_rel="false"
       spacing="0"
       normal_offset="0"
       tang_offset="0"
       prop_units="false"
       vertical_pattern="false"
       fuse_tolerance="0" />
    <inkscape:path-effect
       effect="skeletal"
       id="path-effect3209-7"
       is_visible="true"
       pattern="m 1328.331,16.398205 c 0,-2.76 2.24,-5 5,-5 2.76,0 5,2.24 5,5 0,2.76 -2.24,5 -5,5 -2.76,0 -5,-2.24 -5,-5 z"
       copytype="single_stretched"
       prop_scale="4"
       scale_y_rel="false"
       spacing="0"
       normal_offset="0"
       tang_offset="0"
       prop_units="false"
       vertical_pattern="false"
       fuse_tolerance="0" />
    <inkscape:path-effect
       effect="skeletal"
       id="path-effect4171"
       is_visible="true"
       pattern="m 68.571429,16.428571 c 0,-2.76 2.24,-5 5,-5 2.76,0 5,2.24 5,5 0,2.76 -2.24,5 -5,5 -2.76,0 -5,-2.24 -5,-5 z"
       copytype="single_stretched"
       prop_scale="2"
       scale_y_rel="false"
       spacing="0"
       normal_offset="0"
       tang_offset="0"
       prop_units="false"
       vertical_pattern="false"
       fuse_tolerance="0" />
    <inkscape:path-effect
       effect="skeletal"
       id="path-effect4175"
       is_visible="true"
       pattern="m 55.714286,19.285714 c 0,-2.76 2.24,-5 5,-5 2.76,0 5,2.24 5,5 0,2.76 -2.24,5 -5,5 -2.76,0 -5,-2.24 -5,-5 z"
       copytype="single_stretched"
       prop_scale="2"
       scale_y_rel="false"
       spacing="0"
       normal_offset="0"
       tang_offset="0"
       prop_units="false"
       vertical_pattern="false"
       fuse_tolerance="0" />
    <inkscape:path-effect
       effect="skeletal"
       id="path-effect3205"
       is_visible="true"
       pattern="m 215.4654,-1736.665 c 0,-2.76 2.24,-5 5,-5 2.76,0 5,2.24 5,5 0,2.76 -2.24,5 -5,5 -2.76,0 -5,-2.24 -5,-5 z"
       copytype="single_stretched"
       prop_scale="4"
       scale_y_rel="false"
       spacing="0"
       normal_offset="0"
       tang_offset="0"
       prop_units="false"
       vertical_pattern="false"
       fuse_tolerance="0" />
    <inkscape:path-effect
       effect="skeletal"
       id="path-effect3209"
       is_visible="true"
       pattern="m 266.89397,-1728.0936 c 0,-2.76 2.24,-5 5,-5 2.76,0 5,2.24 5,5 0,2.76 -2.24,5 -5,5 -2.76,0 -5,-2.24 -5,-5 z"
       copytype="single_stretched"
       prop_scale="4"
       scale_y_rel="false"
       spacing="0"
       normal_offset="0"
       tang_offset="0"
       prop_units="false"
       vertical_pattern="false"
       fuse_tolerance="0" />
  </defs>
  <sodipodi:namedview
     id="base"
     pagecolor="#ffffff"
     bordercolor="#666666"
     borderopacity="1.0"
     inkscape:pageopacity="0.0"
     inkscape:pageshadow="2"
     inkscape:zoom="0.7"
     inkscape:cx="147.45515"
     inkscape:cy="78.052999"
     inkscape:document-units="px"
     inkscape:current-layer="layer1"
     showgrid="false"
     fit-margin-top="0"
     fit-margin-left="0"
     fit-margin-right="0"
     fit-margin-bottom="0"
     inkscape:window-width="560"
     inkscape:window-height="451"
     inkscape:window-x="0"
     inkscape:window-y="25"
     inkscape:window-maximized="0" />
  <metadata
     id="metadata4397">
    <rdf:RDF>
      <cc:Work
         rdf:about="">
        <dc:format>image/svg+xml</dc:format>
        <dc:type
           rdf:resource="http://purl.org/dc/dcmitype/StillImage" />
        <dc:title></dc:title>
      </cc:Work>
    </rdf:RDF>
  </metadata>
  <g
     inkscape:label="Capa 1"
     inkscape:groupmode="layer"
     id="layer1"
     transform="translate(-570.81541,-670.7704)">
    <g
       id="g4806">
      <path
         inkscape:connector-curvature="0"
         inkscape:original-d="m 768.23483,706.4474 c 0,0 109.72673,-21.9313 119.72291,-18.9787 9.99617,2.9526 13.25114,15.7413 13.25114,15.7413"
         inkscape:path-effect="#path-effect3205"
         id="path3203"
         d="m 768.24023,706.44632 c -0.0321,-0.16108 -0.059,-0.32273 -0.0808,-0.48493 -0.0178,-0.15966 -0.0288,-0.32017 -0.0333,-0.48152 0,0 0,0 0,0 -0.009,-0.32206 0.009,-0.64741 0.0522,-0.97575 0,0 0,0 0,-10e-6 0,0 0,0 0,0 0.0867,-0.654 0.27632,-1.31993 0.56417,-1.9953 0,0 0,0 0,0 0.57052,-1.33859 1.5283,-2.71459 2.8379,-4.10899 0,0 0,0 0,0 2.56218,-2.72805 6.47601,-5.52773 11.48264,-8.25624 0,0 0,0 0,0 9.34482,-5.09347 22.5183,-9.95143 37.85737,-13.58957 4.52345,-1.07474 9.25111,-2.05003 14.14322,-2.88719 9.52198,-1.62945 18.80377,-2.57704 27.40083,-2.82658 5.49451,-0.16097 10.99914,-0.0584 16.18791,0.46236 1.92436,0.18966 4.07741,0.44415 6.33168,0.83126 0.83713,0.13859 1.87152,0.32467 3.0618,0.57526 1e-5,0 1e-5,0 1e-5,0 0.73577,0.11592 2.08879,0.46367 3.95702,1.06422 4.9949,2.33292 8.30209,5.51933 10.41076,8.72152 2.44149,3.81129 3.47504,7.19964 3.81154,9.98578 -0.12002,3.11283 -0.61493,5.54743 -1.45759,7.31971 -0.84266,1.77227 -2.03286,2.88272 -3.52297,3.39747 0,0 0,0 0,0 0,0 0,0 0,0 -10e-6,0 -10e-6,0 -10e-6,0 -0.0358,0.0122 -0.0358,0.0122 -0.0358,0.0122 0,0 -3e-5,2e-5 -0.0359,0.0121 0,0 -10e-6,0 -10e-6,0 0,0 0,0 0,0 0,0 0,0 0,0 -1.49835,0.4954 -3.21131,0.37781 -5.03449,-0.15332 -1.82318,-0.53113 -3.75639,-1.4753 -5.71572,-2.68328 -1.57393,-0.51177 -3.10388,-0.87191 -4.35879,-0.54475 -1.13886,0.14116 -2.03475,0.50028 -2.15151,1.32335 1.08349,0.36876 1.60975,0.61279 1.51162,0.6536 0,0 0,0 0,0 0.0327,0.14631 -0.11435,0.30183 -0.47531,0.43901 -0.97329,0.38333 -2.17274,0.84629 -3.71095,1.31339 -4.01611,1.25831 -8.50485,2.63684 -13.62418,3.96522 -7.86546,2.06051 -16.54238,3.97427 -25.80019,5.55976 -4.75639,0.81458 -9.44333,1.50157 -14.01293,2.04803 -15.39359,1.84118 -29.26575,2.11594 -39.76405,0.84149 0,0 0,0 0,0 -5.62255,-0.68281 -10.27053,-1.80887 -13.65976,-3.36649 0,0 0,0 0,0 -1.73237,-0.79614 -3.13456,-1.70525 -4.16942,-2.72539 0,0 0,0 0,0 -0.52213,-0.51469 -0.95038,-1.05772 -1.28018,-1.62879 0,0 0,0 0,0 0,0 0,0 0,0 -0.16563,-0.2867 -0.30634,-0.58049 -0.42157,-0.88132 0,0 0,0 0,0 -0.0577,-0.15072 -0.10904,-0.3032 -0.15387,-0.45745 -0.0422,-0.15812 -0.0793,-0.31772 -0.11148,-0.4788 z"
         style="fill:#9e6c2b;fill-opacity:1;fill-rule:evenodd;stroke:none" />
      <path
         inkscape:connector-curvature="0"
         inkscape:original-d="m 698.07782,705.9326 c 0,0 -77.85896,-17.0851 -95.54037,-16.3685 -17.68124,0.7166 -28.1777,22.6474 -28.1777,22.6474"
         inkscape:path-effect="#path-effect3209"
         id="path3207"
         d="m 698.07781,705.9326 c -1.68545,8.20304 -20.12514,11.74167 -44.77292,9.71687 -7.78429,-0.53455 -16.114,-1.56866 -24.66848,-2.98581 -2.28414,-0.37839 -4.52954,-0.77462 -6.73284,-1.18498 -4.3641,-0.80979 -8.40599,-1.66247 -12.16442,-2.45547 -3.06351,-0.5618 -5.11503,-1.1913 -6.47406,-1.5053 0,0 0,0 0,0 -0.61298,-0.80206 -2.32793,-0.94459 -4.35809,-0.87525 -2.27114,-0.0719 -4.92505,0.78955 -7.61999,1.75827 -3.3818,2.03856 -6.62224,3.51935 -9.51795,4.24062 -2.89572,0.72128 -5.44599,0.68196 -7.38439,-0.41582 0,0 0,0 0,0 -0.0249,-0.0142 -0.0249,-0.0142 -0.0249,-0.0142 0,0 -2e-5,10e-6 -0.0249,-0.0143 0,0 0,0 0,0 -1.92652,-1.11538 -3.08271,-3.22042 -3.41727,-6.29421 -0.33457,-3.07379 0.15321,-7.1174 1.45157,-12.01381 1.77212,-4.17717 4.83375,-8.98416 10.08894,-13.73058 4.5489,-4.01683 10.96048,-7.38133 19.3517,-8.54832 0,0 0,0 10e-6,0 4.54,-0.55308 8.63291,-0.60748 11.88465,-0.51062 4.73858,0.0932 9.52498,0.47589 14.23964,1.05849 2.41164,0.29743 4.84623,0.64964 7.2952,1.05583 9.17177,1.52128 17.70177,3.65464 25.31494,6.09054 23.61299,7.89116 39.21902,18.42503 37.53357,26.62807 z"
         style="fill:#9e6c2b;fill-opacity:1;fill-rule:evenodd;stroke:none" />
    </g>
  </g>
</svg>
