<?xml version="1.0" encoding="UTF-8" standalone="no"?>
<!-- Created with Inkscape (http://www.inkscape.org/) -->

<svg
   xmlns:dc="http://purl.org/dc/elements/1.1/"
   xmlns:cc="http://creativecommons.org/ns#"
   xmlns:rdf="http://www.w3.org/1999/02/22-rdf-syntax-ns#"
   xmlns:svg="http://www.w3.org/2000/svg"
   xmlns="http://www.w3.org/2000/svg"
   xmlns:sodipodi="http://sodipodi.sourceforge.net/DTD/sodipodi-0.dtd"
   xmlns:inkscape="http://www.inkscape.org/namespaces/inkscape"
   width="485.38864"
   height="87.549904"
   id="svg4392"
   version="1.1"
   inkscape:version="0.48.3.1 r9886"
   sodipodi:docname="09.svg">
  <defs
     id="defs4394">
    <inkscape:path-effect
       effect="skeletal"
       id="path-effect4593"
       is_visible="true"
       pattern="m 39.65337,-47.290044 c 0,-2.76 2.24,-5 5,-5 2.76,0 5,2.24 5,5 0,2.76 -2.24,5 -5,5 -2.76,0 -5,-2.24 -5,-5 z"
       copytype="single_stretched"
       prop_scale="5"
       scale_y_rel="false"
       spacing="0"
       normal_offset="0"
       tang_offset="0"
       prop_units="false"
       vertical_pattern="false"
       fuse_tolerance="0" />
    <inkscape:path-effect
       effect="skeletal"
       id="path-effect4597"
       is_visible="true"
       pattern="m 63.897032,-31.127607 c 0,-2.76 2.24,-5 5,-5 2.76,0 5,2.24 5,5 0,2.76 -2.24,5 -5,5 -2.76,0 -5,-2.24 -5,-5 z"
       copytype="single_stretched"
       prop_scale="5"
       scale_y_rel="false"
       spacing="0"
       normal_offset="0"
       tang_offset="0"
       prop_units="false"
       vertical_pattern="false"
       fuse_tolerance="0" />
    <inkscape:path-effect
       effect="skeletal"
       id="path-effect3205-9"
       is_visible="true"
       pattern="m 1328.331,16.398205 c 0,-2.76 2.24,-5 5,-5 2.76,0 5,2.24 5,5 0,2.76 -2.24,5 -5,5 -2.76,0 -5,-2.24 -5,-5 z"
       copytype="single_stretched"
       prop_scale="4"
       scale_y_rel="false"
       spacing="0"
       normal_offset="0"
       tang_offset="0"
       prop_units="false"
       vertical_pattern="false"
       fuse_tolerance="0" />
    <inkscape:path-effect
       effect="skeletal"
       id="path-effect3209-7"
       is_visible="true"
       pattern="m 1328.331,16.398205 c 0,-2.76 2.24,-5 5,-5 2.76,0 5,2.24 5,5 0,2.76 -2.24,5 -5,5 -2.76,0 -5,-2.24 -5,-5 z"
       copytype="single_stretched"
       prop_scale="4"
       scale_y_rel="false"
       spacing="0"
       normal_offset="0"
       tang_offset="0"
       prop_units="false"
       vertical_pattern="false"
       fuse_tolerance="0" />
    <inkscape:path-effect
       effect="skeletal"
       id="path-effect4171"
       is_visible="true"
       pattern="m 68.571429,16.428571 c 0,-2.76 2.24,-5 5,-5 2.76,0 5,2.24 5,5 0,2.76 -2.24,5 -5,5 -2.76,0 -5,-2.24 -5,-5 z"
       copytype="single_stretched"
       prop_scale="2"
       scale_y_rel="false"
       spacing="0"
       normal_offset="0"
       tang_offset="0"
       prop_units="false"
       vertical_pattern="false"
       fuse_tolerance="0" />
    <inkscape:path-effect
       effect="skeletal"
       id="path-effect4175"
       is_visible="true"
       pattern="m 55.714286,19.285714 c 0,-2.76 2.24,-5 5,-5 2.76,0 5,2.24 5,5 0,2.76 -2.24,5 -5,5 -2.76,0 -5,-2.24 -5,-5 z"
       copytype="single_stretched"
       prop_scale="2"
       scale_y_rel="false"
       spacing="0"
       normal_offset="0"
       tang_offset="0"
       prop_units="false"
       vertical_pattern="false"
       fuse_tolerance="0" />
    <inkscape:path-effect
       effect="skeletal"
       id="path-effect3205"
       is_visible="true"
       pattern="m 215.4654,-1736.665 c 0,-2.76 2.24,-5 5,-5 2.76,0 5,2.24 5,5 0,2.76 -2.24,5 -5,5 -2.76,0 -5,-2.24 -5,-5 z"
       copytype="single_stretched"
       prop_scale="4"
       scale_y_rel="false"
       spacing="0"
       normal_offset="0"
       tang_offset="0"
       prop_units="false"
       vertical_pattern="false"
       fuse_tolerance="0" />
    <inkscape:path-effect
       effect="skeletal"
       id="path-effect3209"
       is_visible="true"
       pattern="m 266.89397,-1728.0936 c 0,-2.76 2.24,-5 5,-5 2.76,0 5,2.24 5,5 0,2.76 -2.24,5 -5,5 -2.76,0 -5,-2.24 -5,-5 z"
       copytype="single_stretched"
       prop_scale="4"
       scale_y_rel="false"
       spacing="0"
       normal_offset="0"
       tang_offset="0"
       prop_units="false"
       vertical_pattern="false"
       fuse_tolerance="0" />
    <inkscape:path-effect
       effect="skeletal"
       id="path-effect3205-9-7"
       is_visible="true"
       pattern="m -2874.1605,-1709.0023 c 0,-2.76 2.24,-5 5,-5 2.76,0 5,2.24 5,5 0,2.76 -2.24,5 -5,5 -2.76,0 -5,-2.24 -5,-5 z"
       copytype="single_stretched"
       prop_scale="5"
       scale_y_rel="false"
       spacing="0"
       normal_offset="0"
       tang_offset="0"
       prop_units="false"
       vertical_pattern="false"
       fuse_tolerance="0" />
    <inkscape:path-effect
       effect="skeletal"
       id="path-effect3209-7-5"
       is_visible="true"
       pattern="m -2924.017,-1738.8587 c 0,-2.76 2.24,-5 5,-5 2.76,0 5,2.24 5,5 0,2.76 -2.24,5 -5,5 -2.76,0 -5,-2.24 -5,-5 z"
       copytype="single_stretched"
       prop_scale="5"
       scale_y_rel="false"
       spacing="0"
       normal_offset="0"
       tang_offset="0"
       prop_units="false"
       vertical_pattern="false"
       fuse_tolerance="0" />
  </defs>
  <sodipodi:namedview
     id="base"
     pagecolor="#ffffff"
     bordercolor="#666666"
     borderopacity="1.0"
     inkscape:pageopacity="0.0"
     inkscape:pageshadow="2"
     inkscape:zoom="0.7"
     inkscape:cx="201.578"
     inkscape:cy="51.827949"
     inkscape:document-units="px"
     inkscape:current-layer="layer1"
     showgrid="false"
     fit-margin-top="0"
     fit-margin-left="0"
     fit-margin-right="0"
     fit-margin-bottom="0"
     inkscape:window-width="560"
     inkscape:window-height="451"
     inkscape:window-x="0"
     inkscape:window-y="25"
     inkscape:window-maximized="0" />
  <metadata
     id="metadata4397">
    <rdf:RDF>
      <cc:Work
         rdf:about="">
        <dc:format>image/svg+xml</dc:format>
        <dc:type
           rdf:resource="http://purl.org/dc/dcmitype/StillImage" />
        <dc:title></dc:title>
      </cc:Work>
    </rdf:RDF>
  </metadata>
  <g
     inkscape:label="Capa 1"
     inkscape:groupmode="layer"
     id="layer1"
     transform="translate(-516.69256,-602.99479)">
    <g
       transform="translate(1714.8566,-11.104249)"
       id="g4829">
      <path
         sodipodi:nodetypes="cssc"
         inkscape:connector-curvature="0"
         inkscape:original-d="m -923.76116,646.41131 c 0,0 82.3564,-5.4673 128.2368,-5.6523 45.8804,-0.1851 53.4972,19.2123 58.5531,20.4763 10.112,2.528 14.02,39.3633 14.02,39.3633"
         inkscape:path-effect="#path-effect3205-9-7"
         id="path3203-3-5"
         d="m -923.76115,646.41131 c -0.009,-0.13788 -0.0129,-0.27584 -0.0115,-0.41389 0.001,-0.1345 0.008,-0.26908 0.0192,-0.40373 0,0 0,0 0,0 0.0227,-0.2687 0.0651,-0.53766 0.12705,-0.80677 0,0 0,0 0,0 0,0 0,0 0,0 0.1234,-0.53602 0.32426,-1.07267 0.60002,-1.60919 0,0 0,0 0,0 0,0 0,0 0,0 0.54679,-1.06382 1.38908,-2.12718 2.50794,-3.18416 0,0 0,0 0,0 2.19408,-2.07273 5.45536,-4.12126 9.64547,-6.10046 0,0 0,0 0,0 7.94946,-3.75499 19.25369,-7.26392 32.98728,-10.19804 0,0 0,0 0,0 12.27362,-2.62276 26.50888,-4.79323 42.05643,-6.20711 9.24473,-0.8437 19.02094,-1.43335 29.19664,-1.60829 3.69735,-0.0636 7.3698,-0.0706 11.00787,-0.0188 9.40731,-0.22924 19.35697,0.86861 28.96248,3.51278 9.6055,2.64418 18.85606,6.83148 27.02213,12.33045 4.86402,3.54255 8.6705,7.25784 11.69683,10.88173 0,0 0,0 0,0 1.08426,1.25127 1.5299,1.99624 1.52628,2.2207 0,0 0,0 0,0 0.65305,0.0241 -1.44613,-0.67481 -5.86434,-2.33046 0,0 0,0 0,0 7.06284,2.72798 11.15777,5.93685 12.87112,9.07774 0,0 0,0 0,0 2.6012,3.79176 3.98794,6.96075 4.62952,9.50149 0,0 0,0 0,0 1.01728,3.62795 1.55683,6.88584 1.81403,9.81532 0.25721,2.92948 0.23182,5.53129 0.0613,7.85856 0,0 0,0 0,0 0,0 0,0 0,10e-6 0,0 0,0 0,0 -0.35827,6.32829 -1.53899,11.29721 -3.09593,14.90054 0,0 0,0 0,0 -0.88914,2.06388 -1.91022,3.6957 -3.03127,4.85751 0,0 0,0 0,0 -0.58973,0.6111 -1.20689,1.09675 -1.84844,1.44801 0,0 0,0 0,0 0,0 0,0 0,0 -0.32785,0.1816 -0.6621,0.32792 -1.00241,0.43774 0,0 0,0 0,0 0,0 -1e-5,0 -1e-5,0 -0.52488,0.0928 -0.79263,0.14893 -0.92833,0.18196 -0.13457,0.0328 -0.13929,0.0429 -0.13943,0.0436 0,0 0,0 0,0 -1e-5,3e-5 -1e-5,2e-5 -1e-5,2e-5 0,0 0,10e-6 -10e-6,-2e-5 0,0 0,0 0,0 -3e-4,-7e-4 -0.007,-0.01 -0.1455,-0.0128 -0.13962,-0.003 -0.41323,-7.6e-4 -0.94595,0.0211 0,0 0,0 -10e-6,0 0,0 0,0 0,0 -0.35581,-0.0305 -0.71333,-0.0921 -1.0727,-0.18447 0,0 0,0 0,0 0,0 0,0 0,0 -0.70319,-0.18454 -1.41349,-0.48751 -2.1322,-0.90698 0,0 0,0 0,0 -1.36625,-0.79729 -2.76052,-1.99934 -4.19503,-3.56627 0,0 0,0 0,0 -2.51045,-2.74459 -5.11388,-6.57849 -7.99648,-10.97412 0,0 0,0 0,0 0,0 -1e-5,0 -1e-5,0 -1.11827,-1.69901 -2.22491,-3.4119 -3.34565,-4.9908 -1.12074,-1.57891 -2.25483,-3.02364 -3.46854,-4.14516 0,0 0,0 0,0 -0.9073,-0.7566 -1.33751,-0.93829 -1.27046,-0.0912 0,0 0,0 0,0 -0.127,1.00239 1.65489,2.23248 5.86268,4.2467 0,0 0,0 0,0 -5.98623,-2.04767 -9.41959,-3.7982 -10.03582,-4.83114 0,0 0,0 0,0 -1.87943,-1.33763 -3.20439,-2.33306 -3.96213,-2.79602 0,0 0,0 0,0 -2.38416,-1.4113 -4.59545,-2.58082 -6.57801,-3.164 -3.75322,-1.68354 -8.35504,-2.5551 -13.90616,-2.97802 -5.55111,-0.42292 -12.05628,-0.40608 -19.2807,-0.56822 -3.39626,0.0802 -6.84649,0.15316 -10.34629,0.21375 -9.63202,0.16674 -19.08958,0.22654 -28.21761,0.0809 -15.26892,-0.24297 -29.43062,-1.01733 -41.79036,-2.33953 0,0 0,0 0,0 -13.82461,-1.47912 -25.36806,-3.63672 -33.6703,-6.39899 0,0 0,0 0,0 -4.37593,-1.45595 -7.84815,-3.07934 -10.27875,-4.85611 0,0 0,0 0,0 -1.23949,-0.90606 -2.20715,-1.85204 -2.88527,-2.83594 0,0 0,0 0,0 0,0 0,0 0,0 -0.342,-0.49621 -0.61009,-1.00208 -0.80214,-1.51734 0,0 0,0 0,0 0,0 0,0 0,0 -0.0965,-0.25869 -0.17368,-0.51974 -0.2314,-0.78313 0,0 0,0 0,0 -0.0289,-0.13198 -0.0529,-0.26455 -0.072,-0.3977 -0.0196,-0.13665 -0.034,-0.27392 -0.0431,-0.41179 z"
         style="fill:#000000;fill-opacity:1;fill-rule:evenodd;stroke:none;display:inline" />
      <path
         sodipodi:nodetypes="cssc"
         inkscape:connector-curvature="0"
         inkscape:original-d="m -1003.0448,646.23551 c 0,0 -43.3889,2.3615 -76.4228,-2.143 -33.034,-4.5045 -75.7834,-7.154 -84.3098,-4.7904 -31.885,8.8396 -1.7613,61.6814 -1.7613,61.6814"
         inkscape:path-effect="#path-effect3209-7-5"
         id="path3207-2-6"
         d="m -1003.0448,646.23551 c 0.1423,5.9546 -9.4281,11.65672 -25.6389,16.34024 0,0 0,0 0,0 -6.7177,1.77308 -14.6569,3.27908 -23.7005,4.21135 -9.0435,0.93226 -19.1976,1.2887 -30.2601,0.60217 -11.9037,-0.65155 -24.6781,-1.51146 -38.0018,-2.52657 -3.9228,-0.29887 -7.7991,-0.6046 -11.6203,-0.91774 -6.9108,-0.5565 -13.3397,-1.14237 -19.3289,-1.54817 -2.2558,-0.14467 -4.1806,-0.2964 -5.8122,-0.36596 0,0 0,0 0,0 -1.5253,0.11693 -1.5659,-0.17 -0.2157,-0.52898 -0.4477,0.0239 -0.4825,-0.72033 0.3279,-1.73059 0.4785,-1.31148 0.3238,-1.71478 -0.2432,-1.75544 -0.7375,0.2636 -1.2619,1.63322 -1.8386,3.56287 -0.6112,2.30818 -0.8566,5.01845 -1.0187,7.85234 -0.2106,3.46406 -0.2191,6.8534 -0.2379,10.04071 -0.019,3.18732 -0.047,6.17177 -0.2191,8.84339 -0.1484,6.45331 -1.5924,11.00038 -4.6706,12.66018 0,0 0,0 0,0 0,0 0,0 0,0 0,0 0,0 0,0 0,0 0,0 0,0 0,10e-6 0,10e-6 0,10e-6 0,0 0,0 0,0 -0.015,0.008 -0.015,0.008 -0.015,0.008 0,0 0,10e-6 -0.015,0.008 0,0 0,10e-6 0,10e-6 0,0 0,0 0,0 0,0 0,0 0,0 0,0 0,0 0,0 0,0 0,10e-6 0,10e-6 0,0 0,0 0,0 -3.0881,1.64003 -7.536,0.19455 -13.0993,-4.15423 -2.2658,-1.91229 -4.6761,-4.41717 -7.0985,-7.60958 -2.4225,-3.1924 -4.8586,-7.07354 -7.0881,-11.76714 -1.7953,-3.76491 -3.4126,-8.24689 -4.4773,-13.65067 -0.9551,-4.50289 -1.2312,-9.97607 -0.1498,-16.49802 1.0095,-5.9215 3.7507,-12.14661 8.7508,-18.10625 5.6451,-5.98024 12.1573,-10.16585 18.7846,-12.10343 4.38,-1.19888 7.5363,-1.73428 9.2159,-1.84404 0,0 0,0 0,0 3.2241,-0.41301 6.2467,-0.65848 9.0064,-0.81507 7.447,-0.43775 14.9563,-0.42577 22.35,-0.14468 4.115,0.15157 8.2897,0.38554 12.5102,0.70685 14.335,1.09135 28.0232,3.10944 40.5582,5.79032 8.7955,2.02131 17.3624,3.6883 25.3515,5.32943 7.9891,1.64113 15.3945,3.25609 21.8517,5.00552 0,0 0,0 0,10e-6 16.1039,3.91105 25.9005,9.1502 26.0429,15.1048 z"
         style="fill:#000000;fill-opacity:1;fill-rule:evenodd;stroke:none;display:inline" />
    </g>
  </g>
</svg>
