<?xml version="1.0" encoding="UTF-8" standalone="no"?>
<!-- Created with Inkscape (http://www.inkscape.org/) -->

<svg
   xmlns:dc="http://purl.org/dc/elements/1.1/"
   xmlns:cc="http://creativecommons.org/ns#"
   xmlns:rdf="http://www.w3.org/1999/02/22-rdf-syntax-ns#"
   xmlns:svg="http://www.w3.org/2000/svg"
   xmlns="http://www.w3.org/2000/svg"
   xmlns:sodipodi="http://sodipodi.sourceforge.net/DTD/sodipodi-0.dtd"
   xmlns:inkscape="http://www.inkscape.org/namespaces/inkscape"
   width="7.0610676mm"
   height="4.7073784mm"
   viewBox="0 0 25.019531 16.679685"
   id="svg8346"
   version="1.1"
   inkscape:version="0.91 r13725"
   sodipodi:docname="barba-PIX7.svg">
  <defs
     id="defs8348" />
  <sodipodi:namedview
     id="base"
     pagecolor="#ffffff"
     bordercolor="#666666"
     borderopacity="1.0"
     inkscape:pageopacity="0.0"
     inkscape:pageshadow="2"
     inkscape:zoom="6.8381774"
     inkscape:cx="27.204575"
     inkscape:cy="5.5900125"
     inkscape:document-units="px"
     inkscape:current-layer="layer1"
     showgrid="false"
     fit-margin-top="0"
     fit-margin-left="0"
     fit-margin-right="0"
     fit-margin-bottom="0"
     inkscape:window-width="1914"
     inkscape:window-height="1030"
     inkscape:window-x="0"
     inkscape:window-y="26"
     inkscape:window-maximized="1"
     showguides="true"
     inkscape:guide-bbox="true"
     inkscape:snap-global="false"
     inkscape:snap-bbox="true"
     inkscape:bbox-paths="true"
     inkscape:bbox-nodes="true"
     inkscape:snap-bbox-edge-midpoints="true"
     inkscape:snap-bbox-midpoints="true">
    <sodipodi:guide
       position="-30.752635,-97.471893"
       orientation="0,1"
       id="guide4791" />
  </sodipodi:namedview>
  <metadata
     id="metadata8351">
    <rdf:RDF>
      <cc:Work
         rdf:about="">
        <dc:format>image/svg+xml</dc:format>
        <dc:type
           rdf:resource="http://purl.org/dc/dcmitype/StillImage" />
        <dc:title></dc:title>
      </cc:Work>
    </rdf:RDF>
  </metadata>
  <g
     inkscape:label="Capa 1"
     inkscape:groupmode="layer"
     id="layer1"
     transform="translate(-421.21929,-362.88369)">
    <path
       style="opacity:1;fill:#4d4d4d;fill-opacity:1;stroke:none;stroke-width:0.97100002;stroke-linecap:round;stroke-linejoin:round;stroke-miterlimit:4;stroke-dasharray:none;stroke-opacity:1"
       d="m 3.3203125,-3.015625 0,2.08398438 0,2.08593752 0,2.0839843 0,2.0859376 2.0859375,0 0,2.0839843 2.0839844,0 0,2.0859375 2.0859375,0 0,2.0839844 2.0839841,0 0,2.085937 2.085938,0 2.083984,0 2.085938,0 0,-2.085937 2.083984,0 0,-2.0839844 2.083984,0 0,-2.0859375 2.085938,0 0,-2.0839843 2.083984,0 0,-2.0859376 2.085938,0 0,-2.0839843 0,-2.08593752 0,-2.08398438 -2.085938,0 0,2.08398438 0,2.08593752 -2.083984,0 0,-2.08593752 -2.085938,0 -2.083984,0 -2.083984,0 -2.085938,0 -2.083984,0 -2.085938,0 -2.0839841,0 -2.0859375,0 0,2.08593752 -2.0839844,0 0,-2.08593752 0,-2.08398438 -2.0859375,0 z m 6.2558594,6.2539062 2.0839841,0 2.085938,0 2.083984,0 2.085938,0 2.083984,0 0,2.0859376 -2.083984,0 -2.085938,0 -2.083984,0 -2.085938,0 -2.0839841,0 0,-2.0859376 z"
       transform="translate(417.89898,365.89931)"
       id="rect9025-4-2"
       inkscape:connector-curvature="0" />
  </g>
</svg>
