<?xml version="1.0" encoding="UTF-8" standalone="no"?>
<!-- Created with Inkscape (http://www.inkscape.org/) -->

<svg
   xmlns:dc="http://purl.org/dc/elements/1.1/"
   xmlns:cc="http://creativecommons.org/ns#"
   xmlns:rdf="http://www.w3.org/1999/02/22-rdf-syntax-ns#"
   xmlns:svg="http://www.w3.org/2000/svg"
   xmlns="http://www.w3.org/2000/svg"
   xmlns:sodipodi="http://sodipodi.sourceforge.net/DTD/sodipodi-0.dtd"
   xmlns:inkscape="http://www.inkscape.org/namespaces/inkscape"
   width="36.233414mm"
   height="9.6622438mm"
   viewBox="0 0 128.38611 34.236299"
   id="svg8346"
   version="1.1"
   inkscape:version="0.91 r13725"
   sodipodi:docname="accesorios-PIX2.svg">
  <defs
     id="defs8348" />
  <sodipodi:namedview
     id="base"
     pagecolor="#ffffff"
     bordercolor="#666666"
     borderopacity="1.0"
     inkscape:pageopacity="0.0"
     inkscape:pageshadow="2"
     inkscape:zoom="7.1657969"
     inkscape:cx="84.345486"
     inkscape:cy="3.2156644"
     inkscape:document-units="px"
     inkscape:current-layer="layer1"
     showgrid="false"
     fit-margin-top="0"
     fit-margin-left="0"
     fit-margin-right="0"
     fit-margin-bottom="0"
     inkscape:window-width="1914"
     inkscape:window-height="1030"
     inkscape:window-x="0"
     inkscape:window-y="26"
     inkscape:window-maximized="1" />
  <metadata
     id="metadata8351">
    <rdf:RDF>
      <cc:Work
         rdf:about="">
        <dc:format>image/svg+xml</dc:format>
        <dc:type
           rdf:resource="http://purl.org/dc/dcmitype/StillImage" />
        <dc:title></dc:title>
      </cc:Work>
    </rdf:RDF>
  </metadata>
  <g
     inkscape:label="Capa 1"
     inkscape:groupmode="layer"
     id="layer1"
     transform="translate(-354.3261,-382.49539)">
    <g
       id="g5219">
      <path
         id="rect9339-03"
         transform="translate(354.3261,382.49539)"
         d="M 0 0 L 0 4.2792969 L 4.2792969 4.2792969 L 4.2792969 0 L 0 0 z M 4.2792969 4.2792969 L 4.2792969 8.5585938 L 8.5585938 8.5585938 L 8.5585938 12.837891 L 8.5585938 17.117188 L 8.5585938 21.398438 L 8.5585938 21.619141 L 12.837891 21.619141 L 12.837891 25.677734 L 17.117188 25.677734 L 17.117188 29.957031 L 21.398438 29.957031 L 21.398438 34.236328 L 25.677734 34.236328 L 29.957031 34.236328 L 34.236328 34.236328 L 38.515625 34.236328 L 42.794922 34.236328 L 42.794922 29.957031 L 44.869141 29.957031 L 47.074219 29.957031 L 47.074219 25.677734 L 48.1875 25.677734 L 51.353516 25.677734 L 51.353516 21.619141 L 51.84375 21.619141 L 51.84375 21.398438 L 55.634766 21.398438 L 55.634766 17.117188 L 55.634766 12.837891 L 55.634766 8.5585938 L 72.751953 8.5585938 L 72.751953 12.837891 L 72.751953 17.117188 L 72.751953 21.398438 L 72.751953 21.619141 L 77.03125 21.619141 L 77.03125 25.677734 L 81.310547 25.677734 L 81.310547 29.957031 L 85.589844 29.957031 L 85.589844 34.236328 L 89.871094 34.236328 L 94.150391 34.236328 L 98.429688 34.236328 L 102.70898 34.236328 L 106.98828 34.236328 L 106.98828 29.957031 L 109.06055 29.957031 L 111.26758 29.957031 L 111.26758 25.677734 L 112.88672 25.677734 L 115.54688 25.677734 L 115.54688 21.619141 L 116.375 21.619141 L 116.375 21.398438 L 119.82617 21.398438 L 119.82617 17.117188 L 119.82617 12.837891 L 119.82617 8.5585938 L 124.10742 8.5585938 L 124.10742 4.2792969 L 119.82617 4.2792969 L 115.54688 4.2792969 L 111.26758 4.2792969 L 81.310547 4.2792969 L 77.03125 4.2792969 L 51.353516 4.2792969 L 47.074219 4.2792969 L 17.117188 4.2792969 L 12.837891 4.2792969 L 8.5585938 4.2792969 L 4.2792969 4.2792969 z M 124.10742 4.2792969 L 128.38672 4.2792969 L 128.38672 0 L 124.10742 0 L 124.10742 4.2792969 z "
         style="opacity:1;fill:#000000;fill-opacity:1;stroke:none;stroke-width:0.97100002;stroke-linecap:round;stroke-linejoin:round;stroke-miterlimit:4;stroke-dasharray:none;stroke-opacity:1" />
      <rect
         y="399.61353"
         x="461.31454"
         height="4.2795377"
         width="4.2795377"
         id="rect9339-0-2-4-5-0"
         style="opacity:1;fill:#ffffff;fill-opacity:1;stroke:none;stroke-width:0.97100002;stroke-linecap:round;stroke-linejoin:round;stroke-miterlimit:4;stroke-dasharray:none;stroke-opacity:1" />
      <rect
         y="403.89307"
         x="457.035"
         height="4.2795377"
         width="4.2795377"
         id="rect9339-0-2-4-5-8"
         style="opacity:1;fill:#ffffff;fill-opacity:1;stroke:none;stroke-width:0.97100002;stroke-linecap:round;stroke-linejoin:round;stroke-miterlimit:4;stroke-dasharray:none;stroke-opacity:1" />
      <rect
         y="395.33398"
         x="465.59409"
         height="4.2795377"
         width="4.2795377"
         id="rect9339-0-2-4-5-2"
         style="opacity:1;fill:#ffffff;fill-opacity:1;stroke:none;stroke-width:0.97100002;stroke-linecap:round;stroke-linejoin:round;stroke-miterlimit:4;stroke-dasharray:none;stroke-opacity:1" />
      <rect
         y="403.89307"
         x="375.72379"
         height="4.2795377"
         width="4.2795377"
         id="rect9339-0-2-4-5-8-5"
         style="opacity:1;fill:#ffffff;fill-opacity:1;stroke:none;stroke-width:0.97100002;stroke-linecap:round;stroke-linejoin:round;stroke-miterlimit:4;stroke-dasharray:none;stroke-opacity:1" />
      <rect
         y="399.61353"
         x="371.44424"
         height="4.2795377"
         width="4.2795377"
         id="rect9339-0-2-4-5-8-7"
         style="opacity:1;fill:#ffffff;fill-opacity:1;stroke:none;stroke-width:0.97100002;stroke-linecap:round;stroke-linejoin:round;stroke-miterlimit:4;stroke-dasharray:none;stroke-opacity:1" />
      <rect
         y="395.33398"
         x="367.1647"
         height="4.2795377"
         width="4.2795377"
         id="rect9339-0-2-4-5-8-0"
         style="opacity:1;fill:#ffffff;fill-opacity:1;stroke:none;stroke-width:0.97100002;stroke-linecap:round;stroke-linejoin:round;stroke-miterlimit:4;stroke-dasharray:none;stroke-opacity:1" />
    </g>
  </g>
</svg>
