<?xml version="1.0" encoding="UTF-8" standalone="no"?>
<!-- Created with Inkscape (http://www.inkscape.org/) -->

<svg
   xmlns:dc="http://purl.org/dc/elements/1.1/"
   xmlns:cc="http://creativecommons.org/ns#"
   xmlns:rdf="http://www.w3.org/1999/02/22-rdf-syntax-ns#"
   xmlns:svg="http://www.w3.org/2000/svg"
   xmlns="http://www.w3.org/2000/svg"
   xmlns:sodipodi="http://sodipodi.sourceforge.net/DTD/sodipodi-0.dtd"
   xmlns:inkscape="http://www.inkscape.org/namespaces/inkscape"
   width="36.349049mm"
   height="11.359077mm"
   viewBox="0 0 128.79584 40.248702"
   id="svg8346"
   version="1.1"
   inkscape:version="0.91 r13725"
   sodipodi:docname="accesorios-PIX1.svg">
  <defs
     id="defs8348" />
  <sodipodi:namedview
     id="base"
     pagecolor="#ffffff"
     bordercolor="#666666"
     borderopacity="1.0"
     inkscape:pageopacity="0.0"
     inkscape:pageshadow="2"
     inkscape:zoom="3.3397052"
     inkscape:cx="146.5402"
     inkscape:cy="-11.740497"
     inkscape:document-units="px"
     inkscape:current-layer="layer1"
     showgrid="false"
     fit-margin-top="0"
     fit-margin-left="0"
     fit-margin-right="0"
     fit-margin-bottom="0"
     inkscape:window-width="1914"
     inkscape:window-height="1030"
     inkscape:window-x="0"
     inkscape:window-y="26"
     inkscape:window-maximized="1" />
  <metadata
     id="metadata8351">
    <rdf:RDF>
      <cc:Work
         rdf:about="">
        <dc:format>image/svg+xml</dc:format>
        <dc:type
           rdf:resource="http://purl.org/dc/dcmitype/StillImage" />
        <dc:title />
      </cc:Work>
    </rdf:RDF>
  </metadata>
  <g
     inkscape:label="Capa 1"
     inkscape:groupmode="layer"
     id="layer1"
     transform="translate(-354.06175,-382.6847)">
    <path
       style="opacity:1;fill:#000000;fill-opacity:1;stroke:none;stroke-width:0.97100002;stroke-linecap:round;stroke-linejoin:round;stroke-miterlimit:4;stroke-dasharray:none;stroke-opacity:1"
       d="M 0 0 L 0 4.0253906 L 0 8.0488281 L 4.0253906 8.0488281 L 4.0253906 4.0253906 L 4.0253906 0 L 0 0 z M 4.0253906 8.0488281 L 4.0253906 12.074219 L 8.0488281 12.074219 L 8.0488281 8.0488281 L 4.0253906 8.0488281 z M 8.0488281 12.074219 L 8.0488281 16.099609 L 12.074219 16.099609 L 12.074219 20.125 L 12.074219 24.148438 L 12.074219 28.173828 L 16.099609 28.173828 L 16.099609 24.148438 L 16.099609 20.125 L 16.099609 16.099609 L 16.099609 12.074219 L 12.074219 12.074219 L 8.0488281 12.074219 z M 16.099609 12.074219 L 20.125 12.074219 L 20.125 8.0488281 L 16.099609 8.0488281 L 16.099609 12.074219 z M 20.125 8.0488281 L 24.148438 8.0488281 L 24.148438 4.0253906 L 20.125 4.0253906 L 20.125 8.0488281 z M 24.148438 4.0253906 L 28.173828 4.0253906 L 32.199219 4.0253906 L 36.224609 4.0253906 L 40.248047 4.0253906 L 44.273438 4.0253906 L 44.273438 0 L 40.248047 0 L 36.224609 0 L 32.199219 0 L 28.173828 0 L 24.148438 0 L 24.148438 4.0253906 z M 44.273438 4.0253906 L 44.273438 8.0488281 L 48.298828 8.0488281 L 48.298828 4.0253906 L 44.273438 4.0253906 z M 48.298828 8.0488281 L 48.298828 12.074219 L 52.324219 12.074219 L 52.324219 8.0488281 L 48.298828 8.0488281 z M 52.324219 12.074219 L 52.324219 16.099609 L 52.324219 20.125 L 52.324219 24.148438 L 52.324219 28.173828 L 56.347656 28.173828 L 56.347656 24.148438 L 56.347656 20.125 L 72.447266 20.125 L 72.447266 24.148438 L 72.447266 28.173828 L 76.472656 28.173828 L 76.472656 24.148438 L 76.472656 20.125 L 76.472656 12.074219 L 72.447266 12.074219 L 52.324219 12.074219 z M 76.472656 28.173828 L 76.472656 32.199219 L 80.498047 32.199219 L 80.498047 28.173828 L 76.472656 28.173828 z M 80.498047 32.199219 L 80.498047 36.224609 L 84.521484 36.224609 L 84.521484 32.199219 L 80.498047 32.199219 z M 84.521484 36.224609 L 84.521484 40.248047 L 88.546875 40.248047 L 92.572266 40.248047 L 96.597656 40.248047 L 100.62109 40.248047 L 104.64648 40.248047 L 104.64648 36.224609 L 100.62109 36.224609 L 96.597656 36.224609 L 92.572266 36.224609 L 88.546875 36.224609 L 84.521484 36.224609 z M 104.64648 36.224609 L 108.67188 36.224609 L 108.67188 32.199219 L 104.64648 32.199219 L 104.64648 36.224609 z M 108.67188 32.199219 L 112.69727 32.199219 L 112.69727 28.173828 L 108.67188 28.173828 L 108.67188 32.199219 z M 112.69727 28.173828 L 116.7207 28.173828 L 116.7207 24.148438 L 116.7207 20.125 L 116.7207 16.099609 L 120.74609 16.099609 L 120.74609 12.074219 L 116.7207 12.074219 L 113.09961 12.074219 L 113.09961 8.0488281 L 109.07422 8.0488281 L 109.07422 12.074219 L 112.69727 12.074219 L 112.69727 16.099609 L 112.69727 20.125 L 112.69727 24.148438 L 112.69727 28.173828 z M 109.07422 8.0488281 L 109.07422 4.0253906 L 105.04883 4.0253906 L 105.04883 8.0488281 L 109.07422 8.0488281 z M 105.04883 4.0253906 L 105.04883 0 L 101.02344 0 L 97 0 L 92.974609 0 L 88.949219 0 L 84.923828 0 L 84.923828 4.0253906 L 88.949219 4.0253906 L 92.974609 4.0253906 L 97 4.0253906 L 101.02344 4.0253906 L 105.04883 4.0253906 z M 84.923828 4.0253906 L 80.900391 4.0253906 L 80.900391 8.0488281 L 84.923828 8.0488281 L 84.923828 4.0253906 z M 80.900391 8.0488281 L 76.875 8.0488281 L 76.875 12.074219 L 80.900391 12.074219 L 80.900391 8.0488281 z M 120.74609 12.074219 L 124.77148 12.074219 L 124.77148 8.0488281 L 120.74609 8.0488281 L 120.74609 12.074219 z M 124.77148 8.0488281 L 128.79492 8.0488281 L 128.79492 4.0253906 L 128.79492 0 L 124.77148 0 L 124.77148 4.0253906 L 124.77148 8.0488281 z M 52.324219 28.173828 L 48.298828 28.173828 L 48.298828 32.199219 L 52.324219 32.199219 L 52.324219 28.173828 z M 48.298828 32.199219 L 44.273438 32.199219 L 44.273438 36.224609 L 48.298828 36.224609 L 48.298828 32.199219 z M 44.273438 36.224609 L 40.248047 36.224609 L 36.224609 36.224609 L 32.199219 36.224609 L 28.173828 36.224609 L 24.148438 36.224609 L 24.148438 40.248047 L 28.173828 40.248047 L 32.199219 40.248047 L 36.224609 40.248047 L 40.248047 40.248047 L 44.273438 40.248047 L 44.273438 36.224609 z M 24.148438 36.224609 L 24.148438 32.199219 L 20.125 32.199219 L 20.125 36.224609 L 24.148438 36.224609 z M 20.125 32.199219 L 20.125 28.173828 L 16.099609 28.173828 L 16.099609 32.199219 L 20.125 32.199219 z "
       transform="translate(354.06174,382.6847)"
       id="rect9339-0-9-3" />
  </g>
</svg>
