<?xml version="1.0" encoding="UTF-8" standalone="no"?>
<!-- Created with Inkscape (http://www.inkscape.org/) -->

<svg
   xmlns:dc="http://purl.org/dc/elements/1.1/"
   xmlns:cc="http://creativecommons.org/ns#"
   xmlns:rdf="http://www.w3.org/1999/02/22-rdf-syntax-ns#"
   xmlns:svg="http://www.w3.org/2000/svg"
   xmlns="http://www.w3.org/2000/svg"
   xmlns:sodipodi="http://sodipodi.sourceforge.net/DTD/sodipodi-0.dtd"
   xmlns:inkscape="http://www.inkscape.org/namespaces/inkscape"
   width="36.233414mm"
   height="9.6622438mm"
   viewBox="0 0 128.38611 34.236299"
   id="svg8346"
   version="1.1"
   inkscape:version="0.91 r13725"
   sodipodi:docname="gafas-pixel.svg">
  <defs
     id="defs8348" />
  <sodipodi:namedview
     id="base"
     pagecolor="#ffffff"
     bordercolor="#666666"
     borderopacity="1.0"
     inkscape:pageopacity="0.0"
     inkscape:pageshadow="2"
     inkscape:zoom="7.1657968"
     inkscape:cx="44.801389"
     inkscape:cy="8.5229127"
     inkscape:document-units="px"
     inkscape:current-layer="layer1"
     showgrid="false"
     fit-margin-top="0"
     fit-margin-left="0"
     fit-margin-right="0"
     fit-margin-bottom="0"
     inkscape:window-width="1920"
     inkscape:window-height="1004"
     inkscape:window-x="0"
     inkscape:window-y="27"
     inkscape:window-maximized="1" />
  <metadata
     id="metadata8351">
    <rdf:RDF>
      <cc:Work
         rdf:about="">
        <dc:format>image/svg+xml</dc:format>
        <dc:type
           rdf:resource="http://purl.org/dc/dcmitype/StillImage" />
        <dc:title />
      </cc:Work>
    </rdf:RDF>
  </metadata>
  <g
     inkscape:label="Capa 1"
     inkscape:groupmode="layer"
     id="layer1"
     transform="translate(-354.3261,-382.49539)">
    <path
       style="fill:#ffffff;fill-opacity:1;fill-rule:evenodd;stroke:none;stroke-width:1px;stroke-linecap:butt;stroke-linejoin:miter;stroke-opacity:1"
       d="m 429.51102,391.18345 0,8.79176 c 0,0 5.02387,-0.2791 5.02387,0 0,0.27911 0,5.30297 0,5.30297 l 4.60521,0 0,5.16342 23.1656,0 c 0,0 2.37238,-19.81636 0,-19.81636 -2.37238,0 -32.79468,0.55821 -32.79468,0.55821 z"
       id="path4136-3"
       inkscape:connector-curvature="0" />
    <path
       style="fill:#ffffff;fill-rule:evenodd;stroke:none;stroke-width:1px;stroke-linecap:butt;stroke-linejoin:miter;stroke-opacity:1;fill-opacity:1"
       d="m 363.11786,391.47281 0,8.79176 c 0,0 5.02387,-0.2791 5.02387,0 0,0.27911 0,5.30297 0,5.30297 l 4.60521,0 0,5.16342 23.1656,0 c 0,0 2.37238,-19.81636 0,-19.81636 -2.37238,0 -32.79468,0.55821 -32.79468,0.55821 z"
       id="path4136"
       inkscape:connector-curvature="0" />
    <path
       style="fill:#000000"
       d="m 387.01636,412.52934 -16.95393,0 0,-2.42199 0,-2.42199 -2.422,0 -2.42199,0 0,-2.42199 0,-2.42199 -2.42199,0 -2.42199,0 0,-2.422 0,-2.42199 -2.42199,0 -2.42199,0 0,-4.84398 0,-4.84398 62.97176,0 62.97177,0 0,4.84398 0,4.84398 -2.42199,0 -2.42199,0 0,2.42199 0,2.422 -2.42199,0 -2.42199,0 0,2.42199 0,2.42199 -2.42199,0 -2.422,0 0,2.42199 0,2.42199 -16.95393,0 -16.95394,0 0,-2.42199 0,-2.42199 -2.42199,0 -2.42199,0 0,-2.42199 0,-2.42199 -2.42199,0 -2.42199,0 0,-4.84399 0,-4.84398 -4.84399,0 -4.84398,0 0,4.84398 0,4.84399 -2.42199,0 -2.42199,0 0,2.42199 0,2.42199 -2.42199,0 -2.42199,0 0,2.42199 0,2.42199 -16.95394,0 z m -9.68796,-4.84398 2.42199,0 0,-2.42199 0,-2.42199 2.42199,0 2.42199,0 0,2.42199 0,2.42199 2.42199,0 2.42199,0 0,-2.42199 0,-2.42199 -2.42199,0 -2.42199,0 0,-2.422 0,-2.42199 -2.42199,0 -2.42199,0 0,-2.42199 0,-2.42199 -2.42199,0 -2.42199,0 0,2.42199 0,2.42199 -2.42199,0 -2.42199,0 0,-2.42199 0,-2.42199 -2.422,0 -2.42199,0 0,2.42199 0,2.42199 2.42199,0 2.422,0 0,2.42199 0,2.422 2.42199,0 2.42199,0 0,2.42199 0,2.42199 2.42199,0 z m 0,-4.84398 -2.42199,0 0,-2.422 0,-2.42199 2.42199,0 2.42199,0 0,2.42199 0,2.422 -2.42199,0 z m 68.42124,4.84398 2.42199,0 0,-2.42199 0,-2.42199 2.422,0 2.42199,0 0,2.42199 0,2.42199 2.42199,0 2.42199,0 0,-2.42199 0,-2.42199 -2.42199,0 -2.42199,0 0,-2.422 0,-2.42199 -2.42199,0 -2.422,0 0,-2.42199 0,-2.42199 -2.42199,0 -2.42199,0 0,2.42199 0,2.42199 -2.42199,0 -2.42199,0 0,-2.42199 0,-2.42199 -2.42199,0 -2.42199,0 0,2.42199 0,2.42199 2.42199,0 2.42199,0 0,2.42199 0,2.422 2.42199,0 2.42199,0 0,2.42199 0,2.42199 2.42199,0 z m 0,-4.84398 -2.42199,0 0,-2.422 0,-2.42199 2.42199,0 2.42199,0 0,2.42199 0,2.422 -2.42199,0 z"
       id="path4156"
       inkscape:connector-curvature="0" />
  </g>
</svg>
