<?xml version="1.0" encoding="UTF-8" standalone="no"?>
<!-- Created with Inkscape (http://www.inkscape.org/) -->

<svg
   xmlns:dc="http://purl.org/dc/elements/1.1/"
   xmlns:cc="http://creativecommons.org/ns#"
   xmlns:rdf="http://www.w3.org/1999/02/22-rdf-syntax-ns#"
   xmlns:svg="http://www.w3.org/2000/svg"
   xmlns="http://www.w3.org/2000/svg"
   xmlns:sodipodi="http://sodipodi.sourceforge.net/DTD/sodipodi-0.dtd"
   xmlns:inkscape="http://www.inkscape.org/namespaces/inkscape"
   width="62.261368mm"
   height="58.110607mm"
   viewBox="0 0 220.61114 205.90373"
   id="svg8346"
   version="1.1"
   inkscape:version="0.91 r13725"
   sodipodi:docname="pelo-PIX8.svg">
  <defs
     id="defs8348" />
  <sodipodi:namedview
     id="base"
     pagecolor="#ffffff"
     bordercolor="#666666"
     borderopacity="1.0"
     inkscape:pageopacity="0.0"
     inkscape:pageshadow="2"
     inkscape:zoom="1.0256926"
     inkscape:cx="248.18326"
     inkscape:cy="104.54409"
     inkscape:document-units="px"
     inkscape:current-layer="layer1"
     showgrid="false"
     fit-margin-top="0"
     fit-margin-left="0"
     fit-margin-right="0"
     fit-margin-bottom="0"
     inkscape:window-width="1914"
     inkscape:window-height="1030"
     inkscape:window-x="0"
     inkscape:window-y="26"
     inkscape:window-maximized="1" />
  <metadata
     id="metadata8351">
    <rdf:RDF>
      <cc:Work
         rdf:about="">
        <dc:format>image/svg+xml</dc:format>
        <dc:type
           rdf:resource="http://purl.org/dc/dcmitype/StillImage" />
        <dc:title></dc:title>
      </cc:Work>
    </rdf:RDF>
  </metadata>
  <g
     inkscape:label="Capa 1"
     inkscape:groupmode="layer"
     id="layer1"
     transform="translate(-298.73936,-339.41265)">
    <path
       style="opacity:1;fill:#ffc101;fill-opacity:1;stroke:none;stroke-width:0.97100002;stroke-linecap:round;stroke-linejoin:round;stroke-miterlimit:4;stroke-dasharray:none;stroke-opacity:1"
       d="m 372.27641,339.41265 0,7.3537 -7.35371,0 -7.3537,0 0,7.35371 -7.35371,0 0,7.3537 -7.3537,0 -7.35371,0 0,7.35371 -7.3537,0 -7.35371,0 0,7.3537 0,7.35371 -7.3537,0 0,7.3537 -7.3537,0 0,7.35371 0,7.3537 0,7.35371 -7.35371,0 0,7.3537 0,7.3537 0,7.35371 0,7.3537 0,7.35371 0,7.3537 0,7.35371 0,7.3537 7.35371,0 0,7.3537 0,7.35371 7.3537,0 0,7.3537 0,7.35371 7.3537,0 0,7.3537 0,7.35371 7.35371,0 0,7.3537 7.3537,0 7.35371,0 0,7.35371 0,7.3537 7.3537,0 0,7.35371 7.35371,0 0,-7.35371 0,-7.3537 0,-7.35371 0,-7.3537 0,-7.35371 0,-7.3537 -7.35371,0 0,-7.35371 0,-7.3537 0,-7.35371 0,-7.3537 0,-7.3537 -7.3537,0 0,-7.35371 0,-7.3537 7.3537,0 0,-7.35371 -7.3537,0 0,-7.3537 0,-7.35371 7.3537,0 0,-7.3537 -7.3537,0 0,-7.3537 0,-7.35371 7.3537,0 0,-7.3537 0,-7.35371 0,-7.3537 7.35371,0 0,-7.35371 7.3537,0 0,7.35371 7.35371,0 7.3537,0 0,7.3537 7.3537,0 7.35371,0 0,7.35371 7.3537,0 7.35371,0 0,7.3537 7.3537,0 7.35371,0 7.3537,0 7.35371,0 0,7.35371 7.3537,0 0,7.3537 7.3537,0 7.35371,0 0,7.3537 7.3537,0 0,7.35371 7.35371,0 0,7.3537 0,7.35371 0,7.3537 0,7.35371 0,7.3537 -7.35371,0 0,7.3537 0,7.35371 0,7.3537 0,7.35371 0,7.3537 0,7.35371 -7.3537,0 0,7.3537 0,7.35371 0,7.3537 0,7.35371 7.3537,0 0,-7.35371 0,-7.3537 7.35371,0 0,-7.35371 7.3537,0 0,-7.3537 0,-7.35371 7.35371,0 0,-7.3537 7.3537,0 0,-7.35371 7.35371,0 0,-7.3537 0,-7.35371 7.3537,0 0,-7.3537 0,-7.3537 7.35371,0 0,-7.35371 -7.35371,0 0,-7.3537 7.35371,0 0,-7.35371 0,-7.3537 0,-7.35371 -7.35371,0 0,-7.3537 0,-7.3537 0,-7.35371 -7.3537,0 0,-7.3537 -7.35371,0 -7.3537,0 0,-7.35371 0,-7.3537 -7.35371,0 0,-7.35371 -7.3537,0 0,-7.3537 0,-7.35371 -7.35371,0 -7.3537,0 0,-7.3537 -7.35371,0 0,-7.35371 -7.3537,0 -7.3537,0 0,-7.3537 -7.35371,0 -7.3537,0 -7.35371,0 -7.3537,0 -7.35371,0 -7.3537,0 -7.35371,0 -7.3537,0 -7.3537,0 z"
       id="rect13102-5520-4"
       inkscape:connector-curvature="0" />
  </g>
</svg>
