<?xml version="1.0" encoding="UTF-8" standalone="no"?>
<!-- Created with Inkscape (http://www.inkscape.org/) -->

<svg
   xmlns:dc="http://purl.org/dc/elements/1.1/"
   xmlns:cc="http://creativecommons.org/ns#"
   xmlns:rdf="http://www.w3.org/1999/02/22-rdf-syntax-ns#"
   xmlns:svg="http://www.w3.org/2000/svg"
   xmlns="http://www.w3.org/2000/svg"
   xmlns:sodipodi="http://sodipodi.sourceforge.net/DTD/sodipodi-0.dtd"
   xmlns:inkscape="http://www.inkscape.org/namespaces/inkscape"
   width="73.731247mm"
   height="61.839111mm"
   viewBox="0 0 261.25244 219.11496"
   id="svg8346"
   version="1.1"
   inkscape:version="0.91 r13725"
   sodipodi:docname="pelo-PIX2.svg">
  <defs
     id="defs8348" />
  <sodipodi:namedview
     id="base"
     pagecolor="#ffffff"
     bordercolor="#666666"
     borderopacity="1.0"
     inkscape:pageopacity="0.0"
     inkscape:pageshadow="2"
     inkscape:zoom="1.0256926"
     inkscape:cx="259.8969"
     inkscape:cy="79.709816"
     inkscape:document-units="px"
     inkscape:current-layer="layer1"
     showgrid="false"
     fit-margin-top="0"
     fit-margin-left="0"
     fit-margin-right="0"
     fit-margin-bottom="0"
     inkscape:window-width="1914"
     inkscape:window-height="1030"
     inkscape:window-x="0"
     inkscape:window-y="26"
     inkscape:window-maximized="1" />
  <metadata
     id="metadata8351">
    <rdf:RDF>
      <cc:Work
         rdf:about="">
        <dc:format>image/svg+xml</dc:format>
        <dc:type
           rdf:resource="http://purl.org/dc/dcmitype/StillImage" />
        <dc:title></dc:title>
      </cc:Work>
    </rdf:RDF>
  </metadata>
  <g
     inkscape:label="Capa 1"
     inkscape:groupmode="layer"
     id="layer1"
     transform="translate(-287.02572,-340.3652)">
    <g
       id="g12799"
       transform="matrix(0.84274984,0,0,0.84274984,-114.26328,-34.392972)">
      <path
         id="rect8082"
         transform="translate(298.70723,347.28065)"
         d="m 307.45898,97.404297 0,10.000003 -10,0 -10,0 0,10 -10,0 -10,0 0,10 -10,0 0,10 -10,0 0,10 -10,0 0,10 -10,0 0,10 0,10 0,10 0,10 -10,0 0,10 10,0 0,10 10,0 10,0 10,0 10,0 0,-10 10,0 0,-10 10,0 10,0 0,-10 0,-10 10,0 10,0 0,-10 0,-10 10,0 10,0 10,0 10,0 0,10 0,10 10,0 0,10 10,0 10,0 0,10 10,0 10,0 0,10 10,0 10,0 10,0 0,-10 10,0 0,-10 0,-10 0,-10 -10,0 0,-10 0,-10 -10,0 0,-10 -10,0 0,-10 -10,0 -10,0 0,-10 -10,0 0,-10 -10,0 -10,0 0,-10.000003 -10,0 -10,0 -10,0 -10,0 -10,0 -10,0 z m 120,120.000003 0,10 -10,0 0,10 0,10 -10,0 0,10 0,10 0,10 10,0 0,10 10,0 0,10 0,10 0,10 10,0 0,10 0,10 0,10 10,0 0,-10 10,0 0,-10 10,0 0,-10 0,-10 0,-10 10,0 0,-10 0,-10 10,0 0,-10 0,-10 0,-10 -10,0 0,-10 0,-10 -10,0 0,-10 -10,0 -10,0 -10,0 -10,0 z m -230,10 0,10 -10,0 0,10 -10,0 0,10 0,10 0,10 10,0 0,10 0,10 0,10 10,0 0,10 10,0 0,10 0,10 0,10 0,10 10,0 0,-10 10,0 0,-10 0,-10 10,0 0,-10 0,-10 10,0 0,-10 0,-10 10,0 0,-10 10,0 0,-10 0,-10 0,-10 -10,0 0,-10 0,-10 -10,0 -10,0 -10,0 -10,0 -10,0 -10,0 z"
         style="opacity:1;fill:#803300;fill-opacity:1;stroke:none;stroke-width:0.97100002;stroke-linecap:round;stroke-linejoin:round;stroke-miterlimit:4;stroke-dasharray:none;stroke-opacity:1"
         inkscape:connector-curvature="0" />
      <rect
         y="544.68561"
         x="736.16553"
         height="19.74951"
         width="20.724461"
         id="rect7445-69-96-63"
         style="opacity:1;fill:#ff6600;fill-opacity:1;stroke:none;stroke-width:0.97100002;stroke-linecap:round;stroke-linejoin:round;stroke-miterlimit:4;stroke-dasharray:none;stroke-opacity:1" />
      <rect
         y="554.68561"
         x="736.16553"
         height="10"
         width="10"
         id="rect7445-69-96-5"
         style="opacity:1;fill:#ff6600;fill-opacity:1;stroke:none;stroke-width:0.97100002;stroke-linecap:round;stroke-linejoin:round;stroke-miterlimit:4;stroke-dasharray:none;stroke-opacity:1" />
      <rect
         y="554.68561"
         x="746.16553"
         height="10"
         width="10"
         id="rect7445-69-96-04"
         style="opacity:1;fill:#ff6600;fill-opacity:1;stroke:none;stroke-width:0.97100002;stroke-linecap:round;stroke-linejoin:round;stroke-miterlimit:4;stroke-dasharray:none;stroke-opacity:1" />
      <rect
         y="544.68561"
         x="746.16553"
         height="10"
         width="10"
         id="rect7445-69-96-48"
         style="opacity:1;fill:#ff6600;fill-opacity:1;stroke:none;stroke-width:0.97100002;stroke-linecap:round;stroke-linejoin:round;stroke-miterlimit:4;stroke-dasharray:none;stroke-opacity:1" />
      <rect
         y="554.68561"
         x="516.16553"
         height="10"
         width="10"
         id="rect7445-69-96-096-41"
         style="opacity:1;fill:#ff6600;fill-opacity:1;stroke:none;stroke-width:0.97100002;stroke-linecap:round;stroke-linejoin:round;stroke-miterlimit:4;stroke-dasharray:none;stroke-opacity:1" />
      <rect
         y="554.68561"
         x="506.1655"
         height="19.74951"
         width="20.724461"
         id="rect7445-69-96-096-939"
         style="opacity:1;fill:#ff6600;fill-opacity:1;stroke:none;stroke-width:0.97100002;stroke-linecap:round;stroke-linejoin:round;stroke-miterlimit:4;stroke-dasharray:none;stroke-opacity:1" />
      <rect
         y="564.68561"
         x="506.1655"
         height="10"
         width="10"
         id="rect7445-69-96-096-22"
         style="opacity:1;fill:#ff6600;fill-opacity:1;stroke:none;stroke-width:0.97100002;stroke-linecap:round;stroke-linejoin:round;stroke-miterlimit:4;stroke-dasharray:none;stroke-opacity:1" />
      <rect
         y="564.68561"
         x="516.16553"
         height="10"
         width="10"
         id="rect7445-69-96-096-14"
         style="opacity:1;fill:#ff6600;fill-opacity:1;stroke:none;stroke-width:0.97100002;stroke-linecap:round;stroke-linejoin:round;stroke-miterlimit:4;stroke-dasharray:none;stroke-opacity:1" />
    </g>
  </g>
</svg>
