<?xml version="1.0" encoding="UTF-8" standalone="no"?>
<!-- Created with Inkscape (http://www.inkscape.org/) -->

<svg
   xmlns:dc="http://purl.org/dc/elements/1.1/"
   xmlns:cc="http://creativecommons.org/ns#"
   xmlns:rdf="http://www.w3.org/1999/02/22-rdf-syntax-ns#"
   xmlns:svg="http://www.w3.org/2000/svg"
   xmlns="http://www.w3.org/2000/svg"
   xmlns:sodipodi="http://sodipodi.sourceforge.net/DTD/sodipodi-0.dtd"
   xmlns:inkscape="http://www.inkscape.org/namespaces/inkscape"
   width="92.018082mm"
   height="97.431168mm"
   viewBox="0 0 326.04832 345.22854"
   id="svg8346"
   version="1.1"
   inkscape:version="0.91 r13725"
   sodipodi:docname="cara-PIX2.svg">
  <defs
     id="defs8348" />
  <sodipodi:namedview
     id="base"
     pagecolor="#ffffff"
     bordercolor="#666666"
     borderopacity="1.0"
     inkscape:pageopacity="0.0"
     inkscape:pageshadow="2"
     inkscape:zoom="0.5749654"
     inkscape:cx="379.46115"
     inkscape:cy="96.05117"
     inkscape:document-units="px"
     inkscape:current-layer="layer1"
     showgrid="false"
     fit-margin-top="0"
     fit-margin-left="0"
     fit-margin-right="0"
     fit-margin-bottom="0"
     inkscape:window-width="1914"
     inkscape:window-height="1030"
     inkscape:window-x="0"
     inkscape:window-y="26"
     inkscape:window-maximized="1" />
  <metadata
     id="metadata8351">
    <rdf:RDF>
      <cc:Work
         rdf:about="">
        <dc:format>image/svg+xml</dc:format>
        <dc:type
           rdf:resource="http://purl.org/dc/dcmitype/StillImage" />
        <dc:title></dc:title>
      </cc:Work>
    </rdf:RDF>
  </metadata>
  <g
     inkscape:label="Capa 1"
     inkscape:groupmode="layer"
     id="layer1"
     transform="translate(-217.04143,-305.35725)">
    <path
       style="opacity:1;fill:#f9d8ad;fill-opacity:1;stroke:none;stroke-width:0.97100002;stroke-linecap:round;stroke-linejoin:round;stroke-miterlimit:4;stroke-dasharray:none;stroke-opacity:1"
       d="m 293.75812,305.35725 0,19.1802 -19.17884,0 -19.18019,0 0,19.17883 0,19.17884 19.18019,0 0,0.0245 -19.18019,0 0,-0.0245 -19.17883,0 0,19.18019 0,19.17884 -19.17883,0 0,19.17883 0,19.18019 0,19.17883 0,19.17883 0,19.1802 15.34279,0 0,2.54691 3.83604,0 0,16.63192 0,19.18019 19.17883,0 0,1.26051 0,17.91833 19.18019,0 0,0.11856 0,19.06027 19.17884,0 0,19.18019 0,19.17884 19.18019,0 0,19.17883 19.17884,0 19.17883,0 0,19.1802 19.1802,0 19.17883,0 19.17883,0 0,-19.1802 19.18019,0 19.17884,0 0,-16.09501 19.17883,0 0,-26.0987 0,-14.66552 3.83603,0 0,-0.67863 15.34416,0 0,-19.06027 3.83604,0 0,-0.11856 15.34279,0 0,-19.06164 3.83604,0 0,-0.1172 15.34279,0 0,-19.18019 0,-17.23969 0.0477,0 0,-1.93914 1.79878,0 17.33372,0 0,-19.1802 0,-19.17883 0,-19.17883 0,-19.18019 0,-19.17883 -19.1325,0 0,-19.15567 -0.0477,0 0,-0.0232 0,-19.18019 -19.17883,0 0,0.0246 -15.34279,0 0,-0.0246 15.34279,0 0,-19.17883 -15.34279,0 -3.83604,0 0,-19.17883 -19.18019,0 -19.17883,0 0,-19.1802 -19.17884,0 -19.18019,0 -19.17883,0 -19.17883,0 -19.1802,0 -19.17883,0 -19.17884,0 -19.18019,0 z"
       id="rect4140-679-6"
       inkscape:connector-curvature="0" />
  </g>
</svg>
