<?xml version="1.0" encoding="UTF-8" standalone="no"?>
<!-- Created with Inkscape (http://www.inkscape.org/) -->

<svg
   xmlns:dc="http://purl.org/dc/elements/1.1/"
   xmlns:cc="http://creativecommons.org/ns#"
   xmlns:rdf="http://www.w3.org/1999/02/22-rdf-syntax-ns#"
   xmlns:svg="http://www.w3.org/2000/svg"
   xmlns="http://www.w3.org/2000/svg"
   xmlns:sodipodi="http://sodipodi.sourceforge.net/DTD/sodipodi-0.dtd"
   xmlns:inkscape="http://www.inkscape.org/namespaces/inkscape"
   width="8.3045692mm"
   height="4.4716945mm"
   viewBox="0 0 29.425639 15.844586"
   id="svg8346"
   version="1.1"
   inkscape:version="0.91 r13725"
   sodipodi:docname="boca-PIX11.svg">
  <defs
     id="defs8348" />
  <sodipodi:namedview
     id="base"
     pagecolor="#ffffff"
     bordercolor="#666666"
     borderopacity="1.0"
     inkscape:pageopacity="0.0"
     inkscape:pageshadow="2"
     inkscape:zoom="26.313019"
     inkscape:cx="17.659787"
     inkscape:cy="3.9147664"
     inkscape:document-units="px"
     inkscape:current-layer="layer1"
     showgrid="false"
     fit-margin-top="0"
     fit-margin-left="0"
     fit-margin-right="0"
     fit-margin-bottom="0"
     inkscape:window-width="1914"
     inkscape:window-height="1030"
     inkscape:window-x="0"
     inkscape:window-y="26"
     inkscape:window-maximized="1"
     showguides="true"
     inkscape:guide-bbox="true"
     inkscape:snap-global="false"
     inkscape:snap-bbox="true"
     inkscape:bbox-paths="true"
     inkscape:bbox-nodes="true"
     inkscape:snap-bbox-edge-midpoints="true"
     inkscape:snap-bbox-midpoints="true">
    <sodipodi:guide
       position="-28.236164,-99.196394"
       orientation="0,1"
       id="guide4791" />
  </sodipodi:namedview>
  <metadata
     id="metadata8351">
    <rdf:RDF>
      <cc:Work
         rdf:about="">
        <dc:format>image/svg+xml</dc:format>
        <dc:type
           rdf:resource="http://purl.org/dc/dcmitype/StillImage" />
        <dc:title></dc:title>
      </cc:Work>
    </rdf:RDF>
  </metadata>
  <g
     inkscape:label="Capa 1"
     inkscape:groupmode="layer"
     id="layer1"
     transform="translate(-418.70282,-361.99429)">
    <g
       id="g6460">
      <path
         id="rect12306-67"
         transform="translate(418.70282,361.99429)"
         d="M 6.7910156 0 L 6.7910156 2.2636719 L 4.5273438 2.2636719 L 4.5273438 4.5273438 L 2.2636719 4.5273438 L 2.2636719 6.7910156 L 4.5273438 6.7910156 L 6.7910156 6.7910156 L 22.634766 6.7910156 L 24.898438 6.7910156 L 27.162109 6.7910156 L 27.162109 4.5273438 L 24.898438 4.5273438 L 24.898438 2.2636719 L 22.634766 2.2636719 L 22.634766 0 L 20.371094 0 L 18.107422 0 L 18.107422 2.2636719 L 15.84375 2.2636719 L 13.582031 2.2636719 L 13.580078 2.2636719 L 11.318359 2.2636719 L 11.318359 0 L 9.0546875 0 L 6.7910156 0 z "
         style="opacity:1;fill:#ff0000;fill-opacity:1;stroke:none;stroke-width:0.97100002;stroke-linecap:round;stroke-linejoin:round;stroke-miterlimit:4;stroke-dasharray:none;stroke-opacity:1" />
      <path
         id="rect12306-73-2"
         transform="translate(418.70282,361.99429)"
         d="M 0 6.7910156 L 0 9.0546875 L 2.2636719 9.0546875 L 2.2636719 11.318359 L 4.5273438 11.318359 L 4.5273438 13.582031 L 6.7910156 13.582031 L 6.7910156 15.84375 L 9.0546875 15.84375 L 11.318359 15.84375 L 13.582031 15.84375 L 15.84375 15.84375 L 18.107422 15.84375 L 20.371094 15.84375 L 22.634766 15.84375 L 22.634766 13.582031 L 24.898438 13.582031 L 24.898438 11.318359 L 27.162109 11.318359 L 27.162109 9.0546875 L 29.425781 9.0546875 L 29.425781 6.7910156 L 27.162109 6.7910156 L 24.898438 6.7910156 L 2.2636719 6.7910156 L 0 6.7910156 z "
         style="opacity:1;fill:#c60000;fill-opacity:1;stroke:none;stroke-width:0.97100002;stroke-linecap:round;stroke-linejoin:round;stroke-miterlimit:4;stroke-dasharray:none;stroke-opacity:1" />
    </g>
  </g>
</svg>
