<?xml version="1.0" encoding="UTF-8" standalone="no"?>
<!-- Created with Inkscape (http://www.inkscape.org/) -->

<svg
   xmlns:dc="http://purl.org/dc/elements/1.1/"
   xmlns:cc="http://creativecommons.org/ns#"
   xmlns:rdf="http://www.w3.org/1999/02/22-rdf-syntax-ns#"
   xmlns:svg="http://www.w3.org/2000/svg"
   xmlns="http://www.w3.org/2000/svg"
   xmlns:sodipodi="http://sodipodi.sourceforge.net/DTD/sodipodi-0.dtd"
   xmlns:inkscape="http://www.inkscape.org/namespaces/inkscape"
   width="7.7053185mm"
   height="3.8526592mm"
   viewBox="0 0 27.30231 13.651154"
   id="svg8346"
   version="1.1"
   inkscape:version="0.91 r13725"
   sodipodi:docname="boca-PIX7.svg">
  <defs
     id="defs8348" />
  <sodipodi:namedview
     id="base"
     pagecolor="#ffffff"
     bordercolor="#666666"
     borderopacity="1.0"
     inkscape:pageopacity="0.0"
     inkscape:pageshadow="2"
     inkscape:zoom="16.877646"
     inkscape:cx="18.878857"
     inkscape:cy="-2.6768529"
     inkscape:document-units="px"
     inkscape:current-layer="layer1"
     showgrid="false"
     fit-margin-top="0"
     fit-margin-left="0"
     fit-margin-right="0"
     fit-margin-bottom="0"
     inkscape:window-width="1914"
     inkscape:window-height="1030"
     inkscape:window-x="0"
     inkscape:window-y="26"
     inkscape:window-maximized="1"
     showguides="true"
     inkscape:guide-bbox="true"
     inkscape:snap-global="false"
     inkscape:snap-bbox="true"
     inkscape:bbox-paths="true"
     inkscape:bbox-nodes="true"
     inkscape:snap-bbox-edge-midpoints="true"
     inkscape:snap-bbox-midpoints="true">
    <sodipodi:guide
       position="-30.539982,-101.37228"
       orientation="0,1"
       id="guide4791" />
  </sodipodi:namedview>
  <metadata
     id="metadata8351">
    <rdf:RDF>
      <cc:Work
         rdf:about="">
        <dc:format>image/svg+xml</dc:format>
        <dc:type
           rdf:resource="http://purl.org/dc/dcmitype/StillImage" />
        <dc:title></dc:title>
      </cc:Work>
    </rdf:RDF>
  </metadata>
  <g
     inkscape:label="Capa 1"
     inkscape:groupmode="layer"
     id="layer1"
     transform="translate(-421.00664,-362.01184)">
    <path
       style="opacity:1;fill:#ffffff;fill-opacity:1;stroke:none;stroke-width:0.97100002;stroke-linecap:round;stroke-linejoin:round;stroke-miterlimit:4;stroke-dasharray:none;stroke-opacity:1"
       d="M 2.7304688 2.7304688 L 2.7304688 5.4609375 L 5.4609375 5.4609375 L 5.4609375 8.1914062 L 8.1914062 8.1914062 L 8.1914062 10.921875 L 10.921875 10.921875 L 13.650391 10.921875 L 16.380859 10.921875 L 19.111328 10.921875 L 19.111328 8.1914062 L 21.841797 8.1914062 L 21.841797 5.4609375 L 24.572266 5.4609375 L 24.572266 2.7304688 L 21.841797 2.7304688 L 19.111328 2.7304688 L 16.380859 2.7304688 L 13.650391 2.7304688 L 10.921875 2.7304688 L 8.1914062 2.7304688 L 5.4609375 2.7304688 L 2.7304688 2.7304688 z "
       transform="translate(421.00664,362.01184)"
       id="rect10903-4-8-16" />
    <path
       style="opacity:1;fill:#d40000;fill-opacity:1;stroke:none;stroke-width:0.97100002;stroke-linecap:round;stroke-linejoin:round;stroke-miterlimit:4;stroke-dasharray:none;stroke-opacity:1"
       d="M 0 0 L 0 2.7304688 L 0 5.4609375 L 2.7304688 5.4609375 L 2.7304688 2.7304688 L 5.4609375 2.7304688 L 8.1914062 2.7304688 L 10.921875 2.7304688 L 13.650391 2.7304688 L 16.380859 2.7304688 L 19.111328 2.7304688 L 21.841797 2.7304688 L 24.572266 2.7304688 L 24.572266 5.4609375 L 27.302734 5.4609375 L 27.302734 2.7304688 L 27.302734 0 L 24.572266 0 L 21.841797 0 L 19.111328 0 L 16.380859 0 L 13.650391 0 L 10.921875 0 L 8.1914062 0 L 5.4609375 0 L 2.7304688 0 L 0 0 z M 24.572266 5.4609375 L 21.841797 5.4609375 L 21.841797 8.1914062 L 24.572266 8.1914062 L 24.572266 5.4609375 z M 21.841797 8.1914062 L 19.111328 8.1914062 L 19.111328 10.921875 L 21.841797 10.921875 L 21.841797 8.1914062 z M 19.111328 10.921875 L 16.380859 10.921875 L 13.650391 10.921875 L 10.921875 10.921875 L 8.1914062 10.921875 L 8.1914062 13.650391 L 10.921875 13.650391 L 13.650391 13.650391 L 16.380859 13.650391 L 19.111328 13.650391 L 19.111328 10.921875 z M 8.1914062 10.921875 L 8.1914062 8.1914062 L 5.4609375 8.1914062 L 5.4609375 10.921875 L 8.1914062 10.921875 z M 5.4609375 8.1914062 L 5.4609375 5.4609375 L 2.7304688 5.4609375 L 2.7304688 8.1914062 L 5.4609375 8.1914062 z "
       transform="translate(421.00664,362.01184)"
       id="rect10903-4-8-59-81" />
  </g>
</svg>
