<?xml version="1.0" encoding="UTF-8" standalone="no"?>
<!-- Created with Inkscape (http://www.inkscape.org/) -->

<svg
   xmlns:dc="http://purl.org/dc/elements/1.1/"
   xmlns:cc="http://creativecommons.org/ns#"
   xmlns:rdf="http://www.w3.org/1999/02/22-rdf-syntax-ns#"
   xmlns:svg="http://www.w3.org/2000/svg"
   xmlns="http://www.w3.org/2000/svg"
   xmlns:sodipodi="http://sodipodi.sourceforge.net/DTD/sodipodi-0.dtd"
   xmlns:inkscape="http://www.inkscape.org/namespaces/inkscape"
   width="8.3008966mm"
   height="4.4697032mm"
   viewBox="0 0 29.412626 15.83753"
   id="svg8346"
   version="1.1"
   inkscape:version="0.91 r13725"
   sodipodi:docname="boca-PIX10.svg">
  <defs
     id="defs8348" />
  <sodipodi:namedview
     id="base"
     pagecolor="#ffffff"
     bordercolor="#666666"
     borderopacity="1.0"
     inkscape:pageopacity="0.0"
     inkscape:pageshadow="2"
     inkscape:zoom="26.313019"
     inkscape:cx="17.65451"
     inkscape:cy="3.8943773"
     inkscape:document-units="px"
     inkscape:current-layer="layer1"
     showgrid="false"
     fit-margin-top="0"
     fit-margin-left="0"
     fit-margin-right="0"
     fit-margin-bottom="0"
     inkscape:window-width="1914"
     inkscape:window-height="1030"
     inkscape:window-x="0"
     inkscape:window-y="26"
     inkscape:window-maximized="1"
     showguides="true"
     inkscape:guide-bbox="true"
     inkscape:snap-global="false"
     inkscape:snap-bbox="true"
     inkscape:bbox-paths="true"
     inkscape:bbox-nodes="true"
     inkscape:snap-bbox-edge-midpoints="true"
     inkscape:snap-bbox-midpoints="true">
    <sodipodi:guide
       position="-28.24144,-99.216779"
       orientation="0,1"
       id="guide4791" />
  </sodipodi:namedview>
  <metadata
     id="metadata8351">
    <rdf:RDF>
      <cc:Work
         rdf:about="">
        <dc:format>image/svg+xml</dc:format>
        <dc:type
           rdf:resource="http://purl.org/dc/dcmitype/StillImage" />
        <dc:title></dc:title>
      </cc:Work>
    </rdf:RDF>
  </metadata>
  <g
     inkscape:label="Capa 1"
     inkscape:groupmode="layer"
     id="layer1"
     transform="translate(-418.7081,-361.98096)">
    <g
       id="g6312">
      <path
         id="rect12306-36"
         transform="translate(418.7081,361.98096)"
         d="M 6.7871094 0 L 6.7871094 2.2617188 L 4.5253906 2.2617188 L 4.5253906 4.5253906 L 2.2617188 4.5253906 L 2.2617188 6.7871094 L 4.5253906 6.7871094 L 6.7871094 6.7871094 L 22.625 6.7871094 L 24.886719 6.7871094 L 27.150391 6.7871094 L 27.150391 4.5253906 L 24.886719 4.5253906 L 24.886719 2.2617188 L 22.625 2.2617188 L 22.625 0 L 20.363281 0 L 18.099609 0 L 18.099609 2.2617188 L 15.837891 2.2617188 L 13.574219 2.2617188 L 11.3125 2.2617188 L 11.3125 0 L 9.0507812 0 L 6.7871094 0 z M 2.2617188 9.0507812 L 2.2617188 11.3125 L 4.5253906 11.3125 L 4.5253906 13.574219 L 6.7871094 13.574219 L 6.7871094 15.837891 L 9.0507812 15.837891 L 11.3125 15.837891 L 13.574219 15.837891 L 15.837891 15.837891 L 18.099609 15.837891 L 20.363281 15.837891 L 22.625 15.837891 L 22.625 13.574219 L 24.886719 13.574219 L 24.886719 11.3125 L 27.150391 11.3125 L 27.150391 9.0507812 L 24.886719 9.0507812 L 22.625 9.0507812 L 22.625 11.3125 L 20.363281 11.3125 L 20.363281 13.574219 L 18.099609 13.574219 L 15.837891 13.574219 L 13.574219 13.574219 L 11.3125 13.574219 L 9.0507812 13.574219 L 9.0507812 11.3125 L 6.7871094 11.3125 L 6.7871094 9.0507812 L 2.2617188 9.0507812 z "
         style="opacity:1;fill:#ff0000;fill-opacity:1;stroke:none;stroke-width:0.97100002;stroke-linecap:round;stroke-linejoin:round;stroke-miterlimit:4;stroke-dasharray:none;stroke-opacity:1" />
      <path
         id="rect12306-73-5"
         transform="translate(418.7081,361.98096)"
         d="M 0 6.7871094 L 0 9.0507812 L 2.2617188 9.0507812 L 6.7871094 9.0507812 L 6.7871094 11.3125 L 9.0507812 11.3125 L 9.0507812 13.574219 L 20.363281 13.574219 L 20.363281 11.3125 L 22.625 11.3125 L 22.625 9.0507812 L 24.886719 9.0507812 L 27.150391 9.0507812 L 29.412109 9.0507812 L 29.412109 6.7871094 L 27.150391 6.7871094 L 24.886719 6.7871094 L 2.2617188 6.7871094 L 0 6.7871094 z "
         style="opacity:1;fill:#c60000;fill-opacity:1;stroke:none;stroke-width:0.97100002;stroke-linecap:round;stroke-linejoin:round;stroke-miterlimit:4;stroke-dasharray:none;stroke-opacity:1" />
    </g>
  </g>
</svg>
