<?xml version="1.0" encoding="UTF-8" standalone="no"?>
<!-- Created with Inkscape (http://www.inkscape.org/) -->

<svg
   xmlns:dc="http://purl.org/dc/elements/1.1/"
   xmlns:cc="http://creativecommons.org/ns#"
   xmlns:rdf="http://www.w3.org/1999/02/22-rdf-syntax-ns#"
   xmlns:svg="http://www.w3.org/2000/svg"
   xmlns="http://www.w3.org/2000/svg"
   xmlns:sodipodi="http://sodipodi.sourceforge.net/DTD/sodipodi-0.dtd"
   xmlns:inkscape="http://www.inkscape.org/namespaces/inkscape"
   width="241.24236"
   height="313.15308"
   id="svg3251"
   version="1.1"
   inkscape:version="0.48.3.1 r9886"
   sodipodi:docname="ojos_2.svg">
  <defs
     id="defs3253">
    <inkscape:path-effect
       effect="skeletal"
       id="path-effect3197-6"
       is_visible="true"
       pattern="m -387.83592,-2295.0391 c 0,-2.76 2.23999,-5 4.99999,-5 2.76,0 5,2.24 5,5 0,2.76 -2.24,5 -5,5 -2.76,0 -4.99999,-2.24 -4.99999,-5 z"
       copytype="single_stretched"
       prop_scale="0.5"
       scale_y_rel="false"
       spacing="0"
       normal_offset="0"
       tang_offset="0"
       prop_units="false"
       vertical_pattern="false"
       fuse_tolerance="0" />
    <inkscape:path-effect
       effect="skeletal"
       id="path-effect3189-8-1"
       is_visible="true"
       pattern="m 838.95734,-2276.1936 c 0,-2.76 2.24,-5 5,-5 2.76,0 5,2.24 5,5 0,2.76 -2.24,5 -5,5 -2.76,0 -5,-2.24 -5,-5 z"
       copytype="single_stretched"
       prop_scale="0.5"
       scale_y_rel="false"
       spacing="0"
       normal_offset="0"
       tang_offset="0"
       prop_units="false"
       vertical_pattern="false"
       fuse_tolerance="0" />
    <inkscape:path-effect
       effect="skeletal"
       id="path-effect3193-4-2"
       is_visible="true"
       pattern="m 832.93614,-2357.9036 c 0,-2.76 2.24,-5 5,-5 2.76,0 5,2.24 5,5 0,2.76 -2.24,5 -5,5 -2.76,0 -5,-2.24 -5,-5 z"
       copytype="single_stretched"
       prop_scale="0.5"
       scale_y_rel="false"
       spacing="0"
       normal_offset="0"
       tang_offset="0"
       prop_units="false"
       vertical_pattern="false"
       fuse_tolerance="0" />
    <inkscape:path-effect
       effect="skeletal"
       id="path-effect3475"
       is_visible="true"
       pattern="m 1.0101525,3.9898475 c 0,-2.76 2.24,-5 5,-5 2.76,0 5.0000005,2.24 5.0000005,5 0,2.76 -2.2400005,5 -5.0000005,5 -2.76,0 -5,-2.24 -5,-5 z"
       copytype="single_stretched"
       prop_scale="0.5"
       scale_y_rel="false"
       spacing="0"
       normal_offset="0"
       tang_offset="0"
       prop_units="false"
       vertical_pattern="false"
       fuse_tolerance="0" />
  </defs>
  <sodipodi:namedview
     id="base"
     pagecolor="#ffffff"
     bordercolor="#666666"
     borderopacity="1.0"
     inkscape:pageopacity="0.0"
     inkscape:pageshadow="2"
     inkscape:zoom="0.98994949"
     inkscape:cx="506.08727"
     inkscape:cy="72.885326"
     inkscape:document-units="px"
     inkscape:current-layer="layer1"
     showgrid="false"
     fit-margin-top="0"
     fit-margin-left="0"
     fit-margin-right="0"
     fit-margin-bottom="0"
     inkscape:window-width="1914"
     inkscape:window-height="1030"
     inkscape:window-x="0"
     inkscape:window-y="25"
     inkscape:window-maximized="1" />
  <metadata
     id="metadata3256">
    <rdf:RDF>
      <cc:Work
         rdf:about="">
        <dc:format>image/svg+xml</dc:format>
        <dc:type
           rdf:resource="http://purl.org/dc/dcmitype/StillImage" />
        <dc:title></dc:title>
      </cc:Work>
    </rdf:RDF>
  </metadata>
  <g
     inkscape:label="Capa 1"
     inkscape:groupmode="layer"
     id="layer1"
     transform="translate(85.634262,-446.74541)">
    <g
       transform="matrix(0.80311173,0,0,0.80311173,53.226162,308.93138)"
       style="opacity:0.9;display:inline"
       id="g3477">
      <path
         sodipodi:nodetypes="zccccccccccccccccccccccccczzzz"
         inkscape:connector-curvature="0"
         id="path4009"
         d="m -126.9857,242.56906 c -7.31901,21.02415 -6.00533,75.45967 -6.00533,75.45967 l 0,16.09888 -16.09887,-12.07416 -14.08657,8.04944 -6.03707,22.13599 13.08034,15.09274 17.10509,31.19165 15.09274,3.01854 13.08038,72.44506 27.166893,58.35856 17.1051,18.11128 35.21637,11.06802 36.2225005,-9.05567 24.1484095,-28.17307 20.12364,-37.22874 21.12981,-67.41416 19.11745,0 9.05562,-14.08656 16.098917,-17.1051 10.06184,-9.05561 0,-26.16076 -17.1051,-6.03707 -14.086557,8.04943 -11.06803,19.11745 3.090066,-71.47066 c 0,0 7.392436,-62.28859 -8.073276,-81.46893 C 61.882952,202.25494 34.551883,185.45937 7.8744635,179.12001 -18.802956,172.78066 -70.333792,178.9298 -92.743717,192.25597 c -22.409923,13.32617 -26.922973,29.28895 -34.241983,50.31309 z"
         style="fill:#fcdddd;fill-opacity:1;stroke:none;display:inline" />
      <path
         sodipodi:nodetypes="csssc"
         inkscape:connector-curvature="0"
         inkscape:original-d="m -135.42378,344.54932 c 0,0 18.88533,115.20038 22.66236,122.75452 3.77706,7.55409 16.367268,74.91169 50.990328,84.35437 34.62307,9.44264 66.0524804,4.36841 78.05928,-10.07219 46.58372,-56.02642 70.50516,-193.88916 70.50516,-193.88916"
         inkscape:path-effect="#path-effect3197-6"
         id="path3195"
         d="m -135.42378,344.54933 c 0.59674,-0.10106 4.86777,21.79303 11.48709,58.28717 2.30646,12.35652 4.89817,26.38222 7.99346,41.72644 0.97638,4.83943 1.98859,9.79953 3.1645,14.83655 0.37119,1.58852 0.75024,3.16706 1.18758,4.71901 0.14682,0.51973 0.2937,1.01985 0.45595,1.49425 0.11749,0.32793 0.2003,0.57989 0.28729,0.73434 0.4181,0.84299 0.70133,1.64429 0.93998,2.3553 0.39008,1.13333 0.74103,2.26538 1.08251,3.38469 0.97017,3.17716 1.90398,6.39343 2.88695,9.61819 2.62486,8.60645 5.56211,17.41662 9.266791,26.16154 3.86176,9.09094 8.431737,18.19329 14.770443,26.18438 2.831896,3.57015 6.000808,6.89728 9.634686,9.61435 3.360488,2.51092 7.127679,4.51867 11.148401,5.59855 9.830673,2.65687 20.138369,4.4344 30.564656,4.70123 5.382366,0.13775 10.716227,-0.13136 15.95124,-0.85849 6.1278944,-0.8536 12.0789933,-2.32184 17.4700121,-4.78088 4.48413,-2.06346 8.6022489,-4.75066 11.5351249,-8.30749 6.885037,-8.22909 12.564463,-17.10005 17.504949,-26.12028 4.940486,-9.02022 9.143134,-18.18855 12.97425,-27.11189 2e-6,0 5e-6,-1e-5 7e-6,-1e-5 4.919536,-11.48341 9.108736,-22.6685 12.781734,-33.33927 3.672999,-10.67076 6.830001,-20.8271 9.62137,-30.29033 6.477978,-21.96461 10.936636,-40.21665 14.032264,-53.23727 3.172989,-14.32201 5.112846,-22.27858 5.475134,-22.22268 0,0 0,0 0,0 0,0 10e-7,0 10e-7,0 0,0 0,0 0,0 0,0 0,0 0,0 0,0 10e-7,0 10e-7,0 0,0 1e-6,0 1e-6,0 7.53e-4,1.3e-4 7.53e-4,1.3e-4 7.53e-4,1.3e-4 0,0 0,0 7.51e-4,1.5e-4 0,0 10e-7,0 10e-7,0 0,0 10e-7,0 10e-7,0 0,0 0,0 0,0 0,0 0,0 0,0 0,0 0,0 10e-7,0 0,0 0,0 0,0 0.357825,0.0783 -0.898378,8.1645 -3.462424,22.63982 -2.542512,13.17016 -6.513976,31.6047 -12.605983,53.7992 -2.622381,9.55559 -5.632161,19.8182 -9.185938,30.61572 -3.553777,10.79752 -7.651827,22.12997 -12.513866,33.78619 -2e-6,1e-5 -5e-6,1e-5 -7e-6,2e-5 -3.763823,9.04351 -7.954087,18.37915 -12.952456,27.62659 -4.998369,9.24744 -10.806108,18.40568 -17.89993,26.98902 -3.581945,4.27856 -8.276085,7.4325 -13.2514052,9.68008 -5.9489055,2.70899 -12.3614075,4.32575 -18.8405408,5.21618 -5.523264,0.76115 -11.127877,1.04709 -16.760509,0.90802 -10.911085,-0.26938 -21.612355,-2.11784 -31.745078,-4.90552 -4.726437,-1.30571 -9.04316,-3.60025 -12.804953,-6.45315 -4.046768,-3.06724 -7.500085,-6.70138 -10.497344,-10.53736 -6.683963,-8.55463 -11.408206,-18.04687 -15.268998,-27.38302 -3.73154,-8.99894 -6.64486,-17.98169 -9.2054,-26.69764 -0.96224,-3.27342 -1.86182,-6.4978 -2.78602,-9.64825 -0.32665,-1.11236 -0.64943,-2.19901 -0.99875,-3.25068 -0.24229,-0.71022 -0.4409,-1.33138 -0.68943,-1.82164 -0.23918,-0.49791 -0.39481,-0.93707 -0.50722,-1.29882 -0.19211,-0.58865 -0.35459,-1.16313 -0.50314,-1.71846 -0.44575,-1.66238 -0.82006,-3.30626 -1.17445,-4.91876 -1.12843,-5.12882 -2.08059,-10.14158 -2.98675,-15.00424 -2.87768,-15.43871 -5.21183,-29.53038 -7.23034,-41.94377 -5.76737,-36.6458 -8.94369,-58.72615 -8.34695,-58.82721 z"
         style="fill:#000000;fill-rule:evenodd;stroke:none;display:inline" />
      <path
         inkscape:connector-curvature="0"
         inkscape:original-d="m 93.705598,358.45535 c 0,0 6.856172,-10.65302 18.121132,-9.4293 11.26488,1.22373 19.47052,30.60971 6.83195,36.20214 -12.63858,5.59238 -26.990742,21.13007 -27.452682,31.21133 -0.46191,10.08122 -20.28446,6.02826 -20.28446,6.02826"
         inkscape:path-effect="#path-effect3189-8-1"
         id="path3187-7"
         d="m 93.705634,358.45529 c -0.02426,-0.0161 -0.04116,-0.0434 -0.05065,-0.0813 -0.009,-0.0362 -0.01109,-0.0823 -0.0062,-0.13791 0,0 0,0 0,0 0,0 0,0 0,0 0.0099,-0.10933 0.04741,-0.25615 0.11371,-0.43681 0,0 0,0 10e-7,0 0,0 0,0 0,0 0.127408,-0.34715 0.362926,-0.82332 0.72107,-1.4018 0,0 0,0 0,0 0.654368,-1.05749 1.719198,-2.48199 3.36309,-4.00663 0,0 0,0 0,0 1.444725,-1.34258 3.35948,-2.77264 5.87482,-3.84153 0,0 0,0 0,0 2.33879,-0.98844 5.18771,-1.59294 8.30426,-1.35557 0,0 0,0 0,0 1.80922,0.17147 3.54617,0.86317 5.0159,1.90673 0,0 0,0 0,0 1.58071,1.10633 2.95329,2.51982 4.10628,4.07894 0,0 0,0 0,0 0,0 0,0 0,0 0,0 0,0 0,0 2.46672,3.31415 4.28974,7.38208 5.34496,11.78525 0,0 0,0 0,0 0.9884,3.95157 1.42167,8.41931 0.41578,12.98092 0,0 0,0 0,0 -0.41889,1.90563 -1.18343,3.84843 -2.42975,5.62461 0,0 0,0 0,0 -1.19998,1.68295 -2.84803,3.0659 -4.80872,3.94407 -0.20585,0.0905 -0.41119,0.18284 -0.61599,0.27712 -6.72222,3.09451 -12.32484,7.94571 -16.93494,12.92695 -2.520234,2.74861 -4.6804,5.552 -6.312389,8.40603 -1.43827,2.58558 -2.5259,5.06434 -2.684309,7.403 -0.09092,1.46513 -0.584612,2.88831 -1.430761,4.08437 -0.869559,1.16574 -1.950736,1.9711 -3.045427,2.5007 -1.425441,0.67282 -2.822654,1.03013 -4.130917,1.22757 -1.308264,0.19744 -2.528048,0.23454 -3.630244,0.21403 -6.406474,-0.87369 -10.01131,-1.60197 -9.964226,-2.08228 0,0 0,0 0,0 0,0 0,0 0,0 0,0 0,0 0,0 0,0 0,0 0,-10e-6 0,0 0,0 0,0 0,0 0,0 0,0 1e-6,0 1e-6,0 1e-6,0 0,0 0,0 0,0 0,0 0,0 0,0 4.96e-4,-0.004 5.1e-4,-0.004 5.1e-4,-0.004 0,0 -1.2e-5,-1e-5 5.91e-4,-0.004 0,0 0,0 0,0 0,-1e-5 0,-1e-5 0,-1e-5 0,0 0,0 0,0 0,0 0,0 0,0 0,0 0,0 0,0 0,0 10e-7,0 10e-7,0 0,0 0,0 0,0 0,0 0,0 0,0 0,0 0,0 0,0 0.08696,-0.47725 3.790839,-0.64486 9.998521,-0.55087 1.005899,-0.12521 2.068255,-0.28036 3.118262,-0.54105 1.050007,-0.26068 2.087979,-0.62632 3.007551,-1.22058 0.686784,-0.43298 1.310164,-0.95711 1.668158,-1.58137 0.37826,-0.58935 0.560338,-1.384 0.574772,-2.21828 0.09473,-3.18573 1.189561,-6.38313 2.729815,-9.28375 1.700176,-3.28354 3.961386,-6.47191 6.593688,-9.48521 4.726493,-5.45956 10.786603,-10.80651 18.341363,-14.32504 0.23017,-0.10719 0.46113,-0.21239 0.69287,-0.31556 1.0968,-0.47474 2.07236,-1.29702 2.78553,-2.27795 0,0 0,0 0,0 0.79634,-1.06801 1.31405,-2.41766 1.67305,-3.84098 0,0 0,0 0,0 0.87908,-3.50493 0.54406,-7.26806 -0.18563,-10.81014 -0.85402,-3.92417 -2.26093,-7.49321 -4.22026,-10.36754 0,0 0,0 0,0 0,0 0,-1e-5 0,-1e-5 0,0 0,0 0,0 -0.91485,-1.33212 -1.89613,-2.49111 -2.99566,-3.33882 0,0 0,0 0,0 -1.00489,-0.76056 -2.06004,-1.31283 -3.07648,-1.44832 0,0 0,0 0,0 -2.45266,-0.36762 -4.82483,-0.0753 -6.84581,0.55205 0,0 0,0 0,0 -2.19875,0.67818 -4.0355,1.7329 -5.520276,2.74253 0,0 0,0 0,0 -1.691233,1.15326 -2.931097,2.25962 -3.819979,3.04621 0,0 0,0 0,0 -0.486289,0.43056 -0.864646,0.76668 -1.148114,0.98552 0,0 0,0 0,0 0,0 0,0 0,0 -0.147538,0.11391 -0.268689,0.19522 -0.365298,0.24197 0,0 0,0 0,0 -10e-7,0 -10e-7,0 -10e-7,0 -0.04937,0.024 -0.09218,0.0387 -0.128643,0.044 -0.03824,0.005 -0.06966,7.1e-4 -0.09392,-0.0154 z"
         style="fill:#000000;fill-rule:evenodd;stroke:none;display:inline" />
      <path
         inkscape:connector-curvature="0"
         inkscape:original-d="m -134.50429,333.14488 c -2.51807,-1.25903 -15.73776,-15.10823 -23.9214,-9.44264 -8.18363,5.6656 -18.25582,32.105 -6.92464,35.25259 11.33118,3.14758 23.29188,30.21651 25.18043,36.51161 1.88856,6.29511 17.62632,7.55409 17.62632,7.55409"
         inkscape:path-effect="#path-effect3193-4-2"
         id="path3191-6"
         d="m -134.50429,333.14488 c -0.0437,0.0874 -0.22768,0.10991 -0.5383,0.0231 -0.31062,-0.0867 -0.74264,-0.30326 -1.22885,-0.57679 -0.65751,-0.36791 -1.4811,-0.89652 -2.45522,-1.53827 -1.65605,-1.09048 -3.76284,-2.55712 -6.38078,-4.00303 0,0 0,0 0,0 -1.01073,-0.55229 -2.08952,-1.11045 -3.2333,-1.59248 -1.14377,-0.48204 -2.35245,-0.8883 -3.62484,-1.09482 -1.85143,-0.27821 -3.95031,-0.12854 -5.31158,0.99859 0,0 0,0 0,0 -1.04366,0.7432 -1.97142,1.74135 -2.83825,2.9243 -0.86683,1.18295 -1.67278,2.55075 -2.4984,3.99157 0,0 0,0 0,0 -1.76277,3.19955 -3.24851,6.77857 -4.26701,10.63632 -0.81161,3.23839 -1.46055,6.54746 -0.86823,9.5776 0.22538,1.09585 0.53562,2.0991 1.09039,2.75863 0.29119,0.39986 0.71586,0.74039 1.20188,0.9906 0.24721,0.12727 0.50904,0.23053 0.77543,0.30628 1.97425,0.57437 3.66014,1.54022 5.07552,2.62594 0,0 0,0 0,0 1.73806,1.31056 3.22534,2.78896 4.54115,4.29298 0,0 0,0 0,0 3.22706,3.67999 5.7185,7.61724 7.84356,11.39771 0,0 0,0 0,0 2.3051,4.08673 4.20369,8.08329 5.78158,11.84379 0,0 0,0 0,0 0,0 0,0 0,0 0,0 0,0 0,0 1.18273,2.80588 2.26908,5.56217 2.978,8.24698 0,0 0,0 0,0 0.0716,0.57145 0.43355,1.10107 0.91813,1.5976 0.48458,0.49653 1.09197,0.95989 1.69949,1.39453 0,0 0,0 0,0 1.81425,1.18854 3.76769,1.89814 5.49003,2.49072 0,0 0,0 0,0 2.21967,0.75699 4.07268,1.23408 5.40472,1.61138 0,0 0,0 0,0 0,0 0,0 0,0 0.7584,0.21472 1.34844,0.39195 1.75474,0.54588 0,0 0,0 0,0 0.21374,0.081 0.37608,0.15533 0.48541,0.22455 0,0 0,0 0,0 0.0557,0.0354 0.0975,0.0694 0.12523,0.10228 0,0 0,0 0,0 0.0116,0.0472 0.0213,0.0721 0.0283,0.0852 0.007,0.0128 0.0111,0.0143 0.0118,0.0144 7e-5,1e-5 5e-5,1e-5 5e-5,1e-5 0,0 2e-5,0 -5e-5,10e-6 -7.2e-4,4e-5 -0.005,8.1e-4 -0.014,0.0123 -0.009,0.0117 -0.0228,0.0347 -0.0421,0.0792 0,0 0,0 0,0 -0.0333,0.0276 -0.0814,0.0537 -0.1439,0.078 0,0 0,0 0,0 -0.12176,0.0477 -0.29868,0.0889 -0.52827,0.12207 0,0 0,0 0,0 -0.43645,0.063 -1.06545,0.0972 -1.87181,0.0865 0,0 0,0 0,0 0,0 0,0 0,0 -1.41536,-0.0185 -3.38863,-0.15925 -5.8259,-0.63409 0,0 0,0 0,0 -1.87949,-0.36016 -4.09322,-0.90265 -6.43561,-2.11192 0,0 0,0 0,0 -0.83437,-0.39713 -1.70475,-0.9451 -2.49601,-1.70296 -0.79125,-0.75786 -1.50363,-1.72565 -1.97703,-2.9707 0,0 0,0 0,0 -0.80633,-2.36598 -1.98736,-4.86065 -3.29745,-7.58913 0,0 0,0 0,0 0,0 0,0 0,0 0,0 0,0 0,0 -1.72109,-3.56362 -3.70998,-7.34195 -6.04143,-11.19235 -2.17004,-3.57216 -4.56729,-7.20475 -7.52042,-10.45811 0,0 0,0 0,0 -1.20305,-1.32179 -2.46053,-2.56155 -3.84167,-3.57345 0,0 0,0 0,0 -1.1405,-0.81731 -2.28568,-1.50807 -3.44008,-1.80278 -0.60428,-0.16611 -1.1906,-0.39688 -1.74847,-0.68926 -1.09675,-0.57479 -2.07306,-1.38234 -2.85702,-2.38603 -1.16079,-1.58002 -1.77721,-3.31079 -2.02519,-4.94797 -0.66603,-4.2351 0.079,-8.22653 1.11868,-11.70771 1.21608,-4.25291 2.97028,-8.15338 5.03796,-11.59326 0,0 0,0 0,0 0.88168,-1.51849 1.8712,-3.03018 3.01382,-4.40073 1.14263,-1.37056 2.43826,-2.59993 3.90531,-3.59492 0,0 0,0 0,0 2.77635,-1.73737 5.84832,-1.84315 8.3606,-1.18503 1.5924,0.4082 3.00246,1.00169 4.26511,1.6592 1.26265,0.6575 2.37795,1.37938 3.37515,2.08629 0,0 0,0 0,0 2.62479,1.8419 4.55644,3.6252 5.99303,5.02651 0.84945,0.82753 1.51283,1.52344 2.01284,2.06911 0.40456,0.42952 0.65755,0.75542 0.83682,0.98379 0.17927,0.22837 0.27007,0.37437 0.22638,0.46176 z"
         style="fill:#000000;fill-rule:evenodd;stroke:none;display:inline" />
      <path
         inkscape:connector-curvature="0"
         inkscape:original-d="m -132.32999,334.98271 c 0,0 -14.14213,-74.75129 8.08123,-112.12693 22.22335,-37.37565 80.812201,-53.53809 111.116777,-47.47717 30.304577,6.06091 88.893424,16.16244 96.974644,54.54823 8.08122,38.3858 2.020305,124.24877 2.020305,124.24877"
         inkscape:path-effect="#path-effect3475"
         id="path3473"
         d="m -132.32999,334.9827 c -0.009,0.002 -0.0191,-0.001 -0.03,-0.009 -0.0106,-0.008 -0.022,-0.0199 -0.0342,-0.0366 -0.0243,-0.0332 -0.0519,-0.0844 -0.0825,-0.15317 0,0 0,0 0,0 0,0 0,0 0,0 -0.0608,-0.13661 -0.13374,-0.3431 -0.21759,-0.61805 0,0 0,0 0,0 -0.16502,-0.54111 -0.37252,-1.3481 -0.61259,-2.41097 0,0 0,0 0,0 -0.46321,-2.05088 -1.04967,-5.05701 -1.67375,-8.94948 0,0 0,0 0,0 -1.14103,-7.11591 -2.45634,-17.20754 -3.05515,-29.83967 0,0 0,0 0,0 0,-10e-6 0,-10e-6 0,-10e-6 -0.25384,-5.33507 -0.38264,-11.13194 -0.22704,-17.33664 0.15559,-6.20471 0.59505,-12.81755 1.54666,-19.7621 0,0 0,0 0,0 0.7373,-5.44185 1.78715,-11.14493 3.44652,-16.90828 1.65937,-5.76334 3.92819,-11.58715 7.19455,-17.18863 0,0 0,0 0,0 2.75279,-4.68325 6.10668,-9.13505 9.96888,-13.29074 3.86221,-4.15568 8.2327,-8.01519 12.9704,-11.51775 9.022943,-6.68055 19.389333,-12.18185 30.564571,-16.40069 10.081533,-3.81235 20.873506,-6.63983 32.113393,-8.04192 0,0 0,0 0,0 8.990203,-1.13743 18.438898,-1.44767 27.816183,0.40843 0.112727,0.0225 0.225482,0.0451 0.338264,0.0676 8.9585894,1.78972 17.8557708,3.52918 26.558285,5.65162 10.502472,2.55887 20.7396,5.61977 30.365255,9.64426 0,0 0,0 0,0 9.741139,4.05665 18.962579,9.20137 26.484518,16.04862 3.669643,3.34736 6.888152,7.13153 9.421236,11.28697 0,0 0,0 0,0 2.641482,4.34281 4.473445,9.05679 5.456704,13.8501 0,0 0,0 0,0 1.155325,5.65525 1.834244,11.21448 2.33878,16.59762 0,0 0,0 0,0 0.629351,6.69669 0.969662,13.16693 1.179183,19.37123 0,0 0,0 0,0 0.519305,15.36962 0.26731,29.15866 -0.125169,41.01413 0,0 0,0 0,0 -0.46913,14.18142 -1.200493,25.61377 -1.850359,33.72829 0,0 0,0 0,0 -0.355183,4.43509 -0.691445,7.87999 -0.974989,10.24109 0,0 0,0 0,0 -0.146755,1.22205 -0.279553,2.154 -0.394431,2.78272 0,0 0,0 0,0 -0.05833,0.31923 -0.112049,0.56036 -0.160674,0.72162 0,0 0,0 0,0 0,0 0,0 -10e-7,0 -0.02449,0.0813 -0.04769,0.14223 -0.06954,0.18274 0,0 0,0 0,0 -0.02999,0.019 -0.0456,0.0338 -0.0537,0.0439 -0.008,0.0101 -0.0087,0.0155 -0.0087,0.0159 0,0 0,0 0,0 -10e-7,1e-5 -10e-7,1e-5 -10e-7,1e-5 0,0 0,0 0,-1e-5 0,0 0,0 0,0 1.7e-5,-3.6e-4 1.45e-4,-0.006 -0.0064,-0.017 -0.0066,-0.0112 -0.02,-0.028 -0.04707,-0.051 0,0 0,0 0,0 -0.01603,-0.0431 -0.03061,-0.10663 -0.04379,-0.19033 0,0 0,-1e-5 0,-1e-5 0,0 0,0 0,0 -0.02617,-0.16624 -0.04683,-0.41211 -0.06243,-0.73595 0,0 0,0 0,0 -0.03072,-0.63781 -0.04178,-1.57784 -0.03685,-2.80734 0,0 0,0 0,0 0.0095,-2.37549 0.07929,-5.83064 0.177536,-10.27229 0,0 0,0 0,0 0.179746,-8.12664 0.472634,-19.55386 0.547799,-33.69975 0,0 0,0 0,0 0.06259,-11.8283 0.0167,-25.55658 -0.757761,-40.79336 0,0 0,0 0,0 -0.312713,-6.15011 -0.746271,-12.53875 -1.456728,-19.1164 0,0 0,0 0,0 -0.573287,-5.29555 -1.29933,-10.70015 -2.474523,-16.11487 0,0 0,0 0,0 -0.928761,-4.28878 -2.624229,-8.5096 -5.03152,-12.38229 -2.307364,-3.72107 -5.281991,-7.14019 -8.690483,-10.21034 -7.005009,-6.32385 -15.787538,-11.10086 -25.222671,-15.01357 0,0 0,0 0,0 -9.324099,-3.85074 -19.322884,-6.79107 -29.675681,-9.29609 -8.5595826,-2.069 -17.3891614,-3.78267 -26.365689,-5.5772 -0.113008,-0.0226 -0.226002,-0.0452 -0.338982,-0.0678 -8.612883,-1.74194 -17.536015,-1.42584 -26.226986,-0.38076 0,0 0,0 0,0 -10.817322,1.3206 -21.244154,4.01242 -31.021134,7.64702 0,0 0,0 0,0 -10.828499,4.03255 -20.845535,9.24664 -29.539507,15.57694 -4.55393,3.32099 -8.75425,6.95281 -12.4615,10.84745 -3.70724,3.89464 -6.9214,8.05207 -9.551,12.42101 0,0 0,0 0,0 -3.13656,5.16706 -5.35183,10.65013 -7.01591,16.14752 -1.66409,5.49739 -2.77685,11.00922 -3.617,16.31482 0,0 0,0 0,0 -1.06037,6.76341 -1.62728,13.24149 -1.92391,19.34542 -0.29663,6.10392 -0.32243,11.83392 -0.23224,17.12455 0,0 0,10e-6 0,10e-6 0,0 0,0 0,0 0.21563,12.52242 1.10763,22.58945 1.80335,29.7285 0,0 0,0 0,0 0.38061,3.90496 0.71607,6.93382 0.92335,9.01881 0,0 0,0 0,0 0.10742,1.08057 0.18069,1.90696 0.21037,2.47023 0,0 0,0 0,0 0.0151,0.28621 0.0189,0.5043 0.0103,0.6532 0,0 0,0 0,0 0,0 0,0 0,0 -0.004,0.075 -0.0118,0.13248 -0.0226,0.17215 -0.005,0.0199 -0.0116,0.0354 -0.0187,0.0463 -0.007,0.0113 -0.0155,0.0178 -0.0246,0.0195 0,0 0,0 0,0 z"
         style="fill:#000000;fill-rule:evenodd;stroke:none" />
    </g>
  </g>
</svg>
