<?xml version="1.0" encoding="UTF-8" standalone="no"?>
<!-- Created with Inkscape (http://www.inkscape.org/) -->

<svg
   xmlns:dc="http://purl.org/dc/elements/1.1/"
   xmlns:cc="http://creativecommons.org/ns#"
   xmlns:rdf="http://www.w3.org/1999/02/22-rdf-syntax-ns#"
   xmlns:svg="http://www.w3.org/2000/svg"
   xmlns="http://www.w3.org/2000/svg"
   xmlns:sodipodi="http://sodipodi.sourceforge.net/DTD/sodipodi-0.dtd"
   xmlns:inkscape="http://www.inkscape.org/namespaces/inkscape"
   width="815.30786"
   height="979.21423"
   id="svg4068"
   version="1.1"
   inkscape:version="0.48.3.1 r9886"
   sodipodi:docname="cara_8.svg">
  <defs
     id="defs4070">
    <inkscape:path-effect
       effect="skeletal"
       id="path-effect6574"
       is_visible="true"
       pattern="m -14069.21,-1265.6489 c 0,-2.76 2.24,-5 5,-5 2.76,0 5,2.24 5,5 0,2.76 -2.24,5 -5,5 -2.76,0 -5,-2.24 -5,-5 z"
       copytype="single_stretched"
       prop_scale="1"
       scale_y_rel="false"
       spacing="0"
       normal_offset="0"
       tang_offset="0"
       prop_units="false"
       vertical_pattern="false"
       fuse_tolerance="0" />
    <inkscape:path-effect
       effect="skeletal"
       id="path-effect5543"
       is_visible="true"
       pattern="m -13870.71,-1632.2205 c 0,-2.76 2.24,-5 5,-5 2.76,0 5,2.24 5,5 0,2.76 -2.24,5 -5,5 -2.76,0 -5,-2.24 -5,-5 z"
       copytype="single_stretched"
       prop_scale="1"
       scale_y_rel="false"
       spacing="0"
       normal_offset="0"
       tang_offset="0"
       prop_units="false"
       vertical_pattern="false"
       fuse_tolerance="0" />
    <inkscape:path-effect
       effect="skeletal"
       id="path-effect6549"
       is_visible="true"
       pattern="m -9698.7475,1895.3113 c 0,-2.76 2.24,-5 5,-5 2.76,0 5,2.24 5,5 0,2.76 -2.24,5 -5,5 -2.76,0 -5,-2.24 -5,-5 z"
       copytype="single_stretched"
       prop_scale="1"
       scale_y_rel="false"
       spacing="0"
       normal_offset="0"
       tang_offset="0"
       prop_units="false"
       vertical_pattern="false"
       fuse_tolerance="0" />
    <inkscape:path-effect
       effect="skeletal"
       id="path-effect3189-8-4-9-7-6-9-2-2-9-8"
       is_visible="true"
       pattern="m 6237.6376,1770.428 c 0,-2.76 2.24,-4.9999 5,-4.9999 2.76,0 5,2.2399 5,4.9999 0,2.76 -2.24,5 -5,5 -2.76,0 -5,-2.24 -5,-5 z"
       copytype="single_stretched"
       prop_scale="1"
       scale_y_rel="false"
       spacing="0"
       normal_offset="0"
       tang_offset="0"
       prop_units="false"
       vertical_pattern="false"
       fuse_tolerance="0" />
    <inkscape:path-effect
       effect="skeletal"
       id="path-effect3189-8-4-9-7-6-9-2-2-9-8-3"
       is_visible="true"
       pattern="m 6757.667,1749.1885 c 0,-2.76 2.24,-4.9999 5,-4.9999 2.76,0 5,2.2399 5,4.9999 0,2.76 -2.24,5 -5,5 -2.76,0 -5,-2.24 -5,-5 z"
       copytype="single_stretched"
       prop_scale="1"
       scale_y_rel="false"
       spacing="0"
       normal_offset="0"
       tang_offset="0"
       prop_units="false"
       vertical_pattern="false"
       fuse_tolerance="0" />
    <inkscape:path-effect
       effect="skeletal"
       id="path-effect3093-0"
       is_visible="true"
       pattern="m 7506.6858,594.57527 c 0,-2.76 2.24,-5 5,-5 2.76,0 5,2.24 5,5 0,2.76 -2.24,5 -5,5 -2.76,0 -5,-2.24 -5,-5 z"
       copytype="single_stretched"
       prop_scale="1"
       scale_y_rel="false"
       spacing="0"
       normal_offset="0"
       tang_offset="0"
       prop_units="false"
       vertical_pattern="false"
       fuse_tolerance="0" />
    <inkscape:path-effect
       effect="skeletal"
       id="path-effect3189-5"
       is_visible="true"
       pattern="m 7506.6858,594.57527 c 0,-2.76 2.24,-5 5,-5 2.76,0 5,2.24 5,5 0,2.76 -2.24,5 -5,5 -2.76,0 -5,-2.24 -5,-5 z"
       copytype="single_stretched"
       prop_scale="1"
       scale_y_rel="false"
       spacing="0"
       normal_offset="0"
       tang_offset="0"
       prop_units="false"
       vertical_pattern="false"
       fuse_tolerance="0" />
    <inkscape:path-effect
       effect="skeletal"
       id="path-effect3193-1"
       is_visible="true"
       pattern="m 7506.6858,594.57527 c 0,-2.76 2.24,-5 5,-5 2.76,0 5,2.24 5,5 0,2.76 -2.24,5 -5,5 -2.76,0 -5,-2.24 -5,-5 z"
       copytype="single_stretched"
       prop_scale="1"
       scale_y_rel="false"
       spacing="0"
       normal_offset="0"
       tang_offset="0"
       prop_units="false"
       vertical_pattern="false"
       fuse_tolerance="0" />
    <inkscape:path-effect
       effect="skeletal"
       id="path-effect4306"
       is_visible="true"
       pattern="M 0,5 C 0,2.24 2.24,0 5,0 7.76,0 10,2.24 10,5 10,7.76 7.76,10 5,10 2.24,10 0,7.76 0,5 z"
       copytype="single_stretched"
       prop_scale="1"
       scale_y_rel="false"
       spacing="0"
       normal_offset="0"
       tang_offset="0"
       prop_units="false"
       vertical_pattern="false"
       fuse_tolerance="0" />
    <inkscape:path-effect
       effect="skeletal"
       id="path-effect3093-0-8"
       is_visible="true"
       pattern="m 7506.6858,594.57527 c 0,-2.76 2.24,-5 5,-5 2.76,0 5,2.24 5,5 0,2.76 -2.24,5 -5,5 -2.76,0 -5,-2.24 -5,-5 z"
       copytype="single_stretched"
       prop_scale="1"
       scale_y_rel="false"
       spacing="0"
       normal_offset="0"
       tang_offset="0"
       prop_units="false"
       vertical_pattern="false"
       fuse_tolerance="0" />
    <inkscape:path-effect
       effect="skeletal"
       id="path-effect3189-5-8"
       is_visible="true"
       pattern="m 7506.6858,594.57527 c 0,-2.76 2.24,-5 5,-5 2.76,0 5,2.24 5,5 0,2.76 -2.24,5 -5,5 -2.76,0 -5,-2.24 -5,-5 z"
       copytype="single_stretched"
       prop_scale="1"
       scale_y_rel="false"
       spacing="0"
       normal_offset="0"
       tang_offset="0"
       prop_units="false"
       vertical_pattern="false"
       fuse_tolerance="0" />
    <inkscape:path-effect
       effect="skeletal"
       id="path-effect3193-1-3"
       is_visible="true"
       pattern="m 7506.6858,594.57527 c 0,-2.76 2.24,-5 5,-5 2.76,0 5,2.24 5,5 0,2.76 -2.24,5 -5,5 -2.76,0 -5,-2.24 -5,-5 z"
       copytype="single_stretched"
       prop_scale="1"
       scale_y_rel="false"
       spacing="0"
       normal_offset="0"
       tang_offset="0"
       prop_units="false"
       vertical_pattern="false"
       fuse_tolerance="0" />
    <inkscape:path-effect
       effect="skeletal"
       id="path-effect4306-2"
       is_visible="true"
       pattern="M 0,5 C 0,2.24 2.24,0 5,0 7.76,0 10,2.24 10,5 10,7.76 7.76,10 5,10 2.24,10 0,7.76 0,5 z"
       copytype="single_stretched"
       prop_scale="1"
       scale_y_rel="false"
       spacing="0"
       normal_offset="0"
       tang_offset="0"
       prop_units="false"
       vertical_pattern="false"
       fuse_tolerance="0" />
    <inkscape:path-effect
       effect="skeletal"
       id="path-effect4589-2"
       is_visible="true"
       pattern="m 3203.4625,-287.36459 c 0,-2.76 2.24,-5 5,-5 2.76,0 5,2.24 5,5 0,2.76 -2.24,5 -5,5 -2.76,0 -5,-2.24 -5,-5 z"
       copytype="single_stretched"
       prop_scale="1"
       scale_y_rel="false"
       spacing="0"
       normal_offset="0"
       tang_offset="0"
       prop_units="false"
       vertical_pattern="false"
       fuse_tolerance="0" />
    <inkscape:path-effect
       effect="skeletal"
       id="path-effect3189-8-4-9-6-1"
       is_visible="true"
       pattern="m 9041.8924,-261.70024 c 0,-2.76 2.24,-5 5,-5 2.76,0 5,2.24 5,5 0,2.76 -2.24,5 -5,5 -2.76,0 -5,-2.24 -5,-5 z"
       copytype="single_stretched"
       prop_scale="1"
       scale_y_rel="false"
       spacing="0"
       normal_offset="0"
       tang_offset="0"
       prop_units="false"
       vertical_pattern="false"
       fuse_tolerance="0" />
    <inkscape:path-effect
       effect="skeletal"
       id="path-effect3189-8-4-9-7-6-9"
       is_visible="true"
       pattern="m 7960.9,-231.74201 c 0,-2.76 2.24,-5 5,-5 2.76,0 5,2.24 5,5 0,2.76 -2.24,5 -5,5 -2.76,0 -5,-2.24 -5,-5 z"
       copytype="single_stretched"
       prop_scale="1"
       scale_y_rel="false"
       spacing="0"
       normal_offset="0"
       tang_offset="0"
       prop_units="false"
       vertical_pattern="false"
       fuse_tolerance="0" />
    <inkscape:path-effect
       effect="skeletal"
       id="path-effect6549-1"
       is_visible="true"
       pattern="m -9698.7475,1895.3113 c 0,-2.76 2.24,-5 5,-5 2.76,0 5,2.24 5,5 0,2.76 -2.24,5 -5,5 -2.76,0 -5,-2.24 -5,-5 z"
       copytype="single_stretched"
       prop_scale="1"
       scale_y_rel="false"
       spacing="0"
       normal_offset="0"
       tang_offset="0"
       prop_units="false"
       vertical_pattern="false"
       fuse_tolerance="0" />
    <inkscape:path-effect
       effect="skeletal"
       id="path-effect3189-8-4-9-7-6-9-2-2-9-8-5"
       is_visible="true"
       pattern="m 6237.6376,1770.428 c 0,-2.76 2.24,-4.9999 5,-4.9999 2.76,0 5,2.2399 5,4.9999 0,2.76 -2.24,5 -5,5 -2.76,0 -5,-2.24 -5,-5 z"
       copytype="single_stretched"
       prop_scale="1"
       scale_y_rel="false"
       spacing="0"
       normal_offset="0"
       tang_offset="0"
       prop_units="false"
       vertical_pattern="false"
       fuse_tolerance="0" />
    <inkscape:path-effect
       effect="skeletal"
       id="path-effect3189-8-4-9-7-6-9-2-2-9-8-3-4"
       is_visible="true"
       pattern="m 6757.667,1749.1885 c 0,-2.76 2.24,-4.9999 5,-4.9999 2.76,0 5,2.2399 5,4.9999 0,2.76 -2.24,5 -5,5 -2.76,0 -5,-2.24 -5,-5 z"
       copytype="single_stretched"
       prop_scale="1"
       scale_y_rel="false"
       spacing="0"
       normal_offset="0"
       tang_offset="0"
       prop_units="false"
       vertical_pattern="false"
       fuse_tolerance="0" />
    <inkscape:path-effect
       effect="skeletal"
       id="path-effect3189-8-4-9-6-1-2-2"
       is_visible="true"
       pattern="m 9466.4313,2392.7382 c 0,-2.76 2.24,-5 5,-5 2.76,0 5,2.24 5,5 0,2.76 -2.24,5 -5,5 -2.76,0 -5,-2.24 -5,-5 z"
       copytype="single_stretched"
       prop_scale="1"
       scale_y_rel="false"
       spacing="0"
       normal_offset="0"
       tang_offset="0"
       prop_units="false"
       vertical_pattern="false"
       fuse_tolerance="0" />
    <inkscape:path-effect
       effect="skeletal"
       id="path-effect3189-8-4-9-6-1-2-6-1"
       is_visible="true"
       pattern="m 8256.775,2407.6317 c 0,-2.76 2.24,-5 5,-5 2.76,0 5,2.24 5,5 0,2.76 -2.24,5 -5,5 -2.76,0 -5,-2.24 -5,-5 z"
       copytype="single_stretched"
       prop_scale="1"
       scale_y_rel="false"
       spacing="0"
       normal_offset="0"
       tang_offset="0"
       prop_units="false"
       vertical_pattern="false"
       fuse_tolerance="0" />
    <inkscape:path-effect
       effect="skeletal"
       id="path-effect4310"
       is_visible="true"
       pattern="M 0,5 C 0,2.24 2.24,0 5,0 7.76,0 10,2.24 10,5 10,7.76 7.76,10 5,10 2.24,10 0,7.76 0,5 z"
       copytype="single_stretched"
       prop_scale="1"
       scale_y_rel="false"
       spacing="0"
       normal_offset="0"
       tang_offset="0"
       prop_units="false"
       vertical_pattern="false"
       fuse_tolerance="0" />
    <inkscape:path-effect
       effect="skeletal"
       id="path-effect4314"
       is_visible="true"
       pattern="M 0,5 C 0,2.24 2.24,0 5,0 7.76,0 10,2.24 10,5 10,7.76 7.76,10 5,10 2.24,10 0,7.76 0,5 z"
       copytype="single_stretched"
       prop_scale="1"
       scale_y_rel="false"
       spacing="0"
       normal_offset="0"
       tang_offset="0"
       prop_units="false"
       vertical_pattern="false"
       fuse_tolerance="0" />
    <inkscape:path-effect
       effect="skeletal"
       id="path-effect5025-1"
       is_visible="true"
       pattern="m 1215.9352,2142.6341 c 0,-2.76 2.24,-5 5,-5 2.76,0 5,2.24 5,5 0,2.76 -2.24,5 -5,5 -2.76,0 -5,-2.24 -5,-5 z"
       copytype="single_stretched"
       prop_scale="1"
       scale_y_rel="false"
       spacing="0"
       normal_offset="0"
       tang_offset="0"
       prop_units="false"
       vertical_pattern="false"
       fuse_tolerance="0" />
    <inkscape:path-effect
       effect="skeletal"
       id="path-effect3189-8-4-9-6-1-2-4"
       is_visible="true"
       pattern="m 10700.692,2179.7965 c 0,-2.76 2.24,-5 5,-5 2.76,0 5,2.24 5,5 0,2.76 -2.24,5 -5,5 -2.76,0 -5,-2.24 -5,-5 z"
       copytype="single_stretched"
       prop_scale="1"
       scale_y_rel="false"
       spacing="0"
       normal_offset="0"
       tang_offset="0"
       prop_units="false"
       vertical_pattern="false"
       fuse_tolerance="0" />
    <inkscape:path-effect
       effect="skeletal"
       id="path-effect3189-8-4-9-6-1-2-6-5"
       is_visible="true"
       pattern="m 9593.9611,2130.9953 c 0,-2.76 2.24,-5 5,-5 2.76,0 5,2.24 5,5 0,2.76 -2.24,5 -5,5 -2.76,0 -5,-2.24 -5,-5 z"
       copytype="single_stretched"
       prop_scale="1"
       scale_y_rel="false"
       spacing="0"
       normal_offset="0"
       tang_offset="0"
       prop_units="false"
       vertical_pattern="false"
       fuse_tolerance="0" />
    <inkscape:path-effect
       effect="skeletal"
       id="path-effect4302"
       is_visible="true"
       pattern="M 0,5 C 0,2.24 2.24,0 5,0 7.76,0 10,2.24 10,5 10,7.76 7.76,10 5,10 2.24,10 0,7.76 0,5 z"
       copytype="single_stretched"
       prop_scale="1"
       scale_y_rel="false"
       spacing="0"
       normal_offset="0"
       tang_offset="0"
       prop_units="false"
       vertical_pattern="false"
       fuse_tolerance="0" />
    <inkscape:path-effect
       effect="skeletal"
       id="path-effect4589"
       is_visible="true"
       pattern="m 2707.1429,-1309.2857 c 0,-2.76 2.24,-5 5,-5 2.76,0 5,2.24 5,5 0,2.76 -2.24,5 -5,5 -2.76,0 -5,-2.24 -5,-5 z"
       copytype="single_stretched"
       prop_scale="1"
       scale_y_rel="false"
       spacing="0"
       normal_offset="0"
       tang_offset="0"
       prop_units="false"
       vertical_pattern="false"
       fuse_tolerance="0" />
    <inkscape:path-effect
       effect="skeletal"
       id="path-effect3189-8-4-9-6"
       is_visible="true"
       pattern="m 8674.6712,-1366.8956 c 0,-2.76 2.24,-5 5,-5 2.76,0 5,2.24 5,5 0,2.76 -2.24,5 -5,5 -2.76,0 -5,-2.24 -5,-5 z"
       copytype="single_stretched"
       prop_scale="1"
       scale_y_rel="false"
       spacing="0"
       normal_offset="0"
       tang_offset="0"
       prop_units="false"
       vertical_pattern="false"
       fuse_tolerance="0" />
    <inkscape:path-effect
       effect="skeletal"
       id="path-effect3189-8-4-9-7-6"
       is_visible="true"
       pattern="m 7350.8217,-1359.7945 c 0,-2.76 2.24,-5 5,-5 2.76,0 5,2.24 5,5 0,2.76 -2.24,5 -5,5 -2.76,0 -5,-2.24 -5,-5 z"
       copytype="single_stretched"
       prop_scale="1"
       scale_y_rel="false"
       spacing="0"
       normal_offset="0"
       tang_offset="0"
       prop_units="false"
       vertical_pattern="false"
       fuse_tolerance="0" />
    <inkscape:path-effect
       effect="skeletal"
       id="path-effect5345-0"
       is_visible="true"
       pattern="m -3081.7985,2386.9198 c 0,-2.76 2.24,-5 5,-5 2.76,0 5,2.24 5,5 0,2.76 -2.24,5 -5,5 -2.76,0 -5,-2.24 -5,-5 z"
       copytype="single_stretched"
       prop_scale="1"
       scale_y_rel="false"
       spacing="0"
       normal_offset="0"
       tang_offset="0"
       prop_units="false"
       vertical_pattern="false"
       fuse_tolerance="0" />
    <inkscape:path-effect
       effect="skeletal"
       id="path-effect3189-8-4-9-6-1-3-8-81"
       is_visible="true"
       pattern="m 9702.415,2364.4336 c 0,-2.76 2.24,-5 5,-5 2.76,0 5,2.24 5,5 0,2.76 -2.24,5 -5,5 -2.76,0 -5,-2.24 -5,-5 z"
       copytype="single_stretched"
       prop_scale="1"
       scale_y_rel="false"
       spacing="0"
       normal_offset="0"
       tang_offset="0"
       prop_units="false"
       vertical_pattern="false"
       fuse_tolerance="0" />
    <inkscape:path-effect
       effect="skeletal"
       id="path-effect3189-8-4-9-7-6-9-2-2-3"
       is_visible="true"
       pattern="m 8303.671,2362.1264 c 0,-2.76 2.24,-5 5,-5 2.76,0 5,2.24 5,5 0,2.76 -2.24,5 -5,5 -2.76,0 -5,-2.24 -5,-5 z"
       copytype="single_stretched"
       prop_scale="1"
       scale_y_rel="false"
       spacing="0"
       normal_offset="0"
       tang_offset="0"
       prop_units="false"
       vertical_pattern="false"
       fuse_tolerance="0" />
  </defs>
  <sodipodi:namedview
     id="base"
     pagecolor="#ffffff"
     bordercolor="#666666"
     borderopacity="1.0"
     inkscape:pageopacity="0.0"
     inkscape:pageshadow="2"
     inkscape:zoom="0.12374369"
     inkscape:cx="69.874243"
     inkscape:cy="535.1819"
     inkscape:document-units="px"
     inkscape:current-layer="layer1"
     showgrid="false"
     fit-margin-top="0"
     fit-margin-left="0"
     fit-margin-right="0"
     fit-margin-bottom="0"
     inkscape:window-width="560"
     inkscape:window-height="451"
     inkscape:window-x="3"
     inkscape:window-y="47"
     inkscape:window-maximized="0" />
  <metadata
     id="metadata4073">
    <rdf:RDF>
      <cc:Work
         rdf:about="">
        <dc:format>image/svg+xml</dc:format>
        <dc:type
           rdf:resource="http://purl.org/dc/dcmitype/StillImage" />
        <dc:title></dc:title>
      </cc:Work>
    </rdf:RDF>
  </metadata>
  <g
     inkscape:label="Capa 1"
     inkscape:groupmode="layer"
     id="layer1"
     transform="translate(-650.94645,-246.1431)">
    <g
       transform="translate(-8395.929,-3607.1308)"
       style="display:inline"
       id="g4347">
      <path
         inkscape:connector-curvature="0"
         id="path4789-2"
         d="m 9243.6035,3921.9643 c 0,0 -68.6904,94.9543 -68.6904,121.2183 0,26.264 -32.3249,139.401 -32.3249,151.5229 0,12.1218 -2.0203,90.9137 -2.0203,90.9137 l -48.4873,-32.3249 -22.2234,4.0406 -18.1827,32.3249 c 0,0 -2.0203,24.2437 6.0609,34.3452 8.0812,10.1015 30.3046,30.3046 30.3046,30.3046 l 30.3045,56.5685 26.264,8.0812 32.3249,159.6041 c 0,0 38.3858,107.0762 70.7107,143.4417 32.3248,36.3655 88.8934,80.8122 141.4213,98.995 52.528,18.1827 129.2995,6.0609 167.6853,-8.0813 38.3858,-14.1421 113.1371,-60.6091 137.3808,-88.8934 24.2437,-28.2843 74.7513,-121.2183 74.7513,-145.462 0,-24.2436 8.0812,-157.5838 8.0812,-157.5838 l 20.203,-4.0406 c 0,0 6.061,-28.2842 12.1219,-40.4061 6.0609,-12.1218 40.4061,-28.2842 44.4467,-48.4873 4.0406,-20.203 4.0406,-54.5482 -10.1015,-62.6294 -14.1422,-8.0813 -62.6295,-22.2234 -68.6904,-6.061 -6.0609,16.1625 -16.1624,-92.934 -16.1624,-92.934 0,0 -36.3655,-163.6447 -66.6701,-197.9899 -30.3046,-34.3452 -149.5026,-115.1574 -149.5026,-115.1574 l -200.0102,12.1218 z"
         style="fill:#f3dfd3;fill-opacity:1;stroke:none;display:inline" />
      <path
         sodipodi:nodetypes="zsssssssz"
         inkscape:connector-curvature="0"
         inkscape:original-d="m 9456.0212,3854.9044 c -178.0867,-0.3956 -229.5045,72.3057 -265.1993,157.9737 -26.653,63.9665 -55.2092,159.0291 -42.1371,339.4265 11.8979,164.197 16.8605,217.4404 66.5315,308.7299 62.3553,114.6019 158.2031,172.6599 286.4261,165.9292 76.045,-3.9918 208.334,-101.2232 237.9669,-176.0953 49.2018,-124.3189 28.5062,-215.5146 28.5062,-301.1827 0,-85.6681 -0.8653,-187.8947 -36.6308,-291.4948 -39.321,-113.9002 -97.3781,-202.8909 -275.4635,-203.2865 z"
         inkscape:path-effect="#path-effect5345-0"
         id="path5343-4"
         d="m 9456.0212,3854.9044 c -4e-4,0.1803 -2.5134,0.3393 -7.4113,0.5575 -4.8979,0.2183 -12.1845,0.4901 -21.7089,1.0951 -9.5245,0.6049 -21.2927,1.5324 -35.056,3.384 -13.7633,1.8516 -29.5286,4.6143 -46.8506,9.3909 0,0 0,0 -10e-5,0 -11.4982,3.1716 -23.6838,7.2938 -36.1113,12.8453 -12.4276,5.5516 -25.1006,12.5313 -37.3154,21.5581 -8.5962,6.3413 -16.9127,13.7062 -24.7731,22.0553 -7.8604,8.349 -15.2647,17.6829 -22.0198,27.8809 -5.9299,8.9485 -11.392,18.5404 -16.4933,28.6661 -5.1013,10.1257 -9.8415,20.7854 -14.3889,31.8199 -7.7141,18.7382 -14.7035,38.6151 -20.6803,59.5491 -5.9767,20.9341 -10.9407,42.9256 -14.5913,65.8357 -5.173,32.4152 -8.0698,66.5366 -8.8747,102.064 -0.8049,35.5274 0.4833,72.4611 3.3037,110.382 2.5375,34.0173 5.0395,68.9313 8.6178,104.5387 2.5482,25.3264 5.6261,50.9778 10.7237,76.5732 4.1933,21.063 9.9103,42.0798 17.6234,62.5969 8.0397,21.4112 18.1989,42.3484 29.4648,63.0177 14.3837,26.3589 31.5975,51.6694 52.3899,74.2025 18.6488,20.2141 40.2272,38.1656 64.373,52.2917 23.47,13.7435 49.3758,23.8385 76.4152,29.9096 17.8019,4.0018 36.086,6.2792 54.5643,7.0573 11.4048,0.4803 22.8143,0.3873 34.1584,-0.2036 9.975,-0.5068 19.923,-2.6147 29.7098,-5.4453 11.4879,-3.3353 22.6641,-7.7518 33.5641,-12.7614 25.0813,-11.5308 48.5136,-26.096 70.4361,-42.2521 22.599,-16.6715 43.5617,-35.0619 61.8932,-55.3811 8.3596,-9.2677 16.1439,-18.9146 22.9754,-29.0749 0,0 0,0 0,-1e-4 6.0101,-8.953 11.3098,-18.238 15.1592,-27.9665 11.2699,-28.3955 19.7234,-57.4251 25.0551,-86.5276 4.713,-25.6965 6.9823,-51.4665 7.5315,-76.872 0.5122,-23.6399 -0.4533,-47.0148 -1.6051,-70.054 -1.1157,-22.2336 -2.3817,-44.2252 -2.3385,-65.9516 0.05,-24.1716 -0.041,-47.8563 -0.6811,-70.9846 -0.6398,-23.1283 -1.8282,-45.7004 -3.8587,-67.6582 -2.5478,-27.5434 -6.4008,-54.1385 -11.5858,-79.5012 -5.1849,-25.3627 -11.701,-49.4936 -19.4481,-72.2125 -4.9237,-14.4325 -10.0965,-28.3707 -15.7127,-41.6452 -5.6162,-13.2745 -11.6755,-25.8856 -18.2871,-37.7225 -7.1376,-12.7753 -14.9663,-24.6316 -23.3697,-35.3451 -8.4035,-10.7136 -17.3814,-20.2855 -26.7889,-28.624 0,0 0,-1e-4 -10e-5,-1e-4 -12.334,-10.9496 -25.3509,-19.7103 -38.2392,-26.7612 -12.8882,-7.051 -25.6516,-12.3927 -37.7621,-16.4734 -16.7765,-5.8156 -32.2378,-9.3309 -45.8473,-11.7174 -13.6095,-2.3864 -25.3756,-3.6325 -35.0122,-4.4202 -9.6365,-0.7877 -17.1507,-1.1078 -22.3858,-1.3109 -5.235,-0.2031 -8.1958,-0.2842 -8.7613,-0.3737 10e-5,-0.031 10e-5,-0.031 10e-5,-0.031 0,0 0,0 1e-4,-0.031 0.566,-0.087 3.5287,-0.1847 8.7816,-0.1933 5.2529,-0.01 12.8006,0.067 22.5072,0.5551 9.7065,0.4885 21.5791,1.3811 35.3636,3.3519 13.7844,1.9708 29.4893,5.0081 46.6239,10.2905 12.3841,3.9356 25.4691,9.1742 38.7312,16.1918 13.2621,7.0176 26.7053,15.8149 39.5213,26.9052 0,0 0,0 0,0 9.7559,8.4551 19.0783,18.1675 27.8047,29.0419 8.7265,10.8744 16.8566,22.9121 24.254,35.8848 6.8461,12.003 13.1264,24.7708 18.9412,38.1803 5.8149,13.4094 11.1639,27.4608 16.2319,41.9711 8.0207,22.9549 14.796,47.3381 20.2157,72.9578 5.4196,25.6196 9.4829,52.4762 12.2054,80.2723 2.171,22.1602 3.4912,44.9058 4.2527,68.1654 0.7615,23.2595 0.9642,47.033 1.0141,71.2376 0.043,21.3809 1.3934,43.2041 2.5913,65.4858 1.246,23.0942 2.2969,46.6766 1.8602,70.7032 -0.4705,25.8256 -2.7114,52.0954 -7.4538,78.3793 -5.3754,29.7592 -13.9307,59.415 -25.3671,88.3919 -4.1839,10.5689 -9.7875,20.4797 -16.0687,29.832 0,0 0,1e-4 0,1e-4 -7.1327,10.6363 -15.1848,20.6625 -23.7765,30.2068 -18.8206,20.9112 -40.2496,39.7779 -63.2848,56.794 -22.3269,16.5092 -46.3267,31.4386 -72.1466,43.3429 -11.2298,5.1791 -22.8648,9.7735 -34.9433,13.2952 -10.2673,3.0045 -20.9692,5.2436 -31.9761,5.8382 -11.6396,0.6155 -23.3644,0.7124 -35.1045,0.215 -19.0217,-0.8058 -37.896,-3.1659 -56.3317,-7.3033 -28.019,-6.2955 -54.8724,-16.7845 -79.2528,-31.0782 -25.0645,-14.7079 -47.3805,-33.2972 -66.5946,-54.1956 -21.4024,-23.2832 -39.0368,-49.272 -53.6678,-76.2388 -11.3806,-20.9524 -21.6831,-42.3253 -29.8899,-64.3055 -7.8667,-21.0936 -13.668,-42.6198 -17.8832,-64.1291 -5.1094,-26.0823 -8.1499,-52.0316 -10.618,-77.4932 -3.474,-35.7945 -5.8499,-70.7892 -8.2422,-104.8055 -2.6921,-38.1524 -3.8094,-75.3767 -2.8009,-111.2236 1.0084,-35.8469 4.1413,-70.3167 9.5732,-103.08 3.8514,-23.1986 9.036,-45.445 15.2463,-66.601 6.2103,-21.156 13.4461,-41.2219 21.413,-60.1176 4.6793,-11.1098 9.587,-21.8806 14.8816,-32.1415 5.2946,-10.2609 10.9758,-20.012 17.1416,-29.1329 7.0404,-10.4109 14.7563,-19.9234 22.9402,-28.4196 8.1838,-8.4961 16.8357,-15.9768 25.7668,-22.4052 12.6961,-9.1223 25.7686,-16.1015 38.5312,-21.5898 12.7625,-5.4883 25.2189,-9.4845 36.9391,-12.494 0,0 0,0 0,0 17.6361,-4.5298 33.6076,-7.0058 47.5158,-8.5501 13.9081,-1.5444 25.7597,-2.144 35.3373,-2.4118 9.5776,-0.2678 16.8868,-0.1931 21.7957,-0.06 4.909,0.1331 7.421,0.3304 7.4206,0.5107 z"
         style="fill:#000000;fill-rule:evenodd;stroke:none;display:inline" />
      <path
         sodipodi:nodetypes="csccc"
         inkscape:connector-curvature="0"
         inkscape:original-d="m 9770.7476,4274.6051 c 0,0 17.8708,-29.5127 62.5085,-17.5277 18.8225,5.0538 35.1893,67.3003 13.8336,80.8344 -21.3563,13.5339 -45.0719,49.5485 -45.2759,72.2395 -0.2045,22.6907 -34.4478,15.0977 -34.4478,15.0977"
         inkscape:path-effect="#path-effect3189-8-4-9-6-1-3-8-81"
         id="path3187-7-6-0-3-8-9-0-5"
         d="m 9770.7476,4274.6051 c -0.027,-0.017 -0.05,-0.042 -0.067,-0.074 -0.017,-0.031 -0.03,-0.07 -0.037,-0.1147 0,0 0,0 0,0 -0.015,-0.09 -0.012,-0.2066 0.01,-0.3496 0,0 0,0 0,0 0,0 0,0 0,0 0.045,-0.2819 0.167,-0.6675 0.3722,-1.1426 0,0 0,0 0,0 0.3962,-0.9176 1.1097,-2.1846 2.2055,-3.6898 0,0 0,0 0,0 1.0277,-1.4119 2.3947,-3.0438 4.1709,-4.7709 1.7763,-1.727 3.9639,-3.5492 6.6051,-5.2966 0,0 0,0 0,0 2.5469,-1.6832 5.5143,-3.2878 8.8936,-4.6493 3.3794,-1.3614 7.1719,-2.4792 11.3038,-3.1797 0,0 0,0 0,0 4.4822,-0.7521 9.3207,-1.0366 14.3958,-0.7761 5.0751,0.2605 10.3868,1.0667 15.7586,2.4077 0,0 0,0 0,0 3.6247,1.0157 6.6303,3.0359 8.8974,5.3585 0,0 0,0 0,0 2.8396,2.7872 5.16,6.0063 7.0938,9.3378 0,0 0,0 0,0 4.4875,7.6682 7.6733,16.438 9.6641,25.6412 0,0 0,0 0,0 1.921,8.6111 2.9115,18.0374 1.5108,27.7181 -0.299,2.1087 -0.7536,4.2613 -1.4174,6.4105 -0.5882,1.9044 -1.3363,3.7904 -2.2732,5.6251 -1.791,3.5369 -4.5127,6.737 -8.082,9.0532 0,0 0,0 0,0 -5.6339,3.5145 -10.5898,8.0878 -15.1662,12.9015 0,0 0,0 0,0 -5.444,5.7566 -10.1526,11.8743 -14.22,18.0341 0,0 0,0 0,0 -4.3427,6.5939 -7.9179,13.172 -10.5524,19.611 0,0 0,0 0,0 -1.2494,3.1034 -2.3223,6.1285 -3.093,9.0546 -0.7707,2.926 -1.2396,5.7531 -1.3476,8.4685 0,0 0,0 0,0 -0.085,2.9717 -0.7862,5.9349 -2.1371,8.5685 0,0 0,0 0,0 -1.2769,2.4108 -3.0596,4.3302 -5.0435,5.7338 0,0 0,0 0,0 -2.3347,1.5979 -4.7297,2.5556 -7.0087,3.1545 -2.2791,0.5988 -4.4435,0.8381 -6.4019,0.9113 0,0 0,0 0,0 -2.6123,0.1242 -4.9439,-0 -6.9797,-0.2306 -2.0357,-0.2269 -3.7763,-0.5541 -5.2185,-0.892 0,0 0,0 0,0 0,0 0,0 0,0 -1.6947,-0.3956 -2.987,-0.8149 -3.8605,-1.1864 0,0 0,0 0,0 -0.4649,-0.1978 -0.813,-0.3831 -1.0402,-0.5481 0,0 0,0 0,0 0,0 0,0 0,0 -0.1176,-0.085 -0.2032,-0.1648 -0.2562,-0.2383 0,0 0,0 0,0 0,0 0,0 0,0 -0.014,-0.098 -0.028,-0.1494 -0.04,-0.1767 -0.012,-0.027 -0.02,-0.03 -0.021,-0.03 0,0 0,0 0,0 0,0 0,0 0,0 0,0 0,0 0,0 0,0 0,0 0,0 0,0 0,0 0,0 0,0 0,0 0,0 0,0 0,0 0,0 0,0 0,0 0,0 0,0 0,0 0,0 0,0 0,0 0,0 0,0 0,0 0,0 0,0 0,0 0,0 0,0 0,0 0,0 0,0 0,0 0,0 0,0 0,0 0,0 0,0 0,0 0,0 0,0 0,0 0,0 0,0 0,0 0,0 0,0 0,0 0,0 0,0 0,0 0,0 0,0 0,0 0,0 0,0 0,0 0,0 7e-4,1e-4 0.01,0 0.032,-0.019 0.022,-0.02 0.057,-0.061 0.1096,-0.1448 0,0 0,0 0,0 0,0 0,0 0,0 0.077,-0.046 0.1844,-0.086 0.3215,-0.1201 0,0 0,0 0,0 0,0 0,0 0,0 0.2682,-0.066 0.6495,-0.1115 1.1421,-0.1425 0,0 0,0 0,0 0.9253,-0.058 2.2374,-0.065 3.9121,-0.087 0,0 0,0 0,0 0,0 0,0 0,0 1.428,-0.019 3.1169,-0.044 5.0304,-0.1539 1.9136,-0.1099 4.0525,-0.3035 6.3554,-0.7178 0,0 0,0 0,0 1.7245,-0.3304 3.5508,-0.7574 5.3241,-1.4035 1.7734,-0.6462 3.495,-1.5104 4.9138,-2.7876 0,0 0,0 0,0 1.1809,-1.0206 2.1961,-2.3256 2.8096,-3.8012 0,0 0,0 0,0 0.7187,-1.6209 0.9771,-3.6131 0.938,-5.7527 -0.054,-3.2991 0.2814,-6.6919 0.955,-10.1137 0.6736,-3.4219 1.6858,-6.8729 2.9188,-10.2772 0,0 0,0 0,0 2.5512,-7.1558 6.1268,-14.4297 10.5449,-21.5823 0,0 0,0 0,0 4.1279,-6.6994 9.0274,-13.388 14.8094,-19.7253 0,0 0,0 0,0 4.8055,-5.2937 10.3373,-10.4678 16.9445,-14.7108 0,0 0,0 0,0 1.8158,-1.0966 3.3395,-3.0266 4.536,-5.2505 0.643,-1.2116 1.1593,-2.535 1.5804,-3.9406 0.4751,-1.5862 0.8249,-3.262 1.1007,-4.9788 1.2562,-8.002 0.3941,-16.2755 -1.1788,-24.2178 0,0 0,0 0,0 -1.7363,-8.4545 -4.3568,-16.34 -8.0925,-23.1146 0,0 0,0 0,0 -1.6263,-2.9214 -3.3468,-5.5576 -5.368,-7.6421 0,0 0,0 0,0 -1.6904,-1.6437 -3.2816,-3.001 -4.8515,-3.38 0,0 0,0 0,0 -4.8665,-1.408 -9.6292,-2.3824 -14.165,-2.8821 -4.5357,-0.4997 -8.8449,-0.5252 -12.8545,-0.1243 0,0 0,0 0,0 -3.6842,0.3607 -7.1188,1.0721 -10.2304,2.0044 -3.1115,0.9322 -5.9013,2.085 -8.3559,3.3265 0,0 0,0 0,0 -5.1134,2.5843 -8.7793,5.4662 -11.2832,7.5953 0,0 0,0 0,0 -1.3359,1.1365 -2.3406,2.0587 -3.0728,2.6756 0,0 0,0 0,0 -0.3792,0.3195 -0.6831,0.5541 -0.9203,0.6963 0,0 0,0 0,0 0,0 0,0 0,0 -0.1211,0.073 -0.2242,0.1209 -0.3106,0.1432 0,0 0,0 0,0 -0.043,0.011 -0.083,0.016 -0.1178,0.014 -0.036,-0 -0.068,-0.012 -0.095,-0.029 z"
         style="fill:#000000;fill-rule:evenodd;stroke:none;display:inline" />
      <path
         sodipodi:nodetypes="ccccc"
         inkscape:connector-curvature="0"
         inkscape:original-d="m 9137.2112,4279.4525 c 0,0 -36.9373,-23.9733 -58.6446,-21.9976 -21.7073,1.9757 -39.1177,66.3544 -15.1556,79.523 23.9634,13.1687 50.6577,48.4153 50.9792,70.7128 0.321,22.2977 38.6247,14.6251 38.6247,14.6251"
         inkscape:path-effect="#path-effect3189-8-4-9-7-6-9-2-2-3"
         id="path3187-7-6-0-6-1-1-5-3-6"
         d="m 9137.2038,4279.4477 c -0.019,0.03 -0.046,0.056 -0.079,0.077 -0.037,0.017 -0.083,0.029 -0.137,0.036 0,0 0,0 0,0 -0.1078,0.012 -0.2495,0 -0.4249,-0.028 0,0 0,0 0,0 -0.3445,-0.06 -0.8179,-0.2025 -1.4176,-0.4205 0,0 0,0 0,0 -1.1543,-0.4195 -2.7731,-1.1186 -4.8361,-2.047 0,0 0,0 0,0 -3.7449,-1.685 -8.9372,-4.1424 -15.4856,-6.8802 0,0 0,0 0,0 0,0 0,0 0,0 0,0 0,0 0,0 -2.7166,-1.1342 -5.6599,-2.3192 -8.8247,-3.4689 -3.1648,-1.1496 -6.551,-2.2643 -10.1588,-3.2185 0,0 0,0 0,0 -2.7118,-0.6962 -5.5174,-1.3497 -8.3567,-1.7549 -2.8394,-0.4053 -5.7124,-0.5624 -8.544,-0.1906 0,0 0,0 0,0 -1.7808,0.143 -3.6955,1.2619 -5.5756,2.7276 0,0 0,0 0,0 -2.2098,1.7936 -4.1271,4.2651 -5.9397,7.0639 0,0 0,0 0,0 -4.1301,6.4475 -6.9837,14.271 -8.8491,22.742 -1.6764,7.9495 -2.537,16.3103 -1.0487,24.3224 0,0 0,0 0,0 0.6145,3.2492 1.5285,6.352 3.0781,8.9227 0.034,0.056 0.068,0.1118 0.1019,0.1674 1.346,2.1861 3.0988,4.0445 5.1072,5.1078 7.2281,4.0129 13.4671,9.0362 18.9612,14.2811 6.4203,6.1043 11.9749,12.6499 16.7074,19.3002 4.9357,6.9169 9.0297,14.0628 12.0038,21.217 0,0 0,0 0,0 1.397,3.2971 2.5684,6.6859 3.3668,10.084 0.7984,3.398 1.2241,6.8052 1.2026,10.1498 -0.022,2.0184 0.2906,3.9176 1.0674,5.4106 0.6896,1.4427 1.8635,2.6956 3.1868,3.6944 1.7021,1.3141 3.6859,2.1699 5.706,2.8002 2.0202,0.6302 4.0775,1.0339 6.0185,1.3546 2.6008,0.4056 5.0056,0.5943 7.1555,0.7018 2.1499,0.1074 4.0453,0.1323 5.6485,0.1541 3.9074,-0.099 6.0822,0.074 6.1761,0.5584 0,0 0,0 0,0 0,0 0,0 0,0 0,0 0,0 0,0 0,0 0,0 0,0 0,0 0,0 0,0 0,0 0,0 0,0 0,0 0,0 0,0 0,0 0,0 0,0 0,0 0,0 0,0 0,0 0,0 0,0 7e-4,0 7e-4,0 7e-4,0 0,0 0,0 6e-4,0 0,0 0,0 0,0 0,0 0,0 0,0 0,0 0,0 0,0 0,0 0,0 0,0 0,0 0,0 0,0 0,0 0,0 0,0 0,0 0,0 0,0 0,0 0,0 0,0 0,0 0,0 0,0 0,0 0,0 0,0 0.072,0.4879 -1.9465,1.2557 -5.8313,2.2621 -1.6137,0.3531 -3.5587,0.6967 -5.8285,0.9435 -2.2697,0.2468 -4.8647,0.3979 -7.7686,0.3047 -2.1382,-0.049 -4.5002,-0.2446 -7.0041,-0.7944 -2.504,-0.5498 -5.1511,-1.4529 -7.7804,-3.0191 -2.1389,-1.3036 -4.1439,-3.16 -5.6442,-5.6278 -1.5235,-2.6148 -2.339,-5.6172 -2.4334,-8.6451 -0.1079,-2.6516 -0.6307,-5.401 -1.4858,-8.2357 -0.855,-2.8346 -2.0426,-5.7545 -3.4073,-8.7381 0,0 0,0 0,0 -2.9717,-6.3676 -6.9846,-12.7749 -11.7815,-19.1348 -4.6074,-6.0909 -9.9102,-12.069 -15.9436,-17.6283 -5.2043,-4.7749 -10.8346,-9.2552 -17.0984,-12.6566 -3.7474,-2.0999 -6.7671,-5.1519 -8.8699,-8.6877 -0.054,-0.09 -0.1064,-0.1802 -0.1587,-0.2707 -2.2868,-3.9671 -3.5926,-8.1765 -4.2712,-12.25 0,0 0,0 0,0 -1.667,-9.8553 -0.6504,-19.4858 1.4419,-28.189 0,0 0,0 0,0 2.1578,-9.3068 5.7119,-18.127 10.7675,-25.5721 0,0 0,0 0,0 2.2045,-3.2766 4.8831,-6.365 8.1185,-8.8621 0,0 0,0 0,0 2.7882,-2.2126 6.2967,-3.7902 10.1572,-4.1606 0,0 0,0 0,0 3.7569,-0.2278 7.2874,0.1193 10.5774,0.7474 3.29,0.6281 6.3395,1.5375 9.1491,2.5098 0,0 0,0 0,0 3.8058,1.2864 7.2993,2.7256 10.5065,4.1951 3.2071,1.4696 6.1281,2.9699 8.7808,4.4175 0,0 0,0 0,0 0,0 0,0 0,0 6.4084,3.4927 11.3003,6.7118 14.6584,9.1672 0,0 0,0 0,0 1.8503,1.3528 3.2353,2.4828 4.1352,3.3352 0,0 0,0 0,0 0.4676,0.4428 0.805,0.8115 1.0086,1.0989 0,0 0,0 0,0 0.1034,0.1461 0.1724,0.2713 0.2065,0.3748 0,0 0,0 0,0 0.017,0.052 0.026,0.099 0.025,0.1399 -0.01,0.039 -0.018,0.074 -0.037,0.1041 z"
         style="fill:#000000;fill-rule:evenodd;stroke:none;display:inline" />
    </g>
  </g>
</svg>
