<?xml version="1.0" encoding="UTF-8" standalone="no"?>
<!-- Created with Inkscape (http://www.inkscape.org/) -->

<svg
   xmlns:dc="http://purl.org/dc/elements/1.1/"
   xmlns:cc="http://creativecommons.org/ns#"
   xmlns:rdf="http://www.w3.org/1999/02/22-rdf-syntax-ns#"
   xmlns:svg="http://www.w3.org/2000/svg"
   xmlns="http://www.w3.org/2000/svg"
   xmlns:sodipodi="http://sodipodi.sourceforge.net/DTD/sodipodi-0.dtd"
   xmlns:inkscape="http://www.inkscape.org/namespaces/inkscape"
   width="763.69"
   height="736.42328"
   id="svg4068"
   version="1.1"
   inkscape:version="0.48.3.1 r9886"
   sodipodi:docname="cara_7.svg">
  <defs
     id="defs4070">
    <inkscape:path-effect
       effect="skeletal"
       id="path-effect6574"
       is_visible="true"
       pattern="m -14069.21,-1265.6489 c 0,-2.76 2.24,-5 5,-5 2.76,0 5,2.24 5,5 0,2.76 -2.24,5 -5,5 -2.76,0 -5,-2.24 -5,-5 z"
       copytype="single_stretched"
       prop_scale="1"
       scale_y_rel="false"
       spacing="0"
       normal_offset="0"
       tang_offset="0"
       prop_units="false"
       vertical_pattern="false"
       fuse_tolerance="0" />
    <inkscape:path-effect
       effect="skeletal"
       id="path-effect5543"
       is_visible="true"
       pattern="m -13870.71,-1632.2205 c 0,-2.76 2.24,-5 5,-5 2.76,0 5,2.24 5,5 0,2.76 -2.24,5 -5,5 -2.76,0 -5,-2.24 -5,-5 z"
       copytype="single_stretched"
       prop_scale="1"
       scale_y_rel="false"
       spacing="0"
       normal_offset="0"
       tang_offset="0"
       prop_units="false"
       vertical_pattern="false"
       fuse_tolerance="0" />
    <inkscape:path-effect
       effect="skeletal"
       id="path-effect6549"
       is_visible="true"
       pattern="m -9698.7475,1895.3113 c 0,-2.76 2.24,-5 5,-5 2.76,0 5,2.24 5,5 0,2.76 -2.24,5 -5,5 -2.76,0 -5,-2.24 -5,-5 z"
       copytype="single_stretched"
       prop_scale="1"
       scale_y_rel="false"
       spacing="0"
       normal_offset="0"
       tang_offset="0"
       prop_units="false"
       vertical_pattern="false"
       fuse_tolerance="0" />
    <inkscape:path-effect
       effect="skeletal"
       id="path-effect3189-8-4-9-7-6-9-2-2-9-8"
       is_visible="true"
       pattern="m 6237.6376,1770.428 c 0,-2.76 2.24,-4.9999 5,-4.9999 2.76,0 5,2.2399 5,4.9999 0,2.76 -2.24,5 -5,5 -2.76,0 -5,-2.24 -5,-5 z"
       copytype="single_stretched"
       prop_scale="1"
       scale_y_rel="false"
       spacing="0"
       normal_offset="0"
       tang_offset="0"
       prop_units="false"
       vertical_pattern="false"
       fuse_tolerance="0" />
    <inkscape:path-effect
       effect="skeletal"
       id="path-effect3189-8-4-9-7-6-9-2-2-9-8-3"
       is_visible="true"
       pattern="m 6757.667,1749.1885 c 0,-2.76 2.24,-4.9999 5,-4.9999 2.76,0 5,2.2399 5,4.9999 0,2.76 -2.24,5 -5,5 -2.76,0 -5,-2.24 -5,-5 z"
       copytype="single_stretched"
       prop_scale="1"
       scale_y_rel="false"
       spacing="0"
       normal_offset="0"
       tang_offset="0"
       prop_units="false"
       vertical_pattern="false"
       fuse_tolerance="0" />
    <inkscape:path-effect
       effect="skeletal"
       id="path-effect3093-0"
       is_visible="true"
       pattern="m 7506.6858,594.57527 c 0,-2.76 2.24,-5 5,-5 2.76,0 5,2.24 5,5 0,2.76 -2.24,5 -5,5 -2.76,0 -5,-2.24 -5,-5 z"
       copytype="single_stretched"
       prop_scale="1"
       scale_y_rel="false"
       spacing="0"
       normal_offset="0"
       tang_offset="0"
       prop_units="false"
       vertical_pattern="false"
       fuse_tolerance="0" />
    <inkscape:path-effect
       effect="skeletal"
       id="path-effect3189-5"
       is_visible="true"
       pattern="m 7506.6858,594.57527 c 0,-2.76 2.24,-5 5,-5 2.76,0 5,2.24 5,5 0,2.76 -2.24,5 -5,5 -2.76,0 -5,-2.24 -5,-5 z"
       copytype="single_stretched"
       prop_scale="1"
       scale_y_rel="false"
       spacing="0"
       normal_offset="0"
       tang_offset="0"
       prop_units="false"
       vertical_pattern="false"
       fuse_tolerance="0" />
    <inkscape:path-effect
       effect="skeletal"
       id="path-effect3193-1"
       is_visible="true"
       pattern="m 7506.6858,594.57527 c 0,-2.76 2.24,-5 5,-5 2.76,0 5,2.24 5,5 0,2.76 -2.24,5 -5,5 -2.76,0 -5,-2.24 -5,-5 z"
       copytype="single_stretched"
       prop_scale="1"
       scale_y_rel="false"
       spacing="0"
       normal_offset="0"
       tang_offset="0"
       prop_units="false"
       vertical_pattern="false"
       fuse_tolerance="0" />
    <inkscape:path-effect
       effect="skeletal"
       id="path-effect4306"
       is_visible="true"
       pattern="M 0,5 C 0,2.24 2.24,0 5,0 7.76,0 10,2.24 10,5 10,7.76 7.76,10 5,10 2.24,10 0,7.76 0,5 z"
       copytype="single_stretched"
       prop_scale="1"
       scale_y_rel="false"
       spacing="0"
       normal_offset="0"
       tang_offset="0"
       prop_units="false"
       vertical_pattern="false"
       fuse_tolerance="0" />
    <inkscape:path-effect
       effect="skeletal"
       id="path-effect3093-0-8"
       is_visible="true"
       pattern="m 7506.6858,594.57527 c 0,-2.76 2.24,-5 5,-5 2.76,0 5,2.24 5,5 0,2.76 -2.24,5 -5,5 -2.76,0 -5,-2.24 -5,-5 z"
       copytype="single_stretched"
       prop_scale="1"
       scale_y_rel="false"
       spacing="0"
       normal_offset="0"
       tang_offset="0"
       prop_units="false"
       vertical_pattern="false"
       fuse_tolerance="0" />
    <inkscape:path-effect
       effect="skeletal"
       id="path-effect3189-5-8"
       is_visible="true"
       pattern="m 7506.6858,594.57527 c 0,-2.76 2.24,-5 5,-5 2.76,0 5,2.24 5,5 0,2.76 -2.24,5 -5,5 -2.76,0 -5,-2.24 -5,-5 z"
       copytype="single_stretched"
       prop_scale="1"
       scale_y_rel="false"
       spacing="0"
       normal_offset="0"
       tang_offset="0"
       prop_units="false"
       vertical_pattern="false"
       fuse_tolerance="0" />
    <inkscape:path-effect
       effect="skeletal"
       id="path-effect3193-1-3"
       is_visible="true"
       pattern="m 7506.6858,594.57527 c 0,-2.76 2.24,-5 5,-5 2.76,0 5,2.24 5,5 0,2.76 -2.24,5 -5,5 -2.76,0 -5,-2.24 -5,-5 z"
       copytype="single_stretched"
       prop_scale="1"
       scale_y_rel="false"
       spacing="0"
       normal_offset="0"
       tang_offset="0"
       prop_units="false"
       vertical_pattern="false"
       fuse_tolerance="0" />
    <inkscape:path-effect
       effect="skeletal"
       id="path-effect4306-2"
       is_visible="true"
       pattern="M 0,5 C 0,2.24 2.24,0 5,0 7.76,0 10,2.24 10,5 10,7.76 7.76,10 5,10 2.24,10 0,7.76 0,5 z"
       copytype="single_stretched"
       prop_scale="1"
       scale_y_rel="false"
       spacing="0"
       normal_offset="0"
       tang_offset="0"
       prop_units="false"
       vertical_pattern="false"
       fuse_tolerance="0" />
    <inkscape:path-effect
       effect="skeletal"
       id="path-effect4589-2"
       is_visible="true"
       pattern="m 3203.4625,-287.36459 c 0,-2.76 2.24,-5 5,-5 2.76,0 5,2.24 5,5 0,2.76 -2.24,5 -5,5 -2.76,0 -5,-2.24 -5,-5 z"
       copytype="single_stretched"
       prop_scale="1"
       scale_y_rel="false"
       spacing="0"
       normal_offset="0"
       tang_offset="0"
       prop_units="false"
       vertical_pattern="false"
       fuse_tolerance="0" />
    <inkscape:path-effect
       effect="skeletal"
       id="path-effect3189-8-4-9-6-1"
       is_visible="true"
       pattern="m 9041.8924,-261.70024 c 0,-2.76 2.24,-5 5,-5 2.76,0 5,2.24 5,5 0,2.76 -2.24,5 -5,5 -2.76,0 -5,-2.24 -5,-5 z"
       copytype="single_stretched"
       prop_scale="1"
       scale_y_rel="false"
       spacing="0"
       normal_offset="0"
       tang_offset="0"
       prop_units="false"
       vertical_pattern="false"
       fuse_tolerance="0" />
    <inkscape:path-effect
       effect="skeletal"
       id="path-effect3189-8-4-9-7-6-9"
       is_visible="true"
       pattern="m 7960.9,-231.74201 c 0,-2.76 2.24,-5 5,-5 2.76,0 5,2.24 5,5 0,2.76 -2.24,5 -5,5 -2.76,0 -5,-2.24 -5,-5 z"
       copytype="single_stretched"
       prop_scale="1"
       scale_y_rel="false"
       spacing="0"
       normal_offset="0"
       tang_offset="0"
       prop_units="false"
       vertical_pattern="false"
       fuse_tolerance="0" />
    <inkscape:path-effect
       effect="skeletal"
       id="path-effect6549-1"
       is_visible="true"
       pattern="m -9698.7475,1895.3113 c 0,-2.76 2.24,-5 5,-5 2.76,0 5,2.24 5,5 0,2.76 -2.24,5 -5,5 -2.76,0 -5,-2.24 -5,-5 z"
       copytype="single_stretched"
       prop_scale="1"
       scale_y_rel="false"
       spacing="0"
       normal_offset="0"
       tang_offset="0"
       prop_units="false"
       vertical_pattern="false"
       fuse_tolerance="0" />
    <inkscape:path-effect
       effect="skeletal"
       id="path-effect3189-8-4-9-7-6-9-2-2-9-8-5"
       is_visible="true"
       pattern="m 6237.6376,1770.428 c 0,-2.76 2.24,-4.9999 5,-4.9999 2.76,0 5,2.2399 5,4.9999 0,2.76 -2.24,5 -5,5 -2.76,0 -5,-2.24 -5,-5 z"
       copytype="single_stretched"
       prop_scale="1"
       scale_y_rel="false"
       spacing="0"
       normal_offset="0"
       tang_offset="0"
       prop_units="false"
       vertical_pattern="false"
       fuse_tolerance="0" />
    <inkscape:path-effect
       effect="skeletal"
       id="path-effect3189-8-4-9-7-6-9-2-2-9-8-3-4"
       is_visible="true"
       pattern="m 6757.667,1749.1885 c 0,-2.76 2.24,-4.9999 5,-4.9999 2.76,0 5,2.2399 5,4.9999 0,2.76 -2.24,5 -5,5 -2.76,0 -5,-2.24 -5,-5 z"
       copytype="single_stretched"
       prop_scale="1"
       scale_y_rel="false"
       spacing="0"
       normal_offset="0"
       tang_offset="0"
       prop_units="false"
       vertical_pattern="false"
       fuse_tolerance="0" />
    <inkscape:path-effect
       effect="skeletal"
       id="path-effect3189-8-4-9-6-1-2-2"
       is_visible="true"
       pattern="m 9466.4313,2392.7382 c 0,-2.76 2.24,-5 5,-5 2.76,0 5,2.24 5,5 0,2.76 -2.24,5 -5,5 -2.76,0 -5,-2.24 -5,-5 z"
       copytype="single_stretched"
       prop_scale="1"
       scale_y_rel="false"
       spacing="0"
       normal_offset="0"
       tang_offset="0"
       prop_units="false"
       vertical_pattern="false"
       fuse_tolerance="0" />
    <inkscape:path-effect
       effect="skeletal"
       id="path-effect3189-8-4-9-6-1-2-6-1"
       is_visible="true"
       pattern="m 8256.775,2407.6317 c 0,-2.76 2.24,-5 5,-5 2.76,0 5,2.24 5,5 0,2.76 -2.24,5 -5,5 -2.76,0 -5,-2.24 -5,-5 z"
       copytype="single_stretched"
       prop_scale="1"
       scale_y_rel="false"
       spacing="0"
       normal_offset="0"
       tang_offset="0"
       prop_units="false"
       vertical_pattern="false"
       fuse_tolerance="0" />
    <inkscape:path-effect
       effect="skeletal"
       id="path-effect4310"
       is_visible="true"
       pattern="M 0,5 C 0,2.24 2.24,0 5,0 7.76,0 10,2.24 10,5 10,7.76 7.76,10 5,10 2.24,10 0,7.76 0,5 z"
       copytype="single_stretched"
       prop_scale="1"
       scale_y_rel="false"
       spacing="0"
       normal_offset="0"
       tang_offset="0"
       prop_units="false"
       vertical_pattern="false"
       fuse_tolerance="0" />
    <inkscape:path-effect
       effect="skeletal"
       id="path-effect4314"
       is_visible="true"
       pattern="M 0,5 C 0,2.24 2.24,0 5,0 7.76,0 10,2.24 10,5 10,7.76 7.76,10 5,10 2.24,10 0,7.76 0,5 z"
       copytype="single_stretched"
       prop_scale="1"
       scale_y_rel="false"
       spacing="0"
       normal_offset="0"
       tang_offset="0"
       prop_units="false"
       vertical_pattern="false"
       fuse_tolerance="0" />
    <inkscape:path-effect
       effect="skeletal"
       id="path-effect5025-1"
       is_visible="true"
       pattern="m 1215.9352,2142.6341 c 0,-2.76 2.24,-5 5,-5 2.76,0 5,2.24 5,5 0,2.76 -2.24,5 -5,5 -2.76,0 -5,-2.24 -5,-5 z"
       copytype="single_stretched"
       prop_scale="1"
       scale_y_rel="false"
       spacing="0"
       normal_offset="0"
       tang_offset="0"
       prop_units="false"
       vertical_pattern="false"
       fuse_tolerance="0" />
    <inkscape:path-effect
       effect="skeletal"
       id="path-effect3189-8-4-9-6-1-2-4"
       is_visible="true"
       pattern="m 10700.692,2179.7965 c 0,-2.76 2.24,-5 5,-5 2.76,0 5,2.24 5,5 0,2.76 -2.24,5 -5,5 -2.76,0 -5,-2.24 -5,-5 z"
       copytype="single_stretched"
       prop_scale="1"
       scale_y_rel="false"
       spacing="0"
       normal_offset="0"
       tang_offset="0"
       prop_units="false"
       vertical_pattern="false"
       fuse_tolerance="0" />
    <inkscape:path-effect
       effect="skeletal"
       id="path-effect3189-8-4-9-6-1-2-6-5"
       is_visible="true"
       pattern="m 9593.9611,2130.9953 c 0,-2.76 2.24,-5 5,-5 2.76,0 5,2.24 5,5 0,2.76 -2.24,5 -5,5 -2.76,0 -5,-2.24 -5,-5 z"
       copytype="single_stretched"
       prop_scale="1"
       scale_y_rel="false"
       spacing="0"
       normal_offset="0"
       tang_offset="0"
       prop_units="false"
       vertical_pattern="false"
       fuse_tolerance="0" />
    <inkscape:path-effect
       effect="skeletal"
       id="path-effect4302"
       is_visible="true"
       pattern="M 0,5 C 0,2.24 2.24,0 5,0 7.76,0 10,2.24 10,5 10,7.76 7.76,10 5,10 2.24,10 0,7.76 0,5 z"
       copytype="single_stretched"
       prop_scale="1"
       scale_y_rel="false"
       spacing="0"
       normal_offset="0"
       tang_offset="0"
       prop_units="false"
       vertical_pattern="false"
       fuse_tolerance="0" />
    <inkscape:path-effect
       effect="skeletal"
       id="path-effect4589"
       is_visible="true"
       pattern="m 2707.1429,-1309.2857 c 0,-2.76 2.24,-5 5,-5 2.76,0 5,2.24 5,5 0,2.76 -2.24,5 -5,5 -2.76,0 -5,-2.24 -5,-5 z"
       copytype="single_stretched"
       prop_scale="1"
       scale_y_rel="false"
       spacing="0"
       normal_offset="0"
       tang_offset="0"
       prop_units="false"
       vertical_pattern="false"
       fuse_tolerance="0" />
    <inkscape:path-effect
       effect="skeletal"
       id="path-effect3189-8-4-9-6"
       is_visible="true"
       pattern="m 8674.6712,-1366.8956 c 0,-2.76 2.24,-5 5,-5 2.76,0 5,2.24 5,5 0,2.76 -2.24,5 -5,5 -2.76,0 -5,-2.24 -5,-5 z"
       copytype="single_stretched"
       prop_scale="1"
       scale_y_rel="false"
       spacing="0"
       normal_offset="0"
       tang_offset="0"
       prop_units="false"
       vertical_pattern="false"
       fuse_tolerance="0" />
    <inkscape:path-effect
       effect="skeletal"
       id="path-effect3189-8-4-9-7-6"
       is_visible="true"
       pattern="m 7350.8217,-1359.7945 c 0,-2.76 2.24,-5 5,-5 2.76,0 5,2.24 5,5 0,2.76 -2.24,5 -5,5 -2.76,0 -5,-2.24 -5,-5 z"
       copytype="single_stretched"
       prop_scale="1"
       scale_y_rel="false"
       spacing="0"
       normal_offset="0"
       tang_offset="0"
       prop_units="false"
       vertical_pattern="false"
       fuse_tolerance="0" />
  </defs>
  <sodipodi:namedview
     id="base"
     pagecolor="#ffffff"
     bordercolor="#666666"
     borderopacity="1.0"
     inkscape:pageopacity="0.0"
     inkscape:pageshadow="2"
     inkscape:zoom="0.12374369"
     inkscape:cx="155.17476"
     inkscape:cy="352.66118"
     inkscape:document-units="px"
     inkscape:current-layer="layer1"
     showgrid="false"
     fit-margin-top="0"
     fit-margin-left="0"
     fit-margin-right="0"
     fit-margin-bottom="0"
     inkscape:window-width="560"
     inkscape:window-height="451"
     inkscape:window-x="3"
     inkscape:window-y="47"
     inkscape:window-maximized="0" />
  <metadata
     id="metadata4073">
    <rdf:RDF>
      <cc:Work
         rdf:about="">
        <dc:format>image/svg+xml</dc:format>
        <dc:type
           rdf:resource="http://purl.org/dc/dcmitype/StillImage" />
        <dc:title></dc:title>
      </cc:Work>
    </rdf:RDF>
  </metadata>
  <g
     inkscape:label="Capa 1"
     inkscape:groupmode="layer"
     id="layer1"
     transform="translate(-565.64593,-306.41332)">
    <g
       transform="translate(-5018.4335,-668.20718)"
       style="display:inline"
       id="g4320">
      <g
         id="g4149">
        <path
           style="fill:#f3dfd3;fill-opacity:1;stroke:#000000;stroke-width:1px;stroke-linecap:butt;stroke-linejoin:miter;stroke-opacity:1;display:inline"
           d="m 8324.3438,1289.0927 -36.3655,121.2184 -8.0812,38.3858 -12.1219,-16.1625 -38.3858,28.2843 -2.0203,26.2639 16.1625,26.264 -8.0812,44.4467 34.3451,24.2437 -10.1015,90.9137 18.1828,64.6498 70.7106,82.8325 94.9544,68.6904 115.1574,34.3451 155.5635,-26.2639 137.3807,-56.5686 80.8122,-82.8325 14.1421,-103.0355 -8.0812,-72.731 36.3655,-30.3046 c 0,0 -12.1218,-28.2843 -12.1218,-36.3655 0,-8.0812 20.203,-54.5482 20.203,-54.5482 l -32.3248,-28.2843 -20.2031,4.0406 -14.1421,26.264 -54.5483,-151.5229 -64.6497,-68.6904 -80.8122,-36.3655 -125.259,-14.1421 -117.1776,14.1421 -86.8732,36.3655 z"
           id="path4783"
           inkscape:connector-curvature="0"
           transform="translate(-2638.4032,-217.0045)" />
        <path
           style="fill:#000000;fill-rule:evenodd;stroke:none"
           d="m 5964.2985,977.46756 c -0,0.253 -4.2882,0.44442 -12.5662,0.78776 -4.139,0.17168 -9.2764,0.38763 -15.3705,0.71906 -6.0941,0.33142 -13.1455,0.7777 -21.0987,1.44888 -7.9531,0.67118 -16.8088,1.56653 -26.4873,2.84522 -9.6786,1.27869 -20.1808,2.93993 -31.3922,5.20363 -11.2114,2.26369 -23.1327,5.12905 -35.6034,8.88876 -12.4707,3.75973 -25.4915,8.41303 -38.8451,14.33703 -17.1014,7.5758 -34.6514,17.2851 -51.5955,29.806 -11.5363,8.5198 -22.7476,18.4071 -33.6232,29.3871 -5.4394,5.4096 -9.1138,12.8727 -12.7313,20.6776 -5.0377,11.0442 -9.1056,22.9003 -12.8685,35.2103 -4.5132,14.7834 -8.4597,30.1903 -12.0942,46.0978 -3.9537,17.3087 -7.5113,35.1953 -10.7538,53.5973 -6.4979,36.8814 -11.7921,75.7852 -15.3995,116.4238 -1.6332,18.4021 -2.9081,37.1506 -3.6128,56.2129 -0.6134,16.6125 -0.8156,33.4473 -0.2053,50.444 0.5371,15.3162 3.8375,30.7374 9.1171,45.6581 5.5584,15.6955 13.3236,30.84 22.5678,45.2834 9.8188,15.3438 21.2474,29.8727 33.9621,43.5453 12.7148,13.6726 26.7156,26.489 41.6224,38.4157 29.4671,23.5452 62.6446,43.6781 98.7634,58.2017 16.5742,6.6632 33.7523,12.1124 51.3996,15.7326 16.1272,3.3035 32.6355,5.1123 49.1216,4.5613 6.6225,-0.216 13.2533,-0.5952 19.8888,-1.1262 28.4581,-2.2774 56.5041,-7.2999 83.8598,-13.9109 37.1008,-8.978 72.9087,-21.0464 106.708,-36.0819 32.483,-14.4674 63.2097,-31.547 89.8616,-52.7742 11.9074,-9.4837 22.9549,-19.7729 32.4483,-31.1327 8.5811,-10.2816 15.9182,-21.408 20.9594,-33.3361 2.6321,-6.1834 4.5186,-12.7271 6.0114,-19.3922 0,0 0,-10e-5 0,-10e-5 1.7566,-7.8691 2.9039,-15.8708 3.7042,-23.8989 1.949,-19.5504 1.8346,-39.071 0.9034,-58.2875 -1.1204,-23.0054 -3.5419,-45.5336 -6.6442,-67.509 -3.4542,-24.4604 -7.7868,-48.2164 -12.6971,-71.2126 -5.1315,-24.0295 -10.8993,-47.2183 -17.2213,-69.4807 -6.1704,-21.7251 -12.8515,-42.5578 -20.2081,-62.3285 -6.5413,-17.5694 -13.5379,-34.2937 -21.6263,-49.7181 -3.3723,-6.4299 -6.9185,-12.6082 -10.8112,-18.3859 -3.2161,-4.7625 -6.6027,-9.2399 -10.4284,-13.0958 -5.341,-5.397 -10.3628,-10.8518 -15.291,-16.151 -4.9281,-5.2992 -9.7624,-10.4431 -14.6826,-15.2626 -13.2374,-12.967 -27.1618,-23.7742 -41.3197,-32.1134 0,0 0,0 0,0 -11.188,-6.6001 -22.4502,-11.7476 -33.381,-15.89124 -10.9309,-4.14365 -21.5323,-7.28237 -31.5388,-9.75673 -15.3404,-3.95409 -29.2821,-6.36989 -41.5107,-8.03194 -12.2286,-1.66206 -22.7482,-2.5623 -31.3661,-3.15215 -8.6179,-0.58985 -15.3376,-0.86268 -20.0304,-1.04847 -4.6928,-0.1858 -7.3611,-0.2808 -7.8947,-0.37297 2e-4,-0.0334 2e-4,-0.0334 2e-4,-0.0334 0,0 0,-4e-5 2e-4,-0.0334 0.5346,-0.0867 3.2049,-0.17311 7.9114,-0.20204 4.7065,-0.0289 11.4512,-0.004 20.1212,0.28025 8.67,0.28457 19.2688,0.82236 31.6284,2.05058 12.3596,1.22823 26.484,3.13875 42.0949,6.51239 10.1904,2.30727 21.0162,5.30471 32.2258,9.35016 11.2096,4.04545 22.8049,9.13784 34.3965,15.74694 10e-5,0 10e-5,0 10e-5,0 14.6796,8.3826 29.126,19.2854 42.8214,32.4013 5.0928,4.8775 10.0558,10.0364 15.0561,15.2947 5.0004,5.2583 10.0379,10.6162 15.3248,15.8471 4.2578,4.2276 7.9577,8.9887 11.346,13.9294 4.1264,6.0036 7.863,12.3616 11.3728,18.9135 8.4147,15.7051 15.6893,32.6523 22.4314,50.3421 7.5984,19.9255 14.5038,40.9031 20.8716,62.7469 6.5274,22.3884 12.4903,45.7145 17.8031,69.8891 5.0846,23.1346 9.5837,47.0619 13.1947,71.7308 3.2446,22.1574 5.798,44.9407 7.038,68.2871 1.0396,19.4811 1.2234,39.4439 -0.7014,59.6408 -0.7912,8.303 -1.9672,16.6746 -3.7924,25.0144 0,0 0,0 0,0 -1.5397,7.0581 -3.5744,14.1467 -6.461,21.034 -5.4775,12.9845 -13.2631,24.9335 -22.3041,35.778 -9.9796,11.9851 -21.4622,22.7591 -33.7458,32.5713 -27.4573,21.9332 -58.8642,39.5151 -91.8617,54.2348 -34.3472,15.3399 -70.7125,27.6449 -108.3688,36.7796 -27.7459,6.7394 -56.3079,11.8535 -85.4106,14.1827 -6.7857,0.5431 -13.5732,0.9322 -20.3585,1.1558 -17.43,0.561 -34.7166,-1.3212 -51.4599,-4.778 -18.3229,-3.7776 -36.0679,-9.413 -53.103,-16.2891 -37.0954,-14.9703 -71.0689,-35.6408 -101.1589,-59.7928 -15.2344,-12.2124 -29.5586,-25.3869 -42.5906,-39.4816 -13.032,-14.0948 -24.7715,-29.1097 -34.8934,-44.9938 -9.5398,-14.973 -17.5714,-30.7933 -23.3677,-47.2907 -5.5189,-15.6953 -8.9326,-32.0571 -9.4705,-48.4545 -0.5519,-17.2895 -0.2793,-34.342 0.4152,-51.1054 0.7962,-19.2422 2.1692,-38.1359 3.9066,-56.6527 3.8351,-40.8811 9.3876,-79.9947 16.1671,-117.0503 3.3831,-18.4931 7.0933,-36.4855 11.2089,-53.9079 3.7801,-16.0059 7.8969,-31.5582 12.5982,-46.5176 3.9026,-12.4326 8.1921,-24.5531 13.5115,-35.9636 3.6524,-7.9566 7.8824,-16.0618 14.2939,-22.5032 11.1848,-11.0803 22.7592,-21.0684 34.6845,-29.68 17.5065,-12.6345 35.5479,-22.3322 53.074,-29.8148 13.6768,-5.8308 26.9671,-10.36035 39.665,-13.97389 12.698,-3.61355 24.8044,-6.31033 36.1686,-8.38976 11.3643,-2.07942 21.9872,-3.5407 31.7628,-4.60907 9.7756,-1.06836 18.7047,-1.74302 26.7147,-2.18705 8.01,-0.44403 15.1017,-0.65669 21.2251,-0.75057 6.1234,-0.0939 11.2791,-0.0684 15.4297,0.004 8.3013,0.14472 12.5854,0.45112 12.5841,0.70412 z"
           id="path4587"
           inkscape:path-effect="#path-effect4589"
           inkscape:original-d="m 5964.2985,977.46756 c -163.9581,-0.8364 -232.9447,55.05964 -268.9453,91.06024 -36.0005,36.0006 -74.1187,256.2391 -69.8834,381.1822 4.2354,124.9431 182.1205,260.4746 311.299,256.2393 129.1783,-4.2355 317.6518,-76.2366 357.8877,-171.5321 40.2359,-95.2956 -33.8828,-400.2414 -91.0602,-457.4187 -37.5552,-37.5553 -75.3397,-98.69454 -239.2978,-99.53094 z"
           inkscape:connector-curvature="0"
           sodipodi:nodetypes="zsssssz" />
        <path
           style="fill:#000000;fill-rule:evenodd;stroke:none"
           d="m 6280.4614,1245.3112 c -0.7993,-0.1308 -0.8579,-4.5073 -0.2624,-12.2912 0,0 0,0 0,0 0.7335,-3.2946 2.0596,-7.1943 4.6007,-11.2039 2.355,-3.6473 5.8087,-7.2431 10.4661,-9.9039 2.7975,-1.518 5.9751,-2.2177 9.0922,-2.1374 3.331,0.06 6.6462,0.7507 9.7679,1.8606 3.3271,1.1694 6.6034,2.7465 9.7563,4.6932 3.1528,1.9466 6.182,4.2629 9.0134,6.8697 5.1484,4.6307 10.0085,10.5553 12.946,18.0238 1.2317,3.1248 2.0001,6.656 1.9225,10.4381 -0.1055,3.6109 -1.155,7.2193 -3.1529,10.4107 -0.1984,0.3119 -0.394,0.6266 -0.5871,0.9438 -2.8743,4.7247 -5.0638,9.8541 -6.8777,15.0391 -2.1671,6.238 -3.6876,12.4918 -4.6499,18.5715 0,0 0,0 0,0 -0.9606,6.1548 -1.3787,12.0346 -1.0194,17.488 0,0 0,0 0,0 0,0 0,0 0,0 0,0 0,0 0,0 0.1968,2.4546 0.4669,4.7884 0.9354,6.9126 0.4685,2.1242 1.1352,4.039 2.0767,5.6945 0,0 0,0 0,0 1.2894,2.2241 1.9449,4.7869 1.8722,7.3727 0,0 0,0 0,0 -0.1454,2.5606 -0.94,4.7759 -2.0209,6.5892 0,0 0,0 0,0 -1.391,2.3087 -3.0307,4.1282 -4.692,5.6278 -1.6612,1.4996 -3.345,2.6791 -4.9172,3.6619 0,0 0,0 0,0 0,0 0,0 0,0 -4.2731,2.7385 -8.0043,4.3004 -10.7512,5.2526 0,0 0,0 0,0 -1.6023,0.5567 -2.8892,0.8919 -3.8117,1.0393 0,0 0,0 0,0 -0.4889,0.078 -0.8773,0.1037 -1.1577,0.079 0,0 0,0 0,0 0,0 0,0 0,0 -0.1445,-0.012 -0.2606,-0.038 -0.3473,-0.076 0,0 0,0 0,0 0,0 0,0 0,0 -0.07,-0.084 -0.1137,-0.1244 -0.1396,-0.1433 -0.026,-0.019 -0.034,-0.016 -0.035,-0.016 0,0 0,0 0,0 0,0 0,0 0,0 0,0 0,0 0,0 0,0 0,0 0,0 7e-4,-3e-4 0.01,-0 0.013,-0.036 0.01,-0.032 0.01,-0.091 -0,-0.2004 0,0 0,0 0,0 0,0 0,0 0,0 0.033,-0.088 0.093,-0.1882 0.1804,-0.2998 0,0 0,0 0,0 0,0 0,0 0,0 0.1717,-0.2181 0.4465,-0.4809 0.8192,-0.7913 0,0 0,0 0,0 0.7033,-0.5856 1.751,-1.3368 3.0926,-2.28 0,0 0,0 0,0 2.3029,-1.6206 5.5043,-3.7589 8.9794,-6.7793 0,0 0,0 0,0 0,0 0,0 0,0 1.278,-1.1356 2.6062,-2.3599 3.8148,-3.7072 1.2086,-1.3472 2.2988,-2.8169 3.0027,-4.4744 0,0 0,0 0,0 0.5102,-1.1994 0.8563,-2.4381 0.7532,-3.5293 0,0 0,0 0,0 -0.03,-1.0565 -0.5049,-2.2275 -1.2197,-3.3174 0,0 0,0 0,0 -1.4654,-2.3242 -2.5909,-4.8737 -3.4099,-7.5454 -0.819,-2.6716 -1.3311,-5.4654 -1.6183,-8.2385 0,0 0,0 0,0 0,0 0,0 0,0 -0.7237,-6.2433 -0.5658,-12.8753 0.2867,-19.5948 0,0 0,0 0,0 0.8327,-6.6661 2.3353,-13.5517 4.6141,-20.4295 1.8776,-5.7055 4.3295,-11.5076 7.6822,-17.052 0.2252,-0.3723 0.4538,-0.7425 0.686,-1.1105 1.0107,-1.5599 1.566,-3.4883 1.6431,-5.3909 0.1174,-2.1045 -0.4015,-4.3753 -1.1963,-6.6317 -1.973,-5.5711 -5.8861,-10.4338 -10.149,-14.6715 -4.7956,-4.6413 -10.0017,-8.2854 -15.3234,-10.4574 -2.4735,-0.9975 -4.8551,-1.7007 -7.0986,-1.8656 -2.0298,-0.127 -3.919,0.046 -5.3586,0.7422 -3.6983,1.7053 -6.7067,4.2514 -8.9355,6.9446 -2.4157,2.8467 -4.0086,5.9336 -5.1689,8.6693 0,0 0,0 0,0 -1.8679,7.2711 -3.3151,11.3816 -4.1144,11.2509 z"
           id="path3187-7-6-0-3"
           inkscape:path-effect="#path-effect3189-8-4-9-6"
           inkscape:original-d="m 6280.4614,1245.3112 c 0,0 -0.3805,-21.3053 16.5116,-30.1319 16.892,-8.8266 55.8505,24.5769 43.4141,44.2168 -12.4365,19.6398 -17.9657,54.7853 -9.1814,69.3101 8.7843,14.5248 -22.717,27.4011 -22.717,27.4011"
           inkscape:connector-curvature="0" />
        <path
           style="fill:#000000;fill-rule:evenodd;stroke:none"
           d="m 5651.3874,1249.033 c -0.7993,0.1307 -2.2465,-3.9798 -4.1144,-11.251 0,0 0,0 0,0 -1.1603,-2.7357 -2.7532,-5.8225 -5.1689,-8.6693 -2.2287,-2.6932 -5.2371,-5.2393 -8.9354,-6.9446 -1.4397,-0.696 -3.3288,-0.8692 -5.3586,-0.7422 -2.2435,0.1649 -4.6252,0.8681 -7.0986,1.8656 -5.3217,2.172 -10.5279,5.8161 -15.3234,10.4574 -4.263,4.2377 -8.176,9.1004 -10.149,14.6715 -0.7948,2.2564 -1.3137,4.5272 -1.1964,6.6317 0.077,1.9026 0.6325,3.831 1.6432,5.3909 0.2322,0.368 0.4608,0.7382 0.6859,1.1105 3.3527,5.5444 5.8047,11.3465 7.6823,17.0521 2.2788,6.8778 3.7813,13.7633 4.614,20.4294 0,0 0,0 0,0 0.8525,6.7195 1.0104,13.3515 0.2867,19.5947 0,0 0,0 0,0 0,0 0,0 0,0 -0.2872,2.7731 -0.7994,5.567 -1.6183,8.2386 -0.819,2.6717 -1.9445,5.2212 -3.4099,7.5454 0,0 0,0 0,0 -0.7148,1.0899 -1.1892,2.2609 -1.2197,3.3173 0,0 0,0 0,0 -0.1031,1.0913 0.243,2.33 0.7532,3.5293 0.704,1.6575 1.7941,3.1272 3.0027,4.4745 1.2087,1.3473 2.5368,2.5715 3.8148,3.7071 0,0 0,0 0,0 0,0 0,0 0,0 0,0 0,0 0,0 3.4751,3.0205 6.6766,5.1588 8.9795,6.7793 0,0 0,0 0,0 1.3416,0.9433 2.3893,1.6945 3.0926,2.2801 0,0 0,0 0,0 0.3727,0.3104 0.6475,0.5732 0.8192,0.7913 0,0 0,0 0,0 0,0 0,0 0,0 0.087,0.1116 0.1477,0.2114 0.1804,0.2998 0,0 0,0 0,0 0,0 0,0 0,0 -0.01,0.1095 -0.01,0.1687 -0,0.2004 0.01,0.031 0.013,0.036 0.013,0.036 0,0 0,0 0,0 0,0 0,0 0,0 0,0 0,0 0,0 0,0 0,0 0,0 -7e-4,-2e-4 -0.01,-0 -0.035,0.016 -0.026,0.019 -0.069,0.059 -0.1396,0.1433 0,0 0,0 0,0 0,0 0,0 0,0 -0.087,0.038 -0.2028,0.064 -0.3473,0.076 0,0 0,0 0,0 0,0 0,0 0,0 -0.2804,0.024 -0.6688,-0 -1.1577,-0.079 0,0 0,0 0,0 -0.9225,-0.1474 -2.2094,-0.4826 -3.8117,-1.0393 0,0 0,0 0,0 -2.747,-0.9522 -6.4781,-2.5142 -10.7513,-5.2526 0,0 0,0 0,0 0,0 0,0 0,0 -1.5722,-0.9828 -3.256,-2.1623 -4.9172,-3.6619 -1.6612,-1.4996 -3.301,-3.3192 -4.6919,-5.6278 -1.081,-1.8133 -1.8756,-4.0286 -2.021,-6.5892 0,0 0,0 0,0 -0.073,-2.5858 0.5827,-5.1486 1.8722,-7.3727 0,0 0,0 0,0 0.9414,-1.6555 1.6082,-3.5703 2.0767,-5.6946 0.4684,-2.1242 0.7386,-4.4579 0.9354,-6.9125 0,0 0,0 0,0 0,0 0,0 0,0 0.3593,-5.4535 -0.059,-11.3332 -1.0194,-17.4881 0,0 0,0 0,0 -0.9623,-6.0796 -2.4827,-12.3334 -4.6498,-18.5714 -1.814,-5.185 -4.0034,-10.3145 -6.8778,-15.0391 -0.193,-0.3173 -0.3886,-0.6319 -0.587,-0.9438 -1.9979,-3.1914 -3.0474,-6.7997 -3.1529,-10.4106 -0.078,-3.7822 0.6907,-7.3134 1.9224,-10.4382 2.9375,-7.4685 7.7976,-13.3931 12.946,-18.0238 2.8314,-2.6068 5.8606,-4.9231 9.0135,-6.8697 3.1528,-1.9467 6.4291,-3.5238 9.7562,-4.6932 3.1218,-1.11 6.4369,-1.801 9.7679,-1.8606 3.1172,-0.08 6.2948,0.6194 9.0923,2.1374 4.6574,2.6608 8.111,6.2566 10.4661,9.9039 2.541,4.0097 3.8672,7.9093 4.6006,11.2039 0,0 0,0 0,0 0.5955,7.784 0.5369,12.1605 -0.2624,12.2913 z"
           id="path3187-7-6-0-6-1"
           inkscape:path-effect="#path-effect3189-8-4-9-7-6"
           inkscape:original-d="m 5651.3874,1249.033 c 0,0 0.3805,-21.3054 -16.5115,-30.132 -16.8921,-8.8266 -55.8506,24.5769 -43.4141,44.2168 12.4365,19.6399 17.9655,54.7852 9.1813,69.3101 -8.7843,14.5247 22.7171,27.4011 22.7171,27.4011"
           inkscape:connector-curvature="0" />
      </g>
    </g>
  </g>
</svg>
