<?xml version="1.0" encoding="UTF-8" standalone="no"?>
<!-- Created with Inkscape (http://www.inkscape.org/) -->

<svg
   xmlns:dc="http://purl.org/dc/elements/1.1/"
   xmlns:cc="http://creativecommons.org/ns#"
   xmlns:rdf="http://www.w3.org/1999/02/22-rdf-syntax-ns#"
   xmlns:svg="http://www.w3.org/2000/svg"
   xmlns="http://www.w3.org/2000/svg"
   xmlns:sodipodi="http://sodipodi.sourceforge.net/DTD/sodipodi-0.dtd"
   xmlns:inkscape="http://www.inkscape.org/namespaces/inkscape"
   width="596.7749"
   height="682.7879"
   id="svg4068"
   version="1.1"
   inkscape:version="0.48.3.1 r9886"
   sodipodi:docname="nariz_6.svg">
  <defs
     id="defs4070">
    <inkscape:path-effect
       effect="skeletal"
       id="path-effect6574"
       is_visible="true"
       pattern="m -14069.21,-1265.6489 c 0,-2.76 2.24,-5 5,-5 2.76,0 5,2.24 5,5 0,2.76 -2.24,5 -5,5 -2.76,0 -5,-2.24 -5,-5 z"
       copytype="single_stretched"
       prop_scale="1"
       scale_y_rel="false"
       spacing="0"
       normal_offset="0"
       tang_offset="0"
       prop_units="false"
       vertical_pattern="false"
       fuse_tolerance="0" />
    <inkscape:path-effect
       effect="skeletal"
       id="path-effect5543"
       is_visible="true"
       pattern="m -13870.71,-1632.2205 c 0,-2.76 2.24,-5 5,-5 2.76,0 5,2.24 5,5 0,2.76 -2.24,5 -5,5 -2.76,0 -5,-2.24 -5,-5 z"
       copytype="single_stretched"
       prop_scale="1"
       scale_y_rel="false"
       spacing="0"
       normal_offset="0"
       tang_offset="0"
       prop_units="false"
       vertical_pattern="false"
       fuse_tolerance="0" />
    <inkscape:path-effect
       effect="skeletal"
       id="path-effect6549"
       is_visible="true"
       pattern="m -9698.7475,1895.3113 c 0,-2.76 2.24,-5 5,-5 2.76,0 5,2.24 5,5 0,2.76 -2.24,5 -5,5 -2.76,0 -5,-2.24 -5,-5 z"
       copytype="single_stretched"
       prop_scale="1"
       scale_y_rel="false"
       spacing="0"
       normal_offset="0"
       tang_offset="0"
       prop_units="false"
       vertical_pattern="false"
       fuse_tolerance="0" />
    <inkscape:path-effect
       effect="skeletal"
       id="path-effect3189-8-4-9-7-6-9-2-2-9-8"
       is_visible="true"
       pattern="m 6237.6376,1770.428 c 0,-2.76 2.24,-4.9999 5,-4.9999 2.76,0 5,2.2399 5,4.9999 0,2.76 -2.24,5 -5,5 -2.76,0 -5,-2.24 -5,-5 z"
       copytype="single_stretched"
       prop_scale="1"
       scale_y_rel="false"
       spacing="0"
       normal_offset="0"
       tang_offset="0"
       prop_units="false"
       vertical_pattern="false"
       fuse_tolerance="0" />
    <inkscape:path-effect
       effect="skeletal"
       id="path-effect3189-8-4-9-7-6-9-2-2-9-8-3"
       is_visible="true"
       pattern="m 6757.667,1749.1885 c 0,-2.76 2.24,-4.9999 5,-4.9999 2.76,0 5,2.2399 5,4.9999 0,2.76 -2.24,5 -5,5 -2.76,0 -5,-2.24 -5,-5 z"
       copytype="single_stretched"
       prop_scale="1"
       scale_y_rel="false"
       spacing="0"
       normal_offset="0"
       tang_offset="0"
       prop_units="false"
       vertical_pattern="false"
       fuse_tolerance="0" />
  </defs>
  <sodipodi:namedview
     id="base"
     pagecolor="#ffffff"
     bordercolor="#666666"
     borderopacity="1.0"
     inkscape:pageopacity="0.0"
     inkscape:pageshadow="2"
     inkscape:zoom="0.12374369"
     inkscape:cx="695.86844"
     inkscape:cy="394.51427"
     inkscape:document-units="px"
     inkscape:current-layer="layer1"
     showgrid="false"
     fit-margin-top="0"
     fit-margin-left="0"
     fit-margin-right="0"
     fit-margin-bottom="0"
     inkscape:window-width="560"
     inkscape:window-height="451"
     inkscape:window-x="3"
     inkscape:window-y="47"
     inkscape:window-maximized="0" />
  <metadata
     id="metadata4073">
    <rdf:RDF>
      <cc:Work
         rdf:about="">
        <dc:format>image/svg+xml</dc:format>
        <dc:type
           rdf:resource="http://purl.org/dc/dcmitype/StillImage" />
        <dc:title></dc:title>
      </cc:Work>
    </rdf:RDF>
  </metadata>
  <g
     inkscape:label="Capa 1"
     inkscape:groupmode="layer"
     id="layer1"
     transform="translate(-24.952247,-401.90179)">
    <g
       transform="translate(-5463.5057,-2850.1681)"
       style="display:inline"
       id="g4361">
      <path
         inkscape:connector-curvature="0"
         id="path4795"
         d="m 5533.6743,3427.7612 18.1827,150.8873 -45.1277,-18.2508 -11.4408,55.2519 26.2639,38.3858 c 0,0 4.0406,30.3046 12.1219,40.4061 8.0812,10.1015 24.2436,6.0609 24.2436,6.0609 l 16.1625,42.4264 36.3655,52.5279 62.6294,60.6092 72.731,54.5482 46.467,24.2437 52.5279,-38.3858 90.9138,-68.6904 50.5076,-68.6904 20.1918,-78.0769 c 0,0 26.1754,10.961 27.5806,-5.2666 1.9863,-22.9383 52.5619,-81.5612 51.2113,-107.8705 -0.5179,-10.0882 -20.2031,-22.1327 -20.2031,-22.1327 l -45.0597,20.2257 c 0,0 7.344,-120.1205 -8.0132,-165.0973 -15.3573,-44.9768 -118.6417,-128.6752 -118.6417,-128.6752 0,0 -86.0854,-12.9514 -98.995,-12.1218 -251.8673,16.1851 -260.6193,167.6853 -260.6193,167.6853 z"
         style="fill:#facaca;fill-opacity:0.4;stroke:none;display:inline"
         sodipodi:nodetypes="cccccsccccccccccsscczcsc" />
      <path
         sodipodi:nodetypes="ccszszccssc"
         inkscape:connector-curvature="0"
         inkscape:original-d="m 5552.8883,3655.0939 c 0,0 -6.8849,54.6825 43.7108,118.3588 24.1786,28.4708 63.7237,72.9209 109.8618,105.8676 46.1643,32.9649 68.8125,47.6539 90.6618,46.5429 21.8487,-1.1109 66.9429,-46.3883 96.0434,-70.9034 39.9754,-33.6765 98.1319,-68.4675 99.3112,-101.9338 1.1806,-33.4663 22.9004,-106.4164 30.2072,-125.0871 7.3076,-18.6707 -1.6966,-147.3659 1.9571,-180.9731 3.6537,-33.6073 -83.589,-191.0818 -217.7005,-190.2535 -134.7341,0.8322 -301.5485,92.9782 -272.3204,205.0024 29.2288,112.0242 18.2676,193.3792 18.2676,193.3792 z"
         inkscape:path-effect="#path-effect6549"
         id="path6547"
         d="m 5552.8883,3655.0939 c 0.01,0 0.016,0.01 0.023,0.014 0.01,0.01 0.014,0.019 0.02,0.033 0.012,0.029 0.023,0.07 0.033,0.1251 0,0 0,0 0,0 0,0 0,0 0,0 0.019,0.1089 0.034,0.2689 0.046,0.4804 0,0 0,0 0,0 0.023,0.4184 0.035,1.0362 0.05,1.8522 0,0 0,0 0,0 0.03,1.5987 0.075,3.9523 0.2647,7.034 0,0 0,0 0,0 0.365,5.9427 1.2596,14.5951 3.7966,25.4951 0,0 0,0 0,0 0,0 0,0 0,0 2.4624,10.5935 6.4802,23.2511 13.118,37.1975 3.3189,6.9732 7.2888,14.2631 11.9919,21.7327 4.7031,7.4696 10.1406,15.1193 16.3354,22.7788 0,0 0,0 0,0 13.6505,15.7781 29.0877,32.9983 46.922,50.6915 0,0 0,0 0,0 0,0 0,1e-4 0,1e-4 0,0 0,0 0,0 9.1117,9.039 18.8402,18.2204 29.3047,27.2942 10.4646,9.0738 21.665,18.0403 33.7555,26.5744 8.539,6.0246 17.1911,12.2615 26.1527,18.3281 8.9617,6.0666 18.2329,11.9631 28.0645,17.2111 0,0 0,0 0,0 6.0019,3.1952 12.1568,6.0872 18.5891,7.9285 5.0832,1.4549 10.3627,2.2464 15.5617,1.9436 2.4649,-0.094 5.0946,-0.9866 7.8524,-2.0934 3.4888,-1.4445 6.8961,-3.3623 10.3105,-5.4774 0,0 0,0 0,0 8.4801,-5.2653 16.5439,-11.6305 24.6428,-18.3326 8.8016,-7.294 17.5018,-15.0342 26.3309,-22.9403 0,0 0,0 0,0 7.8908,-7.0676 15.8704,-14.3216 24.241,-21.4138 0,0 0,0 0,0 10.4114,-8.8166 21.3447,-17.1766 32.3079,-25.6384 10.6787,-8.2468 21.4358,-16.5464 31.715,-25.5146 0,0 0,0 0,0 8.7553,-7.664 17.236,-15.6334 23.9572,-24.8615 0,0 0,0 0,0 2.7327,-3.7556 5.1506,-7.6506 6.8564,-11.7518 0,0 0,0 0,0 1.4796,-3.5801 2.4777,-7.2895 2.5726,-10.9266 0,0 0,0 0,0 0.3797,-10.8049 2.1957,-21.4048 4.2281,-31.7965 0,0 0,0 0,0 2.4248,-12.4809 5.3885,-24.9278 8.6344,-37.3642 2.9951,-11.4796 6.2456,-22.9857 9.7842,-34.4926 1.3789,-4.4848 2.8057,-8.9811 4.3148,-13.4762 0,0 0,0 0,-1e-4 1.0597,-3.1601 2.1652,-6.3702 3.4205,-9.5892 0,0 0,0 0,0 0,-10e-5 0,-10e-5 0,-10e-5 0,0 0,0 0,0 0.404,-0.9602 0.6306,-2.2486 0.9123,-3.7692 0,0 10e-5,0 10e-5,-1e-4 0,0 0,0 0,0 0.3614,-2.1173 0.5919,-4.3276 0.7885,-6.6113 0,-1e-4 0,-1e-4 0,-1e-4 0,0 0,0 0,0 0.54,-6.3271 0.7093,-12.7786 0.811,-19.3254 0.2671,-17.5446 -0.1385,-35.3062 -0.5523,-53.2656 -0.4295,-18.5874 -0.9819,-37.3591 -1.2223,-56.3085 -0.015,-1.1465 -0.028,-2.2941 -0.04,-3.4429 -0.069,-6.6207 -0.088,-13.2476 0.028,-19.8775 0.093,-5.5964 0.2397,-11.3174 0.8646,-17.1124 0.2385,-1.8766 5e-4,-4.0263 -0.3364,-6.3692 -0.485,-3.135 -1.3063,-6.2959 -2.2749,-9.4902 -2.6447,-8.699 -6.3613,-17.124 -10.489,-25.391 -5.3164,-10.6254 -11.3901,-20.8248 -17.9639,-30.629 -7.638,-11.3876 -15.9585,-22.2035 -24.8599,-32.3736 -9.9786,-11.3874 -20.6804,-21.9932 -32.0444,-31.5209 -11.3641,-9.5277 -23.3904,-17.9771 -36.0165,-25.0925 -13.4509,-7.5864 -27.5655,-13.6271 -42.0254,-17.7317 -15.3694,-4.3664 -31.15,-6.542 -46.6946,-6.4787 -35.7257,0.1318 -70.2387,6.4263 -102.246,16.163 0,0 -10e-5,0 -10e-5,0 -17.2157,5.2476 -33.7459,11.5127 -49.3462,18.7521 -15.6003,7.2394 -30.2707,15.4529 -43.8434,24.5611 -13.4091,8.9986 -25.6986,18.8779 -36.4212,29.672 -10.392,10.468 -19.3202,21.7755 -26.1042,33.7831 -6.7134,11.8848 -11.316,24.4638 -13.3047,37.0018 -2.1821,13.6504 -1.254,27.2426 1.889,39.6571 7.325,28.8827 11.9476,55.4233 14.7687,78.8642 2.8211,23.4409 3.8549,43.789 4.0519,60.5438 0.2049,17.4917 -0.5388,31.0773 -1.3807,40.333 -1.2981,8.7609 -1.9023,13.6822 -2.1075,14.4169 -0.037,-0 -0.037,-0 -0.037,-0 0,0 0,0 -0.037,-0 -0.075,-0.759 0.1772,-5.7087 0.4065,-14.5415 0.2839,-9.2485 0.4814,-22.7556 -0.2418,-40.1115 -0.6925,-16.6416 -2.1985,-36.8133 -5.4511,-60.0097 -3.2526,-23.1963 -8.2659,-49.4243 -15.9165,-77.9378 -3.5202,-13.1244 -4.6952,-27.5637 -2.5441,-42.2184 1.9872,-13.4326 6.6996,-26.8564 13.6735,-39.4723 7.0323,-12.7241 16.2401,-24.6617 26.9386,-35.6153 11.0289,-11.2988 23.6292,-21.624 37.3398,-30.9764 13.8655,-9.4584 28.8456,-17.9991 44.7664,-25.53 15.9207,-7.5308 32.7822,-14.0517 50.3334,-19.5066 1e-4,0 1e-4,0 1e-4,0 32.6222,-10.1584 67.9596,-16.7795 104.7564,-17.0956 16.4318,-0.1342 33.0919,2.0893 49.3231,6.6387 15.2571,4.2799 30.0924,10.5597 44.1725,18.4542 13.1958,7.4045 25.7366,16.1573 37.5512,26.0015 11.8146,9.8442 22.903,20.7795 33.1967,32.5086 9.1977,10.4684 17.7947,21.6057 25.6872,33.3374 6.7916,10.0918 13.0893,20.6464 18.6358,31.6968 4.3021,8.5537 8.2326,17.4918 11.1315,26.9366 1.0679,3.4711 1.9962,7.0871 2.5957,10.8575 0.46,2.7323 0.7202,5.7574 0.4023,8.9989 -0.5747,5.2388 -0.7009,10.6564 -0.8022,16.2062 -0.1125,6.4945 -0.093,13.0285 -0.024,19.5992 0.012,1.1402 0.025,2.2805 0.04,3.4209 0.2377,18.8385 0.7827,37.5779 1.2001,56.2079 0.4036,17.9609 0.7917,35.8535 0.5,53.6496 -0.1065,6.6222 -0.2971,13.3045 -0.8742,20.0135 0,0 0,1e-4 0,1e-4 -0.2063,2.4188 -0.4754,4.9008 -0.9039,7.425 0,0 0,10e-5 0,10e-5 -0.2661,1.6985 -0.6757,3.6352 -1.4598,5.7106 0,0 0,0 0,0 -1.165,2.9653 -2.222,6.0249 -3.2743,9.1362 0,0 0,10e-5 0,10e-5 -1.4826,4.3886 -2.8922,8.8027 -4.2632,13.229 -3.5174,11.3572 -6.755,22.7214 -9.7449,34.067 -3.2394,12.2974 -6.1905,24.5355 -8.5972,36.7438 0,0 0,0 0,0 -2.0104,10.2668 -3.8011,20.3511 -4.1528,30.2793 -0.2118,5.0677 -1.474,9.8943 -3.3599,14.2878 -2.1318,4.9908 -4.9297,9.5166 -7.9978,13.6538 -7.4828,10.0986 -16.4599,18.5333 -25.4702,26.2946 0,0 0,0 0,0 -10.6029,9.1632 -21.5362,17.5263 -32.261,25.7205 -11.0296,8.4317 -21.8949,16.646 -32.1244,25.218 0,0 0,0 0,0 -8.2514,6.9107 -16.2152,14.0689 -24.1812,21.1157 -8.889,7.8653 -17.7259,15.6242 -26.7291,22.9867 -8.2362,6.7445 -16.6638,13.2784 -25.6979,18.818 -3.6365,2.2346 -7.4584,4.3287 -11.5409,6.0021 -3.1557,1.3284 -6.6974,2.3986 -10.5601,2.6268 -6.2941,0.2816 -12.4542,-0.6639 -18.2218,-2.3923 -7.2049,-2.1595 -13.8361,-5.3138 -20.053,-8.7216 -10.1189,-5.5332 -19.5577,-11.649 -28.5893,-17.8817 -9.0317,-6.2328 -17.6562,-12.5825 -26.0915,-18.6789 -12.2264,-8.8303 -23.5041,-18.0652 -33.9998,-27.3851 -10.4957,-9.3199 -20.2092,-18.7251 -29.2715,-27.9708 0,0 0,0 0,0 0,0 0,0 0,0 0,0 0,0 0,0 -17.7758,-18.134 -33.047,-35.7175 -46.4701,-51.8191 0,0 0,0 0,0 -6.1955,-7.9341 -11.5993,-15.8584 -16.241,-23.5905 -4.6416,-7.7322 -8.5224,-15.2727 -11.7305,-22.4762 -6.4161,-14.4069 -10.1263,-27.4404 -12.2325,-38.301 0,-1e-4 0,-1e-4 0,-1e-4 0,0 0,0 0,0 -1.0809,-5.5833 -1.7434,-10.5946 -2.1185,-14.9537 -0.3751,-4.3591 -0.4666,-8.0672 -0.4269,-11.0804 0,0 0,0 0,0 0.041,-3.1249 0.2325,-5.5069 0.4392,-7.109 0,0 0,0 0,0 0.1056,-0.8178 0.2157,-1.4345 0.3145,-1.8457 0,0 0,0 0,0 0.05,-0.2078 0.097,-0.3637 0.1394,-0.4668 0,0 0,0 0,0 0,0 0,0 0,0 0.021,-0.052 0.041,-0.09 0.06,-0.1156 0.01,-0.013 0.018,-0.022 0.027,-0.028 0.01,-0.01 0.017,-0.01 0.026,-0.01 z"
         style="fill:#000000;fill-rule:evenodd;stroke:none" />
      <path
         sodipodi:nodetypes="ccccc"
         inkscape:connector-curvature="0"
         inkscape:original-d="m 5552.9727,3583.9346 c 0,0 -25.7696,-19.8694 -40.9133,-18.232 -15.1436,1.6375 -27.2899,54.9953 -10.5727,65.9097 16.7178,10.9143 35.3407,40.1271 35.5652,58.6075 0.2234,18.4806 26.9459,12.1214 26.9459,12.1214"
         inkscape:path-effect="#path-effect3189-8-4-9-7-6-9-2-2-9-8"
         id="path3187-7-6-0-6-1-1-5-3-3-3"
         d="m 5552.9727,3583.9346 c -0.5447,0.8274 -6.4762,-1.972 -16.1983,-7.4444 -3.7805,-1.812 -8.1538,-3.8223 -13.1279,-5.3247 0,0 0,0 0,0 -1.8587,-0.5363 -3.7603,-1.0468 -5.6426,-1.3595 -1.8823,-0.3128 -3.7454,-0.4279 -5.5126,-0.109 -0.82,0.018 -1.8422,0.8844 -3.0421,1.9342 -1.4698,1.4364 -2.6971,3.4184 -3.9151,5.6775 -2.8526,5.3985 -4.7296,11.8136 -5.9886,18.7691 -1.1336,6.5927 -1.7125,13.4648 -0.6601,20.1292 0.4341,2.66 1.0384,5.1779 2.1177,7.2925 0.017,0.033 0.035,0.065 0.052,0.098 0.906,1.6844 1.9416,3.1223 3.1583,3.8377 5.3114,3.5163 9.7043,7.763 13.4814,12.0776 4.585,5.2025 8.4457,10.6771 11.6826,16.145 3.487,5.8727 6.2902,11.8415 8.2782,17.6977 0,0 0,0 0,0 0.97,2.8054 1.7589,5.6522 2.2784,8.4758 0.5194,2.8236 0.7696,5.6238 0.7145,8.3449 -0.041,1.6789 0.1176,3.2154 0.6267,4.4523 0.4181,1.1037 1.1272,2.1011 1.969,2.8831 0.9894,0.9773 2.2513,1.6559 3.5754,2.1749 1.3241,0.5191 2.7113,0.8778 4.0308,1.1629 1.7467,0.3542 3.3848,0.533 4.859,0.6459 1.4742,0.1129 2.785,0.1589 3.8992,0.2019 2.7342,-0.022 4.2833,0.179 4.3877,0.6388 0,0 0,0 0,0 0,0 0,0 0,0 0,0 0,0 0,0 0,0 0,0 0,0 0,0 0,0 0,0 0,0 0,0 0,0 0,0.01 0,0.01 0,0.01 0,0 0,0 0,0.01 0,0 0,0 0,0 0,0 0,0 0,0 0,0 0,0 0,0 0,0 0,0 0,0 0,0 0,0 0,0 0,0 0,0 0,0 0.083,0.4635 -1.29,1.1569 -3.9974,2.0519 -1.1262,0.317 -2.4931,0.6266 -4.1033,0.8547 -1.6102,0.2282 -3.4641,0.376 -5.5561,0.3165 -1.5696,-0.026 -3.313,-0.1989 -5.1609,-0.6787 -1.8478,-0.4798 -3.8011,-1.2664 -5.722,-2.5891 -1.6577,-1.1935 -3.1334,-2.8179 -4.1896,-4.8428 -1.1268,-2.2343 -1.7234,-4.7201 -1.8146,-7.1954 -0.1144,-2.1566 -0.5057,-4.4069 -1.1304,-6.7458 -0.6246,-2.3388 -1.4827,-4.7664 -2.4783,-7.2715 0,0 0,0 0,0 -2.086,-5.1507 -4.8993,-10.4314 -8.3154,-15.7464 -3.1817,-4.9345 -6.8523,-9.8409 -11.0959,-14.4617 -3.5515,-3.8396 -7.3577,-7.4785 -11.6753,-10.2486 -3.0198,-2.0505 -5.232,-4.7779 -6.6414,-7.692 -0.027,-0.056 -0.054,-0.1128 -0.081,-0.1693 -1.6573,-3.4259 -2.5536,-6.9278 -3.0096,-10.2558 -1.1605,-8.2225 -0.4216,-16.1658 1.0773,-23.3928 1.5195,-7.6305 4.0237,-14.9476 7.6966,-21.2743 1.5291,-2.6769 3.4547,-5.3008 5.8923,-7.5221 1.9381,-1.8877 4.6853,-3.3532 7.9336,-3.7748 2.8463,-0.18 5.4696,0.1302 7.8672,0.6774 2.3976,0.5471 4.5697,1.3315 6.5265,2.165 0,0 0,0 0,0 5.4752,2.2489 9.9178,4.9207 13.5686,7.3537 9.0005,6.8536 13.9275,11.2029 13.3829,12.0302 z"
         style="fill:#000000;fill-rule:evenodd;stroke:none" />
      <path
         sodipodi:nodetypes="ccccc"
         inkscape:connector-curvature="0"
         inkscape:original-d="m 6019.5125,3562.6951 c 0,0 25.7696,-19.8694 40.9133,-18.232 15.1436,1.6375 27.2899,54.9953 10.5727,65.9097 -16.7178,10.9143 -35.3407,40.1271 -35.5652,58.6075 -0.2234,18.4806 -26.9459,12.1214 -26.9459,12.1214"
         inkscape:path-effect="#path-effect3189-8-4-9-7-6-9-2-2-9-8-3"
         id="path3187-7-6-0-6-1-1-5-3-3-3-6"
         d="m 6019.5125,3562.695 c -0.5447,-0.8273 4.3824,-5.1766 13.3829,-12.0302 3.6508,-2.4329 8.0933,-5.1048 13.5686,-7.3536 0,0 0,0 0,0 1.9568,-0.8335 4.1288,-1.6179 6.5265,-2.1651 2.3976,-0.5472 5.0209,-0.8573 7.8672,-0.6774 3.2484,0.4217 5.9955,1.8872 7.9336,3.7749 2.4376,2.2213 4.3632,4.8452 5.8923,7.5221 3.673,6.3267 6.1772,13.6438 7.6966,21.2743 1.4989,7.227 2.2378,15.1703 1.0773,23.3928 -0.456,3.328 -1.3523,6.8299 -3.0096,10.2558 -0.027,0.057 -0.054,0.1129 -0.081,0.1693 -1.4094,2.9141 -3.6216,5.6415 -6.6414,7.692 -4.3176,2.7701 -8.1238,6.409 -11.6752,10.2486 -4.2437,4.6208 -7.9143,9.5272 -11.096,14.4617 -3.4161,5.315 -6.2294,10.5957 -8.3154,15.7464 0,0 0,0 0,0 -0.9955,2.5051 -1.8536,4.9327 -2.4783,7.2716 -0.6246,2.3388 -1.016,4.5891 -1.1304,6.7457 -0.091,2.4753 -0.6878,4.9611 -1.8146,7.1954 -1.0561,2.025 -2.5318,3.6494 -4.1895,4.8428 -1.921,1.3228 -3.8743,2.1093 -5.7221,2.5892 -1.8479,0.4798 -3.5913,0.6523 -5.1609,0.6786 -2.0919,0.059 -3.9459,-0.088 -5.5561,-0.3164 -1.6102,-0.2281 -2.9771,-0.5377 -4.1033,-0.8547 -2.7074,-0.895 -4.0803,-1.5884 -3.9974,-2.0519 0,0 0,0 0,0 0,0 0,0 0,0 0,0 0,0 0,0 0,0 0,0 0,0 0,0 0,0 0,0 0,0 0,0 0,0 0,-0.01 0,-0.01 0,-0.01 0,0 0,0 0,-0.01 0,0 0,0 0,0 0,0 0,0 0,0 0,0 0,0 0,0 0,0 0,0 0,0 0,0 0,0 0,0 0,0 0,0 0,0 0.1044,-0.4598 1.6534,-0.6608 4.3877,-0.6388 1.1142,-0.043 2.425,-0.089 3.8992,-0.2019 1.4742,-0.113 3.1123,-0.2917 4.859,-0.6459 1.3195,-0.2852 2.7067,-0.6439 4.0308,-1.1629 1.3241,-0.5191 2.586,-1.1976 3.5754,-2.1749 0.8419,-0.782 1.5509,-1.7794 1.9691,-2.8831 0.509,-1.237 0.6675,-2.7734 0.6266,-4.4524 -0.055,-2.7211 0.1951,-5.5213 0.7145,-8.3449 0.5195,-2.8236 1.3084,-5.6704 2.2784,-8.4758 0,0 0,0 1e-4,0 1.9879,-5.8562 4.7911,-11.825 8.2781,-17.6977 3.2369,-5.4679 7.0976,-10.9425 11.6826,-16.145 3.7771,-4.3146 8.17,-8.5613 13.4814,-12.0776 1.2167,-0.7154 2.2523,-2.1533 3.1583,-3.8377 0.017,-0.033 0.035,-0.065 0.052,-0.098 1.0793,-2.1146 1.6836,-4.6325 2.1177,-7.2925 1.0524,-6.6644 0.4735,-13.5365 -0.6601,-20.1292 -1.259,-6.9555 -3.1359,-13.3706 -5.9886,-18.7691 -1.218,-2.2591 -2.4453,-4.2411 -3.9151,-5.6775 -1.1999,-1.0498 -2.2221,-1.916 -3.0421,-1.9343 -1.7672,-0.3188 -3.6303,-0.2037 -5.5126,0.109 -1.8824,0.3127 -3.7839,0.8233 -5.6426,1.3595 0,0 0,0 0,0 -4.9741,1.5024 -9.3474,3.5127 -13.128,5.3247 -9.7221,5.4724 -15.6535,8.2718 -16.1982,7.4444 z"
         style="fill:#000000;fill-rule:evenodd;stroke:none;display:inline" />
    </g>
  </g>
</svg>
