<?xml version="1.0" encoding="UTF-8" standalone="no"?>
<!-- Created with Inkscape (http://www.inkscape.org/) -->

<svg
   xmlns:dc="http://purl.org/dc/elements/1.1/"
   xmlns:cc="http://creativecommons.org/ns#"
   xmlns:rdf="http://www.w3.org/1999/02/22-rdf-syntax-ns#"
   xmlns:svg="http://www.w3.org/2000/svg"
   xmlns="http://www.w3.org/2000/svg"
   xmlns:sodipodi="http://sodipodi.sourceforge.net/DTD/sodipodi-0.dtd"
   xmlns:inkscape="http://www.inkscape.org/namespaces/inkscape"
   width="688.5672"
   height="967.31793"
   id="svg4068"
   version="1.1"
   inkscape:version="0.48.3.1 r9886"
   sodipodi:docname="cara_3.svg">
  <defs
     id="defs4070">
    <inkscape:path-effect
       effect="skeletal"
       id="path-effect6574"
       is_visible="true"
       pattern="m -14069.21,-1265.6489 c 0,-2.76 2.24,-5 5,-5 2.76,0 5,2.24 5,5 0,2.76 -2.24,5 -5,5 -2.76,0 -5,-2.24 -5,-5 z"
       copytype="single_stretched"
       prop_scale="1"
       scale_y_rel="false"
       spacing="0"
       normal_offset="0"
       tang_offset="0"
       prop_units="false"
       vertical_pattern="false"
       fuse_tolerance="0" />
    <inkscape:path-effect
       effect="skeletal"
       id="path-effect5543"
       is_visible="true"
       pattern="m -13870.71,-1632.2205 c 0,-2.76 2.24,-5 5,-5 2.76,0 5,2.24 5,5 0,2.76 -2.24,5 -5,5 -2.76,0 -5,-2.24 -5,-5 z"
       copytype="single_stretched"
       prop_scale="1"
       scale_y_rel="false"
       spacing="0"
       normal_offset="0"
       tang_offset="0"
       prop_units="false"
       vertical_pattern="false"
       fuse_tolerance="0" />
    <inkscape:path-effect
       effect="skeletal"
       id="path-effect6549"
       is_visible="true"
       pattern="m -9698.7475,1895.3113 c 0,-2.76 2.24,-5 5,-5 2.76,0 5,2.24 5,5 0,2.76 -2.24,5 -5,5 -2.76,0 -5,-2.24 -5,-5 z"
       copytype="single_stretched"
       prop_scale="1"
       scale_y_rel="false"
       spacing="0"
       normal_offset="0"
       tang_offset="0"
       prop_units="false"
       vertical_pattern="false"
       fuse_tolerance="0" />
    <inkscape:path-effect
       effect="skeletal"
       id="path-effect3189-8-4-9-7-6-9-2-2-9-8"
       is_visible="true"
       pattern="m 6237.6376,1770.428 c 0,-2.76 2.24,-4.9999 5,-4.9999 2.76,0 5,2.2399 5,4.9999 0,2.76 -2.24,5 -5,5 -2.76,0 -5,-2.24 -5,-5 z"
       copytype="single_stretched"
       prop_scale="1"
       scale_y_rel="false"
       spacing="0"
       normal_offset="0"
       tang_offset="0"
       prop_units="false"
       vertical_pattern="false"
       fuse_tolerance="0" />
    <inkscape:path-effect
       effect="skeletal"
       id="path-effect3189-8-4-9-7-6-9-2-2-9-8-3"
       is_visible="true"
       pattern="m 6757.667,1749.1885 c 0,-2.76 2.24,-4.9999 5,-4.9999 2.76,0 5,2.2399 5,4.9999 0,2.76 -2.24,5 -5,5 -2.76,0 -5,-2.24 -5,-5 z"
       copytype="single_stretched"
       prop_scale="1"
       scale_y_rel="false"
       spacing="0"
       normal_offset="0"
       tang_offset="0"
       prop_units="false"
       vertical_pattern="false"
       fuse_tolerance="0" />
    <inkscape:path-effect
       effect="skeletal"
       id="path-effect3093-0"
       is_visible="true"
       pattern="m 7506.6858,594.57527 c 0,-2.76 2.24,-5 5,-5 2.76,0 5,2.24 5,5 0,2.76 -2.24,5 -5,5 -2.76,0 -5,-2.24 -5,-5 z"
       copytype="single_stretched"
       prop_scale="1"
       scale_y_rel="false"
       spacing="0"
       normal_offset="0"
       tang_offset="0"
       prop_units="false"
       vertical_pattern="false"
       fuse_tolerance="0" />
    <inkscape:path-effect
       effect="skeletal"
       id="path-effect3189-5"
       is_visible="true"
       pattern="m 7506.6858,594.57527 c 0,-2.76 2.24,-5 5,-5 2.76,0 5,2.24 5,5 0,2.76 -2.24,5 -5,5 -2.76,0 -5,-2.24 -5,-5 z"
       copytype="single_stretched"
       prop_scale="1"
       scale_y_rel="false"
       spacing="0"
       normal_offset="0"
       tang_offset="0"
       prop_units="false"
       vertical_pattern="false"
       fuse_tolerance="0" />
    <inkscape:path-effect
       effect="skeletal"
       id="path-effect3193-1"
       is_visible="true"
       pattern="m 7506.6858,594.57527 c 0,-2.76 2.24,-5 5,-5 2.76,0 5,2.24 5,5 0,2.76 -2.24,5 -5,5 -2.76,0 -5,-2.24 -5,-5 z"
       copytype="single_stretched"
       prop_scale="1"
       scale_y_rel="false"
       spacing="0"
       normal_offset="0"
       tang_offset="0"
       prop_units="false"
       vertical_pattern="false"
       fuse_tolerance="0" />
    <inkscape:path-effect
       effect="skeletal"
       id="path-effect4306"
       is_visible="true"
       pattern="M 0,5 C 0,2.24 2.24,0 5,0 7.76,0 10,2.24 10,5 10,7.76 7.76,10 5,10 2.24,10 0,7.76 0,5 z"
       copytype="single_stretched"
       prop_scale="1"
       scale_y_rel="false"
       spacing="0"
       normal_offset="0"
       tang_offset="0"
       prop_units="false"
       vertical_pattern="false"
       fuse_tolerance="0" />
    <inkscape:path-effect
       effect="skeletal"
       id="path-effect3093-0-8"
       is_visible="true"
       pattern="m 7506.6858,594.57527 c 0,-2.76 2.24,-5 5,-5 2.76,0 5,2.24 5,5 0,2.76 -2.24,5 -5,5 -2.76,0 -5,-2.24 -5,-5 z"
       copytype="single_stretched"
       prop_scale="1"
       scale_y_rel="false"
       spacing="0"
       normal_offset="0"
       tang_offset="0"
       prop_units="false"
       vertical_pattern="false"
       fuse_tolerance="0" />
    <inkscape:path-effect
       effect="skeletal"
       id="path-effect3189-5-8"
       is_visible="true"
       pattern="m 7506.6858,594.57527 c 0,-2.76 2.24,-5 5,-5 2.76,0 5,2.24 5,5 0,2.76 -2.24,5 -5,5 -2.76,0 -5,-2.24 -5,-5 z"
       copytype="single_stretched"
       prop_scale="1"
       scale_y_rel="false"
       spacing="0"
       normal_offset="0"
       tang_offset="0"
       prop_units="false"
       vertical_pattern="false"
       fuse_tolerance="0" />
    <inkscape:path-effect
       effect="skeletal"
       id="path-effect3193-1-3"
       is_visible="true"
       pattern="m 7506.6858,594.57527 c 0,-2.76 2.24,-5 5,-5 2.76,0 5,2.24 5,5 0,2.76 -2.24,5 -5,5 -2.76,0 -5,-2.24 -5,-5 z"
       copytype="single_stretched"
       prop_scale="1"
       scale_y_rel="false"
       spacing="0"
       normal_offset="0"
       tang_offset="0"
       prop_units="false"
       vertical_pattern="false"
       fuse_tolerance="0" />
    <inkscape:path-effect
       effect="skeletal"
       id="path-effect4306-2"
       is_visible="true"
       pattern="M 0,5 C 0,2.24 2.24,0 5,0 7.76,0 10,2.24 10,5 10,7.76 7.76,10 5,10 2.24,10 0,7.76 0,5 z"
       copytype="single_stretched"
       prop_scale="1"
       scale_y_rel="false"
       spacing="0"
       normal_offset="0"
       tang_offset="0"
       prop_units="false"
       vertical_pattern="false"
       fuse_tolerance="0" />
    <inkscape:path-effect
       effect="skeletal"
       id="path-effect4589-2"
       is_visible="true"
       pattern="m 3203.4625,-287.36459 c 0,-2.76 2.24,-5 5,-5 2.76,0 5,2.24 5,5 0,2.76 -2.24,5 -5,5 -2.76,0 -5,-2.24 -5,-5 z"
       copytype="single_stretched"
       prop_scale="1"
       scale_y_rel="false"
       spacing="0"
       normal_offset="0"
       tang_offset="0"
       prop_units="false"
       vertical_pattern="false"
       fuse_tolerance="0" />
    <inkscape:path-effect
       effect="skeletal"
       id="path-effect3189-8-4-9-6-1"
       is_visible="true"
       pattern="m 9041.8924,-261.70024 c 0,-2.76 2.24,-5 5,-5 2.76,0 5,2.24 5,5 0,2.76 -2.24,5 -5,5 -2.76,0 -5,-2.24 -5,-5 z"
       copytype="single_stretched"
       prop_scale="1"
       scale_y_rel="false"
       spacing="0"
       normal_offset="0"
       tang_offset="0"
       prop_units="false"
       vertical_pattern="false"
       fuse_tolerance="0" />
    <inkscape:path-effect
       effect="skeletal"
       id="path-effect3189-8-4-9-7-6-9"
       is_visible="true"
       pattern="m 7960.9,-231.74201 c 0,-2.76 2.24,-5 5,-5 2.76,0 5,2.24 5,5 0,2.76 -2.24,5 -5,5 -2.76,0 -5,-2.24 -5,-5 z"
       copytype="single_stretched"
       prop_scale="1"
       scale_y_rel="false"
       spacing="0"
       normal_offset="0"
       tang_offset="0"
       prop_units="false"
       vertical_pattern="false"
       fuse_tolerance="0" />
  </defs>
  <sodipodi:namedview
     id="base"
     pagecolor="#ffffff"
     bordercolor="#666666"
     borderopacity="1.0"
     inkscape:pageopacity="0.0"
     inkscape:pageshadow="2"
     inkscape:zoom="0.12374369"
     inkscape:cx="660.87699"
     inkscape:cy="539.00726"
     inkscape:document-units="px"
     inkscape:current-layer="layer1"
     showgrid="false"
     fit-margin-top="0"
     fit-margin-left="0"
     fit-margin-right="0"
     fit-margin-bottom="0"
     inkscape:window-width="560"
     inkscape:window-height="451"
     inkscape:window-x="3"
     inkscape:window-y="47"
     inkscape:window-maximized="0" />
  <metadata
     id="metadata4073">
    <rdf:RDF>
      <cc:Work
         rdf:about="">
        <dc:format>image/svg+xml</dc:format>
        <dc:type
           rdf:resource="http://purl.org/dc/dcmitype/StillImage" />
        <dc:title></dc:title>
      </cc:Work>
    </rdf:RDF>
  </metadata>
  <g
     inkscape:label="Capa 1"
     inkscape:groupmode="layer"
     id="layer1"
     transform="translate(-59.943703,-261.86475)">
    <g
       transform="translate(-5511.6598,-1634.2211)"
       style="display:inline"
       id="g4327">
      <path
         inkscape:connector-curvature="0"
         id="path4785"
         d="m 5663.0304,2152.2564 4.0406,167.6853 -28.2842,-28.2843 -32.3249,-4.0406 -22.2234,44.4467 -8.0812,28.2843 34.3452,42.4264 14.1421,28.2843 0,30.3046 32.3249,26.2639 22.2234,-6.0609 38.3858,179.8072 44.4467,107.0761 c 0,0 56.5685,58.5889 68.6904,64.6498 12.1218,6.0609 74.7512,30.3046 74.7512,30.3046 l 86.8732,-10.1015 68.6903,-44.4468 58.5889,-84.8528 c 0,0 36.3655,-117.1777 36.3655,-143.4416 0,-26.264 4.0406,-139.4011 4.0406,-139.4011 l 20.203,34.3452 38.3858,-26.264 c 0,0 -8.0812,-38.3858 4.0406,-54.5482 12.1219,-16.1624 30.3046,-60.6092 30.3046,-60.6092 0,0 8.0812,-28.2842 -8.0812,-42.4264 -16.1624,-14.1421 -32.3249,-44.4467 -44.4467,-30.3045 -12.1218,14.1421 -28.2843,40.4061 -28.2843,40.4061 l -33.5004,-244.604 c -64.789,-129.294 -166.8589,-156.294 -226.4577,-161.0364 -45.2912,-1.2081 -117.6185,31.4065 -117.6185,31.4065 0,0 -77.2491,55.1359 -81.2898,65.2374 -26.6853,56.6807 -48.8159,83.239 -50.2505,159.4939 z"
         style="fill:#facaca;fill-opacity:0.4;stroke:none;display:inline"
         sodipodi:nodetypes="cccccccccccccsccccscccscsscccccc" />
      <path
         sodipodi:nodetypes="zsssssz"
         inkscape:connector-curvature="0"
         inkscape:original-d="m 5925.2609,1900.0304 c -177.4532,0.8207 -253.1707,113.5079 -263.0895,259.6613 -7.6246,112.3479 0.4212,270.2923 28.4083,389.2578 30.3809,129.141 57.0027,282.593 206.4063,305.902 186.3691,29.0761 247.6014,-142.9779 260.0993,-277.0005 12.3343,-132.2688 20.2056,-338.6405 4.6715,-426.0508 -9.1183,-51.3084 -59.0426,-252.5905 -236.4959,-251.7698 z"
         inkscape:path-effect="#path-effect4589-2"
         id="path4587-8"
         d="m 5925.2609,1900.0304 c 9e-4,0.1912 -2.623,0.3684 -7.7257,0.674 -5.1028,0.3056 -12.6917,0.7363 -22.5719,1.7373 -9.8801,1.001 -22.063,2.5642 -36.1618,5.5255 -14.0988,2.9612 -30.1268,7.3103 -47.3181,14.4123 -12.865,5.3101 -26.3257,12.2468 -39.6932,21.2578 -13.3675,9.011 -26.6465,20.0991 -38.8045,33.6302 -9.7098,10.7921 -18.6856,23.08 -26.6606,36.7285 -7.975,13.6485 -14.9489,28.6592 -20.6825,44.7145 -5.4398,15.2365 -9.8038,31.4029 -13.0805,48.3412 -3.2767,16.9383 -5.4655,34.6489 -6.643,52.8944 -1.8727,29.1433 -2.615,59.6086 -2.4057,91.2194 0.2148,32.3363 1.4389,65.8581 3.822,100.3861 2.2794,33.0184 5.606,66.9507 10.4263,101.5689 4.3398,31.1593 9.8464,62.8723 17.3979,94.7516 7.6905,32.4691 14.9278,65.6406 24.1382,98.7892 8.749,31.4457 19.1314,63.0017 34.2435,92.6982 7.01,13.7834 15.0426,27.1298 24.4414,39.5192 9.0859,11.9776 19.4592,23.0734 31.1524,32.6556 11.8786,9.7421 25.1525,17.9303 39.3536,24.2131 15.5317,6.8804 32.1953,11.4951 49.268,14.1644 5.7397,0.8921 11.515,1.6168 17.3105,2.1488 15.2662,1.4013 30.538,1.4509 45.5356,-0.2319 17.9876,-2.0134 35.5866,-6.5383 51.8849,-13.7063 15.3395,-6.735 29.5527,-15.8098 42.1798,-26.5732 12.7311,-10.8464 23.8834,-23.4111 33.5607,-36.9048 20.5787,-28.6669 34.5061,-61.276 44.5221,-94.2786 10.3212,-34.0747 16.409,-68.7522 19.655,-102.9512 3.5495,-37.4566 6.1964,-74.1422 8.2952,-109.8982 2.4164,-41.1728 4.0703,-81.0993 4.9328,-119.5968 0.8632,-38.5673 0.9713,-75.6798 -0.2322,-111.1275 -0.541,-15.9278 -1.3479,-31.5038 -2.6205,-46.6867 -1.0833,-12.9038 -2.4634,-25.4965 -4.5798,-37.6732 -3.6991,-21.3156 -9.1583,-41.5622 -15.4606,-60.6695 -5.1979,-15.7432 -11.051,-30.6953 -17.5002,-44.7085 -6.4493,-14.0133 -13.4943,-27.0884 -21.0273,-39.1563 -9.4544,-15.1477 -19.6902,-28.6639 -30.4066,-40.3666 0,0 0,-1e-4 -1e-4,-1e-4 -12.6717,-13.8374 -26.0092,-25.1224 -39.184,-33.9384 -8.6583,-5.7953 -17.2486,-10.5323 -25.5031,-14.3964 -8.2544,-3.864 -16.1743,-6.8563 -23.5742,-9.1834 -9.4441,-2.9716 -18.0286,-4.8731 -25.5118,-6.1868 -7.4832,-1.3137 -13.8694,-2.0385 -19.0305,-2.511 -5.161,-0.4724 -9.1002,-0.6919 -11.7447,-0.8607 -2.6444,-0.1687 -3.9962,-0.2869 -3.9968,-0.4241 -6e-4,-0.1372 1.3499,-0.2909 4.0074,-0.391 2.6575,-0.1001 6.6239,-0.1464 11.8404,0.067 5.2166,0.2131 11.6868,0.685 19.2977,1.7613 7.6109,1.0762 16.3669,2.7557 26.0436,5.5367 7.5819,2.1803 15.7138,5.0453 24.209,8.8119 8.4951,3.7667 17.3548,8.4363 26.3074,14.2071 13.616,8.779 27.4311,20.0962 40.5632,34.051 0,0 0,0 0,0 11.1033,11.7984 21.724,25.4492 31.5266,40.7617 7.806,12.1949 15.1193,25.4157 21.8222,39.5872 6.7029,14.1716 12.7948,29.2946 18.2052,45.2144 6.5648,19.2972 12.2821,39.8216 16.2292,61.5308 2.2619,12.4602 3.7674,25.2638 4.9505,38.283 1.3956,15.3347 2.318,31.0352 2.9653,47.0497 1.4407,35.6369 1.5502,72.9127 0.8815,111.5868 -0.6668,38.6136 -2.1439,78.6566 -4.4041,119.9394 -1.9624,35.8492 -4.4905,72.654 -7.9407,110.2603 -3.181,34.7223 -9.2969,70.0361 -19.7548,104.8707 -10.1126,33.7493 -24.4406,67.3335 -45.764,97.224 -10.0544,14.0809 -21.7301,27.2489 -35.1377,38.7135 -13.3169,11.3814 -28.339,20.9836 -44.6095,28.1492 -17.296,7.605 -35.8639,12.4022 -54.7864,14.5149 -15.7585,1.7553 -31.7063,1.7173 -47.5594,0.2651 -6.0183,-0.5513 -12.0028,-1.3043 -17.9382,-2.2336 -17.8378,-2.7772 -35.3366,-7.6441 -51.7682,-14.9149 -15.0278,-6.6578 -29.0592,-15.326 -41.6268,-25.648 -12.3551,-10.1554 -23.2552,-21.8222 -32.738,-34.3674 -9.8012,-12.9667 -18.1267,-26.821 -25.3249,-41.0454 -15.4874,-30.6223 -26.0407,-62.7932 -34.7797,-94.5764 -9.2295,-33.5217 -16.4096,-66.8203 -23.9779,-99.2121 -7.5396,-32.269 -12.9908,-64.2842 -17.2382,-95.6708 -4.721,-34.8763 -7.9225,-69.0274 -10.0547,-102.2298 -2.2302,-34.7207 -3.2809,-68.4255 -3.3045,-100.931 -0.024,-31.772 0.9253,-62.423 3.0213,-91.758 1.3179,-18.5238 3.6869,-36.5285 7.1721,-53.7641 3.4852,-17.2356 8.0861,-33.7024 13.7802,-49.2307 6.0049,-16.3803 13.3043,-31.6847 21.6335,-45.5918 8.3292,-13.907 17.6877,-26.4183 27.7863,-37.3957 12.674,-13.7593 26.4336,-24.9485 40.236,-33.9731 13.8024,-9.0247 27.6522,-15.8878 40.8547,-21.0698 17.6271,-6.9121 33.9595,-10.9968 48.2796,-13.6572 14.3201,-2.6604 26.6412,-3.8862 36.6125,-4.5354 9.9714,-0.6492 17.6043,-0.7135 22.7301,-0.6473 5.1258,0.066 7.7513,0.2669 7.7522,0.4581 z"
         style="fill:#000000;fill-rule:evenodd;stroke:none" />
      <path
         inkscape:connector-curvature="0"
         inkscape:original-d="m 6169.1838,2308.7909 c 0,0 5.0216,-29.8425 30.9043,-37.7622 25.8827,-7.9197 71.5644,48.867 49.0838,73.0438 -22.4807,24.1768 -39.3596,71.8004 -30.882,94.3672 8.4777,22.5668 -38.8557,32.3325 -38.8557,32.3325"
         inkscape:path-effect="#path-effect3189-8-4-9-6-1"
         id="path3187-7-6-0-3-8"
         d="m 6169.1838,2308.7909 c -0.7616,-0.2752 0.597,-6.2849 3.6981,-16.8378 0,0 0,0 0,0 0.9744,-2.1385 2.1873,-4.4272 3.719,-6.7797 1.5317,-2.3526 3.3822,-4.7695 5.6434,-7.1203 4.1758,-4.287 9.803,-8.2084 16.7652,-10.5493 3.989,-1.2727 8.321,-1.3622 12.4254,-0.47 4.4061,0.9312 8.6608,2.7265 12.6001,5.0414 4.2057,2.4568 8.2404,5.4601 12.0205,8.9389 3.7801,3.4787 7.3053,7.4329 10.5001,11.7344 2.9064,3.8455 5.6203,8.0847 7.8721,12.712 2.2518,4.6272 4.041,9.6425 5.0552,15.024 0.8483,4.4872 0.9977,9.3472 -0.04,14.2591 -1.0166,4.6617 -3.2554,9.0978 -6.6096,12.7335 -0.3673,0.394 -0.7314,0.7925 -1.0924,1.1953 -5.3745,5.9975 -9.8481,12.7165 -13.765,19.5872 -4.6989,8.2717 -8.4722,16.7372 -11.3959,25.0999 0,0 0,0 0,0 -2.9447,8.4629 -5.0361,16.7277 -5.911,24.6118 0,0 0,0 0,0 0,0 0,0 0,0 -0.3586,3.5473 -0.5575,6.98 -0.4059,10.1942 0.1517,3.2142 0.6537,6.2099 1.6189,8.9248 0,0 0,0 0,0 1.1458,3.185 1.409,6.6397 0.7135,9.9192 0,0 0,0 0,0 -0.7628,3.2435 -2.3197,5.9448 -4.1603,8.0898 -2.1619,2.537 -4.5802,4.4446 -6.9393,5.9722 0,0 0,0 0,0 -2.8454,1.8554 -5.6518,3.2452 -8.2808,4.3711 0,0 0,0 0,0 -3.2631,1.3991 -6.2853,2.4212 -8.9852,3.204 -2.6999,0.7828 -5.0785,1.3254 -7.0868,1.7094 0,0 0,0 0,0 -2.3428,0.4491 -4.1928,0.6765 -5.4898,0.7405 0,0 0,0 0,0 -0.6874,0.034 -1.2214,0.021 -1.5927,-0.032 0,0 0,0 0,0 -0.1905,-0.027 -0.3387,-0.065 -0.4432,-0.1133 0,0 0,0 0,0 0,0 0,0 0,0 0,0 0,0 0,0 -0.063,-0.07 -0.1068,-0.1093 -0.1362,-0.1335 0,0 0,0 0,0 -0.017,-0.024 -0.029,-0.035 -0.036,-0.041 -0.011,-0.01 -0.011,-0.01 -0.011,-0.01 0,0 0,0 -0,-0.01 0.014,-0.01 0.02,-0.025 0.026,-0.054 0,0 0,0 0,0 0.017,-0.034 0.041,-0.088 0.069,-0.1773 0,0 0,0 0,0 0,0 0,0 0,0 0,0 0,0 0,0 0.074,-0.086 0.1913,-0.1821 0.3498,-0.2874 0,0 0,0 0,0 0.309,-0.2053 0.7748,-0.4471 1.3907,-0.7307 0,0 0,0 0,0 1.1619,-0.535 2.8532,-1.2154 5.0105,-2.0925 0,0 0,0 0,0 1.8515,-0.7534 4.0459,-1.6448 6.5113,-2.7389 2.4654,-1.0942 5.2026,-2.3901 8.0994,-4.0011 0,0 0,0 0,0 2.3292,-1.2969 4.7502,-2.7791 7.0718,-4.5915 0,0 0,0 0,0 1.9194,-1.5095 3.7754,-3.1907 5.2007,-5.1757 1.1669,-1.6464 2.1035,-3.4701 2.3522,-5.3146 0,0 0,0 0,0 0.3132,-1.7949 -0.028,-3.848 -0.8164,-5.8126 0,0 0,0 0,0 -1.3576,-3.4682 -2.1942,-7.1721 -2.5899,-10.9887 -0.3957,-3.8167 -0.3503,-7.7461 -0.022,-11.6231 0,0 0,0 0,0 0.6617,-8.7273 2.6353,-17.7794 5.5773,-26.8171 0,0 0,0 0,0 2.9041,-8.9631 6.7756,-18.0529 11.7018,-26.9328 4.075,-7.3709 8.9301,-14.7029 14.9253,-21.4185 0.4026,-0.451 0.8093,-0.898 1.2203,-1.341 2.0843,-2.2131 3.5289,-5.0884 4.2042,-8.0761 0.7688,-3.2554 0.6333,-6.8306 0.055,-10.3841 -0.7142,-4.3603 -2.1697,-8.5581 -4.0627,-12.5571 -1.8929,-3.999 -4.223,-7.799 -6.7303,-11.3702 -2.8211,-3.9405 -5.8706,-7.5667 -9.1077,-10.7569 -3.2372,-3.1903 -6.662,-5.9446 -10.228,-8.1971 -3.3226,-2.0854 -6.6575,-3.7214 -9.9752,-4.5565 -3.0269,-0.7385 -5.9958,-0.9302 -8.4992,-0.2163 -5.8438,1.5775 -10.8406,4.5485 -14.7173,7.9207 -2.0929,1.7905 -3.889,3.715 -5.4466,5.6371 -1.5577,1.922 -2.8769,3.8422 -4.01,5.6669 0,0 0,0 0,0 -4.2577,9.8155 -7.0474,15.2877 -7.809,15.0126 z"
         style="fill:#000000;fill-rule:evenodd;stroke:none" />
      <path
         inkscape:connector-curvature="0"
         inkscape:original-d="m 5658.229,2323.8714 c 0,0 -8.7248,-28.431 -34.9595,-32.8235 -26.2348,-4.3926 -63.4508,56.8015 -38.4429,77.4704 25.0078,20.6688 47.5687,64.9014 42.2067,87.9771 -5.362,23.0757 42.0094,26.5122 42.0094,26.5122"
         inkscape:path-effect="#path-effect3189-8-4-9-7-6-9"
         id="path3187-7-6-0-6-1-1"
         d="m 5658.229,2323.8714 c -0.7191,0.3723 -4.1516,-4.595 -9.5695,-13.6041 0,0 0,0 0,0 -1.3393,-1.6294 -2.8717,-3.3275 -4.6359,-4.9965 -1.7642,-1.6689 -3.7602,-3.3091 -6.0272,-4.7803 -4.2065,-2.7801 -9.45,-5.0257 -15.3356,-5.807 -2.5174,-0.3709 -5.3735,0.1979 -8.2187,1.3036 -3.1161,1.2376 -6.1476,3.2574 -9.112,5.7133 -3.1799,2.6501 -6.1581,5.7706 -8.8981,9.2915 -2.74,3.5209 -5.2418,7.4422 -7.4816,11.6402 -1.9811,3.7986 -3.7606,7.7961 -5.0891,11.9296 -1.3284,4.1336 -2.2055,8.4031 -2.34,12.7341 -0.1058,3.5281 0.22,7.0179 1.3829,10.077 1.0368,2.8103 2.8051,5.4138 5.1076,7.2917 0.4576,0.3791 0.9117,0.7628 1.3623,1.1508 6.7096,5.7787 12.3855,12.3037 17.3044,18.966 5.9425,8.0242 10.8834,16.3885 14.8644,24.7536 0,0 0,0 0,0 4.0276,8.4327 7.1128,17.0056 8.8773,25.4312 0,0 0,0 1e-4,0 0,0 0,0 0,0 0.8176,3.7381 1.3657,7.5652 1.4689,11.34 0.1032,3.7749 -0.2384,7.4974 -1.1182,11.0578 -0.5146,2.0045 -0.5853,4.0368 -0.055,5.733 0,0 0,0 0,0 0.4732,1.7538 1.6136,3.4036 2.9556,4.8543 0,0 0,0 0,0 1.6366,1.7471 3.6557,3.1454 5.7159,4.37 0,0 0,0 0,0 2.4901,1.4679 5.036,2.6024 7.4695,3.5686 0,0 0,0 0,0 3.0263,1.1999 5.8575,2.1137 8.3984,2.8661 2.5409,0.7523 4.7922,1.3422 6.6919,1.8418 0,0 0,0 0,0 2.2135,0.5814 3.9479,1.0313 5.1481,1.4075 0,0 0,0 0,0 0.6361,0.1994 1.1207,0.3775 1.448,0.5401 0,0 0,0 0,0 0.1678,0.083 0.2938,0.1627 0.3774,0.2386 0,0 0,0 0,0 0,0 0,0 0,0 0,0 0,0 0,0 0.039,0.085 0.069,0.1352 0.09,0.1666 0,0 0,0 0,0 0.01,0.027 0.017,0.042 0.023,0.049 0.01,0.01 0.01,0.01 0.01,0.01 0,0 0,0 -6e-4,0.01 -0.016,0.01 -0.026,0.019 -0.039,0.044 0,0 0,0 0,0 -0.025,0.028 -0.064,0.073 -0.1158,0.1504 0,0 0,0 0,0 0,0 0,0 0,0 0,0 0,0 0,0 -0.096,0.061 -0.2354,0.1186 -0.4176,0.1708 0,0 0,0 0,0 -0.3553,0.1017 -0.8743,0.1845 -1.5487,0.242 0,0 0,0 0,0 -1.2726,0.1084 -3.1052,0.1285 -5.4465,-0 0,0 0,0 0,0 -2.007,-0.1129 -4.3953,-0.3329 -7.128,-0.746 -2.7327,-0.4131 -5.8107,-1.0182 -9.1725,-1.96 0,0 0,0 0,0 -2.7084,-0.7577 -5.6243,-1.7502 -8.6394,-3.1923 0,0 0,0 0,0 -2.4984,-1.185 -5.1046,-2.7344 -7.5436,-4.9325 -2.0751,-1.857 -3.9452,-4.2958 -5.1108,-7.3694 0,0 0,0 0,0 -1.1038,-3.1181 -1.2931,-6.5298 -0.5842,-9.791 0,0 0,0 0,0 0.5893,-2.7622 0.6917,-5.739 0.4253,-8.8846 -0.2664,-3.1456 -0.9017,-6.4603 -1.7065,-9.8675 0,0 0,0 0,0 0,0 0,0 0,0 -1.8658,-7.5617 -4.9649,-15.3387 -8.92,-23.2011 0,0 0,0 0,0 -3.922,-7.7673 -8.6839,-15.5256 -14.3217,-22.9763 -4.6967,-6.1871 -9.9142,-12.1543 -15.9148,-17.3021 -0.4029,-0.3457 -0.8084,-0.6868 -1.2165,-1.0232 -3.7473,-3.1223 -6.5068,-7.1693 -8.1008,-11.5947 -1.6459,-4.6663 -2.1258,-9.4317 -1.8743,-13.9209 0.2985,-5.3825 1.3996,-10.5061 3.0017,-15.3094 1.6021,-4.8033 3.7047,-9.2863 6.0457,-13.4091 2.5632,-4.6047 5.4938,-8.9134 8.7344,-12.7913 3.2405,-3.8779 6.7909,-7.325 10.5783,-10.2612 3.5458,-2.764 7.4684,-5.0619 11.6509,-6.537 3.8935,-1.3989 8.1377,-1.8671 12.2009,-1.1362 3.5472,0.696 6.8288,1.8263 9.7915,3.2327 2.9627,1.4063 5.6068,3.0887 7.9181,4.9128 2.507,2.0045 4.6213,4.1259 6.416,6.225 1.7947,2.0991 3.2699,4.1765 4.4929,6.1378 0,0 0,0 0,0 4.3676,9.8913 6.4514,15.5785 5.7323,15.9508 z"
         style="fill:#000000;fill-rule:evenodd;stroke:none" />
    </g>
  </g>
</svg>
