<?xml version="1.0" encoding="UTF-8" standalone="no"?>
<!-- Created with Inkscape (http://www.inkscape.org/) -->

<svg
   xmlns:dc="http://purl.org/dc/elements/1.1/"
   xmlns:cc="http://creativecommons.org/ns#"
   xmlns:rdf="http://www.w3.org/1999/02/22-rdf-syntax-ns#"
   xmlns:svg="http://www.w3.org/2000/svg"
   xmlns="http://www.w3.org/2000/svg"
   xmlns:sodipodi="http://sodipodi.sourceforge.net/DTD/sodipodi-0.dtd"
   xmlns:inkscape="http://www.inkscape.org/namespaces/inkscape"
   width="599.09497"
   height="921.74957"
   id="svg4068"
   version="1.1"
   inkscape:version="0.48.3.1 r9886"
   sodipodi:docname="cara_2.svg">
  <defs
     id="defs4070">
    <inkscape:path-effect
       effect="skeletal"
       id="path-effect6574"
       is_visible="true"
       pattern="m -14069.21,-1265.6489 c 0,-2.76 2.24,-5 5,-5 2.76,0 5,2.24 5,5 0,2.76 -2.24,5 -5,5 -2.76,0 -5,-2.24 -5,-5 z"
       copytype="single_stretched"
       prop_scale="1"
       scale_y_rel="false"
       spacing="0"
       normal_offset="0"
       tang_offset="0"
       prop_units="false"
       vertical_pattern="false"
       fuse_tolerance="0" />
    <inkscape:path-effect
       effect="skeletal"
       id="path-effect5543"
       is_visible="true"
       pattern="m -13870.71,-1632.2205 c 0,-2.76 2.24,-5 5,-5 2.76,0 5,2.24 5,5 0,2.76 -2.24,5 -5,5 -2.76,0 -5,-2.24 -5,-5 z"
       copytype="single_stretched"
       prop_scale="1"
       scale_y_rel="false"
       spacing="0"
       normal_offset="0"
       tang_offset="0"
       prop_units="false"
       vertical_pattern="false"
       fuse_tolerance="0" />
    <inkscape:path-effect
       effect="skeletal"
       id="path-effect6549"
       is_visible="true"
       pattern="m -9698.7475,1895.3113 c 0,-2.76 2.24,-5 5,-5 2.76,0 5,2.24 5,5 0,2.76 -2.24,5 -5,5 -2.76,0 -5,-2.24 -5,-5 z"
       copytype="single_stretched"
       prop_scale="1"
       scale_y_rel="false"
       spacing="0"
       normal_offset="0"
       tang_offset="0"
       prop_units="false"
       vertical_pattern="false"
       fuse_tolerance="0" />
    <inkscape:path-effect
       effect="skeletal"
       id="path-effect3189-8-4-9-7-6-9-2-2-9-8"
       is_visible="true"
       pattern="m 6237.6376,1770.428 c 0,-2.76 2.24,-4.9999 5,-4.9999 2.76,0 5,2.2399 5,4.9999 0,2.76 -2.24,5 -5,5 -2.76,0 -5,-2.24 -5,-5 z"
       copytype="single_stretched"
       prop_scale="1"
       scale_y_rel="false"
       spacing="0"
       normal_offset="0"
       tang_offset="0"
       prop_units="false"
       vertical_pattern="false"
       fuse_tolerance="0" />
    <inkscape:path-effect
       effect="skeletal"
       id="path-effect3189-8-4-9-7-6-9-2-2-9-8-3"
       is_visible="true"
       pattern="m 6757.667,1749.1885 c 0,-2.76 2.24,-4.9999 5,-4.9999 2.76,0 5,2.2399 5,4.9999 0,2.76 -2.24,5 -5,5 -2.76,0 -5,-2.24 -5,-5 z"
       copytype="single_stretched"
       prop_scale="1"
       scale_y_rel="false"
       spacing="0"
       normal_offset="0"
       tang_offset="0"
       prop_units="false"
       vertical_pattern="false"
       fuse_tolerance="0" />
    <inkscape:path-effect
       effect="skeletal"
       id="path-effect3093-0"
       is_visible="true"
       pattern="m 7506.6858,594.57527 c 0,-2.76 2.24,-5 5,-5 2.76,0 5,2.24 5,5 0,2.76 -2.24,5 -5,5 -2.76,0 -5,-2.24 -5,-5 z"
       copytype="single_stretched"
       prop_scale="1"
       scale_y_rel="false"
       spacing="0"
       normal_offset="0"
       tang_offset="0"
       prop_units="false"
       vertical_pattern="false"
       fuse_tolerance="0" />
    <inkscape:path-effect
       effect="skeletal"
       id="path-effect3189-5"
       is_visible="true"
       pattern="m 7506.6858,594.57527 c 0,-2.76 2.24,-5 5,-5 2.76,0 5,2.24 5,5 0,2.76 -2.24,5 -5,5 -2.76,0 -5,-2.24 -5,-5 z"
       copytype="single_stretched"
       prop_scale="1"
       scale_y_rel="false"
       spacing="0"
       normal_offset="0"
       tang_offset="0"
       prop_units="false"
       vertical_pattern="false"
       fuse_tolerance="0" />
    <inkscape:path-effect
       effect="skeletal"
       id="path-effect3193-1"
       is_visible="true"
       pattern="m 7506.6858,594.57527 c 0,-2.76 2.24,-5 5,-5 2.76,0 5,2.24 5,5 0,2.76 -2.24,5 -5,5 -2.76,0 -5,-2.24 -5,-5 z"
       copytype="single_stretched"
       prop_scale="1"
       scale_y_rel="false"
       spacing="0"
       normal_offset="0"
       tang_offset="0"
       prop_units="false"
       vertical_pattern="false"
       fuse_tolerance="0" />
    <inkscape:path-effect
       effect="skeletal"
       id="path-effect4306"
       is_visible="true"
       pattern="M 0,5 C 0,2.24 2.24,0 5,0 7.76,0 10,2.24 10,5 10,7.76 7.76,10 5,10 2.24,10 0,7.76 0,5 z"
       copytype="single_stretched"
       prop_scale="1"
       scale_y_rel="false"
       spacing="0"
       normal_offset="0"
       tang_offset="0"
       prop_units="false"
       vertical_pattern="false"
       fuse_tolerance="0" />
  </defs>
  <sodipodi:namedview
     id="base"
     pagecolor="#ffffff"
     bordercolor="#666666"
     borderopacity="1.0"
     inkscape:pageopacity="0.0"
     inkscape:pageshadow="2"
     inkscape:zoom="0.12374369"
     inkscape:cx="559.03"
     inkscape:cy="524.05901"
     inkscape:document-units="px"
     inkscape:current-layer="layer1"
     showgrid="false"
     fit-margin-top="0"
     fit-margin-left="0"
     fit-margin-right="0"
     fit-margin-bottom="0"
     inkscape:window-width="560"
     inkscape:window-height="451"
     inkscape:window-x="3"
     inkscape:window-y="47"
     inkscape:window-maximized="0" />
  <metadata
     id="metadata4073">
    <rdf:RDF>
      <cc:Work
         rdf:about="">
        <dc:format>image/svg+xml</dc:format>
        <dc:type
           rdf:resource="http://purl.org/dc/dcmitype/StillImage" />
        <dc:title></dc:title>
      </cc:Work>
    </rdf:RDF>
  </metadata>
  <g
     inkscape:label="Capa 1"
     inkscape:groupmode="layer"
     id="layer1"
     transform="translate(-161.79069,-292.48487)">
    <g
       transform="translate(-6786.9537,-2250.5363)"
       style="display:inline"
       id="g4333">
      <path
         sodipodi:nodetypes="ccccccccccccccccccccccczzzcc"
         inkscape:connector-curvature="0"
         id="path4007-7"
         d="m 7025.5131,3034.0827 -30.3046,-24.2436 -24.2437,4.0406 -14.1421,42.4264 0,22.2233 30.3046,20.2031 32.3248,66.67 32.3249,12.1219 16.1625,90.9137 123.2386,181.8275 52.5279,6.0609 56.5685,-24.2437 107.0762,-139.401 40.4061,-105.0559 0,-18.1827 32.3249,-2.0204 12.1218,-42.4264 42.4264,-38.3858 8.0813,-36.3654 -24.2437,-42.4265 -40.4061,26.264 -12.1218,18.1828 31.0309,-107.7799 c 0,0 57.3917,-168.3222 13.5518,-248.8374 -43.8399,-80.5152 -166.1169,-150.5002 -261.2098,-149.2749 -95.0928,1.2253 -186.2638,65.2272 -230.6773,139.8317 -44.4135,74.6045 -12.0765,250.9031 -12.0765,250.9031 z"
         style="fill:#e8afaf;fill-opacity:0.4;stroke:none;display:inline" />
      <path
         sodipodi:nodetypes="cssssc"
         inkscape:connector-curvature="0"
         inkscape:original-d="m 7040.9933,3008.7057 c 0,0 9.6696,209.4435 22.7518,252.7978 10.4562,34.6519 86.5832,143.4627 110.599,174.4305 23.5967,30.4274 49.7447,28.0794 95.4312,13.2718 46.894,-15.1988 97.3272,-85.3192 139.0388,-152.3106 41.7116,-66.9915 58.1435,-273.0216 68.2554,-312.2053"
         inkscape:path-effect="#path-effect3093-0"
         id="path3091-0"
         d="m 7040.9938,3008.7157 c 0.02,-0 0.041,0.01 0.061,0.026 0.021,0.025 0.043,0.062 0.065,0.1117 0,0 0,0 0,0 0,0 0,0 0,0 0.044,0.099 0.09,0.2481 0.1385,0.4461 0,0 0,0 0,0 0,0 0,0 0,0 0.096,0.3924 0.2007,0.9778 0.3143,1.7519 0,0 0,0 0,0 0.223,1.5188 0.4802,3.7638 0.7728,6.7026 0,0 0,0 0,0 0.5604,5.6261 1.25,13.7942 2.0846,24.2749 0,0 0,0 0,0 1.4854,18.6537 3.4021,44.6337 6.035,76.6209 0,0 0,0 0,0 0,0 0,0 0,0 1.0225,12.4208 2.1405,25.7461 3.4391,39.8873 1.2987,14.1412 2.7775,29.0983 4.5732,44.7764 0,0 0,0 0,0 1.2731,11.111 2.6843,22.5636 4.5604,34.2641 0,0 0,0 0,0 0.7004,4.3667 1.4619,8.7488 2.3725,13.1211 0,0 0,0 0,0 0.6842,3.2719 1.4154,6.4898 2.3745,9.5856 1.5701,5.1402 3.9953,10.2319 6.6027,15.4849 0,0 0,0 0,0 3.4959,7.0035 7.4042,13.9834 11.5176,21.0329 0,0 0,0 0,0 9.7278,16.6671 20.5414,33.5165 31.9656,50.7198 0,0 0,0 0,0 10.9403,16.4721 22.4546,33.2165 34.4959,50.1614 0,0 0,0 0,0 8.3496,11.7478 16.8413,23.6084 25.8791,35.2249 4.903,6.2421 10.4815,11.9159 17.0656,15.7396 5.6354,3.34 12.1887,5.3095 18.9111,5.9179 0,0 0,0 0,0 7.6595,0.7158 15.6543,-0.2449 23.7171,-1.8115 4.5337,-0.8933 9.0615,-1.9974 13.5955,-3.2413 5.5908,-1.5339 11.1498,-3.2683 16.6996,-5.0613 12.4327,-3.9638 23.6491,-11.5001 34.043,-19.8895 13.0065,-10.5617 24.4975,-22.7297 35.2311,-35.2665 13.1561,-15.376 25.0763,-31.2769 36.1886,-47.2243 11.1124,-15.9473 21.4178,-31.9403 31.2533,-47.5819 5.9661,-9.4564 10.3443,-19.7918 14.233,-30.1541 5.0147,-13.4087 8.9602,-26.8529 12.4407,-40.0129 4.5019,-17.0271 8.1873,-33.5364 11.394,-49.3436 3.2067,-15.8072 5.9343,-30.9123 8.4079,-45.1644 3.0929,-17.8269 5.7255,-34.3333 8.0827,-49.3194 2.3571,-14.986 4.4365,-28.4521 6.3019,-40.2197 2.1671,-13.6715 4.0647,-25.0639 5.7351,-33.8885 0.9604,-5.0741 1.8466,-9.3067 2.6367,-12.6398 0.7167,-3.025 1.3534,-5.3196 1.8618,-6.8361 0.5084,-1.5164 0.8717,-2.2608 1.0252,-2.2212 0.1535,0.04 0.095,0.8604 -0.109,2.4324 -0.2035,1.5721 -0.5338,3.8986 -0.9533,6.9653 -0.4608,3.373 -1.0212,7.6315 -1.6645,12.7399 -1.1188,8.8845 -2.482,20.3166 -4.1447,34.0609 -1.4306,11.8269 -3.0939,25.3544 -5.0586,40.4167 -1.9647,15.0623 -4.2286,31.6597 -6.9821,49.6095 -2.1986,14.3388 -4.6737,29.5576 -7.6569,45.5221 -2.9831,15.9645 -6.4738,32.6749 -10.8164,49.9633 -3.3555,13.3632 -7.2326,27.1164 -12.2515,40.9713 -3.8536,10.6751 -8.3916,21.5841 -14.7548,31.9295 -9.7381,15.7946 -20.0085,31.9848 -31.1618,48.1859 -11.1532,16.2011 -23.1901,32.4124 -36.5483,48.1629 -10.8929,12.8518 -22.7689,25.4671 -36.4094,36.62 -10.8273,8.9036 -23.0976,17.04 -37.2421,21.6902 -5.6171,1.8264 -11.322,3.6061 -17.1391,5.1975 -4.7173,1.2906 -9.4803,2.449 -14.2995,3.4041 -8.5717,1.7208 -17.5173,2.7225 -26.5478,1.9387 0,0 0,0 0,0 -8.0971,-0.723 -16.0383,-3.1572 -23.07,-7.2949 -8.0017,-4.7866 -14.4885,-11.2943 -19.8171,-18.2456 -9.1627,-11.8526 -17.6937,-23.8573 -26.0056,-35.6679 0,0 0,0 0,0 -12.0235,-17.0811 -23.5021,-33.9775 -34.3881,-50.6132 0,0 0,0 0,0 -11.3601,-17.3578 -22.1349,-34.4569 -31.8336,-51.4364 0,0 0,0 0,0 -4.101,-7.1779 -8.0303,-14.3708 -11.5738,-21.6569 0,0 0,0 0,0 -2.6267,-5.3721 -5.1678,-10.9399 -6.936,-16.8627 -1.0348,-3.5117 -1.789,-6.99 -2.4479,-10.3798 0,0 0,0 0,0 -0.891,-4.5631 -1.6183,-9.0789 -2.2716,-13.5285 0,0 0,0 0,0 -1.7509,-11.9202 -3.0137,-23.5063 -4.1199,-34.6881 0,0 0,0 0,0 -1.5622,-15.7845 -2.7886,-30.8219 -3.8182,-45.0257 -1.0295,-14.2037 -1.8618,-27.5738 -2.5842,-40.0294 0,0 0,0 0,0 0,0 0,0 0,0 0,0 0,0 0,0 -1.8615,-32.0869 -2.9165,-58.1386 -3.4749,-76.8537 0,0 0,0 0,0 -0.3138,-10.5154 -0.462,-18.716 -0.4646,-24.3723 0,0 0,0 0,0 -0,-2.9545 0.037,-5.215 0.1139,-6.7486 0,0 0,0 0,0 0.039,-0.7817 0.088,-1.3747 0.1468,-1.7745 0,0 0,0 0,0 0,0 0,0 0,0 0.03,-0.2017 0.062,-0.3543 0.096,-0.4572 0,0 0,0 0,0 0,0 0,0 0,0 0.017,-0.052 0.035,-0.091 0.054,-0.1173 0.019,-0.02 0.039,-0.031 0.059,-0.032 z"
         style="fill:#000000;fill-rule:evenodd;stroke:none;display:inline" />
      <path
         inkscape:connector-curvature="0"
         inkscape:original-d="m 7477.0695,3033.9854 c 0,0 11.3759,-22.7518 34.1277,-22.7518 22.7518,0 45.5036,56.8795 21.4878,70.7834 -24.0158,13.9039 -49.2956,48.0316 -48.0316,68.2554 1.264,20.2239 -39.1836,16.4319 -39.1836,16.4319"
         inkscape:path-effect="#path-effect3189-5"
         id="path3187-9"
         d="m 7477.0695,3033.9854 c -0.6478,-0.486 1.8263,-5.0575 6.8445,-12.8613 0,0 0,-1e-4 0,-1e-4 2.6089,-3.0134 6.1544,-6.3249 10.997,-9.0688 4.4547,-2.4811 10.0119,-4.3065 16.2862,-4.5078 3.6455,-0.05 7.26,0.954 10.4182,2.7174 3.3932,1.8649 6.4379,4.3879 9.0765,7.2494 2.8203,3.0395 5.3653,6.4791 7.5827,10.2396 2.2175,3.7606 4.1071,7.842 5.6372,12.1214 2.8287,7.6721 4.6617,16.4937 3.643,25.8133 -0.423,3.8928 -1.5271,7.9343 -3.6283,11.7471 -2.0288,3.6167 -5.0163,6.7321 -8.7365,8.9083 -0.3877,0.2237 -0.774,0.4517 -1.1589,0.684 -5.7309,3.4586 -10.9358,7.7211 -15.7503,12.2459 -5.7798,5.4519 -10.8727,11.283 -15.267,17.2395 -4.4351,6.0342 -8.1394,12.1002 -10.7783,18.1528 0,0 0,0 0,0 -1.1553,2.7372 -2.1595,5.4061 -2.8327,7.9752 -0.6732,2.5692 -1.0154,5.0388 -0.9196,7.3917 0.1363,2.9431 -0.5403,5.8896 -1.9695,8.4586 -1.4825,2.514 -3.4658,4.3548 -5.5356,5.6485 -2.6601,1.6486 -5.3384,2.6617 -7.8796,3.3371 -2.5412,0.6753 -4.9464,1.0121 -7.1349,1.209 0,0 0,0 0,0 -2.999,0.297 -5.7013,0.3476 -8.0787,0.2835 -2.3774,-0.064 -4.4304,-0.2438 -6.1423,-0.4608 -4.1178,-0.6618 -6.2985,-1.2699 -6.2731,-1.8006 0,0 0,0 0,0 0,0 0,0 0,0 3e-4,-0 3e-4,-0 3e-4,-0 0,0 0,0 3e-4,-0 0,0 0,0 0,0 0,0 0,0 0,0 0.047,-0.5298 2.2935,-0.9439 6.3552,-1.2473 1.6704,-0.182 3.6459,-0.3897 5.8818,-0.6922 2.2359,-0.3025 4.7328,-0.6987 7.425,-1.3062 0,0 0,0 0,0 1.9986,-0.4686 4.1093,-1.0098 6.1789,-1.7598 2.0695,-0.75 4.0986,-1.7077 5.8483,-3.0974 1.2796,-1.014 2.4131,-2.197 2.9947,-3.5237 0.6294,-1.2613 0.8218,-2.8903 0.6696,-4.5619 -0.2505,-3.1883 -0.021,-6.4329 0.5951,-9.6496 0.6161,-3.2166 1.6189,-6.4053 2.8415,-9.4667 0,0 0,0 0,0 2.6817,-6.9214 6.5038,-13.7746 11.1045,-20.3593 4.5512,-6.5363 9.9208,-12.9357 16.0958,-18.9027 5.112,-4.9568 10.8611,-9.6939 17.3956,-13.6575 0.4388,-0.2662 0.8801,-0.5282 1.3239,-0.7859 2.0896,-1.1874 3.8611,-3.0428 5.0736,-5.1585 1.3595,-2.3076 2.1009,-5.1164 2.509,-8.0373 0.9948,-7.1912 -0.4907,-14.633 -2.7165,-21.5468 -1.2784,-3.8249 -2.809,-7.4535 -4.5917,-10.7793 -1.7827,-3.3257 -3.8174,-6.3487 -6.0857,-9.0058 -2.1161,-2.4616 -4.3279,-4.5631 -6.7085,-6.0177 -2.1728,-1.3012 -4.4015,-2.175 -6.463,-2.2249 -4.9814,-0.2013 -9.6579,0.8998 -13.5588,2.5937 -4.193,1.7711 -7.5987,4.2387 -10.3272,6.5591 0,0 0,0 0,0 -5.9084,6.7602 -9.5939,10.3988 -10.2417,9.9128 z"
         style="fill:#000000;fill-rule:evenodd;stroke:none;display:inline" />
      <path
         inkscape:connector-curvature="0"
         inkscape:original-d="m 7025.8254,3033.9854 c -5.0559,-2.5279 -31.5997,-30.3357 -48.0316,-18.9598 -16.4318,11.3759 -36.6557,64.4635 -13.9039,70.7834 22.7518,6.3199 46.7676,60.6715 50.5596,73.3113 3.792,12.64 35.3917,15.1679 35.3917,15.1679"
         inkscape:path-effect="#path-effect3193-1"
         id="path3191-7"
         d="m 7025.8254,3033.9854 c -0.055,0.1105 -0.2214,0.1681 -0.4987,0.1466 -0.2773,-0.021 -0.6655,-0.1304 -1.116,-0.3088 0,0 0,0 0,0 -0.5331,-0.2109 -1.1847,-0.5347 -1.9307,-0.9529 -1.3196,-0.7395 -2.9727,-1.8015 -4.9281,-3.0908 -1.6621,-1.0954 -3.5568,-2.3658 -5.687,-3.739 -2.1302,-1.3732 -4.4951,-2.8503 -7.1234,-4.3027 0,0 0,0 0,0 -2.0294,-1.1096 -4.1956,-2.2309 -6.4927,-3.1995 -2.297,-0.9686 -4.7247,-1.785 -7.2808,-2.2005 -1.9863,-0.3237 -4.0031,-0.4391 -5.869,-0.077 -1.7048,0.3115 -3.3962,1.0163 -4.8081,2.0832 -1.8444,1.3385 -3.5279,3.2425 -5.2477,5.419 -1.9714,2.5379 -3.7707,5.3926 -5.474,8.4716 -3.5406,6.4253 -6.5249,13.6129 -8.5707,21.3604 -1.6305,6.5033 -2.9339,13.1502 -1.7443,19.2392 0.4526,2.2024 1.0767,4.2197 2.1931,5.5476 0.5866,0.8053 1.4414,1.4908 2.4196,1.9945 0.4977,0.2562 1.0247,0.464 1.5609,0.6165 3.9609,1.1521 7.3439,3.0904 10.1847,5.2693 0,0 0,0 0,0 3.4884,2.6303 6.4738,5.5978 9.1154,8.617 0,0 0,0 0,0 6.4785,7.3874 11.4807,15.2917 15.7477,22.8817 0,0 0,0 0,0 4.6285,8.2048 8.4411,16.2286 11.6099,23.7785 0,0 0,0 0,0 0,0 0,0 0,0 0,0 0,0 0,0 1.3853,3.2987 2.6523,6.5269 3.7761,9.6706 0,0 0,0 0,0 0.8142,2.2711 1.591,4.5662 2.2046,6.8858 0,0 0,0 0,0 0.1935,0.9946 0.8362,2.0146 1.6243,2.9699 0,0 0,0 0,0 0.9812,1.1636 2.2757,2.146 3.6437,3.0478 0,0 0,0 0,0 1.8242,1.1938 3.7274,2.1354 5.5974,2.9387 1.8701,0.8033 3.7073,1.4676 5.4376,2.0621 0,0 0,0 0,0 4.46,1.5189 8.1817,2.4753 10.8551,3.2313 0,0 0,0 0,0 1.5221,0.4302 2.7055,0.7851 3.5192,1.0932 0,0 0,0 0,0 0.428,0.162 0.7527,0.3108 0.9707,0.4493 0,0 0,0 0,0 0,0 0,0 0,0 0.111,0.071 0.1941,0.1389 0.2489,0.2046 0,0 0,0 0,0 0.023,0.095 0.042,0.1437 0.056,0.169 0,0 0,0 0,0 0.014,0.025 0.022,0.027 0.022,0.027 0,0 0,0 0,0 0,0 0,0 0,0 0,0 0,0 0,0 0,0 0,0 0,0 0,0 0,0 0,0 0,0 0,0 0,0 0,0 0,0 0,0 0,0 0,0 0,0 0,0 0,0 0,0 0,0 0,0 0,0 0,0 0,0 0,0 0,0 0,0 0,0 0,0 0,0 0,0 0,0 0,0 0,0 0,0 0,0 0,0 0,0 0,0 0,0 0,0 0,0 0,0 0,0 0,0 0,0 0,0 0,0 0,0 0,0 0,0 0,0 0,0 0,0 0,0 0,0 0,0 0,0 -8e-4,0 -0.01,5e-4 -0.026,0.023 0,0 0,0 0,0 -0.018,0.023 -0.045,0.068 -0.083,0.1572 0,0 0,0 0,0 -0.066,0.055 -0.1615,0.1076 -0.2862,0.1564 0,0 0,0 0,0 0,0 0,0 0,0 -0.2428,0.096 -0.5966,0.1782 -1.0564,0.2446 0,0 0,0 0,0 -0.8739,0.1263 -2.1351,0.1946 -3.7531,0.1728 0,0 0,0 0,0 -2.84,-0.037 -6.802,-0.3206 -11.6971,-1.2745 0,0 0,0 0,0 -1.8873,-0.3618 -3.9351,-0.8275 -6.1065,-1.494 -2.1714,-0.6665 -4.467,-1.5332 -6.8194,-2.7475 0,0 0,0 0,0 -1.7914,-0.9198 -3.6505,-2.1205 -5.3895,-3.7932 0,0 0,0 0,0 -1.4806,-1.4102 -2.7885,-3.2629 -3.5908,-5.5877 0,0 0,0 0,0 -0.6699,-1.9588 -1.5238,-3.9915 -2.4515,-6.154 0,0 0,0 0,0 -1.2633,-2.932 -2.6598,-5.9609 -4.1682,-9.0867 0,0 0,0 0,0 0,0 0,0 0,0 0,0 0,0 0,0 -3.4552,-7.1561 -7.4483,-14.7435 -12.1295,-22.4756 0,0 0,0 0,0 -4.357,-7.1733 -9.1708,-14.4684 -15.1015,-21.0025 0,0 0,0 0,0 -2.416,-2.6547 -4.9418,-5.1449 -7.7164,-7.1779 0,0 0,0 0,0 -2.2911,-1.6421 -4.5926,-3.0302 -6.9137,-3.623 -1.2121,-0.3332 -2.3881,-0.7961 -3.5071,-1.3825 -2.1997,-1.1528 -4.1578,-2.7724 -5.7299,-4.7853 -2.3284,-3.1689 -3.5649,-6.6412 -4.0627,-9.9263 -1.337,-8.4989 0.1585,-16.5106 2.2452,-23.4995 2.441,-8.5378 5.9622,-16.3683 10.1126,-23.2742 1.9929,-3.3277 4.1924,-6.4929 6.6376,-9.3724 2.0562,-2.4551 4.4463,-4.7991 7.249,-6.6778 2.5951,-1.7072 5.4738,-2.6981 8.3403,-3.0271 3.041,-0.3258 5.8851,-0 8.4349,0.6485 3.1961,0.8188 6.0266,2.0097 8.5614,3.3292 2.5348,1.3195 4.774,2.7683 6.7764,4.1871 0,0 0,0 0,0 2.6351,1.8484 4.9131,3.6803 6.9025,5.3885 1.9894,1.7082 3.6897,3.294 5.1324,4.7002 1.7061,1.6608 3.0387,3.0575 4.0433,4.1524 0.5691,0.6198 1.0205,1.1347 1.368,1.5522 0,0 0,0 0,0 0.3069,0.362 0.51,0.6423 0.6411,0.8595 0.1312,0.2172 0.1837,0.3768 0.1284,0.4873 z"
         style="fill:#000000;fill-rule:evenodd;stroke:none;display:inline" />
      <path
         sodipodi:nodetypes="csssc"
         transform="translate(-2638.4032,-217.0045)"
         inkscape:connector-curvature="0"
         inkscape:original-d="m 9654.4251,3229.6978 c 0,0 -39.8521,-243.773 -13.5064,-305.2462 24.3116,-56.7272 78.3375,-156.675 262.0255,-159.3764 184.4998,-2.7133 262.0258,116.1557 256.6228,229.61 -5.402,113.4544 -37.818,253.9217 -37.818,253.9217"
         inkscape:path-effect="#path-effect4306"
         id="path4304"
         d="m 9654.4251,3229.6978 c -0.6014,0.09 -3.2329,-13.6246 -7.5295,-38.8175 -1.7655,-10.9541 -3.7597,-24.0871 -5.8366,-39.224 -2.0769,-15.137 -4.2373,-32.2781 -6.2773,-51.2506 -1.7306,-16.0953 -3.3765,-33.5142 -4.6563,-52.1566 -1.0884,-15.8483 -1.9337,-32.5968 -2.0644,-50.1714 -0.1066,-13.908 0.1754,-28.4022 1.7932,-43.3287 0.6288,-5.8079 1.4808,-11.7155 2.7773,-17.657 1.0261,-4.7358 2.3644,-9.5718 4.3638,-14.3219 6.9566,-16.4614 15.1244,-33.1659 25.5207,-49.2341 12.3944,-19.1441 27.9323,-37.2352 46.652,-52.6853 11.0822,-9.133 23.2078,-17.2837 36.1542,-24.3684 12.9465,-7.0848 26.7135,-13.1035 41.0259,-17.9883 18.2345,-6.2188 37.2718,-10.7019 56.8037,-13.6799 19.5319,-2.978 39.5578,-4.4516 59.7189,-4.7381 2.1813,-0.034 4.3668,-0.051 6.5559,-0.05 19.7733,0 39.4277,1.4367 58.5485,4.5648 19.1209,3.1282 37.7079,7.9524 55.4039,14.6599 15.911,6.0373 31.013,13.6785 44.888,22.7156 13.874,9.0371 26.52,19.4701 37.61,31.0836 10.709,11.2322 19.898,23.49 27.56,36.3108 7.662,12.8208 13.796,26.2042 18.437,39.7526 0,0 0,0 0,0 4.955,14.475 8.244,29.0977 10.111,43.5001 1.867,14.4024 2.311,28.5846 1.579,42.2624 0,0 0,0 0,0 0,0 0,10e-5 0,10e-5 0,0 0,0 0,0 -0.851,15.9138 -2.148,31.2128 -3.68,45.8555 -1.533,14.6428 -3.303,28.6293 -5.151,41.9201 0,0 0,0 0,0 -4.356,31.3238 -9.191,58.8176 -13.634,81.9619 0,0 0,0 0,0 0,0 0,0 0,0 -4.964,25.8606 -9.473,46.2975 -12.86,60.5371 0,0 0,0 0,0 -1.801,7.5727 -3.29,13.3937 -4.391,17.3425 0,0 0,0 0,0 -0.565,2.0253 -1.028,3.5586 -1.38,4.5831 0,0 0,0 0,0 -0.178,0.5183 -0.327,0.9065 -0.447,1.1624 0,0 0,0 0,0 0,0 0,0 0,0 -0.1,0.1197 -0.163,0.2126 -0.203,0.2753 0,0 0,0 0,0 -0.03,0.029 -0.05,0.052 -0.06,0.068 -0,0.01 -0,0.014 -0.01,0.019 -0,0.01 -0,0.01 -0,0.01 0,0 0,0 -0,-2e-4 0,-0.011 0,-0.018 0,-0.027 -0,-0.019 -0,-0.047 -0.02,-0.086 0,0 0,0 0,0 -0,-0.074 -0.02,-0.1849 -0.06,-0.3359 0,0 0,0 0,0 0,0 0,0 0,0 0,-0.2824 0.04,-0.6965 0.1,-1.2404 0,0 0,0 0,0 0.123,-1.0753 0.359,-2.6572 0.699,-4.7298 0,0 0,0 0,0 0.662,-4.0412 1.721,-9.9461 3.102,-17.5958 0,0 0,0 0,0 2.597,-14.3843 6.35,-34.931 10.608,-60.8553 0,0 0,0 0,0 0,-1e-4 0,-1e-4 0,-1e-4 0,0 0,0 0,0 3.81,-23.2012 8.049,-50.7045 11.856,-81.9589 0,0 0,0 0,0 1.615,-13.2648 3.159,-27.2026 4.477,-41.7657 1.317,-14.5632 2.408,-29.7517 3.065,-45.5161 0,0 0,0 0,0 0,0 0,0 0,0 0,0 0,0 0,0 0.549,-13.2215 -0.03,-26.9008 -1.961,-40.7556 -1.932,-13.8547 -5.221,-27.8849 -10.094,-41.7252 0,0 0,0 0,0 -4.554,-12.9424 -10.525,-25.7129 -17.933,-37.9244 -7.409,-12.2115 -16.256,-23.8637 -26.521,-34.5046 -10.61,-11.018 -22.736,-20.9184 -36.053,-29.5048 -13.318,-8.5864 -27.827,-15.8588 -43.112,-21.6255 -17.028,-6.4312 -34.9813,-11.044 -53.5181,-14.0354 -18.5369,-2.9915 -37.657,-4.3623 -56.9584,-4.3859 -2.1369,-0 -4.271,0.011 -6.4018,0.041 -19.7777,0.3009 -39.3521,1.7186 -58.377,4.5764 -19.025,2.8579 -37.4998,7.1565 -55.1325,13.1356 -13.8177,4.6816 -27.098,10.4262 -39.5704,17.1761 -12.4725,6.75 -24.1368,14.5052 -34.7752,23.1942 -17.9899,14.6706 -33.025,31.9568 -45.1076,50.3016 -10.1412,15.3871 -18.2185,31.5838 -25.2129,47.6748 -1.7649,4.0334 -2.991,8.3661 -4.0157,12.793 -1.2719,5.5345 -2.1363,11.1454 -2.8101,16.7542 -1.7318,14.4304 -2.1689,28.6298 -2.2483,42.3898 -0.096,17.3624 0.5045,33.9812 1.3343,49.7558 0.9764,18.5505 2.3021,35.9205 3.6978,51.9949 1.6447,18.9433 3.3893,36.0822 5.033,51.2366 1.6437,15.1544 3.1871,28.3244 4.487,39.3289 3.2279,25.3368 4.7064,39.2219 4.105,39.3115 z"
         style="fill:#000000;fill-rule:evenodd;stroke:none" />
    </g>
  </g>
</svg>
