<?xml version="1.0" encoding="UTF-8" standalone="no"?>
<!-- Created with Inkscape (http://www.inkscape.org/) -->

<svg
   xmlns:dc="http://purl.org/dc/elements/1.1/"
   xmlns:cc="http://creativecommons.org/ns#"
   xmlns:rdf="http://www.w3.org/1999/02/22-rdf-syntax-ns#"
   xmlns:svg="http://www.w3.org/2000/svg"
   xmlns="http://www.w3.org/2000/svg"
   xmlns:sodipodi="http://sodipodi.sourceforge.net/DTD/sodipodi-0.dtd"
   xmlns:inkscape="http://www.inkscape.org/namespaces/inkscape"
   width="743.36682"
   height="998.3847"
   id="svg4068"
   version="1.1"
   inkscape:version="0.48.3.1 r9886"
   sodipodi:docname="cara_5.svg">
  <defs
     id="defs4070">
    <inkscape:path-effect
       effect="skeletal"
       id="path-effect6574"
       is_visible="true"
       pattern="m -14069.21,-1265.6489 c 0,-2.76 2.24,-5 5,-5 2.76,0 5,2.24 5,5 0,2.76 -2.24,5 -5,5 -2.76,0 -5,-2.24 -5,-5 z"
       copytype="single_stretched"
       prop_scale="1"
       scale_y_rel="false"
       spacing="0"
       normal_offset="0"
       tang_offset="0"
       prop_units="false"
       vertical_pattern="false"
       fuse_tolerance="0" />
    <inkscape:path-effect
       effect="skeletal"
       id="path-effect5543"
       is_visible="true"
       pattern="m -13870.71,-1632.2205 c 0,-2.76 2.24,-5 5,-5 2.76,0 5,2.24 5,5 0,2.76 -2.24,5 -5,5 -2.76,0 -5,-2.24 -5,-5 z"
       copytype="single_stretched"
       prop_scale="1"
       scale_y_rel="false"
       spacing="0"
       normal_offset="0"
       tang_offset="0"
       prop_units="false"
       vertical_pattern="false"
       fuse_tolerance="0" />
    <inkscape:path-effect
       effect="skeletal"
       id="path-effect6549"
       is_visible="true"
       pattern="m -9698.7475,1895.3113 c 0,-2.76 2.24,-5 5,-5 2.76,0 5,2.24 5,5 0,2.76 -2.24,5 -5,5 -2.76,0 -5,-2.24 -5,-5 z"
       copytype="single_stretched"
       prop_scale="1"
       scale_y_rel="false"
       spacing="0"
       normal_offset="0"
       tang_offset="0"
       prop_units="false"
       vertical_pattern="false"
       fuse_tolerance="0" />
    <inkscape:path-effect
       effect="skeletal"
       id="path-effect3189-8-4-9-7-6-9-2-2-9-8"
       is_visible="true"
       pattern="m 6237.6376,1770.428 c 0,-2.76 2.24,-4.9999 5,-4.9999 2.76,0 5,2.2399 5,4.9999 0,2.76 -2.24,5 -5,5 -2.76,0 -5,-2.24 -5,-5 z"
       copytype="single_stretched"
       prop_scale="1"
       scale_y_rel="false"
       spacing="0"
       normal_offset="0"
       tang_offset="0"
       prop_units="false"
       vertical_pattern="false"
       fuse_tolerance="0" />
    <inkscape:path-effect
       effect="skeletal"
       id="path-effect3189-8-4-9-7-6-9-2-2-9-8-3"
       is_visible="true"
       pattern="m 6757.667,1749.1885 c 0,-2.76 2.24,-4.9999 5,-4.9999 2.76,0 5,2.2399 5,4.9999 0,2.76 -2.24,5 -5,5 -2.76,0 -5,-2.24 -5,-5 z"
       copytype="single_stretched"
       prop_scale="1"
       scale_y_rel="false"
       spacing="0"
       normal_offset="0"
       tang_offset="0"
       prop_units="false"
       vertical_pattern="false"
       fuse_tolerance="0" />
    <inkscape:path-effect
       effect="skeletal"
       id="path-effect3093-0"
       is_visible="true"
       pattern="m 7506.6858,594.57527 c 0,-2.76 2.24,-5 5,-5 2.76,0 5,2.24 5,5 0,2.76 -2.24,5 -5,5 -2.76,0 -5,-2.24 -5,-5 z"
       copytype="single_stretched"
       prop_scale="1"
       scale_y_rel="false"
       spacing="0"
       normal_offset="0"
       tang_offset="0"
       prop_units="false"
       vertical_pattern="false"
       fuse_tolerance="0" />
    <inkscape:path-effect
       effect="skeletal"
       id="path-effect3189-5"
       is_visible="true"
       pattern="m 7506.6858,594.57527 c 0,-2.76 2.24,-5 5,-5 2.76,0 5,2.24 5,5 0,2.76 -2.24,5 -5,5 -2.76,0 -5,-2.24 -5,-5 z"
       copytype="single_stretched"
       prop_scale="1"
       scale_y_rel="false"
       spacing="0"
       normal_offset="0"
       tang_offset="0"
       prop_units="false"
       vertical_pattern="false"
       fuse_tolerance="0" />
    <inkscape:path-effect
       effect="skeletal"
       id="path-effect3193-1"
       is_visible="true"
       pattern="m 7506.6858,594.57527 c 0,-2.76 2.24,-5 5,-5 2.76,0 5,2.24 5,5 0,2.76 -2.24,5 -5,5 -2.76,0 -5,-2.24 -5,-5 z"
       copytype="single_stretched"
       prop_scale="1"
       scale_y_rel="false"
       spacing="0"
       normal_offset="0"
       tang_offset="0"
       prop_units="false"
       vertical_pattern="false"
       fuse_tolerance="0" />
    <inkscape:path-effect
       effect="skeletal"
       id="path-effect4306"
       is_visible="true"
       pattern="M 0,5 C 0,2.24 2.24,0 5,0 7.76,0 10,2.24 10,5 10,7.76 7.76,10 5,10 2.24,10 0,7.76 0,5 z"
       copytype="single_stretched"
       prop_scale="1"
       scale_y_rel="false"
       spacing="0"
       normal_offset="0"
       tang_offset="0"
       prop_units="false"
       vertical_pattern="false"
       fuse_tolerance="0" />
    <inkscape:path-effect
       effect="skeletal"
       id="path-effect3093-0-8"
       is_visible="true"
       pattern="m 7506.6858,594.57527 c 0,-2.76 2.24,-5 5,-5 2.76,0 5,2.24 5,5 0,2.76 -2.24,5 -5,5 -2.76,0 -5,-2.24 -5,-5 z"
       copytype="single_stretched"
       prop_scale="1"
       scale_y_rel="false"
       spacing="0"
       normal_offset="0"
       tang_offset="0"
       prop_units="false"
       vertical_pattern="false"
       fuse_tolerance="0" />
    <inkscape:path-effect
       effect="skeletal"
       id="path-effect3189-5-8"
       is_visible="true"
       pattern="m 7506.6858,594.57527 c 0,-2.76 2.24,-5 5,-5 2.76,0 5,2.24 5,5 0,2.76 -2.24,5 -5,5 -2.76,0 -5,-2.24 -5,-5 z"
       copytype="single_stretched"
       prop_scale="1"
       scale_y_rel="false"
       spacing="0"
       normal_offset="0"
       tang_offset="0"
       prop_units="false"
       vertical_pattern="false"
       fuse_tolerance="0" />
    <inkscape:path-effect
       effect="skeletal"
       id="path-effect3193-1-3"
       is_visible="true"
       pattern="m 7506.6858,594.57527 c 0,-2.76 2.24,-5 5,-5 2.76,0 5,2.24 5,5 0,2.76 -2.24,5 -5,5 -2.76,0 -5,-2.24 -5,-5 z"
       copytype="single_stretched"
       prop_scale="1"
       scale_y_rel="false"
       spacing="0"
       normal_offset="0"
       tang_offset="0"
       prop_units="false"
       vertical_pattern="false"
       fuse_tolerance="0" />
    <inkscape:path-effect
       effect="skeletal"
       id="path-effect4306-2"
       is_visible="true"
       pattern="M 0,5 C 0,2.24 2.24,0 5,0 7.76,0 10,2.24 10,5 10,7.76 7.76,10 5,10 2.24,10 0,7.76 0,5 z"
       copytype="single_stretched"
       prop_scale="1"
       scale_y_rel="false"
       spacing="0"
       normal_offset="0"
       tang_offset="0"
       prop_units="false"
       vertical_pattern="false"
       fuse_tolerance="0" />
    <inkscape:path-effect
       effect="skeletal"
       id="path-effect4589-2"
       is_visible="true"
       pattern="m 3203.4625,-287.36459 c 0,-2.76 2.24,-5 5,-5 2.76,0 5,2.24 5,5 0,2.76 -2.24,5 -5,5 -2.76,0 -5,-2.24 -5,-5 z"
       copytype="single_stretched"
       prop_scale="1"
       scale_y_rel="false"
       spacing="0"
       normal_offset="0"
       tang_offset="0"
       prop_units="false"
       vertical_pattern="false"
       fuse_tolerance="0" />
    <inkscape:path-effect
       effect="skeletal"
       id="path-effect3189-8-4-9-6-1"
       is_visible="true"
       pattern="m 9041.8924,-261.70024 c 0,-2.76 2.24,-5 5,-5 2.76,0 5,2.24 5,5 0,2.76 -2.24,5 -5,5 -2.76,0 -5,-2.24 -5,-5 z"
       copytype="single_stretched"
       prop_scale="1"
       scale_y_rel="false"
       spacing="0"
       normal_offset="0"
       tang_offset="0"
       prop_units="false"
       vertical_pattern="false"
       fuse_tolerance="0" />
    <inkscape:path-effect
       effect="skeletal"
       id="path-effect3189-8-4-9-7-6-9"
       is_visible="true"
       pattern="m 7960.9,-231.74201 c 0,-2.76 2.24,-5 5,-5 2.76,0 5,2.24 5,5 0,2.76 -2.24,5 -5,5 -2.76,0 -5,-2.24 -5,-5 z"
       copytype="single_stretched"
       prop_scale="1"
       scale_y_rel="false"
       spacing="0"
       normal_offset="0"
       tang_offset="0"
       prop_units="false"
       vertical_pattern="false"
       fuse_tolerance="0" />
    <inkscape:path-effect
       effect="skeletal"
       id="path-effect6549-1"
       is_visible="true"
       pattern="m -9698.7475,1895.3113 c 0,-2.76 2.24,-5 5,-5 2.76,0 5,2.24 5,5 0,2.76 -2.24,5 -5,5 -2.76,0 -5,-2.24 -5,-5 z"
       copytype="single_stretched"
       prop_scale="1"
       scale_y_rel="false"
       spacing="0"
       normal_offset="0"
       tang_offset="0"
       prop_units="false"
       vertical_pattern="false"
       fuse_tolerance="0" />
    <inkscape:path-effect
       effect="skeletal"
       id="path-effect3189-8-4-9-7-6-9-2-2-9-8-5"
       is_visible="true"
       pattern="m 6237.6376,1770.428 c 0,-2.76 2.24,-4.9999 5,-4.9999 2.76,0 5,2.2399 5,4.9999 0,2.76 -2.24,5 -5,5 -2.76,0 -5,-2.24 -5,-5 z"
       copytype="single_stretched"
       prop_scale="1"
       scale_y_rel="false"
       spacing="0"
       normal_offset="0"
       tang_offset="0"
       prop_units="false"
       vertical_pattern="false"
       fuse_tolerance="0" />
    <inkscape:path-effect
       effect="skeletal"
       id="path-effect3189-8-4-9-7-6-9-2-2-9-8-3-4"
       is_visible="true"
       pattern="m 6757.667,1749.1885 c 0,-2.76 2.24,-4.9999 5,-4.9999 2.76,0 5,2.2399 5,4.9999 0,2.76 -2.24,5 -5,5 -2.76,0 -5,-2.24 -5,-5 z"
       copytype="single_stretched"
       prop_scale="1"
       scale_y_rel="false"
       spacing="0"
       normal_offset="0"
       tang_offset="0"
       prop_units="false"
       vertical_pattern="false"
       fuse_tolerance="0" />
    <inkscape:path-effect
       effect="skeletal"
       id="path-effect3189-8-4-9-6-1-2-2"
       is_visible="true"
       pattern="m 9466.4313,2392.7382 c 0,-2.76 2.24,-5 5,-5 2.76,0 5,2.24 5,5 0,2.76 -2.24,5 -5,5 -2.76,0 -5,-2.24 -5,-5 z"
       copytype="single_stretched"
       prop_scale="1"
       scale_y_rel="false"
       spacing="0"
       normal_offset="0"
       tang_offset="0"
       prop_units="false"
       vertical_pattern="false"
       fuse_tolerance="0" />
    <inkscape:path-effect
       effect="skeletal"
       id="path-effect3189-8-4-9-6-1-2-6-1"
       is_visible="true"
       pattern="m 8256.775,2407.6317 c 0,-2.76 2.24,-5 5,-5 2.76,0 5,2.24 5,5 0,2.76 -2.24,5 -5,5 -2.76,0 -5,-2.24 -5,-5 z"
       copytype="single_stretched"
       prop_scale="1"
       scale_y_rel="false"
       spacing="0"
       normal_offset="0"
       tang_offset="0"
       prop_units="false"
       vertical_pattern="false"
       fuse_tolerance="0" />
    <inkscape:path-effect
       effect="skeletal"
       id="path-effect4310"
       is_visible="true"
       pattern="M 0,5 C 0,2.24 2.24,0 5,0 7.76,0 10,2.24 10,5 10,7.76 7.76,10 5,10 2.24,10 0,7.76 0,5 z"
       copytype="single_stretched"
       prop_scale="1"
       scale_y_rel="false"
       spacing="0"
       normal_offset="0"
       tang_offset="0"
       prop_units="false"
       vertical_pattern="false"
       fuse_tolerance="0" />
    <inkscape:path-effect
       effect="skeletal"
       id="path-effect4314"
       is_visible="true"
       pattern="M 0,5 C 0,2.24 2.24,0 5,0 7.76,0 10,2.24 10,5 10,7.76 7.76,10 5,10 2.24,10 0,7.76 0,5 z"
       copytype="single_stretched"
       prop_scale="1"
       scale_y_rel="false"
       spacing="0"
       normal_offset="0"
       tang_offset="0"
       prop_units="false"
       vertical_pattern="false"
       fuse_tolerance="0" />
    <inkscape:path-effect
       effect="skeletal"
       id="path-effect5025-1"
       is_visible="true"
       pattern="m 1215.9352,2142.6341 c 0,-2.76 2.24,-5 5,-5 2.76,0 5,2.24 5,5 0,2.76 -2.24,5 -5,5 -2.76,0 -5,-2.24 -5,-5 z"
       copytype="single_stretched"
       prop_scale="1"
       scale_y_rel="false"
       spacing="0"
       normal_offset="0"
       tang_offset="0"
       prop_units="false"
       vertical_pattern="false"
       fuse_tolerance="0" />
    <inkscape:path-effect
       effect="skeletal"
       id="path-effect3189-8-4-9-6-1-2-4"
       is_visible="true"
       pattern="m 10700.692,2179.7965 c 0,-2.76 2.24,-5 5,-5 2.76,0 5,2.24 5,5 0,2.76 -2.24,5 -5,5 -2.76,0 -5,-2.24 -5,-5 z"
       copytype="single_stretched"
       prop_scale="1"
       scale_y_rel="false"
       spacing="0"
       normal_offset="0"
       tang_offset="0"
       prop_units="false"
       vertical_pattern="false"
       fuse_tolerance="0" />
    <inkscape:path-effect
       effect="skeletal"
       id="path-effect3189-8-4-9-6-1-2-6-5"
       is_visible="true"
       pattern="m 9593.9611,2130.9953 c 0,-2.76 2.24,-5 5,-5 2.76,0 5,2.24 5,5 0,2.76 -2.24,5 -5,5 -2.76,0 -5,-2.24 -5,-5 z"
       copytype="single_stretched"
       prop_scale="1"
       scale_y_rel="false"
       spacing="0"
       normal_offset="0"
       tang_offset="0"
       prop_units="false"
       vertical_pattern="false"
       fuse_tolerance="0" />
    <inkscape:path-effect
       effect="skeletal"
       id="path-effect4302"
       is_visible="true"
       pattern="M 0,5 C 0,2.24 2.24,0 5,0 7.76,0 10,2.24 10,5 10,7.76 7.76,10 5,10 2.24,10 0,7.76 0,5 z"
       copytype="single_stretched"
       prop_scale="1"
       scale_y_rel="false"
       spacing="0"
       normal_offset="0"
       tang_offset="0"
       prop_units="false"
       vertical_pattern="false"
       fuse_tolerance="0" />
    <inkscape:path-effect
       effect="skeletal"
       id="path-effect4589"
       is_visible="true"
       pattern="m 2707.1429,-1309.2857 c 0,-2.76 2.24,-5 5,-5 2.76,0 5,2.24 5,5 0,2.76 -2.24,5 -5,5 -2.76,0 -5,-2.24 -5,-5 z"
       copytype="single_stretched"
       prop_scale="1"
       scale_y_rel="false"
       spacing="0"
       normal_offset="0"
       tang_offset="0"
       prop_units="false"
       vertical_pattern="false"
       fuse_tolerance="0" />
    <inkscape:path-effect
       effect="skeletal"
       id="path-effect3189-8-4-9-6"
       is_visible="true"
       pattern="m 8674.6712,-1366.8956 c 0,-2.76 2.24,-5 5,-5 2.76,0 5,2.24 5,5 0,2.76 -2.24,5 -5,5 -2.76,0 -5,-2.24 -5,-5 z"
       copytype="single_stretched"
       prop_scale="1"
       scale_y_rel="false"
       spacing="0"
       normal_offset="0"
       tang_offset="0"
       prop_units="false"
       vertical_pattern="false"
       fuse_tolerance="0" />
    <inkscape:path-effect
       effect="skeletal"
       id="path-effect3189-8-4-9-7-6"
       is_visible="true"
       pattern="m 7350.8217,-1359.7945 c 0,-2.76 2.24,-5 5,-5 2.76,0 5,2.24 5,5 0,2.76 -2.24,5 -5,5 -2.76,0 -5,-2.24 -5,-5 z"
       copytype="single_stretched"
       prop_scale="1"
       scale_y_rel="false"
       spacing="0"
       normal_offset="0"
       tang_offset="0"
       prop_units="false"
       vertical_pattern="false"
       fuse_tolerance="0" />
    <inkscape:path-effect
       effect="skeletal"
       id="path-effect5345-0"
       is_visible="true"
       pattern="m -3081.7985,2386.9198 c 0,-2.76 2.24,-5 5,-5 2.76,0 5,2.24 5,5 0,2.76 -2.24,5 -5,5 -2.76,0 -5,-2.24 -5,-5 z"
       copytype="single_stretched"
       prop_scale="1"
       scale_y_rel="false"
       spacing="0"
       normal_offset="0"
       tang_offset="0"
       prop_units="false"
       vertical_pattern="false"
       fuse_tolerance="0" />
    <inkscape:path-effect
       effect="skeletal"
       id="path-effect3189-8-4-9-6-1-3-8-81"
       is_visible="true"
       pattern="m 9702.415,2364.4336 c 0,-2.76 2.24,-5 5,-5 2.76,0 5,2.24 5,5 0,2.76 -2.24,5 -5,5 -2.76,0 -5,-2.24 -5,-5 z"
       copytype="single_stretched"
       prop_scale="1"
       scale_y_rel="false"
       spacing="0"
       normal_offset="0"
       tang_offset="0"
       prop_units="false"
       vertical_pattern="false"
       fuse_tolerance="0" />
    <inkscape:path-effect
       effect="skeletal"
       id="path-effect3189-8-4-9-7-6-9-2-2-3"
       is_visible="true"
       pattern="m 8303.671,2362.1264 c 0,-2.76 2.24,-5 5,-5 2.76,0 5,2.24 5,5 0,2.76 -2.24,5 -5,5 -2.76,0 -5,-2.24 -5,-5 z"
       copytype="single_stretched"
       prop_scale="1"
       scale_y_rel="false"
       spacing="0"
       normal_offset="0"
       tang_offset="0"
       prop_units="false"
       vertical_pattern="false"
       fuse_tolerance="0" />
    <inkscape:path-effect
       effect="skeletal"
       id="path-effect4444-8"
       is_visible="true"
       pattern="m 5441.2464,-984.63644 c 0,-2.76 2.24,-5 5,-5 2.76,0 5,2.24 5,5 0,2.76 -2.24,5 -5,5 -2.76,0 -5,-2.24 -5,-5 z"
       copytype="single_stretched"
       prop_scale="1"
       scale_y_rel="false"
       spacing="0"
       normal_offset="0"
       tang_offset="0"
       prop_units="false"
       vertical_pattern="false"
       fuse_tolerance="0" />
    <inkscape:path-effect
       effect="skeletal"
       id="path-effect3189-8-4-9-73"
       is_visible="true"
       pattern="m 9623.8063,-1092.3537 c 0,-2.76 2.24,-5 5,-5 2.76,0 5,2.24 5,5 0,2.76 -2.24,5 -5,5 -2.76,0 -5,-2.24 -5,-5 z"
       copytype="single_stretched"
       prop_scale="1"
       scale_y_rel="false"
       spacing="0"
       normal_offset="0"
       tang_offset="0"
       prop_units="false"
       vertical_pattern="false"
       fuse_tolerance="0" />
    <inkscape:path-effect
       effect="skeletal"
       id="path-effect3189-8-4-9-7-0"
       is_visible="true"
       pattern="m 8565.8588,-1150.1593 c 0,-2.76 2.24,-5 5,-5 2.76,0 5,2.24 5,5 0,2.76 -2.24,5 -5,5 -2.76,0 -5,-2.24 -5,-5 z"
       copytype="single_stretched"
       prop_scale="1"
       scale_y_rel="false"
       spacing="0"
       normal_offset="0"
       tang_offset="0"
       prop_units="false"
       vertical_pattern="false"
       fuse_tolerance="0" />
  </defs>
  <sodipodi:namedview
     id="base"
     pagecolor="#ffffff"
     bordercolor="#666666"
     borderopacity="1.0"
     inkscape:pageopacity="0.0"
     inkscape:pageshadow="2"
     inkscape:zoom="0.12374369"
     inkscape:cx="-148.37138"
     inkscape:cy="484.85127"
     inkscape:document-units="px"
     inkscape:current-layer="layer1"
     showgrid="false"
     fit-margin-top="0"
     fit-margin-left="0"
     fit-margin-right="0"
     fit-margin-bottom="0"
     inkscape:window-width="560"
     inkscape:window-height="451"
     inkscape:window-x="3"
     inkscape:window-y="47"
     inkscape:window-maximized="0" />
  <metadata
     id="metadata4073">
    <rdf:RDF>
      <cc:Work
         rdf:about="">
        <dc:format>image/svg+xml</dc:format>
        <dc:type
           rdf:resource="http://purl.org/dc/dcmitype/StillImage" />
        <dc:title></dc:title>
      </cc:Work>
    </rdf:RDF>
  </metadata>
  <g
     inkscape:label="Capa 1"
     inkscape:groupmode="layer"
     id="layer1"
     transform="translate(-869.19208,-176.64199)">
    <g
       transform="translate(-6519.3241,-936.38361)"
       style="display:inline"
       id="g4983">
      <path
         sodipodi:nodetypes="zccccccccccccccccccccsscccccccccczzz"
         inkscape:connector-curvature="0"
         id="path4781-3"
         d="m 7616.5324,1141.968 c -33.9605,19.1712 -70.0128,85.6977 -70.0128,85.6977 l -38.3858,82.8325 -34.3452,111.1168 -18.1828,-28.2843 -30.3045,-8.0812 -28.2843,32.3248 0,22.2234 16.1624,26.264 -4.0406,52.5279 -4.0406,10.1015 32.3249,28.2843 -30.3046,208.0914 12.1218,105.0559 68.6904,117.1777 92.934,76.7716 90.9138,38.3858 92.934,4.0406 98.995,-34.3452 115.1573,-66.6701 80.8123,-80.8122 c 0,0 42.4264,-76.7716 44.4467,-84.8528 2.0203,-8.0812 8.0812,-103.0356 8.0812,-113.1371 0,-10.1015 -30.3046,-147.4822 -30.3046,-147.4822 l 26.264,-2.0204 2.0203,-36.3654 8.0812,-62.6295 2.0203,-40.4061 -44.4467,-24.2437 -18.1828,22.2234 -8.0812,24.2437 -38.3858,-88.8935 -78.7919,-189.9087 c 0,0 -39.5909,-44.3853 -109.0964,-56.5685 -69.5055,-12.1832 -52.5485,-11.7058 -85.0733,-10.3954 -32.5248,1.3105 -87.7353,8.5621 -121.6957,27.7333 z"
         style="fill:#f89696;fill-opacity:0.40000209;stroke:none;display:inline" />
      <path
         sodipodi:nodetypes="zsssssz"
         inkscape:connector-curvature="0"
         inkscape:original-d="m 7644.1292,1129.9318 c -85.3157,35.7796 -87.2152,82.1593 -127.6629,175.6945 -40.4476,93.5352 -110.5648,352.7547 -107.439,506.8596 2.3632,116.5101 123.871,280.6056 293.2454,293.2454 169.3746,12.6399 379.1968,-146.6227 409.5325,-293.2454 30.3357,-146.6227 -140.3028,-570.0591 -173.1665,-628.2025 -32.8637,-58.1436 -209.1938,-90.1312 -294.5095,-54.3516 z"
         inkscape:path-effect="#path-effect4444-8"
         id="path4442-0"
         d="m 7644.1292,1129.9318 c 0.049,0.1168 -1.0835,0.7194 -3.3355,1.8331 -2.2521,1.1137 -5.6276,2.7365 -10.0029,4.9976 -4.3753,2.2611 -9.7573,5.1559 -15.8802,8.9699 -6.1228,3.814 -12.9954,8.5408 -20.0919,14.705 -5.1295,4.4486 -10.3096,9.6883 -15.328,15.7909 -5.0185,6.1026 -9.8752,13.0706 -14.3378,20.8729 -3.9048,6.8243 -7.5724,14.2453 -11.1006,22.1978 -3.5282,7.9526 -6.9154,16.4377 -10.3876,25.3172 -3.7244,9.5354 -7.5511,19.5225 -11.6074,29.899 -4.0564,10.3765 -8.3418,21.1428 -13.0537,32.2083 -5.6536,13.2747 -10.9047,27.404 -16.0655,42.2172 -6.0311,17.3143 -11.8852,35.5505 -17.6408,54.628 -12.3269,40.8603 -24.2251,85.5306 -35.2102,133.6268 -10.3505,45.3232 -19.962,93.6702 -27.1312,144.8255 -3.1331,22.3561 -5.7841,45.2379 -7.5351,68.6112 -1.517,20.268 -2.3895,40.8898 -1.9248,61.7631 0.3218,14.8029 2.5996,29.7487 6.2809,44.5294 3.9604,15.8846 9.5715,31.5592 16.4733,46.8568 14.7139,32.6108 35.2223,63.4591 60.3104,91.0683 25.6928,28.2558 56.3231,53.1278 91.0896,71.8066 34.9704,18.7893 74.2927,31.1154 114.9921,34.1225 21.0907,1.5709 42.5559,0.3851 63.8437,-2.934 22.0498,-3.4404 43.9097,-9.1833 65.3081,-16.6985 7.5769,-2.661 15.0943,-5.5389 22.5452,-8.6247 36.4854,-15.1104 70.6315,-34.8894 101.9008,-57.7116 18.8963,-13.8031 36.7824,-28.734 53.3306,-44.727 16.5481,-15.993 31.758,-33.0479 45.3419,-51.094 12.7627,-16.9549 24.0441,-34.7769 33.1685,-53.4199 8.521,-17.4214 15.1834,-35.5458 19.0244,-54.0557 2.0369,-9.7524 2.9681,-19.7517 3.3539,-29.7807 0.4522,-11.898 0.077,-23.7932 -0.7452,-35.6176 -2.0019,-28.8 -6.592,-57.0045 -12.0534,-84.5646 -6.5196,-32.8767 -14.4393,-64.7833 -22.9121,-95.7601 -9.3697,-34.2528 -19.4592,-67.3468 -29.8143,-99.282 -20.9134,-64.4953 -42.8067,-124.2608 -64.4884,-178.8006 -8.9055,-22.4004 -17.7704,-43.9067 -26.7766,-64.3775 -3.3896,-7.7042 -6.7924,-15.2514 -10.291,-22.5991 -2.4401,-5.1208 -4.8716,-10.1207 -7.5302,-14.8707 -4.2951,-7.7564 -10.7719,-14.1354 -17.6983,-19.6501 -8.9371,-7.0809 -18.7608,-12.6144 -28.6374,-17.3493 -12.2736,-5.8762 -24.6693,-10.4213 -36.7882,-14.1845 -14.5017,-4.5012 -28.6151,-7.8398 -42.1077,-10.408 -17.1339,-3.2593 -33.2617,-5.304 -48.1594,-6.4326 -14.8978,-1.1287 -28.5675,-1.3443 -40.8744,-0.9947 -16.3008,0.4638 -30.1811,1.9981 -41.4368,3.9204 -11.4637,1.7793 -20.1876,4.0465 -26.1584,5.881 -2.9854,0.9172 -5.2906,1.7195 -6.9292,2.3009 -1.6387,0.5814 -2.6117,0.9403 -2.9173,1.0164 0,0 0,0 0,0 -0.012,-0.028 -0.012,-0.028 -0.012,-0.028 0,0 0,0 -0.012,-0.028 0,0 0,0 0,0 0.2687,-0.1647 1.2057,-0.6159 2.8106,-1.3107 1.6048,-0.6948 3.8786,-1.6318 6.834,-2.7196 5.9109,-2.1757 14.5862,-4.9331 25.954,-7.4155 11.3019,-2.2882 25.2937,-4.1889 41.7362,-4.9926 12.41,-0.6071 26.2165,-0.6412 41.2831,0.253 15.0665,0.8943 31.395,2.72 48.7551,5.786 13.6783,2.4142 28.0182,5.6202 42.8001,10.0207 12.35,3.6749 25.0437,8.177 37.7066,14.0743 10.1844,4.7367 20.4335,10.3948 29.9487,17.7642 7.3996,5.7041 14.4637,12.6191 19.4835,21.3429 2.8185,4.9404 5.3615,10.048 7.8574,15.1811 3.6008,7.4005 7.0948,14.9811 10.5624,22.6947 9.2147,20.4973 18.2755,42.019 27.3576,64.411 22.1154,54.5235 44.4169,114.3246 65.7024,178.9084 10.5416,31.9841 20.814,65.1615 30.3635,99.5394 8.6354,31.0846 16.7179,63.169 23.4013,96.3071 5.6024,27.7589 10.3271,56.3323 12.4561,85.6986 0.8748,12.0652 1.2864,24.2975 0.852,36.6347 -0.3611,10.3896 -1.3322,20.9182 -3.477,31.3771 -4.0114,19.4431 -10.8963,38.347 -19.6951,56.3755 -9.4108,19.2944 -20.9866,37.6657 -34.0501,55.056 -13.8944,18.4964 -29.4246,35.9589 -46.3016,52.3108 -16.877,16.3519 -35.1004,31.5932 -54.3411,45.6534 -31.8256,23.2757 -66.6557,43.455 -103.9528,58.9029 -7.6167,3.1547 -15.3044,6.0986 -23.0561,8.8227 -21.9056,7.6975 -44.3599,13.5815 -67.0849,17.123 -21.9432,3.4221 -44.1702,4.6222 -66.1201,2.9811 -42.2128,-3.1803 -82.8335,-15.9499 -118.8921,-35.4131 -35.8076,-19.3286 -67.2444,-44.9405 -93.53,-74.0004 -25.6728,-28.364 -46.6333,-60.1001 -61.68,-93.6903 -7.0626,-15.7652 -12.8016,-31.98 -16.8595,-48.4666 -3.7789,-15.3377 -6.0884,-30.958 -6.3829,-46.5368 -0.3898,-21.256 0.5736,-42.1563 2.1954,-62.6123 1.8692,-23.5976 4.6442,-46.6484 7.9062,-69.1264 7.4629,-51.4271 17.3872,-99.9384 28.0663,-145.3483 11.3312,-48.1892 23.6056,-92.9328 36.3273,-133.8336 5.9399,-19.0977 11.9905,-37.367 18.2255,-54.7176 5.3299,-14.8342 10.78,-29.0363 16.6497,-42.4092 4.8012,-10.9335 9.1932,-21.6037 13.3686,-31.9084 4.1754,-10.3047 8.1336,-20.2442 11.9976,-29.7462 3.5956,-8.8514 7.1375,-17.3557 10.8379,-25.3518 3.7004,-7.9962 7.5578,-15.4851 11.6585,-22.3825 4.7069,-7.9145 9.8202,-14.9582 15.09,-21.1035 5.2698,-6.1453 10.6958,-11.3947 16.0542,-15.8237 7.4066,-6.1121 14.517,-10.718 20.8363,-14.3763 6.3194,-3.6583 11.8563,-6.3624 16.3658,-8.418 4.5095,-2.0556 7.9981,-3.4577 10.3554,-4.3454 2.3573,-0.8877 3.5869,-1.2583 3.6359,-1.1415 z"
         style="fill:#000000;fill-rule:evenodd;stroke:none" />
      <path
         inkscape:connector-curvature="0"
         inkscape:original-d="m 8052.4981,1456.2404 c 0,0 -0.4543,-25.4332 19.7106,-35.97 20.1649,-10.5368 66.6717,29.3387 51.8256,52.7838 -14.8461,23.445 -21.4464,65.3998 -10.9602,82.7388 10.4863,17.3389 -27.1185,32.71 -27.1185,32.71"
         inkscape:path-effect="#path-effect3189-8-4-9-73"
         id="path3187-7-6-0-9"
         d="m 8052.4981,1456.2404 c -0.7992,-0.1308 -0.7236,-5.3282 0.11,-14.5688 0,0 0,0 0,0 0.9166,-3.879 2.5254,-8.456 5.5467,-13.1306 2.7991,-4.2621 6.8791,-8.4535 12.3467,-11.5377 3.208,-1.7325 6.8764,-2.5167 10.4922,-2.4163 3.871,0.081 7.738,0.9074 11.4018,2.2215 3.9072,1.3879 7.7558,3.2576 11.4627,5.5637 3.7069,2.306 7.2719,5.0483 10.6099,8.1325 6.0601,5.4897 11.7701,12.4594 15.1833,21.1911 1.428,3.6461 2.321,7.7394 2.2245,12.0918 -0.1232,4.145 -1.3282,8.2898 -3.6176,11.9414 -0.24,0.3778 -0.4768,0.7588 -0.7103,1.1428 -3.4776,5.7195 -6.1167,11.9079 -8.2883,18.1479 -2.5977,7.5086 -4.4111,15.0353 -5.5472,22.3496 0,0 0,0 0,0 -1.1362,7.4021 -1.6101,14.4939 -1.1459,21.0805 0,0 0,0 0,0 0,0 0,0 0,0 0.2437,2.961 0.5896,5.7914 1.1828,8.3802 0.5932,2.5888 1.4336,4.9361 2.6082,6.9772 1.4837,2.5453 2.2487,5.4701 2.1717,8.4089 0,0 0,0 0,0 -0.1496,2.9147 -1.0549,5.4647 -2.2903,7.5699 -1.5941,2.693 -3.4987,4.8313 -5.4382,6.6067 -1.9395,1.7754 -3.9153,3.1878 -5.7637,4.3758 0,0 0,0 0,0 0,0 0,0 0,0 0,0 0,0 0,0 -2.5121,1.6482 -4.8779,2.9417 -7.0109,3.9841 -2.1331,1.0424 -4.0343,1.8331 -5.6523,2.4337 0,0 0,0 0,0 -1.8873,0.7018 -3.4002,1.142 -4.4799,1.3602 0,0 0,0 0,0 -0.5721,0.1156 -1.0245,0.169 -1.3484,0.1632 0,0 0,0 0,0 0,0 0,0 0,0 -0.2016,-0.088 -0.344,-0.1291 -0.4382,-0.1533 0,0 0,0 0,0 0,0 -1e-4,0 -1e-4,0 -0.056,-0.034 -0.094,-0.047 -0.1176,-0.052 -0.012,-0 -0.02,-0 -0.026,-0 -0.01,0 -0.01,0 -0.01,0 0,0 0,0 -7e-4,-0 0.012,-0.01 0.017,-0.013 0.024,-0.023 0.013,-0.02 0.03,-0.056 0.046,-0.12 0,0 0,0 0,0 0,0 0,0 0,0 0.048,-0.084 0.1159,-0.2136 0.1908,-0.4198 0,0 0,0 0,0 0,0 0,0 0,0 0.2153,-0.2368 0.554,-0.5275 1.01,-0.8753 0,0 0,0 0,0 0.8605,-0.6564 2.1341,-1.5129 3.7607,-2.6013 0,0 0,0 0,0 1.396,-0.9348 3.0522,-2.0345 4.8976,-3.3399 1.8453,-1.3054 3.8807,-2.8157 5.9938,-4.6049 0,0 0,0 0,0 0,0 0,0 0,0 0,0 0,0 0,0 1.5543,-1.3409 3.1744,-2.7981 4.6613,-4.4213 1.4869,-1.6231 2.8418,-3.4117 3.7489,-5.4536 0.6646,-1.4913 1.1213,-3.0647 1.0224,-4.5099 0,0 0,0 0,0 -0.026,-1.4094 -0.6103,-2.9423 -1.5193,-4.3533 -1.6985,-2.7097 -2.9977,-5.6917 -3.9414,-8.828 -0.9437,-3.1362 -1.5316,-6.4268 -1.8657,-9.7063 0,0 0,0 0,0 -0.8287,-7.3764 -0.615,-15.2204 0.4132,-23.1871 0,0 0,0 0,0 1.0066,-7.9009 2.802,-16.0593 5.5115,-24.2077 2.2352,-6.7606 5.1368,-13.6216 9.0927,-20.1608 0.2657,-0.4391 0.5354,-0.8756 0.8094,-1.3095 1.3021,-2.0202 2.0129,-4.485 2.1077,-6.9217 0.1362,-2.6747 -0.5074,-5.5076 -1.4985,-8.2853 -2.4487,-6.8343 -7.2117,-12.742 -12.3863,-17.8389 -2.9044,-2.798 -5.9415,-5.3051 -9.0617,-7.4271 -3.1202,-2.1221 -6.3236,-3.859 -9.5645,-5.1635 -3.0155,-1.2017 -5.949,-2.04 -8.7326,-2.2266 -2.5283,-0.147 -4.9084,0.1107 -6.7585,1.0212 -4.5083,2.1286 -8.1431,5.2702 -10.816,8.5781 -2.8961,3.5116 -4.7717,7.2758 -6.1154,10.596 0,0 0,0 0,0 -2.1058,8.7278 -3.6872,13.6595 -4.4864,13.5288 z"
         style="fill:#000000;fill-rule:evenodd;stroke:none" />
      <path
         inkscape:connector-curvature="0"
         inkscape:original-d="m 7467.9011,1420.0747 c 0,0 0.4543,-25.4333 -19.7106,-35.9699 -20.1649,-10.5368 -66.6717,29.3386 -51.8256,52.7837 14.8461,23.4451 21.4464,65.3999 10.9602,82.7388 -10.4863,17.339 27.1185,32.7101 27.1185,32.7101"
         inkscape:path-effect="#path-effect3189-8-4-9-7-0"
         id="path3187-7-6-0-6-3"
         d="m 7467.9011,1420.0747 c -0.029,-2e-4 -0.058,-0.01 -0.087,-0.02 0,0 0,0 0,0 -0.028,-0.013 -0.055,-0.032 -0.083,-0.056 -0.055,-0.049 -0.1095,-0.1202 -0.1648,-0.2145 0,0 0,0 0,0 0,0 0,0 0,0 -0.1086,-0.1844 -0.2195,-0.454 -0.338,-0.8076 0,0 0,0 0,0 -0.2278,-0.6796 -0.4829,-1.6615 -0.8125,-2.9222 0,0 0,0 0,0 -0.6031,-2.3038 -1.4346,-5.5354 -2.9676,-9.3515 0,0 0,0 0,0 -1.349,-3.3453 -3.2354,-7.1606 -6.1486,-10.7526 0,0 0,0 0,0 -2.6729,-3.3079 -6.3077,-6.4495 -10.8159,-8.578 0,0 0,0 0,0 -1.8502,-0.9105 -4.2303,-1.1682 -6.7586,-1.0212 0,0 0,0 0,0 -2.7836,0.1866 -5.7171,1.0249 -8.7326,2.2266 0,0 0,0 0,0 0,0 0,0 0,0 0,0 0,0 0,0 -3.2409,1.3045 -6.4443,3.0414 -9.5645,5.1634 -3.1202,2.1221 -6.1573,4.6292 -9.0617,7.4272 0,0 0,0 0,0 -5.1746,5.0968 -9.9376,11.0045 -12.3863,17.8388 0,0 0,0 0,0 -0.9911,2.7777 -1.6347,5.6106 -1.4985,8.2853 0,0 0,0 0,0 0.095,2.4367 0.8056,4.9015 2.1078,6.9217 0.2739,0.4339 0.5437,0.8705 0.8094,1.3097 3.9559,6.5391 6.8574,13.4001 9.0926,20.1607 2.7095,8.1484 4.5049,16.3068 5.5115,24.2077 1.0282,7.9666 1.2419,15.8107 0.4132,23.187 0,0 0,10e-5 0,10e-5 -0.3341,3.2795 -0.922,6.57 -1.8657,9.7063 -0.9437,3.1362 -2.2429,6.1182 -3.9414,8.8279 -0.909,1.411 -1.4929,2.9439 -1.5193,4.3533 -0.099,1.4452 0.3578,3.0187 1.0224,4.51 0.9071,2.0419 2.262,3.8304 3.7489,5.4536 1.4869,1.6232 3.107,3.0804 4.6613,4.4212 0,10e-5 0,10e-5 0,10e-5 2.1048,1.7852 4.1343,3.2927 5.9759,4.5963 1.8416,1.3036 3.4963,2.4025 4.8924,3.3375 3.4594,2.1499 5.2583,3.5572 5.055,4.0487 0,0 0,0 0,0 0,0 0,0 0,0 -0,0 -0,0 -0,0 0,0 0,0 -0,0 0,0 0,0 0,0 0,0 0,0 0,0 -0.2233,0.4822 -2.4376,0.011 -6.3937,-1.3092 -1.6178,-0.6005 -3.5206,-1.392 -5.6573,-2.4362 -2.1368,-1.0442 -4.5084,-2.3405 -7.0289,-3.9927 0,0 0,0 0,0 -1.8484,-1.188 -3.8242,-2.6004 -5.7637,-4.3758 -1.9395,-1.7755 -3.8441,-3.9137 -5.4382,-6.6068 -1.2354,-2.1052 -2.1407,-4.6552 -2.2903,-7.5698 -0.077,-2.9389 0.688,-5.8637 2.1717,-8.409 1.1746,-2.041 2.015,-4.3883 2.6082,-6.9771 0.5932,-2.5888 0.9391,-5.4193 1.1828,-8.3803 0,0 0,0 0,0 0.4642,-6.5866 -0.01,-13.6783 -1.1459,-21.0804 -1.1361,-7.3144 -2.9495,-14.841 -5.5472,-22.3497 -2.1716,-6.2399 -4.8107,-12.4283 -8.2882,-18.1477 -0.2336,-0.3842 -0.4704,-0.7652 -0.7105,-1.143 -2.2893,-3.6516 -3.4943,-7.7964 -3.6175,-11.9414 0,0 0,0 0,0 -0.096,-4.3524 0.7965,-8.4457 2.2245,-12.0918 0,0 0,0 0,0 3.4132,-8.7317 9.1232,-15.7013 15.1834,-21.1911 0,0 0,0 0,0 3.3379,-3.0842 6.9029,-5.8264 10.6098,-8.1325 3.7069,-2.306 7.5555,-4.1758 11.4627,-5.5636 0,0 0,0 0,0 0,0 0,0 0,0 0,0 0,0 0,0 3.6638,-1.3141 7.5308,-2.1402 11.4018,-2.2216 0,0 0,0 0,0 3.6158,-0.1003 7.2842,0.6839 10.4921,2.4164 0,0 0,0 0,0 5.4677,3.0841 9.5477,7.2756 12.3468,11.5376 0,0 0,0 0,0 3.0043,4.5941 4.6022,9.12 5.5135,12.974 0,0 0,0 0,0 1.0404,4.3805 1.2263,7.946 1.1374,10.4388 0,0 0,0 0,0 -0.048,1.3638 -0.1868,2.4195 -0.3615,3.1385 0,0 0,0 0,0 -0.091,0.3741 -0.192,0.6595 -0.2974,0.8514 0,0 0,0 0,0 0,0 0,0 0,0 -0.054,0.097 -0.1084,0.171 -0.1636,0.2205 -0.028,0.025 -0.056,0.044 -0.084,0.057 0,0 0,0 0,0 -0.029,0.013 -0.059,0.02 -0.088,0.02 z"
         style="fill:#000000;fill-rule:evenodd;stroke:none" />
    </g>
  </g>
</svg>
