<?xml version="1.0" encoding="UTF-8" standalone="no"?>
<!-- Created with Inkscape (http://www.inkscape.org/) -->

<svg
   xmlns:dc="http://purl.org/dc/elements/1.1/"
   xmlns:cc="http://creativecommons.org/ns#"
   xmlns:rdf="http://www.w3.org/1999/02/22-rdf-syntax-ns#"
   xmlns:svg="http://www.w3.org/2000/svg"
   xmlns="http://www.w3.org/2000/svg"
   xmlns:sodipodi="http://sodipodi.sourceforge.net/DTD/sodipodi-0.dtd"
   xmlns:inkscape="http://www.inkscape.org/namespaces/inkscape"
   width="649.3313"
   height="819.92694"
   id="svg4068"
   version="1.1"
   inkscape:version="0.48.3.1 r9886"
   sodipodi:docname="cara_6.svg">
  <defs
     id="defs4070">
    <inkscape:path-effect
       effect="skeletal"
       id="path-effect6574"
       is_visible="true"
       pattern="m -14069.21,-1265.6489 c 0,-2.76 2.24,-5 5,-5 2.76,0 5,2.24 5,5 0,2.76 -2.24,5 -5,5 -2.76,0 -5,-2.24 -5,-5 z"
       copytype="single_stretched"
       prop_scale="1"
       scale_y_rel="false"
       spacing="0"
       normal_offset="0"
       tang_offset="0"
       prop_units="false"
       vertical_pattern="false"
       fuse_tolerance="0" />
    <inkscape:path-effect
       effect="skeletal"
       id="path-effect5543"
       is_visible="true"
       pattern="m -13870.71,-1632.2205 c 0,-2.76 2.24,-5 5,-5 2.76,0 5,2.24 5,5 0,2.76 -2.24,5 -5,5 -2.76,0 -5,-2.24 -5,-5 z"
       copytype="single_stretched"
       prop_scale="1"
       scale_y_rel="false"
       spacing="0"
       normal_offset="0"
       tang_offset="0"
       prop_units="false"
       vertical_pattern="false"
       fuse_tolerance="0" />
    <inkscape:path-effect
       effect="skeletal"
       id="path-effect6549"
       is_visible="true"
       pattern="m -9698.7475,1895.3113 c 0,-2.76 2.24,-5 5,-5 2.76,0 5,2.24 5,5 0,2.76 -2.24,5 -5,5 -2.76,0 -5,-2.24 -5,-5 z"
       copytype="single_stretched"
       prop_scale="1"
       scale_y_rel="false"
       spacing="0"
       normal_offset="0"
       tang_offset="0"
       prop_units="false"
       vertical_pattern="false"
       fuse_tolerance="0" />
    <inkscape:path-effect
       effect="skeletal"
       id="path-effect3189-8-4-9-7-6-9-2-2-9-8"
       is_visible="true"
       pattern="m 6237.6376,1770.428 c 0,-2.76 2.24,-4.9999 5,-4.9999 2.76,0 5,2.2399 5,4.9999 0,2.76 -2.24,5 -5,5 -2.76,0 -5,-2.24 -5,-5 z"
       copytype="single_stretched"
       prop_scale="1"
       scale_y_rel="false"
       spacing="0"
       normal_offset="0"
       tang_offset="0"
       prop_units="false"
       vertical_pattern="false"
       fuse_tolerance="0" />
    <inkscape:path-effect
       effect="skeletal"
       id="path-effect3189-8-4-9-7-6-9-2-2-9-8-3"
       is_visible="true"
       pattern="m 6757.667,1749.1885 c 0,-2.76 2.24,-4.9999 5,-4.9999 2.76,0 5,2.2399 5,4.9999 0,2.76 -2.24,5 -5,5 -2.76,0 -5,-2.24 -5,-5 z"
       copytype="single_stretched"
       prop_scale="1"
       scale_y_rel="false"
       spacing="0"
       normal_offset="0"
       tang_offset="0"
       prop_units="false"
       vertical_pattern="false"
       fuse_tolerance="0" />
    <inkscape:path-effect
       effect="skeletal"
       id="path-effect3093-0"
       is_visible="true"
       pattern="m 7506.6858,594.57527 c 0,-2.76 2.24,-5 5,-5 2.76,0 5,2.24 5,5 0,2.76 -2.24,5 -5,5 -2.76,0 -5,-2.24 -5,-5 z"
       copytype="single_stretched"
       prop_scale="1"
       scale_y_rel="false"
       spacing="0"
       normal_offset="0"
       tang_offset="0"
       prop_units="false"
       vertical_pattern="false"
       fuse_tolerance="0" />
    <inkscape:path-effect
       effect="skeletal"
       id="path-effect3189-5"
       is_visible="true"
       pattern="m 7506.6858,594.57527 c 0,-2.76 2.24,-5 5,-5 2.76,0 5,2.24 5,5 0,2.76 -2.24,5 -5,5 -2.76,0 -5,-2.24 -5,-5 z"
       copytype="single_stretched"
       prop_scale="1"
       scale_y_rel="false"
       spacing="0"
       normal_offset="0"
       tang_offset="0"
       prop_units="false"
       vertical_pattern="false"
       fuse_tolerance="0" />
    <inkscape:path-effect
       effect="skeletal"
       id="path-effect3193-1"
       is_visible="true"
       pattern="m 7506.6858,594.57527 c 0,-2.76 2.24,-5 5,-5 2.76,0 5,2.24 5,5 0,2.76 -2.24,5 -5,5 -2.76,0 -5,-2.24 -5,-5 z"
       copytype="single_stretched"
       prop_scale="1"
       scale_y_rel="false"
       spacing="0"
       normal_offset="0"
       tang_offset="0"
       prop_units="false"
       vertical_pattern="false"
       fuse_tolerance="0" />
    <inkscape:path-effect
       effect="skeletal"
       id="path-effect4306"
       is_visible="true"
       pattern="M 0,5 C 0,2.24 2.24,0 5,0 7.76,0 10,2.24 10,5 10,7.76 7.76,10 5,10 2.24,10 0,7.76 0,5 z"
       copytype="single_stretched"
       prop_scale="1"
       scale_y_rel="false"
       spacing="0"
       normal_offset="0"
       tang_offset="0"
       prop_units="false"
       vertical_pattern="false"
       fuse_tolerance="0" />
    <inkscape:path-effect
       effect="skeletal"
       id="path-effect3093-0-8"
       is_visible="true"
       pattern="m 7506.6858,594.57527 c 0,-2.76 2.24,-5 5,-5 2.76,0 5,2.24 5,5 0,2.76 -2.24,5 -5,5 -2.76,0 -5,-2.24 -5,-5 z"
       copytype="single_stretched"
       prop_scale="1"
       scale_y_rel="false"
       spacing="0"
       normal_offset="0"
       tang_offset="0"
       prop_units="false"
       vertical_pattern="false"
       fuse_tolerance="0" />
    <inkscape:path-effect
       effect="skeletal"
       id="path-effect3189-5-8"
       is_visible="true"
       pattern="m 7506.6858,594.57527 c 0,-2.76 2.24,-5 5,-5 2.76,0 5,2.24 5,5 0,2.76 -2.24,5 -5,5 -2.76,0 -5,-2.24 -5,-5 z"
       copytype="single_stretched"
       prop_scale="1"
       scale_y_rel="false"
       spacing="0"
       normal_offset="0"
       tang_offset="0"
       prop_units="false"
       vertical_pattern="false"
       fuse_tolerance="0" />
    <inkscape:path-effect
       effect="skeletal"
       id="path-effect3193-1-3"
       is_visible="true"
       pattern="m 7506.6858,594.57527 c 0,-2.76 2.24,-5 5,-5 2.76,0 5,2.24 5,5 0,2.76 -2.24,5 -5,5 -2.76,0 -5,-2.24 -5,-5 z"
       copytype="single_stretched"
       prop_scale="1"
       scale_y_rel="false"
       spacing="0"
       normal_offset="0"
       tang_offset="0"
       prop_units="false"
       vertical_pattern="false"
       fuse_tolerance="0" />
    <inkscape:path-effect
       effect="skeletal"
       id="path-effect4306-2"
       is_visible="true"
       pattern="M 0,5 C 0,2.24 2.24,0 5,0 7.76,0 10,2.24 10,5 10,7.76 7.76,10 5,10 2.24,10 0,7.76 0,5 z"
       copytype="single_stretched"
       prop_scale="1"
       scale_y_rel="false"
       spacing="0"
       normal_offset="0"
       tang_offset="0"
       prop_units="false"
       vertical_pattern="false"
       fuse_tolerance="0" />
    <inkscape:path-effect
       effect="skeletal"
       id="path-effect4589-2"
       is_visible="true"
       pattern="m 3203.4625,-287.36459 c 0,-2.76 2.24,-5 5,-5 2.76,0 5,2.24 5,5 0,2.76 -2.24,5 -5,5 -2.76,0 -5,-2.24 -5,-5 z"
       copytype="single_stretched"
       prop_scale="1"
       scale_y_rel="false"
       spacing="0"
       normal_offset="0"
       tang_offset="0"
       prop_units="false"
       vertical_pattern="false"
       fuse_tolerance="0" />
    <inkscape:path-effect
       effect="skeletal"
       id="path-effect3189-8-4-9-6-1"
       is_visible="true"
       pattern="m 9041.8924,-261.70024 c 0,-2.76 2.24,-5 5,-5 2.76,0 5,2.24 5,5 0,2.76 -2.24,5 -5,5 -2.76,0 -5,-2.24 -5,-5 z"
       copytype="single_stretched"
       prop_scale="1"
       scale_y_rel="false"
       spacing="0"
       normal_offset="0"
       tang_offset="0"
       prop_units="false"
       vertical_pattern="false"
       fuse_tolerance="0" />
    <inkscape:path-effect
       effect="skeletal"
       id="path-effect3189-8-4-9-7-6-9"
       is_visible="true"
       pattern="m 7960.9,-231.74201 c 0,-2.76 2.24,-5 5,-5 2.76,0 5,2.24 5,5 0,2.76 -2.24,5 -5,5 -2.76,0 -5,-2.24 -5,-5 z"
       copytype="single_stretched"
       prop_scale="1"
       scale_y_rel="false"
       spacing="0"
       normal_offset="0"
       tang_offset="0"
       prop_units="false"
       vertical_pattern="false"
       fuse_tolerance="0" />
    <inkscape:path-effect
       effect="skeletal"
       id="path-effect6549-1"
       is_visible="true"
       pattern="m -9698.7475,1895.3113 c 0,-2.76 2.24,-5 5,-5 2.76,0 5,2.24 5,5 0,2.76 -2.24,5 -5,5 -2.76,0 -5,-2.24 -5,-5 z"
       copytype="single_stretched"
       prop_scale="1"
       scale_y_rel="false"
       spacing="0"
       normal_offset="0"
       tang_offset="0"
       prop_units="false"
       vertical_pattern="false"
       fuse_tolerance="0" />
    <inkscape:path-effect
       effect="skeletal"
       id="path-effect3189-8-4-9-7-6-9-2-2-9-8-5"
       is_visible="true"
       pattern="m 6237.6376,1770.428 c 0,-2.76 2.24,-4.9999 5,-4.9999 2.76,0 5,2.2399 5,4.9999 0,2.76 -2.24,5 -5,5 -2.76,0 -5,-2.24 -5,-5 z"
       copytype="single_stretched"
       prop_scale="1"
       scale_y_rel="false"
       spacing="0"
       normal_offset="0"
       tang_offset="0"
       prop_units="false"
       vertical_pattern="false"
       fuse_tolerance="0" />
    <inkscape:path-effect
       effect="skeletal"
       id="path-effect3189-8-4-9-7-6-9-2-2-9-8-3-4"
       is_visible="true"
       pattern="m 6757.667,1749.1885 c 0,-2.76 2.24,-4.9999 5,-4.9999 2.76,0 5,2.2399 5,4.9999 0,2.76 -2.24,5 -5,5 -2.76,0 -5,-2.24 -5,-5 z"
       copytype="single_stretched"
       prop_scale="1"
       scale_y_rel="false"
       spacing="0"
       normal_offset="0"
       tang_offset="0"
       prop_units="false"
       vertical_pattern="false"
       fuse_tolerance="0" />
    <inkscape:path-effect
       effect="skeletal"
       id="path-effect3189-8-4-9-6-1-2-2"
       is_visible="true"
       pattern="m 9466.4313,2392.7382 c 0,-2.76 2.24,-5 5,-5 2.76,0 5,2.24 5,5 0,2.76 -2.24,5 -5,5 -2.76,0 -5,-2.24 -5,-5 z"
       copytype="single_stretched"
       prop_scale="1"
       scale_y_rel="false"
       spacing="0"
       normal_offset="0"
       tang_offset="0"
       prop_units="false"
       vertical_pattern="false"
       fuse_tolerance="0" />
    <inkscape:path-effect
       effect="skeletal"
       id="path-effect3189-8-4-9-6-1-2-6-1"
       is_visible="true"
       pattern="m 8256.775,2407.6317 c 0,-2.76 2.24,-5 5,-5 2.76,0 5,2.24 5,5 0,2.76 -2.24,5 -5,5 -2.76,0 -5,-2.24 -5,-5 z"
       copytype="single_stretched"
       prop_scale="1"
       scale_y_rel="false"
       spacing="0"
       normal_offset="0"
       tang_offset="0"
       prop_units="false"
       vertical_pattern="false"
       fuse_tolerance="0" />
    <inkscape:path-effect
       effect="skeletal"
       id="path-effect4310"
       is_visible="true"
       pattern="M 0,5 C 0,2.24 2.24,0 5,0 7.76,0 10,2.24 10,5 10,7.76 7.76,10 5,10 2.24,10 0,7.76 0,5 z"
       copytype="single_stretched"
       prop_scale="1"
       scale_y_rel="false"
       spacing="0"
       normal_offset="0"
       tang_offset="0"
       prop_units="false"
       vertical_pattern="false"
       fuse_tolerance="0" />
    <inkscape:path-effect
       effect="skeletal"
       id="path-effect4314"
       is_visible="true"
       pattern="M 0,5 C 0,2.24 2.24,0 5,0 7.76,0 10,2.24 10,5 10,7.76 7.76,10 5,10 2.24,10 0,7.76 0,5 z"
       copytype="single_stretched"
       prop_scale="1"
       scale_y_rel="false"
       spacing="0"
       normal_offset="0"
       tang_offset="0"
       prop_units="false"
       vertical_pattern="false"
       fuse_tolerance="0" />
    <inkscape:path-effect
       effect="skeletal"
       id="path-effect5025-1"
       is_visible="true"
       pattern="m 1215.9352,2142.6341 c 0,-2.76 2.24,-5 5,-5 2.76,0 5,2.24 5,5 0,2.76 -2.24,5 -5,5 -2.76,0 -5,-2.24 -5,-5 z"
       copytype="single_stretched"
       prop_scale="1"
       scale_y_rel="false"
       spacing="0"
       normal_offset="0"
       tang_offset="0"
       prop_units="false"
       vertical_pattern="false"
       fuse_tolerance="0" />
    <inkscape:path-effect
       effect="skeletal"
       id="path-effect3189-8-4-9-6-1-2-4"
       is_visible="true"
       pattern="m 10700.692,2179.7965 c 0,-2.76 2.24,-5 5,-5 2.76,0 5,2.24 5,5 0,2.76 -2.24,5 -5,5 -2.76,0 -5,-2.24 -5,-5 z"
       copytype="single_stretched"
       prop_scale="1"
       scale_y_rel="false"
       spacing="0"
       normal_offset="0"
       tang_offset="0"
       prop_units="false"
       vertical_pattern="false"
       fuse_tolerance="0" />
    <inkscape:path-effect
       effect="skeletal"
       id="path-effect3189-8-4-9-6-1-2-6-5"
       is_visible="true"
       pattern="m 9593.9611,2130.9953 c 0,-2.76 2.24,-5 5,-5 2.76,0 5,2.24 5,5 0,2.76 -2.24,5 -5,5 -2.76,0 -5,-2.24 -5,-5 z"
       copytype="single_stretched"
       prop_scale="1"
       scale_y_rel="false"
       spacing="0"
       normal_offset="0"
       tang_offset="0"
       prop_units="false"
       vertical_pattern="false"
       fuse_tolerance="0" />
    <inkscape:path-effect
       effect="skeletal"
       id="path-effect4302"
       is_visible="true"
       pattern="M 0,5 C 0,2.24 2.24,0 5,0 7.76,0 10,2.24 10,5 10,7.76 7.76,10 5,10 2.24,10 0,7.76 0,5 z"
       copytype="single_stretched"
       prop_scale="1"
       scale_y_rel="false"
       spacing="0"
       normal_offset="0"
       tang_offset="0"
       prop_units="false"
       vertical_pattern="false"
       fuse_tolerance="0" />
  </defs>
  <sodipodi:namedview
     id="base"
     pagecolor="#ffffff"
     bordercolor="#666666"
     borderopacity="1.0"
     inkscape:pageopacity="0.0"
     inkscape:pageshadow="2"
     inkscape:zoom="0.12374369"
     inkscape:cx="161.2283"
     inkscape:cy="364.26345"
     inkscape:document-units="px"
     inkscape:current-layer="layer1"
     showgrid="false"
     fit-margin-top="0"
     fit-margin-left="0"
     fit-margin-right="0"
     fit-margin-bottom="0"
     inkscape:window-width="560"
     inkscape:window-height="451"
     inkscape:window-x="3"
     inkscape:window-y="47"
     inkscape:window-maximized="0" />
  <metadata
     id="metadata4073">
    <rdf:RDF>
      <cc:Work
         rdf:about="">
        <dc:format>image/svg+xml</dc:format>
        <dc:type
           rdf:resource="http://purl.org/dc/dcmitype/StillImage" />
        <dc:title></dc:title>
      </cc:Work>
    </rdf:RDF>
  </metadata>
  <g
     inkscape:label="Capa 1"
     inkscape:groupmode="layer"
     id="layer1"
     transform="translate(-559.5924,-234.51193)">
    <g
       transform="translate(-7023.6356,-3388.7015)"
       style="display:inline"
       id="g4340">
      <path
         sodipodi:nodetypes="cccccccccccccccscccccccccczc"
         inkscape:connector-curvature="0"
         id="path4799-6"
         d="m 7639.7286,3793.7882 8.1492,189.5902 6.0609,54.5482 -46.467,-54.5482 -24.2437,36.3655 10.1015,38.3858 26.264,38.3858 10.1015,46.467 30.3046,28.2843 -8.0812,50.5076 8.0812,70.7107 26.264,36.3655 157.5838,90.9137 48.4873,18.1828 92.934,-38.3858 c 0,0 96.9747,-50.5077 107.0762,-54.5483 10.1015,-4.0406 58.5888,-42.4264 58.5888,-42.4264 l 14.1422,-96.9746 -5.4026,-47.1934 30.9855,-6.7759 4.0406,-40.4061 28.2843,-36.3655 6.0609,-24.2436 -16.832,-64.0255 -63.3672,3.3257 2.2243,-231.9827 c 0,0 -4.3136,-137.3727 -257.0784,-131.9781 -252.7649,5.3945 -254.2627,167.8213 -254.2627,167.8213 z"
         style="fill:#ffccaa;fill-opacity:0.4;stroke:none;display:inline" />
      <path
         sodipodi:nodetypes="czszc"
         inkscape:connector-curvature="0"
         inkscape:original-d="m 7659.4199,4072.8762 c 0,0 -20.6017,186.3644 12.7043,240.3467 33.3054,53.9821 192.7185,115.9983 214.7274,124.3829 22.0095,8.3846 217.565,-83.8001 255.4014,-131.329 37.8365,-47.5289 19.9615,-225.2532 19.9615,-225.2532"
         inkscape:path-effect="#path-effect5025-1"
         id="path5023-7"
         d="m 7659.4199,4072.8762 c 0.5943,0.053 0.2119,10.6824 -1.0057,30.1191 -0.421,8.4819 -0.9064,18.6435 -1.3196,30.3394 -0.4131,11.696 -0.7546,24.9266 -0.8304,39.5409 -0.065,12.5219 0.063,26.0555 0.6592,40.4814 0.5145,12.4358 1.3547,25.5272 2.9654,39.1273 1.3171,11.0884 3.0803,22.4972 6.0897,33.9019 2.2926,8.582 5.0768,17.1575 9.7795,24.5947 4.3935,7.0751 10.4981,13.397 17.2226,19.4642 7.9638,7.1482 16.8384,13.7068 26.2217,20.0135 20.3405,13.6643 42.8885,25.9313 66.6824,37.7182 20.7056,10.251 42.3625,20.0433 64.7482,29.468 12.4581,5.2443 25.1169,10.3868 37.9981,15.2901 0.1072,0.083 0.5035,0.1023 1.1258,0.1796 0.8062,0.064 1.7268,0.018 2.7493,-0.061 2.0166,-0.1639 4.0892,-0.526 6.2224,-0.983 0.8889,-0.1904 1.7872,-0.397 2.6951,-0.6121 9.3177,-2.2323 18.4485,-5.448 27.5565,-8.8274 0,0 0,0 0,0 12.3879,-4.6066 24.4924,-9.6627 36.3785,-14.8898 0,0 0,0 0,0 14.0464,-6.1783 27.7461,-12.6122 41.0983,-19.1908 0,0 0,0 0,0 28.7136,-14.151 55.8119,-28.8345 80.5877,-44.3683 11.1435,-6.9891 21.7815,-14.1122 31.5886,-21.7029 0,0 0,0 0,0 4.1515,-3.2137 8.1329,-6.491 11.8473,-9.9193 0,0 0,0 0,0 3.1037,-2.8712 6.0044,-5.7885 8.4994,-8.8886 5.1773,-6.3307 8.4716,-14.1222 11.1961,-21.9808 0,0 0,0 0,0 3.556,-10.3893 5.7574,-20.942 7.4643,-31.2308 2.0939,-12.6602 3.3252,-24.9002 4.1848,-36.5422 0,0 0,0 0,0 1,-13.5598 1.4608,-26.2987 1.6849,-38.0916 0,0 0,0 0,0 0.2627,-13.8376 0.1962,-26.366 0.012,-37.4412 -0.1839,-11.0751 -0.4861,-20.6973 -0.7607,-28.7312 0,0 0,0 0,0 -0.3074,-8.9905 -0.5906,-15.9896 -0.7251,-20.8175 0,0 0,0 0,0 -0.07,-2.52 -0.1006,-4.4475 -0.077,-5.7578 0,0 0,0 0,0 0.012,-0.6677 0.038,-1.1749 0.079,-1.5184 0,0 0,0 0,0 0.071,-0.1782 0.1088,-0.3111 0.1319,-0.4 0,0 0,0 0,0 0,0 0,0 0,0 0.024,-0.046 0.035,-0.08 0.04,-0.1022 0,-0.011 0,-0.02 0,-0.025 1e-4,-0.01 1e-4,-0.01 1e-4,-0.01 0,0 0,0 0,-1e-4 0,0.014 0,0.022 0.01,0.033 0.01,0.021 0.027,0.052 0.06,0.092 0,0 0,0 0,0 0,0 0,0 0,0 0.04,0.083 0.103,0.206 0.2068,0.3674 0,0 0,0 0,0 0.1066,0.3297 0.228,0.824 0.3624,1.4793 0,0 0,0 0,0 0.2639,1.286 0.5784,3.1928 0.9288,5.6944 0,0 0,0 0,0 0.6713,4.7928 1.4777,11.772 2.2903,20.7575 0,0 0,0 0,0 0.7261,8.0288 1.4659,17.662 2.07,28.7734 0.6041,11.1114 1.0734,23.7012 1.1918,37.6356 0,0 0,0 0,0 0.1011,11.8771 -0.052,24.7399 -0.7685,38.485 0,0 0,0 0,0 -0.6136,11.7963 -1.6262,24.2671 -3.54,37.2718 -1.5476,10.5523 -3.6691,21.5415 -7.2561,32.6059 0,0 0,0 0,0 -2.6707,8.3455 -6.28,16.9989 -12.244,24.6636 0,0 0,0 0,0 -2.8184,3.5744 -5.9643,6.8382 -9.224,9.9105 0,0 0,0 0,0 -3.909,3.6918 -8.0433,7.1812 -12.2988,10.5474 0,0 0,0 0,0 -10.042,7.9449 -20.8564,15.3531 -32.0892,22.5323 -24.9744,15.9672 -52.2728,31.008 -81.1366,45.3949 0,0 0,0 0,0 -13.4347,6.6981 -27.2415,13.2454 -41.4202,19.5297 0,0 0,0 0,0 -11.989,5.3147 -24.2634,10.469 -36.8922,15.1852 0,0 0,0 0,0 -9.219,3.4503 -18.7281,6.789 -28.7024,9.1983 -0.9646,0.2354 -1.9459,0.4632 -2.9442,0.6758 -2.3957,0.5103 -4.8821,0.9314 -7.4621,1.1598 -1.3189,0.1203 -2.7523,0.1697 -4.2866,0.073 -1.1203,-0.043 -2.4746,-0.2736 -3.9976,-0.8121 -13.018,-4.9633 -25.7794,-10.1664 -38.307,-15.4715 -22.5253,-9.5377 -44.3375,-19.4958 -65.2016,-29.9551 -11.9747,-5.9995 -23.681,-12.1515 -34.9748,-18.583 -11.2938,-6.4316 -22.1749,-13.1429 -32.5289,-20.221 -9.5584,-6.5309 -18.7082,-13.4441 -27.0198,-21.0465 -7.0149,-6.3851 -13.5757,-13.4268 -18.5497,-21.5347 -5.2603,-8.7108 -8.2372,-18.0722 -10.4358,-27.0523 -2.9743,-11.9936 -4.6222,-23.7805 -5.7656,-35.0936 -1.4091,-13.8949 -2.0167,-27.1827 -2.2756,-39.7483 -0.3013,-14.5812 -0.1129,-28.2167 0.2864,-40.8054 0.4664,-14.6987 1.2204,-27.9799 2.0641,-39.7018 0.8437,-11.7219 1.7777,-21.8847 2.6622,-30.3513 2.2767,-19.3625 3.7995,-29.8895 4.3938,-29.836 z"
         style="fill:#000000;fill-rule:evenodd;stroke:none;display:inline" />
      <path
         sodipodi:nodetypes="cccsc"
         inkscape:connector-curvature="0"
         inkscape:original-d="m 8165.4333,4007.9249 c 0,0 18.8182,-23.114 34.6961,-27.2535 15.8785,-4.1394 38.3273,57.8382 21.5223,76.7189 -16.8056,18.8805 -34.5581,59.0983 -33.7408,79.9755 0.8173,20.8772 -27.3991,24.2786 -27.3991,24.2786"
         inkscape:path-effect="#path-effect3189-8-4-9-6-1-2-4"
         id="path3187-7-6-0-3-8-1-76"
         d="m 8165.4333,4007.9249 c -0.024,-0.02 -0.044,-0.046 -0.059,-0.078 0,0 0,0 0,0 -0.014,-0.031 -0.023,-0.067 -0.028,-0.1087 -0.01,-0.083 -0,-0.1865 0.025,-0.3111 0,0 0,0 0,0 0,0 0,0 0,0 0.052,-0.2451 0.1746,-0.5709 0.3664,-0.972 0,0 0,0 0,0 0.369,-0.7719 0.9972,-1.8264 1.8866,-3.1256 0,0 0,0 0,0 1.6161,-2.3611 4.0908,-5.5523 7.5424,-9.2653 0,0 0,0 0,0 2.8818,-3.1039 6.4531,-6.6146 11.0172,-10.0567 0,0 0,0 0,0 1.7303,-1.322 3.6453,-2.6511 5.7938,-3.863 2.1485,-1.2119 4.5306,-2.3068 7.2026,-3.1114 0,0 0,0 0,0 1.6093,-0.4361 3.2624,-0.4861 4.8349,-0.1561 0,0 0,0 0,0 1.6601,0.3597 3.1476,0.9926 4.4134,1.7829 0,0 0,0 0,0 3.0633,1.909 5.5312,4.4635 7.5079,7.102 0,0 0,0 0,0 2.4694,3.2076 4.5873,6.7585 6.4327,10.4672 0,0 0,0 0,0 2.0047,4.0113 3.754,8.2867 5.2371,12.7556 0,0 0,0 0,0 2.8334,8.4617 4.888,17.8659 4.9504,27.8774 0,0 0,0 0,0 0.035,4.165 -0.3544,8.5509 -1.542,12.9685 -0.7308,2.8122 -1.9161,5.6704 -3.6918,8.337 -0.5835,0.8763 -1.2283,1.7279 -1.9375,2.5467 -4.5909,5.13 -8.446,10.8817 -11.9857,16.7143 -4.2378,7.0079 -7.8533,14.0923 -10.9559,21.031 -3.2859,7.3636 -5.9737,14.4984 -7.9214,21.3055 0,0 0,0 0,0 0,0 0,0 0,0 0,0 0,0 0,0 -0.8885,3.1674 -1.6632,6.2111 -2.1961,9.1227 -0.533,2.9117 -0.8244,5.6914 -0.8123,8.3372 0,0 0,0 0,0 0.025,2.8788 -0.4901,5.6223 -1.3956,8.09 -0.9054,2.4676 -2.2007,4.6599 -3.747,6.5054 0,0 0,0 0,0 -1.7082,1.9813 -3.5713,3.5161 -5.4187,4.7382 -1.8474,1.222 -3.68,2.1312 -5.3956,2.8323 0,0 0,0 0,0 -4.2224,1.7462 -7.7812,2.3959 -10.3255,2.6578 0,0 0,0 0,0 0,0 0,0 0,0 -1.4508,0.1502 -2.5898,0.1603 -3.3819,0.086 0,0 0,0 0,0 -0.4179,-0.039 -0.7416,-0.1021 -0.9651,-0.1832 0,0 0,0 0,0 0,0 0,0 0,0 -0.1155,-0.041 -0.2046,-0.088 -0.2667,-0.138 0,0 0,0 0,0 -0.038,-0.084 -0.065,-0.1264 -0.082,-0.1476 -0.017,-0.021 -0.024,-0.021 -0.025,-0.021 0,0 0,0 0,0 0,0 0,0 0,0 7e-4,-2e-4 0.01,-0 0.019,-0.027 0.011,-0.025 0.026,-0.072 0.042,-0.1637 0,0 0,0 0,0 0.046,-0.065 0.1157,-0.1327 0.21,-0.2046 0,0 0,0 0,0 0,0 0,0 0,0 0.1857,-0.1407 0.4636,-0.2963 0.8311,-0.4721 0,0 0,0 0,0 0.6964,-0.3333 1.7076,-0.7368 2.9974,-1.2589 0,0 0,0 0,0 0,0 0,0 0,0 2.2629,-0.9176 5.4039,-2.1586 8.8912,-4.253 0,0 0,0 0,0 1.4051,-0.8535 2.868,-1.8436 4.267,-3.0186 1.3991,-1.1751 2.7352,-2.5349 3.8166,-4.1444 0,0 0,0 0,0 0.9706,-1.3944 1.7323,-3.0331 2.2112,-4.8366 0.4789,-1.8034 0.675,-3.7722 0.5099,-5.7588 0,0 0,0 0,0 -0.2151,-3.1587 -0.1037,-6.429 0.2787,-9.7553 0.3825,-3.3263 1.0364,-6.7086 1.8407,-10.0821 0,0 0,0 0,0 0,0 0,0 0,0 0,0 0,0 0,0 1.7235,-7.378 4.2634,-15.0689 7.4744,-22.8703 3.026,-7.3662 6.6689,-14.9118 11.0486,-22.3959 3.6181,-6.2047 7.7922,-12.4943 12.9678,-18.3367 0.3965,-0.4234 0.761,-0.8948 1.0974,-1.4064 1.0236,-1.5568 1.7743,-3.4646 2.376,-5.4841 0.9244,-3.2408 1.2299,-6.7519 1.2747,-10.3267 0,0 0,0 0,0 0.086,-8.6566 -1.6233,-17.1321 -3.9787,-25.0371 -1.2445,-4.1348 -2.6955,-8.0672 -4.3605,-11.7444 0,0 0,0 0,0 -1.5543,-3.4141 -3.2279,-6.5632 -5.155,-9.3149 0,0 0,0 0,0 -1.6479,-2.2744 -3.2127,-4.2305 -4.9959,-5.4025 0,0 0,0 0,0 -0.6902,-0.4532 -1.3054,-0.8073 -1.8463,-0.9404 0,0 0,0 0,0 -0.4528,-0.1234 -0.9048,-0.1739 -1.2512,-0.1001 0,0 0,0 0,0 -2.0296,0.4212 -3.9774,1.1658 -5.8483,2.0548 -1.8708,0.889 -3.6646,1.9227 -5.3814,2.971 0,0 0,0 0,0 -4.4406,2.7494 -8.171,5.6915 -11.3388,8.2801 0,0 0,0 0,0 -3.7842,3.0957 -6.7215,5.7162 -8.8706,7.5298 0,0 0,0 0,0 -1.1825,0.9979 -2.1216,1.7533 -2.8184,2.2317 0,0 0,0 0,0 -0.3622,0.2487 -0.6582,0.4219 -0.8882,0.5158 0,0 0,0 0,0 0,0 0,0 0,0 -0.1171,0.048 -0.2169,0.075 -0.2994,0.081 -0.042,0 -0.079,7e-4 -0.1117,-0.01 0,0 0,0 0,0 -0.034,-0.01 -0.063,-0.022 -0.088,-0.042 z"
         style="fill:#000000;fill-rule:evenodd;stroke:none;display:inline" />
      <path
         sodipodi:nodetypes="ccccc"
         inkscape:connector-curvature="0"
         inkscape:original-d="m 7645.1567,4017.8003 c 0,0 -17.467,-25.8151 -33.3454,-29.9547 -15.8784,-4.1393 -31.5735,51.085 -14.7685,69.9658 16.8056,18.8804 34.5575,59.0981 33.7407,79.9754 -0.8179,20.8772 27.3986,24.2785 27.3986,24.2785"
         inkscape:path-effect="#path-effect3189-8-4-9-6-1-2-6-5"
         id="path3187-7-6-0-3-8-1-6-8"
         d="m 7645.1567,4017.8003 c -0.7139,0.57 -5.287,-3.7847 -12.6353,-11.809 -3.0073,-2.869 -6.5467,-6.114 -10.8354,-9.1086 -1.6535,-1.1376 -3.3827,-2.2584 -5.1884,-3.2079 -1.8058,-0.9495 -3.6879,-1.7279 -5.6525,-2.1231 -0.7058,-0.2404 -1.8152,0.1745 -2.8466,0.7837 -1.4591,0.8892 -2.7397,2.5351 -4.0975,4.4756 -1.6907,2.5082 -3.089,5.3539 -4.2604,8.466 -1.1715,3.112 -2.1164,6.4905 -2.9435,10.0204 -1.614,7.202 -2.4759,14.8965 -1.7607,22.6277 0.3152,3.3419 0.89,6.6226 1.9714,9.6562 0.9552,2.6245 2.1803,5.0659 3.8697,6.9059 0.2343,0.2639 0.4669,0.5292 0.6979,0.7959 4.8572,5.6079 8.8252,11.6058 12.2861,17.5313 4.3823,7.4765 8.031,15.0217 11.0625,22.3926 0,0 0,0 0,0 3.2128,7.7965 5.7563,15.4892 7.4823,22.8734 0,0 0,0 0,0 0,0 0,0 0,0 0,0 0,0 0,0 0.8047,3.3727 1.4591,6.7557 1.8419,10.084 0.3829,3.3284 0.4944,6.6021 0.2789,9.765 0,0 0,0 0,0 -0.1652,1.9811 0.029,3.9451 0.5061,5.7446 0.4768,1.7995 1.2358,3.4351 2.2035,4.8269 0,0 0,0 0,0 1.0776,1.6066 2.4104,2.9649 3.8068,4.1395 1.3964,1.1745 2.8573,2.1651 4.2609,3.0196 0,0 0,0 0,0 3.4818,2.0953 6.6205,3.3403 8.8822,4.2623 0,0 0,0 0,0 0,0 0,0 0,0 1.2885,0.5244 2.299,0.9306 2.9948,1.2666 0,0 0,0 0,0 0.3672,0.1773 0.6449,0.3343 0.8303,0.4765 0,0 0,0 0,0 0,0 0,0 0,0 0.094,0.073 0.1641,0.1415 0.2096,0.207 0,0 0,0 0,0 0.016,0.092 0.031,0.1407 0.042,0.1658 0.011,0.025 0.018,0.027 0.019,0.027 0,0 0,0 0,0 0,0 0,0 0,0 -8e-4,0 -0.01,3e-4 -0.025,0.022 -0.017,0.022 -0.043,0.064 -0.082,0.1497 0,0 0,0 0,0 -0.062,0.051 -0.1515,0.098 -0.2671,0.1404 0,0 0,0 0,0 0,0 0,0 0,0 -0.2238,0.083 -0.5478,0.1469 -0.966,0.1876 0,0 0,0 0,0 -0.7928,0.077 -1.9328,0.069 -3.3844,-0.078 0,0 -1e-4,0 -1e-4,0 0,0 0,0 0,0 -2.5469,-0.2577 -6.109,-0.9043 -10.3343,-2.6483 0,0 0,0 0,0 -1.718,-0.7005 -3.5532,-1.6097 -5.4032,-2.8324 -1.8499,-1.2226 -3.7156,-2.7588 -5.4267,-4.742 0,0 0,0 0,0 -1.55,-1.8491 -2.848,-4.0454 -3.7552,-6.5171 -0.9073,-2.4717 -1.4236,-5.2194 -1.3983,-8.1021 0,0 0,0 0,0 0.012,-2.6442 -0.2802,-5.422 -0.813,-8.3317 -0.5329,-2.9098 -1.3071,-5.9515 -2.1944,-9.1167 0,0 0,0 0,0 0,0 0,0 0,0 0,0 0,0 0,0 -1.9472,-6.8089 -4.6333,-13.9431 -7.9134,-21.3023 -3.101,-6.9434 -6.7126,-14.029 -10.9416,-21.0342 -3.377,-5.5739 -7.0398,-11.0703 -11.3509,-16.0222 -0.2051,-0.2355 -0.4112,-0.4694 -0.6185,-0.7015 -2.7547,-3.153 -4.6205,-6.7216 -5.8134,-10.2881 -1.3821,-4.0661 -2.0864,-8.1603 -2.3754,-12.1089 -0.6759,-9.0566 0.4652,-17.7483 2.5252,-25.6441 0.9642,-3.8317 2.1781,-7.6074 3.7171,-11.1763 1.5389,-3.5688 3.4029,-6.9307 5.621,-9.9764 1.7197,-2.4321 3.9899,-4.7783 6.8761,-6.499 2.5656,-1.5513 5.7606,-2.0702 8.9188,-1.3033 2.7385,0.8309 5.1439,2.0047 7.2835,3.3158 2.1397,1.311 4.0136,2.7595 5.681,4.1972 4.4889,3.8122 7.8861,7.6833 10.593,11.0844 6.2938,9.0609 9.5356,14.4933 8.8217,15.0634 z"
         style="fill:#000000;fill-rule:evenodd;stroke:none;display:inline" />
      <path
         sodipodi:nodetypes="csscc"
         transform="translate(-2638.4032,-217.0045)"
         inkscape:connector-curvature="0"
         inkscape:original-d="m 10283.827,4239.9818 c 0,0 -21.611,-198.5451 5.402,-239.0645 27.013,-40.5194 43.221,-149.9218 194.493,-155.3244 151.273,-5.4026 283.636,47.2727 305.246,133.7141 21.611,86.4414 5.404,268.7787 5.404,268.7787"
         inkscape:path-effect="#path-effect4302"
         id="path4300"
         d="m 10283.826,4239.9723 c -0.02,0 -0.04,-0.01 -0.06,-0.021 -0.02,-0.022 -0.05,-0.057 -0.07,-0.1026 0,0 0,0 0,0 0,0 0,0 0,0 0,0 0,0 0,0 -0.05,-0.092 -0.1,-0.2308 -0.158,-0.4164 0,0 0,0 0,0 -0.113,-0.3677 -0.246,-0.9188 -0.395,-1.6492 0,0 0,0 0,0 -0.293,-1.4318 -0.652,-3.5535 -1.065,-6.3361 0,0 0,0 0,0 -0.788,-5.317 -1.775,-13.0491 -2.856,-22.9979 0,0 0,0 0,0 -0.958,-8.8145 -1.997,-19.3705 -2.998,-31.5339 -1.001,-12.1634 -1.965,-25.9342 -2.719,-41.1773 0,0 0,0 0,0 -0.632,-12.7841 -1.118,-26.6105 -1.204,-41.3958 0,0 0,0 0,0 -0.07,-12.4144 0.114,-25.5253 1.004,-39.2514 0,0 0,0 0,0 0.685,-10.6451 1.741,-21.751 4.085,-33.095 0,0 0,0 0,0 0.89,-4.3135 1.997,-8.7054 3.539,-13.0813 0,0 0,0 0,0 1.192,-3.4246 2.719,-6.9316 4.894,-10.2667 0,0 0,0 0,0 3.549,-5.3783 6.527,-11.387 9.519,-17.6494 0,0 0,0 0,0 3.475,-7.2988 6.845,-14.876 10.479,-22.5623 0,0 0,0 0,0 8.139,-17.2502 17.621,-34.9337 30.455,-51.2163 0,0 0,0 0,0 14.321,-18.1328 32.912,-33.9837 54.875,-45.0822 0,0 0,0 0,0 13.903,-6.9895 28.851,-12.1071 44.409,-15.5954 15.558,-3.4882 31.725,-5.3475 47.983,-5.9195 19.38,-0.7112 39.099,-0.5073 58.99,0.7935 17.078,1.1167 33.932,3.0207 50.461,5.7188 16.486,2.6868 32.681,6.1658 48.387,10.5427 15.705,4.3768 30.921,9.6518 45.479,15.887 0,0 0,0 0,0 13.081,5.5893 25.692,12.0039 37.432,19.3598 11.741,7.356 22.611,15.6534 32.298,24.9521 0,0 0,0 0,0 8.927,8.5801 16.762,18.0712 23.029,28.3219 6.187,10.1257 10.761,20.9839 13.478,32.0762 0,0 0,0 0,0 3.06,12.5399 4.927,24.9182 6.315,36.9049 0,0 0,0 0,0 1.7,14.6582 2.651,28.823 3.249,42.3899 0,0 0,0 0,0 0.733,16.6384 0.941,32.406 0.868,47.2035 -0.07,14.7975 -0.427,28.625 -0.894,41.3923 0,0 0,0 0,0 0,0 0,0 0,0 -1.111,30.4226 -2.905,54.8591 -4.465,72.1674 0,0 0,0 0,0 -0.853,9.456 -1.65,16.7869 -2.303,21.8052 0,0 0,0 0,0 -0.338,2.5978 -0.638,4.5764 -0.889,5.9096 0,0 0,0 0,0 -0.128,0.677 -0.243,1.1877 -0.344,1.5286 0,0 0,0 0,0 -0.05,0.1717 -0.1,0.3004 -0.142,0.3855 0,0 0,0 0,0 0,0 0,0 0,0 -0.05,0.041 -0.07,0.072 -0.09,0.093 0,0 0,0 0,0 -0.01,0.01 -0.02,0.018 -0.03,0.023 -0,0.01 -0,0.01 -0,0.01 0,0 0,0 -0,-3e-4 -0,-0.015 -0,-0.024 -0.02,-0.036 0,0 0,0 0,0 -0.01,-0.024 -0.03,-0.059 -0.07,-0.1071 0,0 0,0 0,0 0,0 0,0 0,0 -0.03,-0.091 -0.05,-0.2261 -0.07,-0.4038 0,0 0,0 0,0 -0.04,-0.3528 -0.07,-0.8749 -0.08,-1.5629 0,0 0,0 0,0 -0.03,-1.355 -0,-3.353 0.07,-5.9686 0,0 0,0 0,0 0.131,-5.0528 0.419,-12.4081 0.778,-21.8798 0,0 0,0 0,0 0.659,-17.3372 1.606,-41.7614 1.949,-72.099 0,0 0,0 0,0 0,0 0,0 0,0 0.144,-12.7342 0.189,-26.5088 -0.03,-41.2226 -0.219,-14.7138 -0.7,-30.3669 -1.687,-46.8483 0,0 0,0 0,0 -0.806,-13.4371 -1.942,-27.4114 -3.801,-41.7952 0,0 0,0 0,0 -1.525,-11.7759 -3.479,-23.8068 -6.558,-35.8223 0,0 0,0 0,0 -2.598,-10.1675 -6.938,-20.1541 -12.754,-29.4943 -5.896,-9.4736 -13.326,-18.2942 -21.816,-26.3477 0,0 0,0 0,0 -9.225,-8.7615 -19.642,-16.5873 -30.955,-23.5587 -11.314,-6.9714 -23.522,-13.0886 -36.237,-18.4864 0,0 0,0 0,0 -14.157,-5.9956 -28.984,-11.0673 -44.322,-15.2846 -15.338,-4.2174 -31.187,-7.5806 -47.357,-10.2012 -16.208,-2.6226 -32.744,-4.4771 -49.515,-5.5722 -19.533,-1.2757 -38.915,-1.493 -57.982,-0.8311 -15.752,0.5712 -31.323,2.3101 -46.213,5.5716 -14.89,3.2615 -29.098,8.0462 -42.213,14.6148 0,0 0,0 0,0 -20.673,10.2971 -38.319,25.1609 -51.994,42.2033 0,0 0,0 0,0 -12.318,15.3181 -21.616,32.3692 -29.818,49.238 0,0 0,0 0,0 -3.652,7.5274 -7.109,15.0831 -10.73,22.4734 0,0 0,0 0,0 -3.085,6.3169 -6.334,12.6316 -10.298,18.5226 0,0 0,0 0,0 -1.71,2.4918 -2.989,5.4025 -4.129,8.4559 0,0 0,0 0,0 -1.435,3.8849 -2.503,7.9226 -3.412,12.0031 0,0 0,0 0,0 -2.391,10.751 -3.565,21.5083 -4.42,31.9817 0,0 0,0 0,0 -1.094,13.471 -1.507,26.4223 -1.677,38.7402 0,0 0,0 0,0 -0.201,14.6639 -0.02,28.416 0.293,41.1556 0,0 0,0 0,0 0.374,15.1911 0.939,28.9362 1.525,41.092 0.586,12.1557 1.193,22.7222 1.706,31.5586 0,0 0,0 0,0 0.579,9.9728 1.046,17.7399 1.301,23.1025 0,0 0,0 0,0 0.133,2.8064 0.209,4.9537 0.216,6.4137 0,0 0,0 0,0 0,0.7448 -0.01,1.3105 -0.05,1.6936 0,0 0,0 0,0 -0.02,0.1934 -0.04,0.3402 -0.07,0.44 0,0 0,0 0,0 0,0 0,0 0,0 0,0 0,0 0,0 -0.01,0.05 -0.03,0.088 -0.05,0.1146 -0.02,0.02 -0.03,0.032 -0.05,0.034 z"
         style="fill:#000000;fill-rule:evenodd;stroke:none" />
    </g>
  </g>
</svg>
