<?xml version="1.0" encoding="UTF-8" standalone="no"?>
<!-- Created with Inkscape (http://www.inkscape.org/) -->

<svg
   xmlns:dc="http://purl.org/dc/elements/1.1/"
   xmlns:cc="http://creativecommons.org/ns#"
   xmlns:rdf="http://www.w3.org/1999/02/22-rdf-syntax-ns#"
   xmlns:svg="http://www.w3.org/2000/svg"
   xmlns="http://www.w3.org/2000/svg"
   xmlns:sodipodi="http://sodipodi.sourceforge.net/DTD/sodipodi-0.dtd"
   xmlns:inkscape="http://www.inkscape.org/namespaces/inkscape"
   width="68.291458mm"
   height="79.673355mm"
   viewBox="0 0 241.9776 282.30715"
   id="svg8346"
   version="1.1"
   inkscape:version="0.91 r13725"
   sodipodi:docname="cara-PIX6.svg">
  <defs
     id="defs8348" />
  <sodipodi:namedview
     id="base"
     pagecolor="#ffffff"
     bordercolor="#666666"
     borderopacity="1.0"
     inkscape:pageopacity="0.0"
     inkscape:pageshadow="2"
     inkscape:zoom="2.0513852"
     inkscape:cx="152.85015"
     inkscape:cy="138.19328"
     inkscape:document-units="px"
     inkscape:current-layer="layer1"
     showgrid="false"
     fit-margin-top="0"
     fit-margin-left="0"
     fit-margin-right="0"
     fit-margin-bottom="0"
     inkscape:window-width="1914"
     inkscape:window-height="1030"
     inkscape:window-x="0"
     inkscape:window-y="26"
     inkscape:window-maximized="1" />
  <metadata
     id="metadata8351">
    <rdf:RDF>
      <cc:Work
         rdf:about="">
        <dc:format>image/svg+xml</dc:format>
        <dc:type
           rdf:resource="http://purl.org/dc/dcmitype/StillImage" />
        <dc:title></dc:title>
      </cc:Work>
    </rdf:RDF>
  </metadata>
  <g
     inkscape:label="Capa 1"
     inkscape:groupmode="layer"
     id="layer1"
     transform="translate(-295.23653,-331.53846)">
    <path
       style="opacity:1;fill:#deaa87;fill-opacity:1;stroke:none;stroke-width:0.97100002;stroke-linecap:round;stroke-linejoin:round;stroke-miterlimit:4;stroke-dasharray:none;stroke-opacity:1"
       d="M 94.101562 0 L 94.101562 13.443359 L 80.660156 13.443359 L 67.216797 13.443359 L 67.216797 26.886719 L 53.773438 26.886719 L 40.330078 26.886719 L 40.330078 40.330078 L 26.886719 40.330078 L 26.886719 94.101562 L 13.443359 94.101562 L 0 94.101562 L 0 107.54492 L 0 120.98828 L 0 134.43164 L 0 147.875 L 13.443359 147.875 L 13.443359 161.31836 L 26.886719 161.31836 L 26.886719 241.97852 L 40.330078 241.97852 L 40.330078 255.41992 L 53.773438 255.41992 L 67.216797 255.41992 L 67.216797 268.86328 L 80.660156 268.86328 L 80.660156 282.30664 L 94.101562 282.30664 L 107.54492 282.30664 L 120.98828 282.30664 L 134.43164 282.30664 L 147.875 282.30664 L 161.31836 282.30664 L 174.76172 282.30664 L 174.76172 268.86328 L 188.20508 268.86328 L 188.20508 255.41992 L 201.64844 255.41992 L 201.64844 241.97852 L 215.0918 241.97852 L 215.0918 174.76172 L 228.53516 174.76172 L 228.53516 161.31836 L 241.97852 161.31836 L 241.97852 147.875 L 241.97852 134.43164 L 241.97852 120.98828 L 241.97852 107.54492 L 241.97852 94.101562 L 228.53516 94.101562 L 228.53516 80.660156 L 215.0918 80.660156 L 215.0918 80.658203 L 228.53516 80.658203 L 228.53516 67.216797 L 215.0918 67.216797 L 215.0918 40.330078 L 201.64844 40.330078 L 201.64844 26.886719 L 188.20508 26.886719 L 174.76172 26.886719 L 174.76172 13.443359 L 161.31836 13.443359 L 147.875 13.443359 L 147.875 0 L 134.43164 0 L 120.98828 0 L 107.54492 0 L 94.101562 0 z "
       transform="translate(295.23653,331.53846)"
       id="rect5901" />
    <path
       style="opacity:1;fill:#c27845;fill-opacity:1;stroke:none;stroke-width:0.97100002;stroke-linecap:round;stroke-linejoin:round;stroke-miterlimit:4;stroke-dasharray:none;stroke-opacity:1"
       d="M 147.875 13.443359 L 147.875 26.886719 L 161.31836 26.886719 L 161.31836 40.330078 L 174.76172 40.330078 L 188.20508 40.330078 L 188.20508 53.773438 L 188.20508 67.216797 L 201.64844 67.216797 L 201.64844 80.658203 L 215.0918 80.658203 L 228.53516 80.658203 L 228.53516 67.216797 L 215.0918 67.216797 L 215.0918 53.773438 L 215.0918 40.330078 L 201.64844 40.330078 L 201.64844 26.886719 L 188.20508 26.886719 L 174.76172 26.886719 L 174.76172 13.443359 L 161.31836 13.443359 L 147.875 13.443359 z M 215.0918 80.660156 L 215.0918 94.101562 L 215.0918 107.54492 L 228.53516 107.54492 L 228.53516 120.98828 L 228.53516 134.43164 L 228.53516 147.875 L 228.53516 161.31836 L 241.97852 161.31836 L 241.97852 147.875 L 241.97852 134.43164 L 241.97852 120.98828 L 241.97852 107.54492 L 241.97852 94.101562 L 228.53516 94.101562 L 228.53516 80.660156 L 215.0918 80.660156 z M 228.53516 161.31836 L 215.0918 161.31836 L 215.0918 174.76172 L 228.53516 174.76172 L 228.53516 161.31836 z M 215.0918 174.76172 L 201.64844 174.76172 L 201.64844 188.20508 L 201.64844 201.64844 L 188.20508 201.64844 L 188.20508 215.0918 L 188.20508 228.53516 L 174.76172 228.53516 L 174.76172 241.97852 L 161.31836 241.97852 L 161.31836 255.41992 L 147.875 255.41992 L 147.875 268.86328 L 134.43164 268.86328 L 120.98828 268.86328 L 120.98828 282.30664 L 134.43164 282.30664 L 147.875 282.30664 L 161.31836 282.30664 L 174.76172 282.30664 L 174.76172 268.86328 L 188.20508 268.86328 L 188.20508 255.41992 L 201.64844 255.41992 L 201.64844 241.97852 L 215.0918 241.97852 L 215.0918 228.53516 L 215.0918 215.0918 L 215.0918 201.64844 L 215.0918 188.20508 L 215.0918 174.76172 z M 13.443359 147.875 L 13.443359 161.31836 L 26.886719 161.31836 L 26.886719 147.875 L 13.443359 147.875 z M 26.886719 161.31836 L 26.886719 174.76172 L 26.886719 188.20508 L 26.886719 201.64844 L 26.886719 215.0918 L 40.330078 215.0918 L 40.330078 201.64844 L 40.330078 188.20508 L 40.330078 174.76172 L 40.330078 161.31836 L 26.886719 161.31836 z "
       transform="translate(295.23653,331.53846)"
       id="rect5713-0-7-1-8-08-36-0" />
  </g>
</svg>
