<?xml version="1.0" encoding="UTF-8" standalone="no"?>
<!-- Created with Inkscape (http://www.inkscape.org/) -->

<svg
   xmlns:dc="http://purl.org/dc/elements/1.1/"
   xmlns:cc="http://creativecommons.org/ns#"
   xmlns:rdf="http://www.w3.org/1999/02/22-rdf-syntax-ns#"
   xmlns:svg="http://www.w3.org/2000/svg"
   xmlns="http://www.w3.org/2000/svg"
   xmlns:sodipodi="http://sodipodi.sourceforge.net/DTD/sodipodi-0.dtd"
   xmlns:inkscape="http://www.inkscape.org/namespaces/inkscape"
   width="116.71633"
   height="55.858616"
   id="svg3251"
   version="1.1"
   inkscape:version="0.48.3.1 r9886"
   sodipodi:docname="Documento nuevo 3">
  <defs
     id="defs3253" />
  <sodipodi:namedview
     id="base"
     pagecolor="#ffffff"
     bordercolor="#666666"
     borderopacity="1.0"
     inkscape:pageopacity="0.0"
     inkscape:pageshadow="2"
     inkscape:zoom="0.35"
     inkscape:cx="28.358163"
     inkscape:cy="67.929304"
     inkscape:document-units="px"
     inkscape:current-layer="layer1"
     showgrid="false"
     fit-margin-top="0"
     fit-margin-left="0"
     fit-margin-right="0"
     fit-margin-bottom="0"
     inkscape:window-width="560"
     inkscape:window-height="451"
     inkscape:window-x="599"
     inkscape:window-y="126"
     inkscape:window-maximized="0" />
  <metadata
     id="metadata3256">
    <rdf:RDF>
      <cc:Work
         rdf:about="">
        <dc:format>image/svg+xml</dc:format>
        <dc:type
           rdf:resource="http://purl.org/dc/dcmitype/StillImage" />
        <dc:title></dc:title>
      </cc:Work>
    </rdf:RDF>
  </metadata>
  <g
     inkscape:label="Capa 1"
     inkscape:groupmode="layer"
     id="layer1"
     transform="translate(-321.64184,-544.43287)">
    <g
       style="opacity:0.9;display:inline"
       id="g5884"
       transform="matrix(0.34714062,0,0,0.34714062,207.28193,608.74948)">
      <path
         sodipodi:nodetypes="cccccscc"
         inkscape:connector-curvature="0"
         id="path4859-9-1"
         d="m 336.97576,-98.421514 53.5381,-15.932396 46.04847,1.9372 18.4279,3.9709 -11.9485,38.474796 c 0,0 -30.30457,30.7265 -43.43657,31.8646 -13.1319,1.138 -54.5482,-23.8984 -54.5482,-23.8984 l -13.132,-33.0027"
         style="fill:#ffffff;stroke:none;display:inline" />
      <path
         sodipodi:nodetypes="cccccscc"
         inkscape:connector-curvature="0"
         id="path4859-2-0-7"
         d="m 656.83253,-99.471714 -53.5381,-17.424196 -34.62,6.1795 -26.9993,-1.1039 9.0914,43.462996 c 0,0 30.3046,33.6036 43.4366,34.8482 13.1319,1.2445 54.5482,-26.1361 54.5482,-26.1361 l 13.132,-36.0929"
         style="fill:#ffffff;stroke:none;display:inline" />
      <path
         inkscape:connector-curvature="0"
         id="path2991-7"
         d="m 440.3128,-86.840843 c 0,19.832835 -16.07769,35.91053 -35.91053,35.91053 -19.83283,0 -35.91053,-16.077695 -35.91053,-35.91053 0,-19.832837 16.0777,-35.910527 35.91053,-35.910527 19.83284,0 35.91053,16.07769 35.91053,35.910527 z"
         style="fill:#000000;fill-opacity:1;stroke:none;display:inline" />
      <path
         sodipodi:nodetypes="csszc"
         inkscape:connector-curvature="0"
         id="path3124-7"
         d="m 456.95003,-111.77531 c 0,0 -42.95186,-5.633 -64.07562,-8.4495 -21.12388,-2.8165 -62.23699,25.201296 -59.85085,12.6743 5.63297,-29.5734 6.03645,-31.1413 13.96166,-50.214 7.9252,-19.0727 46.67869,-39.9425 76.77941,-14.0325"
         style="fill:#e8afaf;fill-opacity:0.4;fill-rule:evenodd;stroke:none;display:inline" />
      <path
         inkscape:connector-curvature="0"
         id="path2991-9-3"
         d="m 632.37791,-80.818862 c 0,19.330633 -15.67057,35.001212 -35.00121,35.001212 -19.33063,0 -35.00121,-15.670579 -35.00121,-35.001212 0,-19.330638 15.67058,-35.001208 35.00121,-35.001208 19.33064,0 35.00121,15.67057 35.00121,35.001208 z"
         style="fill:#000000;fill-opacity:1;stroke:none;display:inline" />
      <path
         sodipodi:nodetypes="ccscsc"
         inkscape:connector-curvature="0"
         id="path3128-9"
         d="m 541.41633,-112.01411 c 0,0 17.8437,0 49.4135,0 31.5697,0 65.8845,21.961496 65.8845,21.961496 0,0 2.7452,-1.3726 2.7452,-32.942296 0,0 -25.037,-46.1062 -46.5504,-48.707 -34.0621,-4.1178 -62.0512,16.3736 -62.0512,16.3736"
         style="fill:#e8afaf;fill-opacity:0.4;fill-rule:evenodd;stroke:none;display:inline" />
      <path
         inkscape:connector-curvature="0"
         id="path3124"
         d="m 458.47291,-109.77042 c -0.23541,1.78518 -26.08251,-0.0303 -64.6357,-4.22626 -2.28037,-0.26397 -4.80721,-0.0195 -7.51406,0.42026 -2.97479,0.50481 -6.03522,1.33547 -9.19883,2.33316 -6.30548,1.99274 -12.79157,4.69578 -19.64757,7.52061 -2.8654,1.18416 -5.81976,2.40796 -8.90538,3.56451 -2.28699,0.869855 -4.80107,1.760664 -7.61277,2.385525 -0.98168,0.228972 -2.15359,0.409851 -3.51358,0.450049 -10e-6,0 -10e-6,0 -2e-5,0 -0.94319,0.104982 -2.30299,-0.100216 -3.99154,-0.768293 -1.6,-0.749098 -2.82474,-2.064591 -3.55315,-3.863421 0,-2e-5 -10e-6,-3e-5 -10e-6,-4e-5 -0.55574,-1.99553 -0.57775,-3.54077 -0.26074,-4.52593 0.37045,-1.97007 0.73727,-3.96244 1.11106,-5.97383 1.47248,-7.9235 3.01127,-15.81922 5.17176,-23.45271 2.26127,-7.89791 5.36479,-15.00763 8.24333,-21.65715 2.97018,-6.71532 7.75345,-11.73787 12.67349,-15.49964 10e-6,-1e-5 10e-6,-1e-5 10e-6,-1e-5 6.54245,-5.10743 13.72111,-8.41819 20.62235,-10.28949 4.53884,-1.23911 8.9919,-1.83243 13.16708,-1.91277 4.17518,-0.0803 8.0732,0.35123 11.58643,1.12764 4.34658,0.97562 8.03241,2.46535 11.072,4.04791 3.03959,1.58257 5.43679,3.25936 7.26487,4.75041 1.82808,1.49105 3.09082,2.7979 3.86229,3.75922 0.77146,0.96132 1.05452,1.57792 0.8732,1.78856 -0.18132,0.21064 -0.81998,0.008 -1.89645,-0.51536 -1.07646,-0.52382 -2.5942,-1.36936 -4.57882,-2.36616 -1.98462,-0.99681 -4.44004,-2.14618 -7.38055,-3.18687 -2.94052,-1.04069 -6.36966,-1.97431 -10.23384,-2.42614 -3.13474,-0.37935 -6.55843,-0.45117 -10.18251,-0.0936 -3.62408,0.35758 -7.44946,1.14528 -11.31294,2.44448 -5.90839,1.99846 -11.95227,5.16615 -17.31081,9.71508 0,0 -10e-6,0 -10e-6,10e-6 -4.00845,3.48273 -7.74724,7.5154 -9.54116,12.26538 -2.69466,6.763 -5.54031,13.58963 -7.43739,20.68132 -1.93658,7.13515 -3.35323,14.74186 -4.82564,22.64966 -0.37377,2.00741 -0.74835,4.01316 -1.13413,6.01331 0.0778,0.27048 -0.0451,0.0544 -0.16702,-0.74368 0,-1e-5 -10e-6,-2e-5 -10e-6,-2e-5 -0.39449,-0.87716 -0.89185,-1.43765 -1.60641,-1.77264 -0.57082,-0.14532 -0.66383,-0.24713 -0.37778,-0.1598 0,0 0,0 0,0 0.3597,0.0155 0.88986,-0.0867 1.58118,-0.21464 1.97154,-0.39552 4.04826,-1.13506 6.27587,-1.92696 2.89345,-1.04425 5.77506,-2.19168 8.67533,-3.3313 6.88698,-2.71414 13.74402,-5.3648 20.63803,-7.32917 3.45323,-0.986 6.97285,-1.79797 10.53003,-2.27488 3.20405,-0.44863 6.57743,-0.56967 9.95485,-0.0793 38.31809,5.94095 63.75107,10.88775 63.51566,12.67293 z"
         style="fill:#000000;fill-rule:evenodd;stroke:none;display:inline" />
      <path
         inkscape:connector-curvature="0"
         id="path3128"
         d="m 542.90068,-110.06001 c 0,-1.5047 19.14226,-2.85483 49.41344,-3.77172 0,0 10e-6,0 10e-6,0 3.87492,-0.10521 7.9106,0.0954 12.05299,0.60072 4.14239,0.50535 8.39142,1.31566 12.6822,2.39014 7.16996,1.7856 14.53014,4.29817 21.92285,7.43645 5.21943,2.21294 10.48441,4.738204 15.72724,7.596126 1.4907,0.812385 2.98851,1.657044 4.48655,2.543893 0,2e-6 0,4e-6 10e-6,6e-6 0.40006,0.236841 0.80493,0.479757 1.21369,0.730301 0,2e-6 0,4e-6 0,5e-6 -9e-5,2.4e-5 -1e-4,2.6e-5 -1e-4,2.9e-5 -1.02913,0.342467 -2.05644,0.68728 -3.08205,1.034649 -7e-5,1.7e-5 -8e-5,2.4e-5 -9e-5,3e-5 -0.0832,0.05064 -0.16652,0.101321 -0.24986,0.152065 -0.0289,0.01763 -0.0578,0.03526 -0.0867,0.05289 -0.90537,0.09109 -1.813,0.182753 -2.72257,0.274863 0.20135,-0.438091 0.24642,-1.323517 0.42919,-2.556603 1.0002,-5.527365 1.34125,-11.365674 1.50205,-17.453734 0.0759,-2.87433 0.11324,-5.76188 0.16939,-8.65136 -5.03487,-7.52419 -9.90807,-14.86521 -14.58306,-21.97653 0,0 0,0 0,0 -4.47777,-6.01771 -9.05032,-11.49656 -14.03128,-15.95604 0,0 0,0 0,0 -2.39406,-2.14515 -4.7967,-4.03315 -7.28634,-5.46143 0,0 0,0 0,0 -2.25633,-1.26643 -4.46106,-2.22721 -6.56824,-2.50862 -8.47436,-1.25507 -16.51888,-0.85694 -23.67252,0.22987 -7.15364,1.08681 -13.42156,2.86303 -18.62677,4.63688 0,0 0,0 0,0 -5.86152,2.00696 -10.40598,4.01376 -13.61236,5.41677 0,0 0,0 0,0 -1.69631,0.74239 -3.01265,1.31659 -3.9514,1.66172 0,0 0,0 0,0 -0.48143,0.17702 -0.86171,0.29263 -1.14206,0.34051 0,0 0,0 0,0 -0.14115,0.0237 -0.25674,0.0301 -0.34692,0.0184 0,0 0,0 0,0 0,0 0,0 0,0 0,0 0,0 0,0 -0.0823,-0.0562 -0.13111,-0.0801 -0.15934,-0.0897 -0.0279,-0.01 -0.0358,-0.005 -0.0364,-0.005 0,0 0,0 0,0 0,0 0,0 0,0 0,0 0,0 0,0 -3e-5,1e-5 -2e-5,1e-5 -2e-5,1e-5 0,0 -10e-6,0 2e-5,-2e-5 0,0 0,0 0,0 0,0 0,0 0,0 0,0 0,0 0,0 5.6e-4,-4.6e-4 0.007,-0.007 0.007,-0.0361 -3.3e-4,-0.0298 -0.008,-0.0835 -0.0351,-0.17903 0,0 0,0 0,0 0,0 0,0 0,0 0,0 0,0 0,0 0.0189,-0.0897 0.0657,-0.19863 0.1401,-0.32552 0,0 0,0 0,0 0.14564,-0.24972 0.39905,-0.56974 0.75857,-0.95084 0,0 0,0 0,0 0.7011,-0.74317 1.81251,-1.72466 3.33177,-2.8732 0,0 0,0 0,0 2.87202,-2.1714 7.22372,-4.97656 13.08636,-7.76758 0,0 0,0 0,0 5.21148,-2.48904 11.67093,-4.97769 19.29124,-6.68864 7.6203,-1.71094 16.40903,-2.64249 25.9748,-1.71667 3.52089,0.39898 6.83629,1.5732 9.78035,3.16769 0,0 0,0 0,0 3.2621,1.73595 6.27402,3.89999 9.05375,6.26869 0,0 0,0 0,0 5.83386,4.97581 11.08777,10.92419 15.94844,17.27255 0,0 0,0 0,0 5.12555,7.95352 10.42974,16.25661 15.84934,24.80243 0.0562,3.15029 0.1178,6.36545 0.12623,9.63531 0.0178,6.92582 -0.21602,13.882686 -1.17769,20.73976 -0.24492,1.466715 -0.63587,3.30021 -1.45516,5.371166 -1.20402,0.584751 -2.40581,1.168565 -3.6053,1.751417 -0.0467,0.0066 -0.0931,0.01307 -0.13947,0.01954 -0.1337,0.01875 -0.26741,0.03755 -0.40112,0.05637 -10e-6,2e-6 -3e-5,4e-6 -5e-5,7e-6 -1.22255,0.223237 -2.44723,0.444848 -3.67395,0.664647 -1e-5,10e-7 -1e-5,3e-6 -2e-5,4e-6 -9e-5,2e-5 -9e-5,1.8e-5 -10e-5,1.7e-5 -0.35324,-0.22253 -0.71361,-0.444755 -1.08005,-0.668132 0,-2e-6 -10e-6,-3e-6 -10e-6,-5e-6 -1.37162,-0.836132 -2.76129,-1.645237 -4.16129,-2.436586 -4.92406,-2.782569 -9.8685,-5.276668 -14.77357,-7.50071 -6.94874,-3.146745 -13.77979,-5.731825 -20.40122,-7.653655 -7.93867,-2.29205 -15.51268,-3.65663 -22.4718,-3.86706 0,0 -1e-5,0 -1e-5,0 -30.27118,-0.91688 -49.41344,-2.26702 -49.41344,-3.77171 z"
         style="fill:#000000;fill-rule:evenodd;stroke:none;display:inline" />
      <path
         inkscape:connector-curvature="0"
         id="path4539"
         d="m 344.4373,-59.793903 c 0.82289,-1.494382 9.05809,1.319868 20.91351,6.81882 4.75956,2.01857 10.08766,4.335181 15.84932,6.466937 2.28412,0.84506 4.58943,1.653245 6.92041,2.299688 0.91124,0.243514 1.78639,0.471338 2.62294,0.649655 0.84895,0.18096 1.64606,0.307839 2.39413,0.350252 6.56031,0.458319 12.7717,0.433749 18.1621,-0.230544 5.3904,-0.664292 9.9702,-1.96992 13.66894,-3.463737 2.94499,-1.837433 5.46987,-3.258986 7.38656,-4.132555 1.91669,-0.873569 3.22465,-1.198649 3.68743,-0.798443 0,0 0,0 0,0 0,0 0,10e-7 0,10e-7 0.007,0.0062 0.007,0.0062 0.007,0.0062 0,0 10e-6,-1.3e-5 0.007,0.0063 0,10e-7 0,10e-7 0,10e-7 0,0 0,0 0,0 0.445,0.414772 -0.002,1.527638 -1.27709,3.269782 -1.27531,1.742143 -3.37968,4.11407 -6.20145,7.00227 -3.81438,2.616589 -9.02095,5.064805 -15.24898,6.599137 -3.11402,0.767167 -6.47408,1.312892 -9.9827,1.600932 -3.50861,0.288041 -7.165,0.318287 -10.84724,0.101126 -1.31181,-0.08963 -2.5728,-0.271093 -3.77717,-0.513824 -1.18679,-0.239188 -2.3019,-0.533998 -3.34665,-0.850031 -2.77837,-0.815173 -5.36605,-1.798352 -7.78353,-2.823121 -6.15439,-2.607256 -11.53264,-5.534075 -16.09552,-8.267801 -11.08027,-7.130791 -17.88184,-12.596668 -17.05894,-14.091049 z"
         style="fill:#000000;fill-rule:evenodd;stroke:none;display:inline" />
      <path
         inkscape:connector-curvature="0"
         id="path4543"
         d="m 554.88214,-55.289993 c 0.0427,-0.02939 0.0902,-0.05135 0.1422,-0.06637 0.0504,-0.01452 0.10505,-0.02246 0.164,-0.02406 0,0 0,0 0,0 0.1173,-0.0032 0.25143,0.01856 0.40287,0.06442 0,0 0,0 0,0 0,0 0,0 0,0 0.29918,0.08965 0.66337,0.269661 1.09671,0.533461 0,0 0,0 0,0 0.85004,0.517407 1.95585,1.342453 3.338,2.398866 0,1e-6 0,1e-6 0,1e-6 2.6585,2.030834 6.31321,4.888598 11.04045,7.78815 0,1e-6 0,1e-6 0,2e-6 0,0 0,0 0,0 4.55692,2.789766 10.12267,5.59637 16.50946,7.526174 4.43709,1.34948 9.30004,2.259213 14.39969,2.589795 2.61877,0.16976 5.2052,0.182377 7.72646,0.06031 5.66554,-0.285571 10.92592,-1.644099 15.29908,-3.702243 4.2233,-1.894204 7.73037,-4.465827 10.53912,-6.95888 2.69445,-3.359965 5.03658,-6.041481 6.85902,-7.825234 1.82244,-1.783753 3.12485,-2.669185 3.70995,-2.387831 0,0 0,0 0,1e-6 0,0 0,10e-7 0,10e-7 0,0 0,0 0,10e-7 0,0 0,0 0,0 0,1e-6 10e-6,1e-6 10e-6,1e-6 0,10e-7 0,10e-7 0,2e-6 0.007,0.0034 0.007,0.0034 0.007,0.0034 0,0 10e-6,-1e-5 0.007,0.0035 0,0 0,1e-6 0,1e-6 0,10e-7 0,10e-7 0,2e-6 0,0 0,0 0,0 10e-6,0 10e-6,1e-6 10e-6,1e-6 0,0 0,10e-7 0,10e-7 0,0 0,10e-7 0,10e-7 0.5733,0.299669 0.37263,1.748009 -0.52798,4.192225 -0.90062,2.444217 -2.50151,5.884865 -4.69874,10.119998 -2.68742,3.580392 -6.54039,7.442072 -11.73389,10.603572 -2.62529,1.554332 -5.55737,2.881876 -8.72593,3.881357 -3.16857,0.999482 -6.57325,1.670369 -10.10227,1.9352 -2.92768,0.227094 -5.94686,0.25553 -9.00874,0.05524 -5.96257,-0.390045 -11.66476,-1.630068 -16.79692,-3.49319 -7.35074,-2.682173 -13.40409,-6.545823 -17.97593,-10.419211 0,0 0,0 0,0 0,-10e-7 0,-10e-7 0,-2e-6 -4.72769,-4.001683 -7.92764,-7.999991 -9.80426,-11.04215 0,0 0,0 0,0 -0.97545,-1.580797 -1.6039,-2.923117 -1.90843,-3.919249 0,0 0,0 0,0 -0.1552,-0.507738 -0.22883,-0.929879 -0.22189,-1.251287 0,0 0,0 0,0 0,0 0,0 0,-10e-7 0.004,-0.161609 0.0277,-0.29867 0.071,-0.409364 0,-10e-7 0,-10e-7 0,-10e-7 0.0218,-0.05562 0.0485,-0.104627 0.0801,-0.146932 0.0326,-0.04366 0.0703,-0.08027 0.11307,-0.109656 z"
         style="fill:#000000;fill-rule:evenodd;stroke:none;display:inline" />
    </g>
  </g>
</svg>
