<?xml version="1.0" encoding="UTF-8" standalone="no"?>
<!-- Created with Inkscape (http://www.inkscape.org/) -->

<svg
   xmlns:dc="http://purl.org/dc/elements/1.1/"
   xmlns:cc="http://creativecommons.org/ns#"
   xmlns:rdf="http://www.w3.org/1999/02/22-rdf-syntax-ns#"
   xmlns:svg="http://www.w3.org/2000/svg"
   xmlns="http://www.w3.org/2000/svg"
   xmlns:sodipodi="http://sodipodi.sourceforge.net/DTD/sodipodi-0.dtd"
   xmlns:inkscape="http://www.inkscape.org/namespaces/inkscape"
   width="133.30968"
   height="30.444221"
   id="svg3644"
   version="1.1"
   inkscape:version="0.48.3.1 r9886"
   sodipodi:docname="Documento nuevo 15">
  <defs
     id="defs3646" />
  <sodipodi:namedview
     id="base"
     pagecolor="#ffffff"
     bordercolor="#666666"
     borderopacity="1.0"
     inkscape:pageopacity="0.0"
     inkscape:pageshadow="2"
     inkscape:zoom="0.98994949"
     inkscape:cx="426.76079"
     inkscape:cy="-146.43429"
     inkscape:document-units="px"
     inkscape:current-layer="layer1"
     showgrid="false"
     fit-margin-top="0"
     fit-margin-left="0"
     fit-margin-right="0"
     fit-margin-bottom="0"
     inkscape:window-width="1914"
     inkscape:window-height="1030"
     inkscape:window-x="0"
     inkscape:window-y="25"
     inkscape:window-maximized="1" />
  <metadata
     id="metadata3649">
    <rdf:RDF>
      <cc:Work
         rdf:about="">
        <dc:format>image/svg+xml</dc:format>
        <dc:type
           rdf:resource="http://purl.org/dc/dcmitype/StillImage" />
        <dc:title></dc:title>
      </cc:Work>
    </rdf:RDF>
  </metadata>
  <g
     inkscape:label="Capa 1"
     inkscape:groupmode="layer"
     id="layer1"
     transform="translate(-472.73151,-311.71156)">
    <g
       transform="translate(-85.214489,-1.9868918)"
       style="opacity:0.9;display:inline"
       id="g3564">
      <path
         sodipodi:nodetypes="cccccscc"
         inkscape:connector-curvature="0"
         id="path4859-9-1-4-6-1-5"
         d="m 562.11914,319.11137 18.41133,-4.03658 15.83573,0.49082 2.16138,2.45378 -4.10901,9.38593 c 0,0 -6.24565,6.69894 -10.76167,6.9873 -4.51596,0.28833 -16.54795,-5.14997 -16.54795,-5.14997 l -6.72674,-9.26631"
         style="fill:#ffffff;stroke:none;display:inline" />
      <path
         sodipodi:nodetypes="cccccscc"
         inkscape:connector-curvature="0"
         id="path4859-2-0-7-5-1-8-0"
         d="m 683.27985,321.7929 -15.13272,-3.94754 -10.79348,0.70679 -5.74526,0.86223 1.94366,10.03594 c 0,0 7.66652,5.81566 11.76069,6.15293 4.09413,0.33725 15.44764,-3.9856 15.44764,-3.9856 l 4.09416,-8.81296"
         style="fill:#ffffff;stroke:none;display:inline" />
      <path
         inkscape:connector-curvature="0"
         id="path4770-9"
         d="m 691.25568,330.08876 c 0,1.6506 -10.23354,15.84552 -23.43812,13.86482 -13.20458,-1.98068 -21.78755,-12.54435 -24.09836,-15.84549 -2.31081,-3.30115 3.30115,-8.25287 5.61196,-4.29149 2.3108,3.96138 11.88411,11.88411 20.13697,10.23354 8.25286,-1.65057 13.20458,-8.25286 15.18526,-8.25286 1.9807,0 6.60229,4.29148 6.60229,4.29148 z"
         style="fill:#64837e;fill-opacity:0.38039216;fill-rule:evenodd;stroke:none;display:inline" />
      <path
         inkscape:connector-curvature="0"
         id="path4770"
         d="m 557.946,329.61431 c 0,1.65054 10.23354,15.84546 23.43812,13.86478 13.20459,-1.98067 21.78755,-12.54434 24.09836,-15.84549 2.31078,-3.30114 -3.30114,-8.25286 -5.61195,-4.29148 -2.31081,3.96138 -11.88408,11.88411 -20.13698,10.23354 -8.25286,-1.65057 -13.20458,-8.25283 -15.18529,-8.25283 -1.98064,0 -6.60226,4.29148 -6.60226,4.29148 z"
         style="fill:#64837e;fill-opacity:0.38039216;fill-rule:evenodd;stroke:none;display:inline" />
      <path
         id="path2991-7-6-78"
         d="m 588.10589,324.22053 c 0,4.64909 -3.76883,8.41792 -8.41792,8.41792 -4.64908,0 -8.41792,-3.76883 -8.41792,-8.41792 0,-4.64909 3.76884,-8.41792 8.41792,-8.41792 4.64909,0 8.41792,3.76883 8.41792,8.41792 z"
         style="fill:#000000;fill-opacity:1;stroke:none;display:inline"
         inkscape:connector-curvature="0" />
      <path
         id="path2991-9-3-7-9"
         d="m 675.95087,325.49136 c 0,4.64909 -3.76883,8.41792 -8.41792,8.41792 -4.64908,0 -8.41792,-3.76883 -8.41792,-8.41792 0,-4.64909 3.76884,-8.41792 8.41792,-8.41792 4.64909,0 8.41792,3.76883 8.41792,8.41792 z"
         style="fill:#000000;fill-opacity:1;stroke:none;display:inline"
         inkscape:connector-curvature="0" />
      <path
         id="path4742"
         d="m 654.88818,318.19398 c -0.0869,-0.59105 3.06242,-1.57887 7.76675,-2.53467 2.00215,-0.32741 4.31539,-0.59037 6.81015,-0.59931 0.13035,-0.002 0.26191,-0.003 0.3946,-0.003 0.93665,-0.001 1.89195,0.0403 2.8324,0.16626 0.94049,0.12592 1.86582,0.33648 2.74417,0.65107 5.38093,2.11443 9.07937,4.01462 8.86484,4.65026 0,0 0,0 0,0 0,0.003 0,0.003 0,0.003 0,0 0,0 0,0.003 0,0 0,0 0,0 -0.24265,0.62579 -4.31699,-0.19449 -9.80919,-1.88567 -0.65197,-0.19552 -1.36911,-0.31081 -2.1471,-0.37519 -0.77802,-0.0644 -1.61702,-0.0782 -2.5012,-0.0894 -0.12527,-0.002 -0.2507,-0.003 -0.37622,-0.005 -2.30102,-0.009 -4.49818,0.11562 -6.46137,0.2167 -4.73934,0.43277 -8.02842,0.39164 -8.11534,-0.19942 z"
         style="fill:#000000;fill-rule:evenodd;stroke:none;display:inline"
         inkscape:connector-curvature="0" />
      <path
         id="path4746"
         d="m 591.41972,317.647 c -0.21288,0.26125 -1.22579,-0.16311 -2.69033,-1.04086 -0.51638,-0.1445 -1.09372,-0.26039 -1.73453,-0.31916 -0.64078,-0.0588 -1.34538,-0.06 -2.11233,0.003 -0.76693,0.0634 -1.59645,0.19149 -2.47833,0.36677 -0.88184,0.17527 -1.81621,0.39745 -2.78086,0.62624 -0.71894,0.17478 -1.45777,0.34117 -2.21257,0.49659 -2.00253,0.41237 -3.93603,0.70881 -5.71456,0.89824 -1.77849,0.18944 -3.40172,0.27229 -4.78732,0.27408 0,0 0,0 0,0 -1.52268,0.002 -2.76365,-0.0963 -3.61291,-0.25394 0,0 0,0 0,0 -0.41506,-0.0771 -0.73846,-0.16817 -0.9567,-0.26782 0,0 0,0 0,0 -0.10812,-0.0494 -0.19093,-0.10083 -0.24652,-0.15369 0,0 0,0 0,0 0,0 0,0 0,0 -0.0277,-0.0263 -0.049,-0.053 -0.0631,-0.0799 0,0 0,0 0,0 -0.014,-0.0799 -0.0212,-0.083 -0.0215,-0.083 0,0 0,0 0,0 0,0 0,0 0,0 0,0 0,0 0,0 0,0 0,0 0,0 0,0 0,0 0,0 0,0 0,0 0,0 0,0 0,0 0,0 0,0 0,0 0,0 0,0 0,0 0,0 0,0 0,0 0,0 0,0 0,0 0,0 0,0 0,0 0,0 0,0 0,0 0,0 0,0 0,0 0,0 0,0 0,0 0,0 0,0 0,0 0,0 0,0 0,0 0,0 0,0 0,0 0,0 0,0 0,0 0,0 0,0 0,0 0,0 0,0 0,0 0,0 0,0 0,0 0,0 0,0 0,0 0,0 0,0 0,0 0,0 0,-9e-5 0.007,-0.003 0.0212,-0.0832 0,0 0,0 0,0 0.0137,-0.0271 0.0337,-0.054 0.0601,-0.081 0,0 0,0 0,0 0,0 0,0 0,0 0.0534,-0.054 0.13234,-0.10781 0.2361,-0.16177 0,0 0,0 0,0 0.20935,-0.10892 0.51744,-0.21857 0.91501,-0.33199 0,0 0,0 0,0 0.81341,-0.23207 1.99355,-0.48056 3.45083,-0.76537 0,0 0,0 0,0 1.3259,-0.25917 2.87673,-0.5465 4.58165,-0.87265 1.70494,-0.32616 3.56397,-0.69148 5.50913,-1.09194 0.73313,-0.15093 1.45356,-0.30153 2.15782,-0.4502 1.04677,-0.22835 2.11184,-0.40469 3.14835,-0.49831 1.03654,-0.0936 2.04409,-0.10448 2.98283,-0.0283 0.93877,0.0762 1.80845,0.23919 2.58089,0.46856 0.77247,0.22937 1.44764,0.52454 2.0112,0.84684 1.33166,1.40049 1.96948,2.3211 1.75664,2.58235 z"
         style="fill:#000000;fill-rule:evenodd;stroke:none;display:inline"
         inkscape:connector-curvature="0" />
      <path
         id="path4762"
         d="m 567.06905,331.45824 c 0.091,-0.69488 4.1427,-0.76241 9.62412,-0.24181 0,0 0,0 0,0 1.24044,0.0774 2.54856,0.16951 3.89463,0.24959 1.15739,0.0688 2.27343,0.12342 3.33448,0.15566 1.05668,0.0312 2.03118,0.0447 2.91925,-0.002 0,0 0,0 0,0 0.76409,-0.0571 1.37812,-0.0885 1.84889,-0.24633 0,0 0,0 0,0 1.75639,-0.60926 3.14342,-0.98565 3.96731,-1.06546 0,0 0,0 0,0 0.27975,-0.0271 0.49456,-0.02 0.63685,0.0238 0,0 0,0 0,0 0.0514,0.0158 0.0934,0.0364 0.12549,0.0619 0,0 0,0 0,0 0,0 0,0 0,0 0.0345,0.0585 0.0447,0.0679 0.0509,0.0722 0.004,0.003 0.006,0.003 0.007,0.002 0,-2.7e-4 0,-1.2e-4 0,-1.2e-4 0,0 0,-2.6e-4 0,2.9e-4 0,6.6e-4 -0.003,10e-4 -0.003,0.007 0,0.008 -1.9e-4,0.0214 0.0221,0.0856 0,0 0,0 0,0 0,0 0,0 0,0 0,0.041 -0.0131,0.0863 -0.0343,0.13568 0,0 0,0 0,0 -0.059,0.13669 -0.19295,0.30476 -0.39507,0.50006 0,0 0,0 0,0 -0.59524,0.57518 -1.78155,1.38651 -3.38467,2.3278 0,0 0,0 0,0 -0.78872,0.42352 -1.681,0.67002 -2.51455,0.80574 0,0 0,0 0,0 -1.02526,0.1841 -2.12443,0.2763 -3.24609,0.30759 -1.1364,0.0324 -2.32555,0.0105 -3.54202,-0.0616 -1.41481,-0.0839 -2.76727,-0.22829 -4.02776,-0.39879 0,0 0,0 0,0 -5.46355,-0.91309 -9.37458,-2.02365 -9.28357,-2.71854 z"
         style="fill:#000000;fill-rule:evenodd;stroke:none;display:inline"
         inkscape:connector-curvature="0" />
      <path
         id="path4766"
         d="m 655.39327,331.45825 c 0.01,-0.0163 0.0209,-0.0316 0.0334,-0.0459 0.0122,-0.0137 0.0256,-0.0265 0.0402,-0.0384 0,0 0,0 0,0 0.0296,-0.024 0.0641,-0.0447 0.10388,-0.0623 0,0 0,0 0,0 0,0 0,0 0,0 0.0795,-0.0356 0.17837,-0.0596 0.29734,-0.0729 0,0 0,0 0,0 0,0 0,0 0,0 0.24096,-0.0269 0.55754,-0.0144 0.94747,0.0259 0,0 0,0 0,0 0.81241,0.0841 1.91922,0.26931 3.24749,0.46104 0,0 0,0 0,0 1.11775,0.16234 2.37771,0.32416 3.72562,0.45406 2.23807,0.2157 4.30292,0.30778 5.83733,0.4588 0.76723,0.0755 1.40078,0.16678 1.85163,0.29467 0.45085,0.12788 0.71929,0.293 0.75152,0.5057 0.0322,0.21269 -0.17555,0.45329 -0.58952,0.69759 -0.414,0.24431 -1.03461,0.49172 -1.82308,0.70197 -0.78843,0.21026 -1.74513,0.38261 -2.81943,0.47077 -1.07429,0.0882 -2.26625,0.0912 -3.50969,-0.0306 -1.49771,-0.1467 -2.89596,-0.46061 -4.08559,-0.86611 0,0 0,0 0,0 -1.4111,-0.48241 -2.53388,-1.10811 -3.22364,-1.6733 0,0 0,0 0,0 -0.33091,-0.27119 -0.5691,-0.53136 -0.70067,-0.75288 0,0 0,0 0,0 0,0 0,0 0,0 -0.0649,-0.10935 -0.10562,-0.21033 -0.11972,-0.299 0,0 0,0 0,0 0,0 0,0 0,0 -0.007,-0.044 -0.007,-0.0852 -0.003,-0.12312 0,0 0,0 0,0 0.003,-0.0189 0.007,-0.0371 0.0134,-0.0544 0.006,-0.0181 0.0143,-0.0353 0.0237,-0.0516 z"
         style="fill:#000000;fill-rule:evenodd;stroke:none;display:inline"
         inkscape:connector-curvature="0" />
    </g>
  </g>
</svg>
