<?xml version="1.0" encoding="UTF-8" standalone="no"?>
<!-- Created with Inkscape (http://www.inkscape.org/) -->

<svg
   xmlns:dc="http://purl.org/dc/elements/1.1/"
   xmlns:cc="http://creativecommons.org/ns#"
   xmlns:rdf="http://www.w3.org/1999/02/22-rdf-syntax-ns#"
   xmlns:svg="http://www.w3.org/2000/svg"
   xmlns="http://www.w3.org/2000/svg"
   xmlns:sodipodi="http://sodipodi.sourceforge.net/DTD/sodipodi-0.dtd"
   xmlns:inkscape="http://www.inkscape.org/namespaces/inkscape"
   width="296.38699"
   height="163.42152"
   id="svg3833"
   version="1.1"
   inkscape:version="0.48.3.1 r9886"
   sodipodi:docname="ojos_6.svg">
  <defs
     id="defs3835">
    <inkscape:path-effect
       effect="skeletal"
       id="path-effect5212"
       is_visible="true"
       pattern="m -13072.977,1809.4791 c 0,-2.76 2.24,-5 5,-5 2.76,0 5,2.24 5,5 0,2.76 -2.24,5 -5,5 -2.76,0 -5,-2.24 -5,-5 z"
       copytype="single_stretched"
       prop_scale="1"
       scale_y_rel="false"
       spacing="0"
       normal_offset="0"
       tang_offset="0"
       prop_units="false"
       vertical_pattern="false"
       fuse_tolerance="0" />
    <inkscape:path-effect
       effect="skeletal"
       id="path-effect5216"
       is_visible="true"
       pattern="m -13093.18,1767.0526 c 0,-2.76 2.24,-5 5,-5 2.76,0 5,2.24 5,5 0,2.76 -2.24,5 -5,5 -2.76,0 -5,-2.24 -5,-5 z"
       copytype="single_stretched"
       prop_scale="1"
       scale_y_rel="false"
       spacing="0"
       normal_offset="0"
       tang_offset="0"
       prop_units="false"
       vertical_pattern="false"
       fuse_tolerance="0" />
    <inkscape:path-effect
       effect="skeletal"
       id="path-effect5302"
       is_visible="true"
       pattern="m -13072.977,1809.4791 c 0,-2.76 2.24,-5 5,-5 2.76,0 5,2.24 5,5 0,2.76 -2.24,5 -5,5 -2.76,0 -5,-2.24 -5,-5 z"
       copytype="single_stretched"
       prop_scale="1"
       scale_y_rel="false"
       spacing="0"
       normal_offset="0"
       tang_offset="0"
       prop_units="false"
       vertical_pattern="false"
       fuse_tolerance="0" />
    <inkscape:path-effect
       effect="skeletal"
       id="path-effect4225-0"
       is_visible="true"
       pattern="m -4996.4247,55.333481 c 0,-2.76 2.24,-5 5,-5 2.76,0 5,2.24 5,5 0,2.76 -2.24,5 -5,5 -2.76,0 -5,-2.24 -5,-5 z"
       copytype="single_stretched"
       prop_scale="1"
       scale_y_rel="false"
       spacing="0"
       normal_offset="0"
       tang_offset="0"
       prop_units="false"
       vertical_pattern="false"
       fuse_tolerance="0" />
    <inkscape:path-effect
       effect="skeletal"
       id="path-effect4233-0"
       is_visible="true"
       pattern="m -4990.3638,53.313176 c 0,-2.76 2.24,-5 5,-5 2.76,0 5,2.24 5,5 0,2.76 -2.24,5 -5,5 -2.76,0 -5,-2.24 -5,-5 z"
       copytype="single_stretched"
       prop_scale="1"
       scale_y_rel="false"
       spacing="0"
       normal_offset="0"
       tang_offset="0"
       prop_units="false"
       vertical_pattern="false"
       fuse_tolerance="0" />
    <inkscape:path-effect
       effect="skeletal"
       id="path-effect5021"
       is_visible="true"
       pattern="m 1.4285717,0.71428529 c 0,-2.75999999 2.24,-4.99999999 5,-4.99999999 2.76,0 5.0000003,2.24 5.0000003,4.99999999 0,2.76000001 -2.2400003,5.00000041 -5.0000003,5.00000041 -2.76,0 -5,-2.2400004 -5,-5.00000041 z"
       copytype="single_stretched"
       prop_scale="1"
       scale_y_rel="false"
       spacing="0"
       normal_offset="0"
       tang_offset="0"
       prop_units="false"
       vertical_pattern="false"
       fuse_tolerance="0" />
    <inkscape:path-effect
       effect="skeletal"
       id="path-effect5259"
       is_visible="true"
       pattern="m -10418.352,-1410.4113 c 0,-2.76 2.24,-5 5,-5 2.76,0 5,2.24 5,5 0,2.76 -2.24,5 -5,5 -2.76,0 -5,-2.24 -5,-5 z"
       copytype="single_stretched"
       prop_scale="1"
       scale_y_rel="false"
       spacing="0"
       normal_offset="0"
       tang_offset="0"
       prop_units="false"
       vertical_pattern="false"
       fuse_tolerance="0" />
    <inkscape:path-effect
       effect="skeletal"
       id="path-effect5263"
       is_visible="true"
       pattern="m -10564.143,-1410.9609 c 0,-2.76 2.24,-5 5,-5 2.76,0 5,2.24 5,5 0,2.76 -2.24,5 -5,5 -2.76,0 -5,-2.24 -5,-5 z"
       copytype="single_stretched"
       prop_scale="1"
       scale_y_rel="false"
       spacing="0"
       normal_offset="0"
       tang_offset="0"
       prop_units="false"
       vertical_pattern="false"
       fuse_tolerance="0" />
    <inkscape:path-effect
       effect="skeletal"
       id="path-effect5224"
       is_visible="true"
       pattern="m -10426.454,-1412.267 c 0,-2.76 2.24,-5 5,-5 2.76,0 5,2.24 5,5 0,2.76 -2.24,5 -5,5 -2.76,0 -5,-2.24 -5,-5 z"
       copytype="single_stretched"
       prop_scale="1"
       scale_y_rel="false"
       spacing="0"
       normal_offset="0"
       tang_offset="0"
       prop_units="false"
       vertical_pattern="false"
       fuse_tolerance="0" />
    <inkscape:path-effect
       effect="skeletal"
       id="path-effect5228"
       is_visible="true"
       pattern="m -10549.858,-1407.3895 c 0,-2.76 2.24,-5 5,-5 2.76,0 5,2.24 5,5 0,2.76 -2.24,5 -5,5 -2.76,0 -5,-2.24 -5,-5 z"
       copytype="single_stretched"
       prop_scale="1"
       scale_y_rel="false"
       spacing="0"
       normal_offset="0"
       tang_offset="0"
       prop_units="false"
       vertical_pattern="false"
       fuse_tolerance="0" />
    <inkscape:path-effect
       effect="skeletal"
       id="path-effect5337"
       is_visible="true"
       pattern="m -10458.758,-1444.7564 c 0,-2.76 2.24,-5 5,-5 2.76,0 5,2.24 5,5 0,2.76 -2.24,5 -5,5 -2.76,0 -5,-2.24 -5,-5 z"
       copytype="single_stretched"
       prop_scale="1"
       scale_y_rel="false"
       spacing="0"
       normal_offset="0"
       tang_offset="0"
       prop_units="false"
       vertical_pattern="false"
       fuse_tolerance="0" />
    <inkscape:path-effect
       effect="skeletal"
       id="path-effect5341"
       is_visible="true"
       pattern="m -10487.33,-1439.0422 c 0,-2.76 2.24,-5 5,-5 2.76,0 5,2.24 5,5 0,2.76 -2.24,5 -5,5 -2.76,0 -5,-2.24 -5,-5 z"
       copytype="single_stretched"
       prop_scale="1"
       scale_y_rel="false"
       spacing="0"
       normal_offset="0"
       tang_offset="0"
       prop_units="false"
       vertical_pattern="false"
       fuse_tolerance="0" />
    <inkscape:path-effect
       effect="skeletal"
       id="path-effect5378"
       is_visible="true"
       pattern="m -11744.764,-1511.4122 c 0,-2.76 2.24,-5 5,-5 2.76,0 5,2.24 5,5 0,2.76 -2.24,5 -5,5 -2.76,0 -5,-2.24 -5,-5 z"
       copytype="single_stretched"
       prop_scale="1"
       scale_y_rel="false"
       spacing="0"
       normal_offset="0"
       tang_offset="0"
       prop_units="false"
       vertical_pattern="false"
       fuse_tolerance="0" />
    <inkscape:path-effect
       effect="skeletal"
       id="path-effect5378-4"
       is_visible="true"
       pattern="m -11323.324,-1497.1657 c 0,-2.76 2.24,-5 5,-5 2.76,0 5,2.24 5,5 0,2.76 -2.24,5 -5,5 -2.76,0 -5,-2.24 -5,-5 z"
       copytype="single_stretched"
       prop_scale="1"
       scale_y_rel="false"
       spacing="0"
       normal_offset="0"
       tang_offset="0"
       prop_units="false"
       vertical_pattern="false"
       fuse_tolerance="0" />
    <inkscape:path-effect
       effect="skeletal"
       id="path-effect4490"
       is_visible="true"
       pattern="m 0,-155 c 0,-2.76 2.24,-5 5,-5 2.76,0 5,2.24 5,5 0,2.76 -2.24,5 -5,5 -2.76,0 -5,-2.24 -5,-5 z"
       copytype="single_stretched"
       prop_scale="1"
       scale_y_rel="false"
       spacing="0"
       normal_offset="0"
       tang_offset="0"
       prop_units="false"
       vertical_pattern="false"
       fuse_tolerance="0" />
    <inkscape:path-effect
       effect="skeletal"
       id="path-effect4494"
       is_visible="true"
       pattern="m -62.629458,-142.87817 c 0,-2.76 2.24,-5 5,-5 2.76,0 5,2.24 5,5 0,2.76 -2.24,5 -5,5 -2.76,0 -5,-2.24 -5,-5 z"
       copytype="single_stretched"
       prop_scale="1"
       scale_y_rel="false"
       spacing="0"
       normal_offset="0"
       tang_offset="0"
       prop_units="false"
       vertical_pattern="false"
       fuse_tolerance="0" />
    <inkscape:path-effect
       effect="skeletal"
       id="path-effect4498"
       is_visible="true"
       pattern="m 0,-155 c 0,-2.76 2.24,-5 5,-5 2.76,0 5,2.24 5,5 0,2.76 -2.24,5 -5,5 -2.76,0 -5,-2.24 -5,-5 z"
       copytype="single_stretched"
       prop_scale="1"
       scale_y_rel="false"
       spacing="0"
       normal_offset="0"
       tang_offset="0"
       prop_units="false"
       vertical_pattern="false"
       fuse_tolerance="0" />
    <inkscape:path-effect
       effect="skeletal"
       id="path-effect4502"
       is_visible="true"
       pattern="m -62.629458,-142.87817 c 0,-2.76 2.24,-5 5,-5 2.76,0 5,2.24 5,5 0,2.76 -2.24,5 -5,5 -2.76,0 -5,-2.24 -5,-5 z"
       copytype="single_stretched"
       prop_scale="1"
       scale_y_rel="false"
       spacing="0"
       normal_offset="0"
       tang_offset="0"
       prop_units="false"
       vertical_pattern="false"
       fuse_tolerance="0" />
    <inkscape:path-effect
       effect="skeletal"
       id="path-effect4506"
       is_visible="true"
       pattern="m 0,-155 c 0,-2.76 2.24,-5 5,-5 2.76,0 5,2.24 5,5 0,2.76 -2.24,5 -5,5 -2.76,0 -5,-2.24 -5,-5 z"
       copytype="single_stretched"
       prop_scale="1"
       scale_y_rel="false"
       spacing="0"
       normal_offset="0"
       tang_offset="0"
       prop_units="false"
       vertical_pattern="false"
       fuse_tolerance="0" />
    <inkscape:path-effect
       effect="skeletal"
       id="path-effect4510"
       is_visible="true"
       pattern="m -62.629458,-142.87817 c 0,-2.76 2.24,-5 5,-5 2.76,0 5,2.24 5,5 0,2.76 -2.24,5 -5,5 -2.76,0 -5,-2.24 -5,-5 z"
       copytype="single_stretched"
       prop_scale="1"
       scale_y_rel="false"
       spacing="0"
       normal_offset="0"
       tang_offset="0"
       prop_units="false"
       vertical_pattern="false"
       fuse_tolerance="0" />
  </defs>
  <sodipodi:namedview
     id="base"
     pagecolor="#ffffff"
     bordercolor="#666666"
     borderopacity="1.0"
     inkscape:pageopacity="0.0"
     inkscape:pageshadow="2"
     inkscape:zoom="0.49497475"
     inkscape:cx="-18.74359"
     inkscape:cy="15.089261"
     inkscape:document-units="px"
     inkscape:current-layer="layer1"
     showgrid="false"
     fit-margin-top="0"
     fit-margin-left="0"
     fit-margin-right="0"
     fit-margin-bottom="0"
     inkscape:window-width="560"
     inkscape:window-height="453"
     inkscape:window-x="349"
     inkscape:window-y="420"
     inkscape:window-maximized="0" />
  <metadata
     id="metadata3838">
    <rdf:RDF>
      <cc:Work
         rdf:about="">
        <dc:format>image/svg+xml</dc:format>
        <dc:type
           rdf:resource="http://purl.org/dc/dcmitype/StillImage" />
        <dc:title></dc:title>
      </cc:Work>
    </rdf:RDF>
  </metadata>
  <g
     inkscape:label="Capa 1"
     inkscape:groupmode="layer"
     id="layer1"
     transform="translate(-687.1225,-321.13983)">
    <g
       transform="translate(-1445.5665,-1917.6554)"
       style="display:inline"
       id="g5784">
      <path
         transform="translate(-2638.4032,-217.0045)"
         sodipodi:nodetypes="cccccscc"
         inkscape:connector-curvature="0"
         id="path4859-9-1-4-6-1"
         d="m 4776.143,2526.3627 53.5381,-15.9324 46.0485,1.9372 6.285,9.6852 -11.9485,37.0462 c 0,0 -18.1617,26.4408 -31.2937,27.5789 -13.1319,1.138 -48.1196,-20.327 -48.1196,-20.327 l -19.5606,-36.5741"
         style="fill:#ffffff;stroke:none;display:inline" />
      <path
         transform="translate(-2638.4032,-217.0045)"
         sodipodi:nodetypes="cccccscc"
         inkscape:connector-curvature="0"
         id="path4859-2-0-7-5-1-8"
         d="m 5062.4284,2532.4554 -48.5381,-14.5671 -34.62,2.6081 -18.4279,3.1818 6.2343,37.0344 c 0,0 24.5903,21.4608 37.7223,22.7054 13.1319,1.2445 49.5482,-14.7076 49.5482,-14.7076 l 13.132,-32.5214"
         style="fill:#ffffff;stroke:none;display:inline" />
      <path
         transform="matrix(0.62564266,0,0,0.62564266,531.23912,2099.982)"
         d="m 2992.0719,382.63104 c 0,27.3367 -22.1607,49.49748 -49.4974,49.49748 -27.3367,0 -49.4975,-22.16078 -49.4975,-49.49748 0,-27.3367 22.1608,-49.49747 49.4975,-49.49747 27.3367,0 49.4974,22.16077 49.4974,49.49747 z"
         sodipodi:ry="49.497475"
         sodipodi:rx="49.497475"
         sodipodi:cy="382.63104"
         sodipodi:cx="2942.5745"
         id="path3211-9"
         style="fill:#98ad4c;fill-opacity:1;stroke:#000000;stroke-width:5;stroke-miterlimit:4;stroke-opacity:1;stroke-dasharray:none"
         sodipodi:type="arc" />
      <path
         transform="matrix(-0.62564266,0,0,0.62564266,4032.5251,2091.1833)"
         d="m 2992.0719,382.63104 c 0,27.3367 -22.1607,49.49748 -49.4974,49.49748 -27.3367,0 -49.4975,-22.16078 -49.4975,-49.49748 0,-27.3367 22.1608,-49.49747 49.4975,-49.49747 27.3367,0 49.4974,22.16077 49.4974,49.49747 z"
         sodipodi:ry="49.497475"
         sodipodi:rx="49.497475"
         sodipodi:cy="382.63104"
         sodipodi:cx="2942.5745"
         id="path3211-2-1"
         style="fill:#98ad4c;fill-opacity:1;stroke:#000000;stroke-width:5;stroke-miterlimit:4;stroke-opacity:1;stroke-dasharray:none"
         sodipodi:type="arc" />
      <path
         inkscape:connector-curvature="0"
         inkscape:original-d="m 2175.0751,2238.9098 c 0,0 -26.5438,18.9598 -27.8078,35.3917 -1.264,16.4318 -5.0559,40.4476 -5.0559,40.4476 0,0 45.5036,-18.9598 59.4074,-17.6958 13.904,1.264 25.2798,1.264 25.2798,1.264 l 3.792,-20.2238"
         inkscape:path-effect="#path-effect4490"
         id="path4488"
         d="m 2175.0751,2238.9098 c 0.6963,0.8107 -3.6246,5.8276 -11.4883,13.6497 -2.7263,3.181 -5.7655,6.89 -8.3212,11.3229 -0.9574,1.7088 -1.8782,3.4832 -2.5775,5.2871 -0.6994,1.8039 -1.1774,3.6371 -1.1848,5.4578 0,0 0,0 0,0 -0.3773,8.2589 -1.2771,17.2616 -2.448,26.7215 -1.6622,3.7382 -3.4326,7.5488 -5.2688,11.437 2.8388,-1.6134 5.7142,-3.2529 8.6256,-4.9071 4.2843,-2.4342 8.4885,-4.8095 12.6104,-7.0929 6.8974,-2.3506 13.6932,-4.435 20.2986,-5.9986 3.0102,-0.7136 6.0442,-1.3253 9.0794,-1.7198 2.2947,-0.3304 4.8431,-0.5248 7.5162,-0.244 8.8088,1.4569 16.776,2.7079 23.5493,3.6777 0.8889,-5.6936 1.8802,-10.3249 2.8223,-13.5303 0.942,-3.2054 1.8335,-4.9839 2.4023,-4.8773 0.5688,0.1066 0.7523,2.104 0.3923,5.8425 -0.3599,3.7385 -1.2646,9.2192 -2.7517,16.1975 -7.2572,0.2682 -16.4097,0.6633 -27.0103,1.1497 -1.5808,-0.106 -3.4305,0.1966 -5.5677,0.5501 -2.6027,0.4755 -5.3019,1.1614 -8.1202,1.9463 -6.1344,1.7117 -12.5437,3.8859 -19.2265,6.2797 -5.3524,1.3228 -10.866,2.6463 -16.483,3.9808 -3.8172,0.9069 -7.5857,1.7963 -11.2872,2.6722 -0.4319,-5.7264 -0.8289,-11.3191 -1.1564,-16.7198 1.4095,-9.3429 2.6819,-18.0675 3.5514,-26.0168 0,0 0,-10e-5 0,-10e-5 0.3606,-2.9632 1.2067,-5.6044 2.2797,-7.954 1.0729,-2.3496 2.3729,-4.4078 3.7063,-6.2128 3.5189,-4.8846 7.3052,-8.5528 10.6655,-11.4601 9.07,-6.7228 14.696,-10.2495 15.3923,-9.4389 z"
         style="fill:#000000;fill-rule:evenodd;stroke:none" />
      <path
         inkscape:connector-curvature="0"
         inkscape:original-d="m 2392.4811,2256.6057 c 0,0 21.4878,40.4476 21.4878,56.8794 0,16.4319 -10.1118,3.792 -10.1118,3.792 0,0 -25.2798,-13.9038 -41.7117,-13.9038 -16.4319,0 -34.1276,0 -34.1276,0 l -1.2641,-13.904"
         inkscape:path-effect="#path-effect4494"
         id="path4492"
         d="m 2392.4811,2256.6057 c 1.2314,-0.5938 6.4546,7.3838 13.9358,20.82 0,0 0,0 0,0 2.7396,5.3344 5.719,11.6128 8.37,18.8692 1.0271,2.8098 2.0081,5.8117 2.7929,9.0371 0.609,2.4323 1.1124,5.1456 1.1779,8.1531 0.05,1.7598 -0.032,3.7557 -0.4756,5.945 -0.1608,1.2575 -0.7891,2.9034 -2.1359,4.7289 -1.106,1.38 -2.7594,2.314 -4.8503,2.6421 -1.8592,0.098 -3.3336,-0.1933 -4.3494,-0.7244 -2.2104,-1.0476 -3.8744,-2.3615 -5.0689,-3.6118 -0.3064,-0.4143 -0.613,-0.8303 -0.9198,-1.248 -1.8221,-0.8258 -3.6592,-1.6631 -5.5099,-2.5118 -2.8153,-1.2909 -5.5879,-2.5741 -8.313,-3.8473 -4.3738,-1.8448 -8.6517,-3.4541 -12.8349,-4.6911 0,0 0,0 0,0 -4.3405,-1.2602 -8.395,-2.2089 -12.1546,-2.3037 0,0 0,0 0,0 -8.6553,-0.2476 -16.4917,-0.5775 -23.2074,-0.9721 0,0 0,0 0,0 -2.8347,-0.1665 -5.4696,-0.3446 -7.8822,-0.5329 0,0 0,0 0,0 -0.7679,-0.06 -1.5132,-0.1208 -2.2353,-0.1828 0,0 0,0 0,0 -0.1999,-0.017 -0.398,-0.034 -0.5943,-0.052 0,0 0,0 0,0 0,-10e-5 0,-10e-5 0,-10e-5 0,0 0,0 0,0 -0.5091,-0.4224 -1.0147,-0.8417 -1.5168,-1.258 0,0 0,0 0,0 0,0 0,0 0,0 -0.019,-0 -0.038,-0 -0.057,-0.01 -0.6318,-5.0004 -0.8787,-8.8443 -0.8207,-11.4298 0.058,-2.5855 0.4202,-3.9134 0.9221,-3.959 0.5019,-0.046 1.0964,1.1827 1.5867,3.3514 0.4903,2.1686 0.8754,5.2767 1.0429,9.0678 0.017,-0 0.034,-0 0.052,-0.01 0,0 0,0 0,0 0,0 -1e-4,0 -1e-4,0 -0.3995,-0.4163 -0.8024,-0.8356 -1.2084,-1.258 0,0 0,0 0,0 0,0 0,0 -10e-5,-10e-5 0,0 0,0 0,0 0.1963,-0.017 0.3944,-0.035 0.5943,-0.052 0,0 0,0 0,0 0.7221,-0.062 1.4674,-0.1229 2.2353,-0.1828 0,0 0,0 0,0 2.4126,-0.1883 5.0475,-0.3664 7.8822,-0.5329 0,0 0,0 0,0 6.7157,-0.3946 14.5521,-0.7245 23.2074,-0.9721 0,0 0,0 0,0 4.9549,-0.095 9.9482,0.7579 14.7285,2.0368 0,0 0,0 0,0 4.7665,1.2543 9.5479,2.9227 14.2886,4.8602 3.0881,1.4767 6.2257,2.9894 9.3996,4.5317 2.0865,1.0139 4.1525,2.0229 6.1944,3.025 0.7563,0.738 1.509,1.4733 2.2576,2.2057 0.8839,0.7825 1.4672,1.3771 1.8811,1.4733 0.1555,-0.021 -0.043,0.03 -0.6412,-0.01 -0.8273,0.1936 -1.3213,0.4296 -1.6165,0.844 -0.093,0.3319 -0.1111,0.062 0.1509,-0.5598 0.283,-1.0383 0.3419,-2.3371 0.3917,-3.8088 0.066,-1.9097 -0.2651,-3.9854 -0.6674,-6.1646 -0.5392,-2.8122 -1.2811,-5.5712 -2.0724,-8.271 -2.0281,-6.9214 -4.3526,-13.1838 -6.3955,-18.6817 0,0 0,0 0,0 -5.8111,-14.1271 -8.7951,-23.1682 -7.5637,-23.7621 z"
         style="fill:#000000;fill-rule:evenodd;stroke:none" />
      <path
         inkscape:connector-curvature="0"
         inkscape:original-d="m 2164.9631,2364.0447 c 0,0 32.8638,-3.792 48.0316,-3.792"
         inkscape:path-effect="#path-effect4498"
         id="path4496"
         d="m 2164.9631,2364.0447 c -0.2424,-2.3432 7.3852,-5.1196 17.8662,-6.7351 0,0 0,0 0,0 1.8097,-0.2608 3.7066,-0.4819 5.6647,-0.6517 3.6585,-0.3173 7.1533,-0.4212 10.2965,-0.3347 4.1475,0.1145 7.735,0.5617 10.2509,1.2713 2.5158,0.7097 3.9533,1.6559 3.9533,2.6582 0,1.0023 -1.4111,1.9236 -3.7943,2.7766 -2.3831,0.8531 -5.7449,1.6637 -9.7935,2.3369 -3.0327,0.5074 -6.4228,0.9395 -10.0181,1.2513 -1.9243,0.1669 -3.8014,0.2895 -5.6056,0.3675 0,0 0,0 0,0 -10.5581,0.5607 -18.5777,-0.5971 -18.8201,-2.9403 z"
         style="fill:#000000;fill-rule:evenodd;stroke:none" />
      <path
         inkscape:connector-curvature="0"
         inkscape:original-d="m 2338.1296,2360.2527 c 0,0 29.0717,17.6959 44.2397,13.9039 15.1678,-3.7919 21.4878,-5.056 21.4878,-5.056"
         inkscape:path-effect="#path-effect4502"
         id="path4500"
         d="m 2338.1296,2360.2527 c 0.8696,-1.7066 8.2645,0.1938 18.3232,4.3809 4.2049,1.4189 8.8425,2.9936 13.7398,4.0823 0.2605,0.052 0.5205,0.1037 0.7798,0.155 2.0146,0.3988 3.8997,0.7482 5.6207,0.911 1.7211,0.1628 3.2785,0.1377 4.6775,-0.1536 12.7678,-2.2591 22.0787,-2.5967 22.5822,-0.5467 0,0 0,0 0,0 0,0.019 0,0.019 0,0.019 0,0 0,0 0,0.019 0,0 0,0 0,0 0.3945,2.0756 -8.0927,5.9258 -20.3931,9.5652 -2.3851,0.6547 -4.8773,0.9474 -7.3575,0.9191 -2.4802,-0.028 -4.9472,-0.3769 -7.2828,-0.9279 -0.3007,-0.071 -0.5975,-0.1447 -0.8904,-0.2209 -5.8738,-1.4057 -11.0027,-3.605 -15.2403,-5.8239 -9.4984,-5.7783 -15.437,-10.672 -14.5674,-12.3786 z"
         style="fill:#000000;fill-rule:evenodd;stroke:none" />
      <path
         inkscape:connector-curvature="0"
         inkscape:original-d="m 2161.1712,2383.0045 c 0,0 20.2238,16.4319 36.6557,8.8479 16.4318,-7.5839 27.8077,-18.9597 27.8077,-18.9597"
         inkscape:path-effect="#path-effect4506"
         id="path4504"
         d="m 2161.1712,2383.0045 c 0.8223,-1.3768 6.2919,0.2287 13.993,3.7744 3.2049,0.9827 6.8011,1.9351 10.5482,2.1135 2.5771,0.1969 5.2679,0.078 7.7331,-0.637 0.6774,-0.1963 1.3252,-0.4348 1.9387,-0.7168 7.6116,-5.0674 14.6921,-9.1881 20.1374,-11.8328 5.4454,-2.6447 9.2552,-3.813 10.1054,-2.8222 0,0 0,0 0,0 0,0 0,0 0,0 0.01,0.01 0.01,0.01 0.01,0.01 0,0 0,0 0.01,0.01 0,0 0,0 0,0 0,0 0,0 0,0 0.8129,1.0162 -1.5179,4.0346 -6.0854,8.2168 -4.5676,4.1823 -11.3723,9.5287 -19.2872,15.0475 -1.0984,0.5081 -2.2313,0.9423 -3.3886,1.3001 -4.2112,1.3022 -8.4499,1.5011 -12.2428,0.982 -5.2697,-0.8352 -9.6628,-2.7027 -13.1009,-4.6702 -7.1159,-5.3034 -11.1884,-9.3968 -10.3661,-10.7736 z"
         style="fill:#000000;fill-rule:evenodd;stroke:none" />
      <path
         inkscape:connector-curvature="0"
         inkscape:original-d="m 2338.1296,2385.5325 c 0,0 2.528,13.9039 27.8078,11.376 25.2797,-2.528 35.3917,-11.376 35.3917,-11.376"
         inkscape:path-effect="#path-effect4510"
         id="path4508"
         d="m 2338.1296,2385.5326 c 0.082,-0.017 0.1664,-0.02 0.253,-0.012 0,0 0,0 0,0 0.083,0.01 0.1679,0.027 0.2559,0.057 0,0 0,0 0,0 0,0 0,0 0,0 0,0 0,0 0,0 0.1721,0.056 0.3537,0.146 0.5502,0.2721 0,0 0,0 0,0 0.3803,0.2436 0.8124,0.5959 1.3299,1.0307 0,0 0,0 0,0 0.9938,0.8343 2.3233,1.8962 4.0934,2.8399 0,0 0,0 0,0 1.0709,0.6241 2.2865,1.1787 3.6805,1.6045 1.3941,0.4258 2.9677,0.7223 4.7261,0.8828 1.7583,0.1605 3.7022,0.1855 5.7934,0.1198 2.0913,-0.066 4.3302,-0.2208 6.6291,-0.3814 0.7938,-0.09 1.5939,-0.1841 2.3992,-0.2818 4.8042,-0.5832 9.3106,-1.2679 13.3331,-2.0518 4.0224,-0.7838 7.5652,-1.6673 10.5287,-2.4609 0,0 0,0 0,0 2.7901,-0.745 5.0069,-1.381 6.6387,-1.7319 0,0 0,0 0,0 0.7864,-0.169 1.4238,-0.2582 1.9246,-0.2505 0,0 0,0 0,0 0.2473,0 0.4575,0.035 0.6345,0.093 0,0 0,0 0,0 0,0 0,0 0,0 0.087,0.03 0.1652,0.067 0.236,0.1107 0,0 0,0 0,0 0.1718,0.1595 0.1916,0.1605 0.1931,0.1601 0,0 0,0 0,0 0,0 0,0 0,0 0,0 0,0 0,0 0,0 0,0 0,0 0,0 0,0 0,0 0,0 0,0 0,0 0,0 0,0 0,0 0,0 0,0 0,0 0,0 0,0 0,0 10e-5,0 10e-5,0 10e-5,0 0,0 0,0 0,1e-4 0,0 0,0 0,0 0,0 0,0 0,0 0,0 0,0 0,0 0,0 0,0 0,0 0,0 0,0 0,0 0,0 0,0 0,0 0,0 0,0 0,0 0,0 0,0 0,0 0,0 0,0 0,0 -7e-4,0 -0,0.021 0.1289,0.2149 0,0 0,0 0,0 0.03,0.079 0.047,0.1666 0.052,0.2631 0,0 0,0 0,0 0,0 0,0 0,0 0.013,0.1916 -0.022,0.4172 -0.1018,0.6686 0,0 0,0 0,0 -0.1618,0.509 -0.5236,1.137 -1.0706,1.8297 0,0 0,0 0,0 -1.1352,1.4372 -3.1362,3.2025 -5.8556,4.9035 0,0 0,0 0,0 -2.8869,1.8039 -6.6116,3.5932 -10.9524,5.0386 -4.3409,1.4454 -9.2934,2.5411 -14.5009,3.1545 -0.8729,0.1029 -1.7384,0.191 -2.5948,0.2656 -2.5837,0.3277 -5.2434,0.4325 -7.8234,0.2708 -2.58,-0.1617 -5.0789,-0.5897 -7.3721,-1.2608 -2.2932,-0.6711 -4.3799,-1.5845 -6.1828,-2.6592 -1.8028,-1.0747 -3.3218,-2.3091 -4.5334,-3.5828 0,0 0,0 0,0 -1.0033,-1.0983 -1.7445,-2.236 -2.2585,-3.2952 -0.5139,-1.0591 -0.8024,-2.0395 -0.9294,-2.8664 0,0 0,0 0,0 -0.1295,-0.8551 -0.088,-1.563 0.058,-2.0584 0,0 0,0 0,0 0.075,-0.2558 0.1777,-0.4626 0.3001,-0.6097 0,0 0,0 0,0 0,0 0,0 0,0 0,0 0,0 0,0 0.063,-0.074 0.13,-0.134 0.2014,-0.1797 0,0 0,0 0,0 0.075,-0.048 0.1536,-0.08 0.2357,-0.097 z"
         style="fill:#000000;fill-rule:evenodd;stroke:none" />
      <path
         transform="matrix(0.62564266,0,0,0.62564266,849.65094,1688.2916)"
         sodipodi:end="11.897713"
         sodipodi:start="5.6167468"
         d="m 2163.3749,1005.9204 c 8.2916,10.5427 6.4666,25.8109 -4.0761,34.1025 -10.5427,8.2915 -25.8109,6.4666 -34.1024,-4.0761 -8.2916,-10.5427 -6.4667,-25.8109 4.076,-34.1025 10.5262,-8.27852 25.7672,-6.474 34.0691,4.0338 l -19.0559,15.0555 z"
         sodipodi:ry="24.285713"
         sodipodi:rx="24.285713"
         sodipodi:cy="1020.9336"
         sodipodi:cx="2144.2856"
         id="path3396-8"
         style="fill:#000000;fill-opacity:1;fill-rule:evenodd;stroke:none"
         sodipodi:type="arc" />
      <path
         transform="matrix(0.62564266,0,0,0.62564266,1032.8749,1698.1231)"
         sodipodi:end="11.897713"
         sodipodi:start="5.6167468"
         d="m 2163.3749,1005.9204 c 8.2916,10.5427 6.4666,25.8109 -4.0761,34.1025 -10.5427,8.2915 -25.8109,6.4666 -34.1024,-4.0761 -8.2916,-10.5427 -6.4667,-25.8109 4.076,-34.1025 10.5262,-8.27852 25.7672,-6.474 34.0691,4.0338 l -19.0559,15.0555 z"
         sodipodi:ry="24.285713"
         sodipodi:rx="24.285713"
         sodipodi:cy="1020.9336"
         sodipodi:cx="2144.2856"
         id="path3396-0-5"
         style="fill:#000000;fill-opacity:1;fill-rule:evenodd;stroke:none"
         sodipodi:type="arc" />
    </g>
  </g>
</svg>
