<?xml version="1.0" encoding="UTF-8" standalone="no"?>
<!-- Created with Inkscape (http://www.inkscape.org/) -->

<svg
   xmlns:dc="http://purl.org/dc/elements/1.1/"
   xmlns:cc="http://creativecommons.org/ns#"
   xmlns:rdf="http://www.w3.org/1999/02/22-rdf-syntax-ns#"
   xmlns:svg="http://www.w3.org/2000/svg"
   xmlns="http://www.w3.org/2000/svg"
   xmlns:sodipodi="http://sodipodi.sourceforge.net/DTD/sodipodi-0.dtd"
   xmlns:inkscape="http://www.inkscape.org/namespaces/inkscape"
   width="86.907478"
   height="42.426502"
   id="svg3644"
   version="1.1"
   inkscape:version="0.48.3.1 r9886"
   sodipodi:docname="ojos_3.svg">
  <defs
     id="defs3646" />
  <sodipodi:namedview
     id="base"
     pagecolor="#ffffff"
     bordercolor="#666666"
     borderopacity="1.0"
     inkscape:pageopacity="0.0"
     inkscape:pageshadow="2"
     inkscape:zoom="0.98994949"
     inkscape:cx="353.03683"
     inkscape:cy="-141.38348"
     inkscape:document-units="px"
     inkscape:current-layer="layer1"
     showgrid="false"
     fit-margin-top="0"
     fit-margin-left="0"
     fit-margin-right="0"
     fit-margin-bottom="0"
     inkscape:window-width="1914"
     inkscape:window-height="1030"
     inkscape:window-x="0"
     inkscape:window-y="25"
     inkscape:window-maximized="1" />
  <metadata
     id="metadata3649">
    <rdf:RDF>
      <cc:Work
         rdf:about="">
        <dc:format>image/svg+xml</dc:format>
        <dc:type
           rdf:resource="http://purl.org/dc/dcmitype/StillImage" />
        <dc:title></dc:title>
      </cc:Work>
    </rdf:RDF>
  </metadata>
  <g
     inkscape:label="Capa 1"
     inkscape:groupmode="layer"
     id="layer1"
     transform="translate(-546.45547,-304.78009)">
    <g
       transform="translate(-201.97717,0.2156949)"
       style="opacity:0.9;display:inline"
       id="g3592">
      <path
         sodipodi:nodetypes="cccccscc"
         inkscape:connector-curvature="0"
         id="path4859-9-1-4-6-1-5-0"
         d="m 749.77879,318.98477 14.26913,-4.45151 12.27295,0.54127 1.67512,2.70602 -3.18455,10.35073 c 0,0 -4.84051,7.38755 -8.3405,7.70555 -3.49996,0.31796 -12.82496,-5.67936 -12.82496,-5.67936 l -5.21334,-10.21881"
         style="fill:#ffffff;stroke:none;display:inline" />
      <path
         sodipodi:nodetypes="cccccscc"
         inkscape:connector-curvature="0"
         id="path4859-2-0-7-5-1-8-0-9"
         d="m 833.89966,318.81616 -13.84272,-4.35332 -9.87338,0.77944 -5.25553,0.95086 1.77798,11.06756 c 0,0 7.01299,6.41348 10.75816,6.78542 3.74511,0.37191 14.13081,-4.3953 14.13081,-4.3953 l 3.74514,-9.71887"
         style="fill:#ffffff;stroke:none;display:inline" />
      <path
         id="path2991-7-6-78-2"
         d="m 771.23826,322.95771 c 0,4.45561 -3.61198,8.0676 -8.0676,8.0676 -4.45561,0 -8.0676,-3.61199 -8.0676,-8.0676 0,-4.45561 3.61199,-8.0676 8.0676,-8.0676 4.45562,0 8.0676,3.61199 8.0676,8.0676 z"
         style="fill:#000000;fill-opacity:1;stroke:none;display:inline"
         inkscape:connector-curvature="0" />
      <path
         id="path2991-9-3-7-9-3"
         d="m 827.23013,323.57287 c 0,4.45561 -3.61198,8.0676 -8.0676,8.0676 -4.45561,0 -8.0676,-3.61199 -8.0676,-8.0676 0,-4.45561 3.61199,-8.0676 8.0676,-8.0676 4.45562,0 8.0676,3.61199 8.0676,8.0676 z"
         style="fill:#000000;fill-opacity:1;stroke:none;display:inline"
         inkscape:connector-curvature="0" />
      <path
         inkscape:connector-curvature="0"
         id="path4972"
         d="m 749.24931,329.81324 c 0,0 5.28795,15.51124 7.40308,15.86379 2.11517,0.35252 15.51124,-1.05758 17.27389,-8.81322 1.76265,-7.7556 1.76265,-9.1657 1.76265,-9.1657 0,0 -9.51825,4.93537 -13.39607,6.3455 -3.87781,1.4101 -13.04355,-4.23037 -13.04355,-4.23037 z"
         style="fill:#b3b3b3;fill-rule:evenodd;stroke:none;display:inline" />
      <path
         inkscape:connector-curvature="0"
         id="path4972-7"
         d="m 830.15456,329.965 c 0,0 -5.28792,15.51124 -7.40312,15.86379 -2.1151,0.35252 -15.5112,-1.05758 -17.27389,-8.81322 -1.76262,-7.7556 -1.76262,-9.1657 -1.76262,-9.1657 0,0 9.51826,4.93537 13.39607,6.3455 3.87782,1.4101 13.04356,-4.23037 13.04356,-4.23037 z"
         style="fill:#b3b3b3;fill-rule:evenodd;stroke:none;display:inline" />
      <path
         id="path4905"
         d="m 753.55394,319.51283 c -0.0127,-0.0187 -0.0234,-0.0386 -0.0323,-0.0597 0,0 0,0 0,0 -0.008,-0.0202 -0.0151,-0.0415 -0.0199,-0.0639 0,0 0,0 0,0 -0.01,-0.0446 -0.0124,-0.0933 -0.008,-0.14608 0,0 0,0 0,0 0,0 0,0 0,0 0.009,-0.10466 0.0451,-0.22518 0.10738,-0.3589 0,0 0,0 0,0 0,0 0,0 0,0 0.12216,-0.26218 0.34629,-0.57677 0.6623,-0.92469 0,0 0,0 0,0 0.59851,-0.65928 1.53397,-1.44639 2.75473,-2.21265 0,0 0,0 0,0 1.08399,-0.68306 2.41639,-1.3614 3.96271,-1.84238 0.0436,-0.0144 0.0874,-0.0285 0.13161,-0.0425 0.66921,-0.21184 1.37658,-0.3672 2.09079,-0.43816 0.71425,-0.071 1.43493,-0.0574 2.12731,0.0476 1.53676,0.26174 2.84076,0.58759 3.7636,0.93549 0.92287,0.34789 1.46449,0.71782 1.46229,1.067 0,0 0,0 0,0 0,0.0121 0,0.012 0,0.012 0,0 3e-5,-7e-5 0,0.012 0,0 0,0 0,0 -0.0275,0.34709 -0.59879,0.62426 -1.56846,0.81443 -0.96967,0.19017 -2.33762,0.29335 -3.9437,0.29317 -0.41388,-0.006 -0.86202,0.049 -1.35147,0.14927 -0.48946,0.10029 -1.02056,0.24587 -1.59106,0.40517 -0.0376,0.0105 -0.0753,0.021 -0.11308,0.0316 -1.28313,0.38562 -2.50213,0.85941 -3.61136,1.27255 0,0 0,0 0,0 -1.24156,0.46444 -2.31791,0.85702 -3.14614,1.07239 0,0 0,0 0,0 -0.43692,0.11366 -0.80243,0.1774 -1.08509,0.17982 0,0 0,0 0,0 0,0 0,0 0,0 -0.14416,10e-4 -0.26614,-0.0138 -0.36482,-0.0464 0,0 0,0 0,0 0,0 0,0 0,0 -0.0498,-0.0164 -0.0936,-0.0373 -0.1311,-0.063 0,0 0,0 0,0 -0.0189,-0.0129 -0.0361,-0.027 -0.0517,-0.0423 0,0 0,0 0,0 -0.0162,-0.016 -0.0309,-0.0333 -0.0435,-0.0519 z"
         style="fill:#000000;fill-rule:evenodd;stroke:none;display:inline"
         inkscape:connector-curvature="0" />
      <path
         id="path4909"
         d="m 813.37707,314.17813 c 0,-0.0233 0.005,-0.0463 0.012,-0.0691 0.007,-0.0221 0.0162,-0.0439 0.0285,-0.0655 0,0 0,0 0,0 0.0244,-0.043 0.0597,-0.085 0.10531,-0.12583 0,0 0,0 0,0 0,0 0,0 0,0 0.0905,-0.0809 0.22238,-0.15733 0.39188,-0.22826 0,0 0,0 0,0 0.33065,-0.13835 0.80673,-0.25566 1.40329,-0.34212 0,0 0,0 0,0 1.11064,-0.16119 2.64785,-0.21946 4.45227,-0.0755 0,0 0,0 0,0 1.52153,0.11818 3.27084,0.37868 5.09366,0.97277 0.009,0.003 0.0172,0.006 0.0258,0.008 0.752,0.2447 1.50833,0.56062 2.22477,0.96869 0.65721,0.3868 1.32305,0.92458 1.88746,1.61399 0.99113,1.98103 1.73477,3.71847 2.1392,4.98199 0.40443,1.26352 0.4699,2.05357 0.13804,2.20167 -0.005,0.002 -0.005,0.002 -0.005,0.002 0,0 0,10e-6 -0.005,0.002 -0.33955,0.13466 -1.02172,-0.3837 -1.88409,-1.33701 -0.86233,-0.95331 -1.90458,-2.34111 -2.9975,-4.00717 -0.16834,-0.16549 -0.48235,-0.30394 -0.88276,-0.49113 -0.49334,-0.24849 -1.06384,-0.45921 -1.69254,-0.67032 -0.007,-0.002 -0.0144,-0.005 -0.0217,-0.007 -1.53312,-0.50907 -3.0835,-0.8575 -4.49274,-1.19441 0,0 0,0 0,0 -1.65789,-0.39367 -3.0912,-0.7349 -4.13217,-1.06892 0,0 0,0 0,0 -0.55874,-0.17926 -1.00265,-0.35501 -1.30909,-0.52956 0,0 0,0 0,0 -0.15709,-0.0895 -0.27753,-0.17862 -0.35857,-0.26757 0,0 0,0 0,0 0,0 0,0 0,0 -0.041,-0.045 -0.0719,-0.0899 -0.0922,-0.13475 0,0 0,0 0,0 -0.0103,-0.0225 -0.0179,-0.0451 -0.0223,-0.0677 -0.005,-0.0233 -0.007,-0.0465 -0.006,-0.0698 z"
         style="fill:#000000;fill-rule:evenodd;stroke:none;display:inline"
         inkscape:connector-curvature="0" />
      <path
         id="path4913"
         d="m 762.05501,304.74783 c 0.0107,0.0183 0.0192,0.0378 0.0254,0.0584 0.006,0.0199 0.01,0.0409 0.012,0.0629 0,0 0,0 0,0 0.004,0.0439 1.3e-4,0.0919 -0.0113,0.14416 0,0 0,0 0,0 0,0 0,0 0,0 -0.0223,0.10321 -0.074,0.22225 -0.15286,0.35659 0,0 0,0 0,0 -0.15393,0.26218 -0.40969,0.58132 -0.75049,0.95271 0,0 0,0 0,0 -0.63774,0.69517 -1.56946,1.56638 -2.64983,2.59512 0,0 0,0 0,0 -0.93791,0.89569 -1.98462,1.88671 -2.95082,3.01329 -0.31057,0.37932 -0.61688,0.75325 -0.88977,1.12452 -0.4025,0.54751 -0.70902,1.06311 -0.86422,1.5716 -0.34571,0.96318 -0.52838,1.94335 -0.63273,2.86931 -0.10434,0.92596 -0.13054,1.7968 -0.14423,2.5563 0.13526,1.72646 0.0289,2.89477 -0.38263,3.03797 0,0 0,0 0,0 -0.004,10e-4 -0.004,10e-4 -0.004,10e-4 0,0 0,10e-6 -0.004,10e-4 0,0 0,0 0,0 -0.41544,0.12831 -1.07154,-0.81941 -1.83881,-2.56676 -0.27639,-0.82033 -0.50555,-1.8348 -0.58009,-3.00152 -0.0745,-1.16673 0.008,-2.48636 0.36442,-3.86505 0.28395,-0.95539 0.73415,-1.83637 1.28037,-2.61406 0.3704,-0.52733 0.77098,-0.99054 1.17077,-1.39737 1.22296,-1.29622 2.51706,-2.27531 3.68607,-3.0245 0,0 0,0 0,0 1.35017,-0.86882 2.56526,-1.44942 3.48766,-1.76796 0,0 0,0 0,0 0.49303,-0.17036 0.90541,-0.26623 1.21508,-0.28677 0,0 0,0 0,0 0.15871,-0.0105 0.29104,-0.002 0.39381,0.0273 0,0 0,0 0,0 0,0 0,0 0,0 0.0519,0.0146 0.0963,0.0343 0.13299,0.059 0,0 0,0 0,0 0.0186,0.0124 0.0349,0.0261 0.0494,0.0411 0.0151,0.0155 0.0279,0.0324 0.0386,0.0507 z"
         style="fill:#000000;fill-rule:evenodd;stroke:none;display:inline"
         inkscape:connector-curvature="0" />
      <path
         id="path4917"
         d="m 825.01008,306.12451 c 0.57693,-0.42639 2.64929,1.34274 5.10267,4.22978 0,0 0,0 0,0 0.76696,0.97762 1.56379,2.11114 2.28831,3.39558 0.19299,0.34211 0.3759,0.68645 0.54757,1.03173 0.32446,0.58456 0.64149,1.26144 0.86174,1.99579 0.22025,0.73435 0.34317,1.52541 0.32357,2.32242 0,0 0,0 0,0 -0.072,0.89646 -0.21898,1.72478 -0.41664,2.44125 -0.19769,0.71648 -0.44507,1.32092 -0.70118,1.78857 0,0 0,0 0,0 -0.24126,0.4401 -0.49668,0.76733 -0.72453,0.958 0,0 0,0 0,0 -0.11208,0.0938 -0.21897,0.15772 -0.31473,0.18797 0,0 0,0 0,0 0,0 0,0 0,0 -0.0482,0.0162 -0.0936,0.0241 -0.1355,0.0231 0,0 0,0 0,0 0,0 0,0 0,0 -0.10816,-0.0347 -0.11899,-0.0305 -0.11985,-0.0298 0,0 0,0 0,0 0,0 0,0 0,0 0,0 0,0 0,0 -4e-5,5e-5 -4e-5,3e-5 -4e-5,3e-5 0,0 0,2e-5 0,-6e-5 0,0 0,0 0,0 0,0 0,0 0,0 0,0 0,0 0,0 4e-5,-10e-4 -0.003,-0.0122 -0.098,-0.0754 0,0 0,0 0,0 0,0 0,0 0,0 -0.0282,-0.0301 -0.054,-0.0653 -0.0775,-0.10585 0,0 0,0 0,0 0,0 0,0 0,0 -0.0459,-0.084 -0.0823,-0.18994 -0.11065,-0.32017 0,0 0,0 0,0 -0.0575,-0.26472 -0.0885,-0.61719 -0.10981,-1.05924 0,0 0,0 0,0 -0.0224,-0.46964 -0.0381,-1.02858 -0.071,-1.66664 -0.033,-0.63807 -0.0839,-1.35594 -0.15585,-2.14176 0,0 0,0 0,0 -0.0196,-0.34526 -0.15964,-0.7247 -0.3792,-1.17317 -0.21953,-0.44846 -0.51817,-0.96674 -0.81038,-1.57957 -0.15843,-0.29558 -0.32332,-0.59501 -0.49389,-0.89824 -0.6404,-1.13847 -1.30066,-2.22909 -1.89616,-3.25539 0,0 0,0 0,0 -2.01212,-3.15491 -3.08586,-5.64254 -2.50894,-6.06893 z"
         style="fill:#000000;fill-rule:evenodd;stroke:none;display:inline"
         inkscape:connector-curvature="0" />
      <path
         id="path4937"
         d="m 750.65941,330.16581 c 0.0151,-0.006 0.0306,-0.0104 0.0466,-0.0134 0,0 0,0 0,0 0.0151,-0.003 0.0306,-0.004 0.0465,-0.005 0.0316,-6.9e-4 0.0651,0.003 0.10046,0.0118 0,0 0,0 0,0 0,0 0,0 0,0 0.0694,0.0163 0.14571,0.0484 0.23056,0.0961 0,0 0,0 0,0 0.16421,0.0923 0.35788,0.2366 0.59082,0.41988 0,0 0,0 0,0 0.43816,0.34385 1.01165,0.81241 1.7576,1.23644 0,0 0,0 0,0 0.72198,0.41168 1.62983,0.77097 2.66531,0.94403 0,0 0,0 0,0 0.57631,0.1126 1.20006,0.15805 1.86562,0.13861 0.66556,-0.0194 1.373,-0.10351 2.10568,-0.23464 0.30706,-0.12311 0.61801,-0.24577 0.93243,-0.36776 3.14521,-1.22015 6.05749,-2.14691 8.26827,-2.67789 2.21079,-0.53097 3.72011,-0.66615 3.95019,-0.257 0,0 0,0 0,0 0,0 0,0 0,0 0,0 0,0 0,0 0,0 0,0 0,0 0,0 0,0 0,0 0,0 0,0 0,0 0,0 0,0 0,0 0,0 0,0 0,1e-5 0,0 0,0 0,0 0,0 0,0 0,0 0.003,0.003 0.003,0.003 0.003,0.003 0,0 0,0 0.003,0.003 0,0 0,0 0,0 0,0 0,0 0,0 0,0 0,0 0,0 0,0 0,0 0,0 0,0 0,0 0,0 0,0 0,0 0,0 0,0 0,0 0,0 0,0 0,0 0,0 0,0 0,0 0,0 0,0 0,0 0,0 0.21561,0.41479 -0.90727,1.30324 -2.94167,2.42317 -2.03437,1.11994 -4.98027,2.47136 -8.30159,3.76596 -0.33205,0.12943 -0.66154,0.25582 -0.98782,0.37901 -0.97802,0.17991 -1.96877,0.2547 -2.92493,0.21607 -0.95615,-0.0386 -1.87734,-0.19061 -2.72485,-0.44242 0,0 0,0 0,0 -0.72639,-0.23188 -1.38133,-0.54775 -1.94945,-0.90903 -0.56813,-0.36128 -1.04961,-0.76772 -1.44314,-1.18233 0,0 0,0 0,0 -0.79862,-0.84604 -1.21811,-1.69911 -1.39625,-2.33126 0,0 0,0 0,0 -0.0945,-0.33525 -0.12353,-0.61672 -0.10304,-0.82209 0,0 0,0 0,0 0.0107,-0.10609 0.0337,-0.19384 0.0684,-0.25963 0,0 0,0 0,0 0,0 0,0 0,0 0.0179,-0.0331 0.0381,-0.0611 0.0611,-0.0835 0.0117,-0.0113 0.0237,-0.0212 0.0366,-0.0297 0,0 0,0 0,0 0.0138,-0.009 0.0282,-0.0166 0.043,-0.0226 z"
         style="fill:#000000;fill-rule:evenodd;stroke:none;display:inline"
         inkscape:connector-curvature="0" />
      <path
         id="path4941"
         d="m 754.96174,341.64818 c 0.0107,-0.0215 0.0237,-0.0418 0.0389,-0.0608 0.0148,-0.0183 0.0313,-0.0355 0.0501,-0.0515 0,0 0,0 0,0 0.0372,-0.0319 0.0823,-0.0593 0.13509,-0.0824 0,0 0,0 0,0 0,0 0,0 0,0 0.10414,-0.0457 0.23771,-0.0747 0.39855,-0.0881 0,0 0,0 0,0 0,0 0,0 0,0 0.31253,-0.026 0.72656,0.007 1.22464,0.0885 0,0 0,0 0,0 0.91569,0.15063 2.1094,0.46924 3.47012,0.87239 0,0 0,0 0,0 1.11078,0.32745 2.29712,0.71982 3.51437,1.01977 0.004,8.9e-4 0.008,0.002 0.0113,0.003 0.45827,0.10907 0.85033,0.20246 1.18734,0.23383 0.28915,-0.0266 0.36245,0.0508 0.20038,0.081 0.65738,-0.27592 1.28763,-0.57748 1.88615,-0.85862 0.59848,-0.28114 1.16475,-0.54149 1.68133,-0.75052 1.3968,-0.58947 2.38682,-0.77421 2.65063,-0.41076 0,0 0,0 0,0 0,0 0,0 0,0 0.003,0.005 0.003,0.005 0.003,0.005 0,0 0,0 0.003,0.005 0,0 0,0 0,0 0,0 0,0 0,0 0.25147,0.37192 -0.2733,1.22855 -1.34674,2.33724 -0.39374,0.39776 -0.86679,0.83254 -1.42949,1.28073 -0.56265,0.44818 -1.21556,0.90997 -1.97375,1.34181 -0.7815,0.33987 -1.45208,0.42532 -1.88581,0.3537 -0.6506,-0.0302 -1.25982,-0.13937 -1.80765,-0.28096 -0.004,-10e-4 -0.009,-0.002 -0.0138,-0.004 -1.47786,-0.37346 -2.75924,-0.92378 -3.83456,-1.47053 0,0 0,0 0,0 -1.33962,-0.67673 -2.41006,-1.38246 -3.13521,-1.99353 0,0 0,0 0,0 -0.39484,-0.33259 -0.68853,-0.63883 -0.86604,-0.9021 0,0 0,0 0,0 0,0 0,0 0,0 -0.0913,-0.1355 -0.15228,-0.25982 -0.18047,-0.37069 0,0 0,0 0,0 0,0 0,0 0,0 -0.0141,-0.0561 -0.0203,-0.10878 -0.0175,-0.15778 0,0 0,0 0,0 0,-0.0247 0.005,-0.0484 0.0107,-0.0711 0.006,-0.0236 0.0141,-0.0462 0.0248,-0.0677 z"
         style="fill:#000000;fill-rule:evenodd;stroke:none;display:inline"
         inkscape:connector-curvature="0" />
      <path
         id="path4937-7"
         d="m 829.11726,329.62533 c 0.35393,0.27156 -0.10476,1.53485 -1.20216,3.45 0,0 0,0 0,0 -0.40072,0.42268 -0.89331,0.84159 -1.47625,1.21949 -0.58294,0.3779 -1.25638,0.71455 -2.00435,0.97066 -0.84751,0.25181 -1.76871,0.40379 -2.72486,0.44241 -0.95616,0.0386 -1.94691,-0.0362 -2.92493,-0.21608 -0.32628,-0.12319 -0.65576,-0.24958 -0.98779,-0.379 -3.32131,-1.29461 -6.26721,-2.64603 -8.30162,-3.76596 -2.0344,-1.11994 -3.15728,-2.00839 -2.94167,-2.42318 0,0 0,0 0,0 0,0 0,0 0,0 0,0 0,0 0,0 0,0 0,0 0,0 0,0 0,0 0,0 0,0 0,0 0,0 0,0 0,0 0,0 0,0 0,0 0,0 0,0 0,0 0,0 0,0 0,0 0,0 0.003,-0.003 0.003,-0.003 0.003,-0.003 0,0 0,0 0.003,-0.003 0,0 0,0 0,0 0,0 0,0 0,0 0,0 0,0 0,0 0,0 0,0 0,0 0,0 0,0 0,-10e-6 0,0 0,0 0,0 0,0 0,0 0,0 0,0 0,0 0,0 0,0 0,0 0,0 0,0 0,0 0,0 0.23008,-0.40914 1.73941,-0.27396 3.95019,0.25701 2.21078,0.53097 5.12309,1.45774 8.26827,2.67789 0.31445,0.12199 0.6254,0.24465 0.93243,0.36775 0.73268,0.13113 1.44012,0.21521 2.10568,0.23465 0.66556,0.0194 1.28932,-0.026 1.86562,-0.13861 0.99226,-0.1246 1.86965,-0.44969 2.57726,-0.84524 0,0 0,0 0,0 1.42382,-1.37083 2.50657,-2.11651 2.8605,-1.84495 z"
         style="fill:#000000;fill-rule:evenodd;stroke:none;display:inline"
         inkscape:connector-curvature="0" />
      <path
         id="path4941-9"
         d="m 824.81493,341.1077 c 0.0107,0.0215 0.0189,0.0441 0.0248,0.0677 0.006,0.0228 0.009,0.0465 0.0106,0.0711 0,0 0,0 0,0 0.003,0.049 -0.003,0.10169 -0.0175,0.15778 0,0 0,0 0,0 0,0 0,0 0,0 -0.0282,0.11086 -0.0891,0.23518 -0.18047,0.37068 0,0 0,10e-6 0,10e-6 0,0 0,0 0,0 -0.17751,0.26327 -0.4712,0.56951 -0.86604,0.90209 0,0 0,0 0,0 -0.72515,0.61108 -1.79559,1.31681 -3.13521,1.99354 0,0 0,0 0,0 -1.07532,0.54675 -2.3567,1.09707 -3.83457,1.47053 -0.004,0.001 -0.009,0.002 -0.0137,0.004 -0.54784,0.1416 -1.15708,0.25078 -1.80769,0.28098 -0.43373,0.0716 -1.10434,-0.0138 -1.88581,-0.35371 0,0 0,0 0,0 -0.75626,-0.43056 -1.40755,-0.89124 -1.96904,-1.33862 -0.56149,-0.44738 -1.03379,-0.88163 -1.42726,-1.27921 0,0 0,0 0,0 -0.52363,-0.52455 -0.91342,-0.99925 -1.15045,-1.39106 0,0 0,0 0,0 -0.12741,-0.21061 -0.21093,-0.39762 -0.24689,-0.55609 0,0 0,0 0,0 -0.0186,-0.0815 -0.0244,-0.15551 -0.0175,-0.22135 0,0 0,0 0,0 0.003,-0.0334 0.0103,-0.0647 0.0206,-0.0938 0,0 0,0 0,0 0,0 0,0 0,0 0.0442,-0.0764 0.0438,-0.0836 0.0436,-0.0842 0,0 0,0 0,0 0,0 0,0 0,0 0,0 0,0 0,0 0,0 0,0 0,0 0,0 0,0 0,0 0,0 0,0 0,0 0,0 0,0 0,0 0,-3e-5 0,-3e-5 0,-3e-5 0,0 0,0 3e-5,0 0,0 0,0 0,0 0,0 0,0 0,0 0,0 0,0 0,0 0,0 0,0 0,0 0,0 0,0 0,0 0,0 0,0 0,0 0,0 0,0 0,0 0,4e-5 0.008,-0.002 0.0654,-0.0686 0,0 0,0 0,0 0,0 0,0 0,0 0.0241,-0.0193 0.0513,-0.0361 0.0814,-0.0506 0,0 0,0 0,0 0.0596,-0.0285 0.13089,-0.0477 0.2133,-0.058 0,0 0,0 0,0 0.16029,-0.02 0.36228,-0.006 0.60137,0.038 0,0 0,0 0,0 0.44483,0.0824 1.01677,0.27063 1.68543,0.54082 0,0 0,0 0,0 0.51686,0.20921 1.08385,0.47007 1.68357,0.75202 0.59969,0.28195 1.23156,0.58462 1.89083,0.86183 0,0 0,0 0,0 -0.16204,-0.0302 -0.0888,-0.10752 0.20038,-0.081 0.33701,-0.0314 0.7291,-0.12476 1.18741,-0.23383 0.004,-9e-4 0.008,-0.002 0.0113,-0.003 1.21725,-0.29994 2.40356,-0.69231 3.51434,-1.01977 0,0 0,0 0,0 1.36076,-0.40315 2.55446,-0.72176 3.47015,-0.87238 0,0 0,0 0,0 0.49809,-0.0819 0.91211,-0.11444 1.22464,-0.0885 0,0 0,0 0,0 0,0 0,0 0,0 0.16084,0.0134 0.29442,0.0424 0.39856,0.0881 0,0 0,0 0,0 0,0 0,0 0,0 0.0528,0.0231 0.0979,0.0505 0.13508,0.0824 0,0 0,0 0,0 0.0186,0.016 0.0354,0.0332 0.0501,0.0515 0.0151,0.019 0.0282,0.0393 0.0388,0.0608 z"
         style="fill:#000000;fill-rule:evenodd;stroke:none;display:inline"
         inkscape:connector-curvature="0" />
    </g>
  </g>
</svg>
