<?xml version="1.0" encoding="UTF-8" standalone="no"?>
<!-- Created with Inkscape (http://www.inkscape.org/) -->

<svg
   xmlns:dc="http://purl.org/dc/elements/1.1/"
   xmlns:cc="http://creativecommons.org/ns#"
   xmlns:rdf="http://www.w3.org/1999/02/22-rdf-syntax-ns#"
   xmlns:svg="http://www.w3.org/2000/svg"
   xmlns="http://www.w3.org/2000/svg"
   xmlns:sodipodi="http://sodipodi.sourceforge.net/DTD/sodipodi-0.dtd"
   xmlns:inkscape="http://www.inkscape.org/namespaces/inkscape"
   width="7.1189451mm"
   height="5.7844529mm"
   viewBox="0 0 25.224609 20.496091"
   id="svg8346"
   version="1.1"
   inkscape:version="0.91 r13725"
   sodipodi:docname="barba-PIX4.svg">
  <defs
     id="defs8348" />
  <sodipodi:namedview
     id="base"
     pagecolor="#ffffff"
     bordercolor="#666666"
     borderopacity="1.0"
     inkscape:pageopacity="0.0"
     inkscape:pageshadow="2"
     inkscape:zoom="6.8381774"
     inkscape:cx="27.300278"
     inkscape:cy="5.5196982"
     inkscape:document-units="px"
     inkscape:current-layer="layer1"
     showgrid="false"
     fit-margin-top="0"
     fit-margin-left="0"
     fit-margin-right="0"
     fit-margin-bottom="0"
     inkscape:window-width="1914"
     inkscape:window-height="1030"
     inkscape:window-x="0"
     inkscape:window-y="26"
     inkscape:window-maximized="1"
     showguides="true"
     inkscape:guide-bbox="true"
     inkscape:snap-global="false"
     inkscape:snap-bbox="true"
     inkscape:bbox-paths="true"
     inkscape:bbox-nodes="true"
     inkscape:snap-bbox-edge-midpoints="true"
     inkscape:snap-bbox-midpoints="true">
    <sodipodi:guide
       position="-30.656932,-97.542203"
       orientation="0,1"
       id="guide4791" />
  </sodipodi:namedview>
  <metadata
     id="metadata8351">
    <rdf:RDF>
      <cc:Work
         rdf:about="">
        <dc:format>image/svg+xml</dc:format>
        <dc:type
           rdf:resource="http://purl.org/dc/dcmitype/StillImage" />
        <dc:title></dc:title>
      </cc:Work>
    </rdf:RDF>
  </metadata>
  <g
     inkscape:label="Capa 1"
     inkscape:groupmode="layer"
     id="layer1"
     transform="translate(-421.12359,-358.99697)">
    <path
       style="opacity:1;fill:#803300;fill-opacity:1;stroke:none;stroke-width:0.97100002;stroke-linecap:round;stroke-linejoin:round;stroke-miterlimit:4;stroke-dasharray:none;stroke-opacity:1"
       d="m -2.1113281,-3.7109375 0,1.5761719 0,1.57617185 0,1.57812495 1.57617185,0 0,1.5761719 1.57617185,0 0,1.5761719 0,1.5761719 0,1.5761719 0,1.578125 1.578125,0 0,1.5761722 0,1.576172 1.5761719,0 0,1.576171 1.5761719,0 0,1.576172 1.5761718,0 0,1.578125 1.5761719,0 1.5781249,0 1.576172,0 1.576172,0 0,-1.578125 1.576172,0 0,-1.576172 1.576172,0 0,-1.576171 1.578125,0 0,-1.576172 0,-1.5761722 1.576172,0 0,-1.578125 0,-1.5761719 0,-1.5761719 0,-1.5761719 1.576171,0 0,-1.5761719 1.576172,0 0,-1.57812495 0,-1.57617185 0,-1.5761719 -1.576172,0 0,1.5761719 0,1.57617185 -1.576171,0 0,1.57812495 -1.576172,0 0,1.5761719 0,1.5761719 0,1.5761719 -1.578125,0 0,-1.5761719 -1.576172,0 -1.576172,0 -1.576172,0 -1.576172,0 -1.5781249,0 -1.5761719,0 -1.5761718,0 -1.5761719,0 0,1.5761719 -1.5761719,0 0,-1.5761719 0,-1.5761719 0,-1.5761719 -1.578125,0 0,-1.57812495 -1.57617185,0 0,-1.57617185 0,-1.5761719 -1.57617185,0 z m 7.8828125,11.0351563 1.5761718,0 1.5761719,0 1.5781249,0 1.576172,0 1.576172,0 0,1.578125 -1.576172,0 -1.576172,0 -1.5781249,0 -1.5761719,0 -1.5761718,0 0,-1.578125 z"
       transform="translate(423.23492,362.70791)"
       id="rect9025-43"
       inkscape:connector-curvature="0" />
  </g>
</svg>
