<?xml version="1.0" encoding="UTF-8" standalone="no"?>
<!-- Created with Inkscape (http://www.inkscape.org/) -->

<svg
   xmlns:dc="http://purl.org/dc/elements/1.1/"
   xmlns:cc="http://creativecommons.org/ns#"
   xmlns:rdf="http://www.w3.org/1999/02/22-rdf-syntax-ns#"
   xmlns:svg="http://www.w3.org/2000/svg"
   xmlns="http://www.w3.org/2000/svg"
   xmlns:sodipodi="http://sodipodi.sourceforge.net/DTD/sodipodi-0.dtd"
   xmlns:inkscape="http://www.inkscape.org/namespaces/inkscape"
   width="148.59949"
   height="91.800179"
   id="svg10006"
   version="1.1"
   inkscape:version="0.48.3.1 r9886"
   sodipodi:docname="brillitos.svg">
  <defs
     id="defs10008">
    <inkscape:path-effect
       effect="skeletal"
       id="path-effect8271"
       is_visible="true"
       pattern="m 236.12243,418.00722 c 0,-2.76 2.24,-5 5,-5 2.76,0 5,2.24 5,5 0,2.76 -2.24,5 -5,5 -2.76,0 -5,-2.24 -5,-5 z"
       copytype="single_stretched"
       prop_scale="1"
       scale_y_rel="false"
       spacing="0"
       normal_offset="0"
       tang_offset="0"
       prop_units="false"
       vertical_pattern="false"
       fuse_tolerance="0" />
    <inkscape:path-effect
       effect="skeletal"
       id="path-effect8263"
       is_visible="true"
       pattern="M 0,5 C 0,2.24 2.24,0 5,0 7.76,0 10,2.24 10,5 10,7.76 7.76,10 5,10 2.24,10 0,7.76 0,5 z"
       copytype="single_stretched"
       prop_scale="1"
       scale_y_rel="false"
       spacing="0"
       normal_offset="0"
       tang_offset="0"
       prop_units="false"
       vertical_pattern="false"
       fuse_tolerance="0" />
    <inkscape:path-effect
       effect="skeletal"
       id="path-effect8267"
       is_visible="true"
       pattern="m 225.01075,425.07829 c 0,-2.76 2.24,-5 5,-5 2.76,0 5,2.24 5,5 0,2.76 -2.24,5 -5,5 -2.76,0 -5,-2.24 -5,-5 z"
       copytype="single_stretched"
       prop_scale="1"
       scale_y_rel="false"
       spacing="0"
       normal_offset="0"
       tang_offset="0"
       prop_units="false"
       vertical_pattern="false"
       fuse_tolerance="0" />
    <inkscape:path-effect
       effect="skeletal"
       id="path-effect8275"
       is_visible="true"
       pattern="M 0,5 C 0,2.24 2.24,0 5,0 7.76,0 10,2.24 10,5 10,7.76 7.76,10 5,10 2.24,10 0,7.76 0,5 z"
       copytype="single_stretched"
       prop_scale="1"
       scale_y_rel="false"
       spacing="0"
       normal_offset="0"
       tang_offset="0"
       prop_units="false"
       vertical_pattern="false"
       fuse_tolerance="0" />
    <inkscape:path-effect
       effect="skeletal"
       id="path-effect8934-4"
       is_visible="true"
       pattern="m 523.0306,976.42002 c 0,-2.76 2.24,-5 5,-5 2.76,0 5,2.24 5,5 0,2.76 -2.24,5 -5,5 -2.76,0 -5,-2.24 -5,-5 z"
       copytype="single_stretched"
       prop_scale="0.2"
       scale_y_rel="false"
       spacing="0"
       normal_offset="0"
       tang_offset="0"
       prop_units="false"
       vertical_pattern="false"
       fuse_tolerance="0" />
    <inkscape:path-effect
       effect="skeletal"
       id="path-effect8938-2"
       is_visible="true"
       pattern="m 524.79836,990.81469 c 0,-2.76 2.24,-5 5,-5 2.76,0 5,2.24 5,5 0,2.76 -2.24,5 -5,5 -2.76,0 -5,-2.24 -5,-5 z"
       copytype="single_stretched"
       prop_scale="0.3"
       scale_y_rel="false"
       spacing="0"
       normal_offset="0"
       tang_offset="0"
       prop_units="false"
       vertical_pattern="false"
       fuse_tolerance="0" />
    <inkscape:path-effect
       effect="skeletal"
       id="path-effect8942-85"
       is_visible="true"
       pattern="m 526.56613,985.76393 c 0,-2.76 2.24,-5 5,-5 2.76,0 5,2.24 5,5 0,2.76 -2.24,5 -5,5 -2.76,0 -5,-2.24 -5,-5 z"
       copytype="single_stretched"
       prop_scale="0.3"
       scale_y_rel="false"
       spacing="0"
       normal_offset="0"
       tang_offset="0"
       prop_units="false"
       vertical_pattern="false"
       fuse_tolerance="0" />
    <inkscape:path-effect
       effect="skeletal"
       id="path-effect8942-2-0"
       is_visible="true"
       pattern="m 522.52885,900.76662 c 0,-2.76 2.24,-5 5,-5 2.76,0 5,2.24 5,5 0,2.76 -2.24,5 -5,5 -2.76,0 -5,-2.24 -5,-5 z"
       copytype="single_stretched"
       prop_scale="0.3"
       scale_y_rel="false"
       spacing="0"
       normal_offset="0"
       tang_offset="0"
       prop_units="false"
       vertical_pattern="false"
       fuse_tolerance="0" />
    <inkscape:path-effect
       effect="skeletal"
       id="path-effect8934-4-6"
       is_visible="true"
       pattern="m 523.0306,976.42002 c 0,-2.76 2.24,-5 5,-5 2.76,0 5,2.24 5,5 0,2.76 -2.24,5 -5,5 -2.76,0 -5,-2.24 -5,-5 z"
       copytype="single_stretched"
       prop_scale="0.2"
       scale_y_rel="false"
       spacing="0"
       normal_offset="0"
       tang_offset="0"
       prop_units="false"
       vertical_pattern="false"
       fuse_tolerance="0" />
    <inkscape:path-effect
       effect="skeletal"
       id="path-effect8938-2-8"
       is_visible="true"
       pattern="m 524.79836,990.81469 c 0,-2.76 2.24,-5 5,-5 2.76,0 5,2.24 5,5 0,2.76 -2.24,5 -5,5 -2.76,0 -5,-2.24 -5,-5 z"
       copytype="single_stretched"
       prop_scale="0.3"
       scale_y_rel="false"
       spacing="0"
       normal_offset="0"
       tang_offset="0"
       prop_units="false"
       vertical_pattern="false"
       fuse_tolerance="0" />
    <inkscape:path-effect
       effect="skeletal"
       id="path-effect8942-85-2"
       is_visible="true"
       pattern="m 526.56613,985.76393 c 0,-2.76 2.24,-5 5,-5 2.76,0 5,2.24 5,5 0,2.76 -2.24,5 -5,5 -2.76,0 -5,-2.24 -5,-5 z"
       copytype="single_stretched"
       prop_scale="0.3"
       scale_y_rel="false"
       spacing="0"
       normal_offset="0"
       tang_offset="0"
       prop_units="false"
       vertical_pattern="false"
       fuse_tolerance="0" />
    <inkscape:path-effect
       effect="skeletal"
       id="path-effect8942-2-0-9"
       is_visible="true"
       pattern="m 522.52885,900.76662 c 0,-2.76 2.24,-5 5,-5 2.76,0 5,2.24 5,5 0,2.76 -2.24,5 -5,5 -2.76,0 -5,-2.24 -5,-5 z"
       copytype="single_stretched"
       prop_scale="0.3"
       scale_y_rel="false"
       spacing="0"
       normal_offset="0"
       tang_offset="0"
       prop_units="false"
       vertical_pattern="false"
       fuse_tolerance="0" />
    <inkscape:path-effect
       effect="skeletal"
       id="path-effect8934"
       is_visible="true"
       pattern="m 231.32421,416.23945 c 0,-2.76 2.24,-5 5,-5 2.76,0 5,2.24 5,5 0,2.76 -2.24,5 -5,5 -2.76,0 -5,-2.24 -5,-5 z"
       copytype="single_stretched"
       prop_scale="0.2"
       scale_y_rel="false"
       spacing="0"
       normal_offset="0"
       tang_offset="0"
       prop_units="false"
       vertical_pattern="false"
       fuse_tolerance="0" />
    <inkscape:path-effect
       effect="skeletal"
       id="path-effect8938"
       is_visible="true"
       pattern="m 233.09197,430.63412 c 0,-2.76 2.24,-5 5,-5 2.76,0 5,2.24 5,5 0,2.76 -2.24,5 -5,5 -2.76,0 -5,-2.24 -5,-5 z"
       copytype="single_stretched"
       prop_scale="0.3"
       scale_y_rel="false"
       spacing="0"
       normal_offset="0"
       tang_offset="0"
       prop_units="false"
       vertical_pattern="false"
       fuse_tolerance="0" />
    <inkscape:path-effect
       effect="skeletal"
       id="path-effect8942"
       is_visible="true"
       pattern="m 234.85974,425.58336 c 0,-2.76 2.24,-5 5,-5 2.76,0 5,2.24 5,5 0,2.76 -2.24,5 -5,5 -2.76,0 -5,-2.24 -5,-5 z"
       copytype="single_stretched"
       prop_scale="0.3"
       scale_y_rel="false"
       spacing="0"
       normal_offset="0"
       tang_offset="0"
       prop_units="false"
       vertical_pattern="false"
       fuse_tolerance="0" />
    <inkscape:path-effect
       effect="skeletal"
       id="path-effect8942-2"
       is_visible="true"
       pattern="m 230.82246,340.58605 c 0,-2.76 2.24,-5 5,-5 2.76,0 5,2.24 5,5 0,2.76 -2.24,5 -5,5 -2.76,0 -5,-2.24 -5,-5 z"
       copytype="single_stretched"
       prop_scale="0.3"
       scale_y_rel="false"
       spacing="0"
       normal_offset="0"
       tang_offset="0"
       prop_units="false"
       vertical_pattern="false"
       fuse_tolerance="0" />
    <inkscape:path-effect
       effect="skeletal"
       id="path-effect8934-9"
       is_visible="true"
       pattern="m 231.32421,416.23945 c 0,-2.76 2.24,-5 5,-5 2.76,0 5,2.24 5,5 0,2.76 -2.24,5 -5,5 -2.76,0 -5,-2.24 -5,-5 z"
       copytype="single_stretched"
       prop_scale="0.2"
       scale_y_rel="false"
       spacing="0"
       normal_offset="0"
       tang_offset="0"
       prop_units="false"
       vertical_pattern="false"
       fuse_tolerance="0" />
    <inkscape:path-effect
       effect="skeletal"
       id="path-effect8938-6"
       is_visible="true"
       pattern="m 233.09197,430.63412 c 0,-2.76 2.24,-5 5,-5 2.76,0 5,2.24 5,5 0,2.76 -2.24,5 -5,5 -2.76,0 -5,-2.24 -5,-5 z"
       copytype="single_stretched"
       prop_scale="0.3"
       scale_y_rel="false"
       spacing="0"
       normal_offset="0"
       tang_offset="0"
       prop_units="false"
       vertical_pattern="false"
       fuse_tolerance="0" />
    <inkscape:path-effect
       effect="skeletal"
       id="path-effect8942-8"
       is_visible="true"
       pattern="m 234.85974,425.58336 c 0,-2.76 2.24,-5 5,-5 2.76,0 5,2.24 5,5 0,2.76 -2.24,5 -5,5 -2.76,0 -5,-2.24 -5,-5 z"
       copytype="single_stretched"
       prop_scale="0.3"
       scale_y_rel="false"
       spacing="0"
       normal_offset="0"
       tang_offset="0"
       prop_units="false"
       vertical_pattern="false"
       fuse_tolerance="0" />
    <inkscape:path-effect
       effect="skeletal"
       id="path-effect8942-2-6"
       is_visible="true"
       pattern="m 230.82246,340.58605 c 0,-2.76 2.24,-5 5,-5 2.76,0 5,2.24 5,5 0,2.76 -2.24,5 -5,5 -2.76,0 -5,-2.24 -5,-5 z"
       copytype="single_stretched"
       prop_scale="0.3"
       scale_y_rel="false"
       spacing="0"
       normal_offset="0"
       tang_offset="0"
       prop_units="false"
       vertical_pattern="false"
       fuse_tolerance="0" />
    <inkscape:path-effect
       effect="skeletal"
       id="path-effect9110"
       is_visible="true"
       pattern="M 0,5 C 0,2.24 2.24,0 5,0 7.76,0 10,2.24 10,5 10,7.76 7.76,10 5,10 2.24,10 0,7.76 0,5 z"
       copytype="single_stretched"
       prop_scale="0.3"
       scale_y_rel="false"
       spacing="0"
       normal_offset="0"
       tang_offset="0"
       prop_units="false"
       vertical_pattern="false"
       fuse_tolerance="0" />
    <inkscape:path-effect
       effect="skeletal"
       id="path-effect9110-4"
       is_visible="true"
       pattern="M 0,5 C 0,2.24 2.24,0 5,0 7.76,0 10,2.24 10,5 10,7.76 7.76,10 5,10 2.24,10 0,7.76 0,5 z"
       copytype="single_stretched"
       prop_scale="0.3"
       scale_y_rel="false"
       spacing="0"
       normal_offset="0"
       tang_offset="0"
       prop_units="false"
       vertical_pattern="false"
       fuse_tolerance="0" />
    <inkscape:path-effect
       effect="skeletal"
       id="path-effect8934-7"
       is_visible="true"
       pattern="m 453.33008,997.63322 c 0,-2.76 2.24,-5 5,-5 2.76,0 5,2.24 5,5 0,2.75998 -2.24,4.99998 -5,4.99998 -2.76,0 -5,-2.24 -5,-4.99998 z"
       copytype="single_stretched"
       prop_scale="0.2"
       scale_y_rel="false"
       spacing="0"
       normal_offset="0"
       tang_offset="0"
       prop_units="false"
       vertical_pattern="false"
       fuse_tolerance="0" />
    <inkscape:path-effect
       effect="skeletal"
       id="path-effect8938-3"
       is_visible="true"
       pattern="m 455.09784,1012.0279 c 0,-2.76 2.24,-5 5,-5 2.76,0 5,2.24 5,5 0,2.76 -2.24,5 -5,5 -2.76,0 -5,-2.24 -5,-5 z"
       copytype="single_stretched"
       prop_scale="0.3"
       scale_y_rel="false"
       spacing="0"
       normal_offset="0"
       tang_offset="0"
       prop_units="false"
       vertical_pattern="false"
       fuse_tolerance="0" />
    <inkscape:path-effect
       effect="skeletal"
       id="path-effect8942-1"
       is_visible="true"
       pattern="m 456.86561,1006.9771 c 0,-2.76 2.24,-5 5,-5 2.76,0 5,2.24 5,5 0,2.76 -2.24,5 -5,5 -2.76,0 -5,-2.24 -5,-5 z"
       copytype="single_stretched"
       prop_scale="0.3"
       scale_y_rel="false"
       spacing="0"
       normal_offset="0"
       tang_offset="0"
       prop_units="false"
       vertical_pattern="false"
       fuse_tolerance="0" />
    <inkscape:path-effect
       effect="skeletal"
       id="path-effect8942-2-62"
       is_visible="true"
       pattern="m 452.82833,921.97982 c 0,-2.76 2.24,-5 5,-5 2.76,0 5,2.24 5,5 0,2.76 -2.24,5 -5,5 -2.76,0 -5,-2.24 -5,-5 z"
       copytype="single_stretched"
       prop_scale="0.3"
       scale_y_rel="false"
       spacing="0"
       normal_offset="0"
       tang_offset="0"
       prop_units="false"
       vertical_pattern="false"
       fuse_tolerance="0" />
    <inkscape:path-effect
       effect="skeletal"
       id="path-effect8934-7-7"
       is_visible="true"
       pattern="m 453.33008,997.63322 c 0,-2.76 2.24,-5 5,-5 2.76,0 5,2.24 5,5 0,2.75998 -2.24,4.99998 -5,4.99998 -2.76,0 -5,-2.24 -5,-4.99998 z"
       copytype="single_stretched"
       prop_scale="0.2"
       scale_y_rel="false"
       spacing="0"
       normal_offset="0"
       tang_offset="0"
       prop_units="false"
       vertical_pattern="false"
       fuse_tolerance="0" />
    <inkscape:path-effect
       effect="skeletal"
       id="path-effect8938-3-9"
       is_visible="true"
       pattern="m 455.09784,1012.0279 c 0,-2.76 2.24,-5 5,-5 2.76,0 5,2.24 5,5 0,2.76 -2.24,5 -5,5 -2.76,0 -5,-2.24 -5,-5 z"
       copytype="single_stretched"
       prop_scale="0.3"
       scale_y_rel="false"
       spacing="0"
       normal_offset="0"
       tang_offset="0"
       prop_units="false"
       vertical_pattern="false"
       fuse_tolerance="0" />
    <inkscape:path-effect
       effect="skeletal"
       id="path-effect8942-1-3"
       is_visible="true"
       pattern="m 456.86561,1006.9771 c 0,-2.76 2.24,-5 5,-5 2.76,0 5,2.24 5,5 0,2.76 -2.24,5 -5,5 -2.76,0 -5,-2.24 -5,-5 z"
       copytype="single_stretched"
       prop_scale="0.3"
       scale_y_rel="false"
       spacing="0"
       normal_offset="0"
       tang_offset="0"
       prop_units="false"
       vertical_pattern="false"
       fuse_tolerance="0" />
    <inkscape:path-effect
       effect="skeletal"
       id="path-effect8942-2-62-0"
       is_visible="true"
       pattern="m 452.82833,921.97982 c 0,-2.76 2.24,-5 5,-5 2.76,0 5,2.24 5,5 0,2.76 -2.24,5 -5,5 -2.76,0 -5,-2.24 -5,-5 z"
       copytype="single_stretched"
       prop_scale="0.3"
       scale_y_rel="false"
       spacing="0"
       normal_offset="0"
       tang_offset="0"
       prop_units="false"
       vertical_pattern="false"
       fuse_tolerance="0" />
    <inkscape:path-effect
       effect="skeletal"
       id="path-effect8934-5"
       is_visible="true"
       pattern="m 528.08136,961.26773 c 0,-2.76 2.24,-5 5,-5 2.76,0 5,2.24 5,5 0,2.76 -2.24,5 -5,5 -2.76,0 -5,-2.24 -5,-5 z"
       copytype="single_stretched"
       prop_scale="0.2"
       scale_y_rel="false"
       spacing="0"
       normal_offset="0"
       tang_offset="0"
       prop_units="false"
       vertical_pattern="false"
       fuse_tolerance="0" />
    <inkscape:path-effect
       effect="skeletal"
       id="path-effect8938-68"
       is_visible="true"
       pattern="m 529.84912,975.6624 c 0,-2.76 2.24,-5 5,-5 2.76,0 5,2.24 5,5 0,2.76 -2.24,5 -5,5 -2.76,0 -5,-2.24 -5,-5 z"
       copytype="single_stretched"
       prop_scale="0.3"
       scale_y_rel="false"
       spacing="0"
       normal_offset="0"
       tang_offset="0"
       prop_units="false"
       vertical_pattern="false"
       fuse_tolerance="0" />
    <inkscape:path-effect
       effect="skeletal"
       id="path-effect8942-0"
       is_visible="true"
       pattern="m 531.61689,970.61164 c 0,-2.76 2.24,-5 5,-5 2.76,0 5,2.24 5,5 0,2.76 -2.24,5 -5,5 -2.76,0 -5,-2.24 -5,-5 z"
       copytype="single_stretched"
       prop_scale="0.3"
       scale_y_rel="false"
       spacing="0"
       normal_offset="0"
       tang_offset="0"
       prop_units="false"
       vertical_pattern="false"
       fuse_tolerance="0" />
    <inkscape:path-effect
       effect="skeletal"
       id="path-effect8942-2-5"
       is_visible="true"
       pattern="m 527.57961,885.61433 c 0,-2.76 2.24,-5 5,-5 2.76,0 5,2.24 5,5 0,2.76 -2.24,5 -5,5 -2.76,0 -5,-2.24 -5,-5 z"
       copytype="single_stretched"
       prop_scale="0.3"
       scale_y_rel="false"
       spacing="0"
       normal_offset="0"
       tang_offset="0"
       prop_units="false"
       vertical_pattern="false"
       fuse_tolerance="0" />
    <inkscape:path-effect
       effect="skeletal"
       id="path-effect8934-9-9"
       is_visible="true"
       pattern="m 231.32421,416.23945 c 0,-2.76 2.24,-5 5,-5 2.76,0 5,2.24 5,5 0,2.76 -2.24,5 -5,5 -2.76,0 -5,-2.24 -5,-5 z"
       copytype="single_stretched"
       prop_scale="0.2"
       scale_y_rel="false"
       spacing="0"
       normal_offset="0"
       tang_offset="0"
       prop_units="false"
       vertical_pattern="false"
       fuse_tolerance="0" />
    <inkscape:path-effect
       effect="skeletal"
       id="path-effect8938-6-5"
       is_visible="true"
       pattern="m 233.09197,430.63412 c 0,-2.76 2.24,-5 5,-5 2.76,0 5,2.24 5,5 0,2.76 -2.24,5 -5,5 -2.76,0 -5,-2.24 -5,-5 z"
       copytype="single_stretched"
       prop_scale="0.3"
       scale_y_rel="false"
       spacing="0"
       normal_offset="0"
       tang_offset="0"
       prop_units="false"
       vertical_pattern="false"
       fuse_tolerance="0" />
    <inkscape:path-effect
       effect="skeletal"
       id="path-effect8942-8-4"
       is_visible="true"
       pattern="m 234.85974,425.58336 c 0,-2.76 2.24,-5 5,-5 2.76,0 5,2.24 5,5 0,2.76 -2.24,5 -5,5 -2.76,0 -5,-2.24 -5,-5 z"
       copytype="single_stretched"
       prop_scale="0.3"
       scale_y_rel="false"
       spacing="0"
       normal_offset="0"
       tang_offset="0"
       prop_units="false"
       vertical_pattern="false"
       fuse_tolerance="0" />
    <inkscape:path-effect
       effect="skeletal"
       id="path-effect8942-2-6-45"
       is_visible="true"
       pattern="m 230.82246,340.58605 c 0,-2.76 2.24,-5 5,-5 2.76,0 5,2.24 5,5 0,2.76 -2.24,5 -5,5 -2.76,0 -5,-2.24 -5,-5 z"
       copytype="single_stretched"
       prop_scale="0.3"
       scale_y_rel="false"
       spacing="0"
       normal_offset="0"
       tang_offset="0"
       prop_units="false"
       vertical_pattern="false"
       fuse_tolerance="0" />
  </defs>
  <sodipodi:namedview
     id="base"
     pagecolor="#ffffff"
     bordercolor="#666666"
     borderopacity="1.0"
     inkscape:pageopacity="0.0"
     inkscape:pageshadow="2"
     inkscape:zoom="0.35"
     inkscape:cx="58.192204"
     inkscape:cy="-113.00046"
     inkscape:document-units="px"
     inkscape:current-layer="layer1"
     showgrid="false"
     fit-margin-top="0"
     fit-margin-left="0"
     fit-margin-right="0"
     fit-margin-bottom="0"
     inkscape:window-width="560"
     inkscape:window-height="453"
     inkscape:window-x="310"
     inkscape:window-y="414"
     inkscape:window-maximized="0" />
  <metadata
     id="metadata10011">
    <rdf:RDF>
      <cc:Work
         rdf:about="">
        <dc:format>image/svg+xml</dc:format>
        <dc:type
           rdf:resource="http://purl.org/dc/dcmitype/StillImage" />
        <dc:title></dc:title>
      </cc:Work>
    </rdf:RDF>
  </metadata>
  <g
     inkscape:label="Capa 1"
     inkscape:groupmode="layer"
     id="layer1"
     transform="translate(-291.80779,-327.56158)">
    <g
       id="g9541"
       transform="translate(215.34299,-260.224)">
      <path
         transform="matrix(0.53532983,0,0,0.53532983,390.01514,445.50583)"
         d="m -458.57145,352.43805 c 0,41.42136 -28.4619,75 -63.57143,75 -35.10953,0 -63.57143,-33.57864 -63.57143,-75 0,-41.42136 28.4619,-75 63.57143,-75 35.10953,0 63.57143,33.57864 63.57143,75 z"
         sodipodi:ry="75"
         sodipodi:rx="63.57143"
         sodipodi:cy="352.43805"
         sodipodi:cx="-522.14288"
         id="path8906-7"
         style="fill:#ffffff;fill-opacity:1;stroke:none"
         sodipodi:type="arc" />
      <path
         d="m -458.57145,352.43805 c 0,41.42136 -28.4619,75 -63.57143,75 -35.10953,0 -63.57143,-33.57864 -63.57143,-75 0,-41.42136 28.4619,-75 63.57143,-75 35.10953,0 63.57143,33.57864 63.57143,75 z"
         sodipodi:ry="75"
         sodipodi:rx="63.57143"
         sodipodi:cy="352.43805"
         sodipodi:cx="-522.14288"
         id="path8906-8-2"
         style="fill:#000000;fill-opacity:1;stroke:none"
         sodipodi:type="arc"
         transform="matrix(0.11823164,0,0,0.11823164,193.8852,586.33382)" />
      <path
         sodipodi:nodetypes="csc"
         inkscape:connector-curvature="0"
         inkscape:original-d="m 78.56348,620.85797 c 8.5863,-19.19289 14.64721,-26.26396 28.28427,-26.26396 21.72415,10e-6 35.86042,25.50635 35.86042,25.50635"
         inkscape:path-effect="#path-effect8934-5"
         id="path8932-7"
         d="m 78.56348,620.85797 c -0.0887,-0.0397 0.07185,-0.63096 0.454653,-1.7044 0.382806,-1.07343 0.98313,-2.63373 1.828729,-4.58358 0.845599,-1.94986 1.932449,-4.29403 3.412706,-6.83237 1.480257,-2.53834 3.353538,-5.27265 5.931282,-7.8485 1.970764,-1.9594 4.442311,-3.70114 7.358678,-4.79689 2.886022,-1.07192 6.078532,-1.49998 9.298222,-1.49692 0.77092,2.8e-4 1.54495,0.0332 2.31986,0.0982 4.74363,0.39788 9.15818,1.96538 12.89735,4.04484 4.73844,2.63355 8.4787,5.95759 11.40272,9.05479 0,0 0,0 0,0 3.27194,3.46243 5.5585,6.68197 7.05586,9.05034 0,0 0,0 0,0 0.80063,1.26616 1.37419,2.29741 1.73527,3.02599 0,0 0,0 0,0 0.18553,0.37434 0.31516,0.66955 0.39002,0.87696 0,0 0,0 0,0 0,0 0,0 0,0 0.038,0.10524 0.062,0.18797 0.0721,0.24709 0,0 0,0 0,0 0,0 0,0 0,10e-6 -0.013,0.0397 -0.0164,0.0662 -0.0164,0.0829 0,0 0,0 0,0 0,0.0164 0.003,0.0233 0.004,0.024 0,0 0,0 0,0 0,0 0,0 0,0 0,0 0,0 0,0 0,0 0,0 0,0 0,0 0,0 0,0 0,0 0,0 0,0 0,0 0,0 0,0 0,0 0,0 0,0 0,0 0,0 0,0 0,0 0,0 0,0 1e-5,4e-5 1e-5,3e-5 1e-5,3e-5 0,0 0,10e-6 -1e-5,-2e-5 0,0 0,0 0,0 0,0 0,0 0,0 0,0 0,0 0,0 0,0 0,0 0,0 0,0 0,0 0,0 0,0 0,0 0,0 0,0 0,0 0,0 0,0 0,0 0,0 0,0 0,0 0,0 0,0 0,0 0,0 -3.7e-4,-6.3e-4 -0.004,-0.007 -0.0185,-0.0157 0,0 0,0 0,0 -0.0142,-0.009 -0.0386,-0.0195 -0.0796,-0.029 0,0 0,0 0,0 0,0 0,0 0,0 -0.0455,-0.0386 -0.10421,-0.10021 -0.17632,-0.18394 0,0 0,0 0,0 0,0 0,0 0,0 -0.14272,-0.16588 -0.33768,-0.41811 -0.58625,-0.74922 0,0 0,0 0,0 -0.48377,-0.6444 -1.16891,-1.58597 -2.06832,-2.76064 0,0 0,0 0,0 -1.68249,-2.19708 -4.10189,-5.22505 -7.41929,-8.48252 0,0 0,0 0,0 -2.96687,-2.91042 -6.65661,-6.03183 -11.20826,-8.46715 -3.57792,-1.9129 -7.73804,-3.36308 -12.15013,-3.72978 -0.72074,-0.0599 -1.4393,-0.09 -2.15376,-0.0897 -3.05876,0.003 -6.01632,0.36278 -8.631982,1.31257 -2.632284,0.94321 -4.917579,2.49852 -6.783458,4.26292 -2.503318,2.35576 -4.380134,4.92587 -5.9161,7.33546 -1.535966,2.40959 -2.729634,4.65934 -3.706475,6.5261 -0.97684,1.86676 -1.732342,3.35476 -2.278621,4.35378 -0.546279,0.99902 -0.878938,1.51411 -0.967634,1.47443 z"
         style="fill:#000000;fill-rule:evenodd;stroke:none" />
      <path
         inkscape:connector-curvature="0"
         inkscape:original-d="m 82.85662,657.98107 c 0,0 5.05076,11.61676 20.20305,14.14214 15.15229,2.52538 28.78935,-2.52538 32.32488,-7.57614"
         inkscape:path-effect="#path-effect8938-68"
         id="path8936-0"
         d="m 82.856646,657.98113 c 0.308929,-0.2231 2.261243,1.8867 5.190162,5.49675 10e-7,0 10e-7,0 10e-7,0 1.627469,1.47961 3.726986,3.02623 6.302132,4.32336 2.575146,1.29713 5.627199,2.34216 8.954649,2.85845 0,0 0,0 0,0 1.38842,0.21981 2.81803,0.39072 4.27709,0.50309 5.79797,0.44652 11.23421,-0.14042 15.66366,-1.20256 1.97791,-0.51086 3.81686,-1.01359 5.35784,-1.57203 1.54097,-0.55845 2.78946,-1.16978 3.75448,-1.76043 0.96502,-0.59064 1.65477,-1.15465 2.14148,-1.54792 0.48671,-0.39328 0.77812,-0.60857 0.88641,-0.53277 0.10829,0.0758 0.0246,0.44088 -0.30853,1.02001 -0.33317,0.57912 -0.92449,1.36628 -1.85266,2.20701 -0.92817,0.84073 -2.20089,1.72832 -3.79186,2.52742 -1.59097,0.79909 -3.50409,1.50457 -5.51905,2.09065 -2.30497,0.71061 -4.89707,1.28082 -7.69195,1.60379 -2.79488,0.32297 -5.79188,0.39778 -8.87054,0.16031 -1.5495,-0.11952 -3.0658,-0.3132 -4.53421,-0.56953 0,0 0,0 0,0 -3.689787,-0.65325 -7.036502,-1.95952 -9.791403,-3.55959 -2.754902,-1.60007 -4.919673,-3.4873 -6.494122,-5.26933 0,0 0,0 -10e-7,0 -2.583772,-4.02326 -3.982506,-6.55357 -3.673578,-6.77668 z"
         style="fill:#000000;fill-rule:evenodd;stroke:none" />
      <path
         inkscape:connector-curvature="0"
         inkscape:original-d="m 92.20053,673.63844 c 0,0 11.61676,6.06092 23.73859,4.04061 12.12183,-2.0203 14.14213,-3.03046 14.14213,-3.03046"
         inkscape:path-effect="#path-effect8942-0"
         id="path8940-4"
         d="m 92.200586,673.63847 c 0.174543,-0.46042 3.208336,0.2224 7.7188,1.64141 3.090804,0.68257 6.951734,1.35252 11.080154,1.32422 1.63537,-0.0112 3.21159,-0.1334 4.70114,-0.35567 2.4746,-0.36154 4.74704,-0.66401 6.71596,-0.93005 1.96892,-0.26603 3.63578,-0.4942 4.91096,-0.63906 0,0 0,0 0,0 0.9361,-0.10701 1.64149,-0.1702 2.10998,-0.17551 0,0 0,0 0,0 0,0 0,0 0,0 0.19107,2.9e-4 0.33949,0.0113 0.44886,0.035 0,0 0,0 0,0 0,0 0,0 0,0 0.0744,0.0624 0.12292,0.09 0.15293,0.10188 0.0275,0.0109 0.0387,0.009 0.0415,0.008 4.6e-4,-1.5e-4 3.5e-4,-10e-5 3.5e-4,-10e-5 0,0 1.1e-4,-5e-5 -3e-4,2.3e-4 -0.002,0.002 -0.0112,0.009 -0.0215,0.0368 -0.0113,0.03 -0.0236,0.0833 -0.0293,0.17736 0,0 0,0 0,0 0,0 0,0 0,0 -0.0682,0.094 -0.19266,0.20516 -0.36586,0.32599 0,0 0,0 0,0 0,0 0,0 0,0 -0.39821,0.2815 -1.07764,0.61814 -1.96906,0.96634 0,0 0,10e-6 0,10e-6 -1.21804,0.47618 -2.86004,1.00003 -4.81918,1.50469 -1.95914,0.50466 -4.23475,0.98818 -6.69851,1.4497 -1.64687,0.30047 -3.3951,0.4652 -5.1951,0.47556 -4.54404,0.0262 -8.67945,-0.92745 -11.819798,-2.02275 -4.396807,-1.95767 -7.136618,-3.46359 -6.962076,-3.92401 z"
         style="fill:#000000;fill-rule:evenodd;stroke:none" />
      <path
         inkscape:connector-curvature="0"
         inkscape:original-d="m 88.16325,594.4459 c 0,0 11.61676,-6.06092 23.73859,-4.04061 12.12183,2.0203 14.14213,3.03046 14.14213,3.03046"
         inkscape:path-effect="#path-effect8942-2-5"
         id="path8940-7-96"
         d="m 88.163306,594.44587 c -0.01492,-0.0293 -0.01737,-0.0647 -0.0078,-0.10589 0.0093,-0.0396 0.02985,-0.0845 0.06149,-0.13437 0,0 0,0 0,0 0,0 0,0 0,0 0,0 0,0 0,0 0.06315,-0.0992 0.170823,-0.21831 0.320552,-0.35357 0,0 0,0 0,0 0,0 0,0 0,0 0.296081,-0.26748 0.759875,-0.60006 1.375748,-0.96965 0,0 0,0 0,0 1.200997,-0.72079 2.992629,-1.59104 5.260044,-2.37727 0,0 0,0 0,0 3.138384,-1.09462 7.261467,-2.04393 11.789917,-2.01228 1.79375,0.0125 3.53574,0.17943 5.17703,0.48182 2.46376,0.46153 4.73936,0.94505 6.69851,1.44971 1.95914,0.50466 3.60114,1.02851 4.81918,1.50469 0,0 0,0 0,0 0.89142,0.34821 1.57085,0.68485 1.96906,0.96634 0,0 0,0 0,0 0,0 0,0 0,0 0.1732,0.12084 0.29762,0.23196 0.36586,0.326 0,0 0,0 0,0 0,0 0,0 0,0 0.006,0.0941 0.018,0.14735 0.0293,0.17736 0.0103,0.0275 0.019,0.0351 0.0215,0.0368 4.1e-4,2.8e-4 3e-4,2.3e-4 3e-4,2.3e-4 0,0 1.1e-4,5e-5 -3.5e-4,-10e-5 -0.003,-9.2e-4 -0.014,-0.003 -0.0415,0.008 -0.03,0.0119 -0.0785,0.0395 -0.15293,0.10188 0,0 0,0 0,0 0,0 0,0 0,0 -0.10937,0.0237 -0.25779,0.0348 -0.44886,0.035 0,0 0,0 0,0 0,0 0,0 0,0 -0.46849,-0.005 -1.17388,-0.0685 -2.10998,-0.17551 0,0 0,0 0,0 -1.27519,-0.14486 -2.94204,-0.37303 -4.91096,-0.63906 -1.96892,-0.26603 -4.24136,-0.56851 -6.71596,-0.93004 -1.49505,-0.22034 -3.07744,-0.34037 -4.71896,-0.34941 -4.14413,-0.0228 -8.017497,0.65143 -11.110286,1.33469 0,0 0,0 0,0 -2.232302,0.49762 -4.06562,1.00999 -5.382555,1.34499 0,0 0,0 0,0 -0.675394,0.17186 -1.212516,0.29634 -1.598649,0.35192 0,0 0,0 0,0 0,0 0,0 0,0 -0.195284,0.0281 -0.351133,0.0382 -0.466416,0.0279 0,0 0,0 0,0 -10e-7,0 -10e-7,0 -10e-7,0 0,0 0,0 0,0 -0.05812,-0.005 -0.105755,-0.0155 -0.142746,-0.0316 -0.03842,-0.0167 -0.06556,-0.0393 -0.08048,-0.0685 z"
         style="fill:#000000;fill-rule:evenodd;stroke:none" />
      <path
         transform="matrix(-0.53532983,0,0,0.53532983,-88.486067,444.79436)"
         d="m -458.57145,352.43805 c 0,41.42136 -28.4619,75 -63.57143,75 -35.10953,0 -63.57143,-33.57864 -63.57143,-75 0,-41.42136 28.4619,-75 63.57143,-75 35.10953,0 63.57143,33.57864 63.57143,75 z"
         sodipodi:ry="75"
         sodipodi:rx="63.57143"
         sodipodi:cy="352.43805"
         sodipodi:cx="-522.14288"
         id="path8906-0-1"
         style="fill:#ffffff;fill-opacity:1;stroke:none"
         sodipodi:type="arc" />
      <path
         d="m -458.57145,352.43805 c 0,41.42136 -28.4619,75 -63.57143,75 -35.10953,0 -63.57143,-33.57864 -63.57143,-75 0,-41.42136 28.4619,-75 63.57143,-75 35.10953,0 63.57143,33.57864 63.57143,75 z"
         sodipodi:ry="75"
         sodipodi:rx="63.57143"
         sodipodi:cy="352.43805"
         sodipodi:cx="-522.14288"
         id="path8906-8-7-5"
         style="fill:#000000;fill-opacity:1;stroke:none"
         sodipodi:type="arc"
         transform="matrix(-0.11823164,0,0,0.11823164,109.66417,599.76448)" />
      <path
         sodipodi:nodetypes="csc"
         inkscape:connector-curvature="0"
         inkscape:original-d="m 222.96559,620.1465 c -8.5863,-19.19289 -14.64721,-26.26396 -28.28427,-26.26396 -21.72415,1e-5 -35.86042,25.50635 -35.86042,25.50635"
         inkscape:path-effect="#path-effect8934-9-9"
         id="path8932-4-6"
         d="m 222.96559,620.1465 c -0.0887,0.0397 -0.42136,-0.47541 -0.96763,-1.47443 -0.54628,-0.99902 -1.30178,-2.48702 -2.27863,-4.35378 -0.97684,-1.86676 -2.1705,-4.11651 -3.70647,-6.5261 -1.53597,-2.40959 -3.41278,-4.9797 -5.9161,-7.33546 -1.86588,-1.7644 -4.15117,-3.31971 -6.78346,-4.26292 -2.61566,-0.94979 -5.57322,-1.30951 -8.63198,-1.31257 -0.71446,-2.8e-4 -1.43302,0.0298 -2.15376,0.0897 -4.41209,0.3667 -8.57221,1.81688 -12.15013,3.72978 -4.55165,2.43532 -8.24139,5.55673 -11.20826,8.46715 0,0 0,0 0,0 -3.3174,3.25747 -5.7368,6.28544 -7.41929,8.48252 0,0 0,0 0,0 -0.89941,1.17467 -1.58455,2.11624 -2.06832,2.76064 0,0 0,0 0,0 -0.24857,0.33111 -0.44353,0.58334 -0.58625,0.74922 0,0 0,0 0,0 0,0 0,0 0,0 -0.0721,0.0837 -0.13084,0.14535 -0.17632,0.18394 0,0 0,0 0,0 0,0 0,0 0,0 -0.041,0.009 -0.0654,0.0203 -0.0796,0.029 0,0 0,0 0,0 -0.014,0.009 -0.0181,0.015 -0.0185,0.0157 0,0 0,0 0,0 0,0 0,0 0,0 0,0 0,0 0,0 0,0 0,0 0,0 0,0 0,0 0,0 0,0 0,0 0,0 0,0 0,0 0,0 0,0 0,0 0,0 0,0 0,0 0,0 0,0 0,0 0,0 -1e-5,3e-5 -1e-5,2e-5 -1e-5,2e-5 0,0 0,1e-5 1e-5,-3e-5 0,0 0,0 0,0 0,0 0,0 0,0 0,0 0,0 0,0 0,0 0,0 0,0 0,0 0,0 0,0 0,0 0,0 0,0 0,0 0,0 0,0 0,0 0,0 0,0 0,0 0,0 0,0 0,0 0,0 0,0 3.4e-4,-6.4e-4 0.004,-0.008 0.004,-0.024 0,0 0,0 0,0 1e-5,-0.0166 -0.003,-0.0431 -0.0164,-0.0829 0,-1e-5 0,-1e-5 0,-1e-5 0,0 0,0 0,0 0.01,-0.0591 0.034,-0.14185 0.0721,-0.24709 0,0 0,0 0,0 0,0 0,0 0,0 0.0749,-0.20741 0.20449,-0.50262 0.39002,-0.87696 0,0 0,0 0,0 0.36108,-0.72858 0.93464,-1.75983 1.73527,-3.02599 0,0 0,0 0,0 1.49736,-2.36837 3.78392,-5.58791 7.05586,-9.05034 0,0 0,0 0,0 2.92402,-3.0972 6.66428,-6.42124 11.40272,-9.05479 3.73917,-2.07946 8.15372,-3.64696 12.89735,-4.04484 0.77491,-0.065 1.54894,-0.0979 2.31986,-0.0982 3.21969,-0.003 6.4122,0.425 9.29822,1.49692 2.91637,1.09575 5.38792,2.83749 7.35868,4.79689 2.57774,2.57585 4.45102,5.31016 5.93128,7.8485 1.48026,2.53834 2.56711,4.88251 3.41271,6.83237 0.8456,1.94985 1.44592,3.51015 1.82873,4.58358 0.3828,1.07344 0.54335,1.66472 0.45465,1.7044 z"
         style="fill:#000000;fill-rule:evenodd;stroke:none" />
      <path
         inkscape:connector-curvature="0"
         inkscape:original-d="m 218.67245,657.2696 c 0,0 -5.05076,11.61676 -20.20305,14.14214 -15.15229,2.52538 -28.78935,-2.52538 -32.32488,-7.57614"
         inkscape:path-effect="#path-effect8938-6-5"
         id="path8936-2-7"
         d="m 218.67242,657.26966 c 0.30893,0.22311 -1.0898,2.75342 -3.67357,6.77668 0,0 0,0 -1e-5,0 -1.57444,1.78203 -3.73922,3.66926 -6.49412,5.26933 -2.7549,1.60007 -6.10161,2.90634 -9.7914,3.55959 0,0 0,0 0,0 -1.46841,0.25633 -2.98471,0.45001 -4.53421,0.56953 -3.07866,0.23747 -6.07566,0.16266 -8.87054,-0.16031 -2.79488,-0.32297 -5.38698,-0.89318 -7.69195,-1.60379 -2.01496,-0.58608 -3.92808,-1.29156 -5.51905,-2.09065 -1.59097,-0.7991 -2.86369,-1.68669 -3.79186,-2.52742 -0.92817,-0.84073 -1.51949,-1.62789 -1.85266,-2.20701 -0.33317,-0.57913 -0.41682,-0.94421 -0.30853,-1.02001 0.10829,-0.0758 0.3997,0.13949 0.88641,0.53277 0.48671,0.39327 1.17646,0.95728 2.14148,1.54792 0.96502,0.59065 2.21351,1.20198 3.75448,1.76043 1.54098,0.55844 3.37993,1.06117 5.35784,1.57203 4.42945,1.06214 9.86569,1.64908 15.66366,1.20256 1.45906,-0.11237 2.88867,-0.28328 4.27709,-0.50309 0,0 0,0 0,0 3.32745,-0.51629 6.3795,-1.56132 8.95465,-2.85845 2.57515,-1.29713 4.67466,-2.84375 6.30213,-4.32336 0,0 0,0 0,0 2.92892,-3.61005 4.88123,-5.71985 5.19016,-5.49675 z"
         style="fill:#000000;fill-rule:evenodd;stroke:none" />
      <path
         inkscape:connector-curvature="0"
         inkscape:original-d="m 209.32854,672.92697 c 0,0 -11.61676,6.06092 -23.73859,4.04061 -12.12183,-2.0203 -14.14213,-3.03046 -14.14213,-3.03046"
         inkscape:path-effect="#path-effect8942-8-4"
         id="path8940-2-2"
         d="m 209.32848,672.927 c 0.0149,0.0293 0.0174,0.0647 0.008,0.10589 -0.009,0.0396 -0.0298,0.0845 -0.0615,0.13437 0,0 0,0 0,0 0,0 0,0 0,0 0,0 0,0 0,0 -0.0632,0.0992 -0.17082,0.21831 -0.32055,0.35357 0,0 0,0 0,0 0,0 0,0 0,0 -0.29608,0.26748 -0.75988,0.60006 -1.37575,0.96965 0,0 0,0 0,0 -1.201,0.72079 -2.99263,1.59104 -5.26004,2.37727 0,0 0,0 0,0 -3.14366,1.09348 -7.27617,2.04075 -11.81342,2.0072 -1.79727,-0.0133 -3.54238,-0.18085 -5.18608,-0.48376 -4.08504,-0.9677 -7.603,-1.91637 -10.06914,-2.70208 -2.46615,-0.7857 -3.88075,-1.40851 -3.80594,-1.73954 0,0 0,0 0,0 0,-10e-6 0,-10e-6 0,-10e-6 0,0 0,0 0,0 0,0 0,0 0,0 0.004,-0.0126 0.004,-0.0124 0.004,-0.0124 0,0 -1.1e-4,5e-5 0.005,-0.0121 0,0 0,0 0,0 0,0 0,0 0,0 0,0 0,0 0,0 0,0 0,0 0,0 0.14975,-0.31498 1.76282,-0.28902 4.32722,0.003 2.5644,0.29224 6.07988,0.85068 10.0813,1.61575 1.49268,0.21982 3.07197,0.33918 4.71002,0.34747 4.13528,0.0209 7.99918,-0.65538 11.08668,-1.33977 0,0 0,0 0,0 2.2323,-0.49763 4.06561,-1.00999 5.38255,-1.34499 0,0 0,0 0,0 0.67539,-0.17186 1.21252,-0.29634 1.59865,-0.35192 0,0 0,0 0,0 0,0 0,0 0,0 0.19528,-0.0281 0.35113,-0.0382 0.46642,-0.0279 0,0 0,0 0,0 0,0 0,0 0,0 0,0 0,0 0,0 0.0581,0.005 0.10575,0.0155 0.14274,0.0315 0.0384,0.0167 0.0656,0.0393 0.0805,0.0686 z"
         style="fill:#000000;fill-rule:evenodd;stroke:none" />
      <path
         inkscape:connector-curvature="0"
         inkscape:original-d="m 213.36582,593.73443 c 0,0 -11.61676,-6.06092 -23.73859,-4.04061 -12.12183,2.0203 -14.14213,3.03046 -14.14213,3.03046"
         inkscape:path-effect="#path-effect8942-2-6-45"
         id="path8940-7-3-9"
         d="m 213.36576,593.7344 c -0.0149,0.0293 -0.042,0.0519 -0.0805,0.0685 -0.037,0.016 -0.0846,0.0264 -0.14274,0.0316 0,0 0,0 0,0 0,0 0,0 0,0 0,0 0,0 0,0 -0.11529,0.0103 -0.27114,2.5e-4 -0.46642,-0.0279 0,0 0,0 0,0 0,0 0,0 0,0 -0.38613,-0.0556 -0.92326,-0.18006 -1.59865,-0.35192 0,0 0,0 0,0 -1.31694,-0.335 -3.15025,-0.84736 -5.38255,-1.34499 0,0 0,0 0,0 -3.0875,-0.68439 -6.9514,-1.36071 -11.08668,-1.33977 -1.63805,0.008 -3.21734,0.12765 -4.71002,0.34747 -4.00142,0.76507 -7.5169,1.32351 -10.0813,1.61575 -2.5644,0.29224 -4.17747,0.3182 -4.32722,0.003 0,0 0,0 0,0 0,0 0,0 0,0 0,0 0,0 0,0 0,0 0,0 0,0 -0.005,-0.0122 -0.005,-0.0121 -0.005,-0.0121 0,0 -1.1e-4,1.6e-4 -0.004,-0.0124 0,0 0,0 0,0 0,0 0,0 0,0 0,0 0,0 0,-1e-5 0,0 0,0 0,0 -0.0748,-0.33103 1.33979,-0.95384 3.80594,-1.73954 2.46614,-0.78571 5.9841,-1.73438 10.06914,-2.70208 1.6437,-0.30291 3.38881,-0.47047 5.18608,-0.48376 4.53725,-0.0335 8.66976,0.91372 11.81342,2.0072 0,0 0,0 0,0 2.26741,0.78623 4.05904,1.65648 5.26004,2.37727 0,0 0,0 0,0 0.61587,0.36959 1.07967,0.70217 1.37575,0.96965 0,0 0,0 0,0 0,0 0,0 0,0 0.14973,0.13526 0.2574,0.25435 0.32055,0.35357 0,0 0,0 0,0 0,0 0,0 0,0 0,0 0,0 0,0 0.0316,0.0498 0.0522,0.0948 0.0615,0.13437 0.01,0.0412 0.007,0.0766 -0.008,0.10589 z"
         style="fill:#000000;fill-rule:evenodd;stroke:none" />
    </g>
  </g>
</svg>
