<?xml version="1.0" encoding="UTF-8" standalone="no"?>
<!-- Created with Inkscape (http://www.inkscape.org/) -->

<svg
   xmlns:dc="http://purl.org/dc/elements/1.1/"
   xmlns:cc="http://creativecommons.org/ns#"
   xmlns:rdf="http://www.w3.org/1999/02/22-rdf-syntax-ns#"
   xmlns:svg="http://www.w3.org/2000/svg"
   xmlns="http://www.w3.org/2000/svg"
   xmlns:sodipodi="http://sodipodi.sourceforge.net/DTD/sodipodi-0.dtd"
   xmlns:inkscape="http://www.inkscape.org/namespaces/inkscape"
   width="40.711109mm"
   height="7.9821486mm"
   viewBox="0 0 144.25196 28.283205"
   id="svg8346"
   version="1.1"
   inkscape:version="0.91 r13725"
   sodipodi:docname="ojos-PIX6.svg">
  <defs
     id="defs8348" />
  <sodipodi:namedview
     id="base"
     pagecolor="#ffffff"
     bordercolor="#666666"
     borderopacity="1.0"
     inkscape:pageopacity="0.0"
     inkscape:pageshadow="2"
     inkscape:zoom="6.4613938"
     inkscape:cx="77.066198"
     inkscape:cy="-21.774196"
     inkscape:document-units="px"
     inkscape:current-layer="layer1"
     showgrid="false"
     fit-margin-top="0"
     fit-margin-left="0"
     fit-margin-right="0"
     fit-margin-bottom="0"
     inkscape:window-width="1914"
     inkscape:window-height="1030"
     inkscape:window-x="0"
     inkscape:window-y="26"
     inkscape:window-maximized="1"
     showguides="true"
     inkscape:guide-bbox="true">
    <sodipodi:guide
       position="45.893125,-67.478908"
       orientation="0,1"
       id="guide4791" />
  </sodipodi:namedview>
  <metadata
     id="metadata8351">
    <rdf:RDF>
      <cc:Work
         rdf:about="">
        <dc:format>image/svg+xml</dc:format>
        <dc:type
           rdf:resource="http://purl.org/dc/dcmitype/StillImage" />
        <dc:title></dc:title>
      </cc:Work>
    </rdf:RDF>
  </metadata>
  <g
     inkscape:label="Capa 1"
     inkscape:groupmode="layer"
     id="layer1"
     transform="translate(-344.57353,-381.27318)">
    <path
       style="opacity:1;fill:#000000;fill-opacity:1;stroke:none;stroke-width:0.97100002;stroke-linecap:round;stroke-linejoin:round;stroke-miterlimit:4;stroke-dasharray:none;stroke-opacity:1"
       d="m 0.2265625,0.29492188 0,5.65625002 5.6582031,0 0,5.6562501 5.6562504,0 0,5.658203 5.65625,0 0,5.65625 5.658203,0 0,5.65625 5.65625,0 5.65625,0 5.658203,0 5.65625,0 5.65625,0 0,-5.65625 5.658203,0 0,-5.65625 5.65625,0 0,-5.658203 0,-5.6562501 -5.65625,0 0,5.6562501 -5.658203,0 0,5.658203 -5.65625,0 -5.65625,0 -5.658203,0 -5.65625,0 -5.65625,0 0,-5.658203 -5.658203,0 0,-5.6562501 5.658203,0 5.65625,0 5.65625,0 5.658203,0 5.65625,0 5.65625,0 5.658203,0 0,-5.65625002 -5.658203,0 -5.65625,0 -5.65625,0 -5.658203,0 -5.65625,0 -5.65625,0 -5.658203,0 -5.65625,0 -5.6562504,0 -5.6582031,0 z m 87.6835935,0 0,5.65625002 5.65625,0 5.65625,0 5.658204,0 5.65625,0 5.65625,0 5.6582,0 5.65625,0 0,5.6562501 -5.65625,0 0,5.658203 -5.6582,0 -5.65625,0 -5.65625,0 -5.658204,0 -5.65625,0 0,-5.658203 -5.65625,0 0,-5.6562501 -5.658203,0 0,5.6562501 0,5.658203 5.658203,0 0,5.65625 5.65625,0 0,5.65625 5.65625,0 5.658204,0 5.65625,0 5.65625,0 5.6582,0 0,-5.65625 5.65625,0 0,-5.65625 5.65625,0 0,-5.658203 5.65821,0 0,-5.6562501 5.65625,0 0,-5.65625002 -5.65625,0 -5.65821,0 -5.65625,0 -5.65625,0 -5.6582,0 -5.65625,0 -5.65625,0 -5.658204,0 -5.65625,0 -5.65625,0 z"
       transform="translate(344.34697,380.97826)"
       id="rect21916-13"
       inkscape:connector-curvature="0" />
    <path
       style="opacity:1;fill:#ffffff;fill-opacity:1;stroke:none;stroke-width:0.97100002;stroke-linecap:round;stroke-linejoin:round;stroke-miterlimit:4;stroke-dasharray:none;stroke-opacity:1"
       d="m 17.197266,5.9511719 0,5.6562501 5.658203,0 0,5.658203 5.65625,0 5.65625,0 5.658203,0 5.65625,0 5.65625,0 0,-5.658203 5.658203,0 0,-5.6562501 -5.658203,0 -5.65625,0 -5.65625,0 -5.658203,0 -5.65625,0 -5.65625,0 -5.658203,0 z m 70.71289,0 0,5.6562501 5.65625,0 0,5.658203 5.65625,0 5.658204,0 0,-5.658203 5.65625,0 0,5.658203 5.65625,0 5.6582,0 0,-5.658203 5.65625,0 0,-5.6562501 -5.65625,0 -5.6582,0 -5.65625,0 -5.65625,0 -5.658204,0 -5.65625,0 -5.65625,0 z"
       transform="translate(344.34697,380.97826)"
       id="rect21916-65-7"
       inkscape:connector-curvature="0" />
    <rect
       style="opacity:1;fill:#008000;fill-opacity:1;stroke:none;stroke-width:0.97100002;stroke-linecap:round;stroke-linejoin:round;stroke-miterlimit:4;stroke-dasharray:none;stroke-opacity:1"
       id="rect21916-62"
       width="8.4853497"
       height="8.4854755"
       x="375.68723"
       y="389.75815" />
    <rect
       style="opacity:1;fill:#008000;fill-opacity:1;stroke:none;stroke-width:0.97100002;stroke-linecap:round;stroke-linejoin:round;stroke-miterlimit:4;stroke-dasharray:none;stroke-opacity:1"
       id="rect21916-62-4"
       width="8.4853497"
       height="8.4854755"
       x="446.3985"
       y="389.75815" />
  </g>
</svg>
