<?xml version="1.0" encoding="UTF-8" standalone="no"?>
<!-- Created with Inkscape (http://www.inkscape.org/) -->

<svg
   xmlns:dc="http://purl.org/dc/elements/1.1/"
   xmlns:cc="http://creativecommons.org/ns#"
   xmlns:rdf="http://www.w3.org/1999/02/22-rdf-syntax-ns#"
   xmlns:svg="http://www.w3.org/2000/svg"
   xmlns="http://www.w3.org/2000/svg"
   xmlns:sodipodi="http://sodipodi.sourceforge.net/DTD/sodipodi-0.dtd"
   xmlns:inkscape="http://www.inkscape.org/namespaces/inkscape"
   width="40.694542mm"
   height="12.296147mm"
   viewBox="0 0 144.19326 43.569028"
   id="svg8346"
   version="1.1"
   inkscape:version="0.91 r13725"
   sodipodi:docname="ojos-PIX5.svg">
  <defs
     id="defs8348" />
  <sodipodi:namedview
     id="base"
     pagecolor="#ffffff"
     bordercolor="#666666"
     borderopacity="1.0"
     inkscape:pageopacity="0.0"
     inkscape:pageshadow="2"
     inkscape:zoom="6.4613938"
     inkscape:cx="77.292761"
     inkscape:cy="-6.7832954"
     inkscape:document-units="px"
     inkscape:current-layer="layer1"
     showgrid="false"
     fit-margin-top="0"
     fit-margin-left="0"
     fit-margin-right="0"
     fit-margin-bottom="0"
     inkscape:window-width="1914"
     inkscape:window-height="1030"
     inkscape:window-x="0"
     inkscape:window-y="26"
     inkscape:window-maximized="1"
     showguides="true"
     inkscape:guide-bbox="true">
    <sodipodi:guide
       position="46.119693,-52.488004"
       orientation="0,1"
       id="guide4791" />
  </sodipodi:namedview>
  <metadata
     id="metadata8351">
    <rdf:RDF>
      <cc:Work
         rdf:about="">
        <dc:format>image/svg+xml</dc:format>
        <dc:type
           rdf:resource="http://purl.org/dc/dcmitype/StillImage" />
        <dc:title></dc:title>
      </cc:Work>
    </rdf:RDF>
  </metadata>
  <g
     inkscape:label="Capa 1"
     inkscape:groupmode="layer"
     id="layer1"
     transform="translate(-344.34697,-380.97826)">
    <path
       style="opacity:1;fill:#000000;fill-opacity:1;stroke:none;stroke-width:0.97100002;stroke-linecap:round;stroke-linejoin:round;stroke-miterlimit:4;stroke-dasharray:none;stroke-opacity:1"
       d="m 354.02314,380.97826 0,4.8401 4.83809,0 0,-4.8401 -4.83809,0 z m 4.83809,4.8401 0,4.8381 4.84012,0 0,-4.8381 -4.84012,0 z m 4.84012,4.8381 0,4.83809 0,4.83809 -4.84012,0 0,-4.83809 -4.83809,0 0,4.83809 0,4.83809 0,4.83809 4.83809,0 0,4.83809 4.84012,0 0,-4.83809 4.83809,0 4.83809,0 4.83809,0 4.8381,0 4.83809,0 0,4.83809 4.83809,0 0,-4.83809 4.83809,0 0,-4.83809 0,-4.83809 -4.83809,0 0,-4.83809 -4.83809,0 0,4.83809 -9.67619,0 0,-4.83809 -4.83809,0 0,4.83809 -4.83809,0 0,-4.83809 0,-4.83809 -4.83809,0 z m 14.51427,4.83809 4.8381,0 0,-4.83809 -4.8381,0 0,4.83809 z m 4.8381,-4.83809 4.83809,0 0,-4.8381 -4.83809,0 0,4.8381 z m 9.67618,4.83809 4.83809,0 0,-4.83809 -4.83809,0 0,4.83809 z m 4.83809,-4.83809 4.84011,0 0,-4.8381 -4.84011,0 0,4.8381 z m -9.67618,24.19045 -4.83809,0 0,4.84011 4.83809,0 0,-4.84011 z m -4.83809,4.84011 -4.8381,0 0,-4.84011 -4.83809,0 0,4.84011 -4.83809,0 0,4.83809 4.83809,0 4.83809,0 4.8381,0 0,-4.83809 z m -14.51428,0 0,-4.84011 -4.83809,0 0,4.84011 4.83809,0 z m -14.5163,-24.19247 0,-4.83809 -4.83809,0 0,4.83809 4.83809,0 z m -4.83809,-4.83809 0,-4.8381 -4.83809,0 0,4.8381 4.83809,0 z"
       id="rect13391"
       inkscape:connector-curvature="0" />
    <path
       style="opacity:1;fill:#ffffff;fill-opacity:1;stroke:none;stroke-width:0.97100002;stroke-linecap:round;stroke-linejoin:round;stroke-miterlimit:4;stroke-dasharray:none;stroke-opacity:1"
       d="m 363.70135,410.00882 0,4.83809 4.83809,0 0,4.84011 4.83809,0 0,-4.84011 4.83809,0 0,4.84011 4.8381,0 0,-4.84011 4.83809,0 0,-4.83809 -24.19046,0 z"
       id="rect13391-15-5"
       inkscape:connector-curvature="0" />
    <path
       style="opacity:1;fill:#000000;fill-opacity:1;stroke:none;stroke-width:0.97100002;stroke-linecap:round;stroke-linejoin:round;stroke-miterlimit:4;stroke-dasharray:none;stroke-opacity:1"
       d="m 474.02395,381.00244 0,4.83809 4.83809,0 0,-4.83809 -4.83809,0 z m 0,4.83809 -4.83809,0 0,4.8381 4.83809,0 0,-4.8381 z m -4.83809,4.8381 -4.83809,0 0,4.83809 0,4.83809 -4.8381,0 0,-4.83809 -4.83809,0 0,4.83809 -9.67819,0 0,-4.83809 -4.8381,0 0,4.83809 -4.83809,0 0,4.84011 0,4.8381 4.83809,0 0,4.83809 4.8381,0 0,-4.83809 4.8401,0 4.83809,0 4.83809,0 4.8381,0 4.83809,0 0,4.83809 4.83809,0 0,-4.83809 4.83809,0 0,-4.8381 0,-4.84011 0,-4.83809 -4.83809,0 0,4.83809 -4.83809,0 0,-4.83809 0,-4.83809 z m 9.67618,4.83809 4.8401,0 0,-4.83809 -4.8401,0 0,4.83809 z m 4.8401,-4.83809 4.8381,0 0,-4.8381 -4.8381,0 0,4.8381 z m -14.51628,24.19248 -4.83809,0 0,4.83809 4.83809,0 0,-4.83809 z m -4.83809,4.83809 -4.8381,0 0,-4.83809 -4.83809,0 0,4.83809 -4.83809,0 0,4.83809 4.83809,0 4.83809,0 4.8381,0 0,-4.83809 z m -14.51428,0 0,-4.83809 -4.8401,0 0,4.83809 4.8401,0 z m -9.6782,-24.19248 0,-4.83809 -4.83809,0 0,4.83809 4.83809,0 z m -4.83809,-4.83809 0,-4.8381 -4.83809,0 0,4.8381 4.83809,0 z m 19.35438,4.83809 0,-4.83809 -4.83809,0 0,4.83809 4.83809,0 z m -4.83809,-4.83809 0,-4.8381 -4.8401,0 0,4.8381 4.8401,0 z"
       id="rect13391-786"
       inkscape:connector-curvature="0" />
    <path
       style="opacity:1;fill:#ffffff;fill-opacity:1;stroke:none;stroke-width:0.97100002;stroke-linecap:round;stroke-linejoin:round;stroke-miterlimit:4;stroke-dasharray:none;stroke-opacity:1"
       d="m 444.99339,410.03302 0,4.83809 4.8401,0 0,4.83809 4.83809,0 0,-4.83809 4.83809,0 0,4.83809 4.8381,0 0,-4.83809 4.83809,0 0,-4.83809 -24.19247,0 z"
       id="rect13391-15-5-3"
       inkscape:connector-curvature="0" />
  </g>
</svg>
