<?xml version="1.0" encoding="UTF-8" standalone="no"?>
<!-- Created with Inkscape (http://www.inkscape.org/) -->

<svg
   xmlns:dc="http://purl.org/dc/elements/1.1/"
   xmlns:cc="http://creativecommons.org/ns#"
   xmlns:rdf="http://www.w3.org/1999/02/22-rdf-syntax-ns#"
   xmlns:svg="http://www.w3.org/2000/svg"
   xmlns="http://www.w3.org/2000/svg"
   xmlns:sodipodi="http://sodipodi.sourceforge.net/DTD/sodipodi-0.dtd"
   xmlns:inkscape="http://www.inkscape.org/namespaces/inkscape"
   width="271.6315"
   height="125.90667"
   id="svg3833"
   version="1.1"
   inkscape:version="0.48.3.1 r9886"
   sodipodi:docname="ojos_5.svg">
  <defs
     id="defs3835">
    <inkscape:path-effect
       effect="skeletal"
       id="path-effect5212"
       is_visible="true"
       pattern="m -13072.977,1809.4791 c 0,-2.76 2.24,-5 5,-5 2.76,0 5,2.24 5,5 0,2.76 -2.24,5 -5,5 -2.76,0 -5,-2.24 -5,-5 z"
       copytype="single_stretched"
       prop_scale="1"
       scale_y_rel="false"
       spacing="0"
       normal_offset="0"
       tang_offset="0"
       prop_units="false"
       vertical_pattern="false"
       fuse_tolerance="0" />
    <inkscape:path-effect
       effect="skeletal"
       id="path-effect5216"
       is_visible="true"
       pattern="m -13093.18,1767.0526 c 0,-2.76 2.24,-5 5,-5 2.76,0 5,2.24 5,5 0,2.76 -2.24,5 -5,5 -2.76,0 -5,-2.24 -5,-5 z"
       copytype="single_stretched"
       prop_scale="1"
       scale_y_rel="false"
       spacing="0"
       normal_offset="0"
       tang_offset="0"
       prop_units="false"
       vertical_pattern="false"
       fuse_tolerance="0" />
    <inkscape:path-effect
       effect="skeletal"
       id="path-effect5302"
       is_visible="true"
       pattern="m -13072.977,1809.4791 c 0,-2.76 2.24,-5 5,-5 2.76,0 5,2.24 5,5 0,2.76 -2.24,5 -5,5 -2.76,0 -5,-2.24 -5,-5 z"
       copytype="single_stretched"
       prop_scale="1"
       scale_y_rel="false"
       spacing="0"
       normal_offset="0"
       tang_offset="0"
       prop_units="false"
       vertical_pattern="false"
       fuse_tolerance="0" />
    <inkscape:path-effect
       effect="skeletal"
       id="path-effect4225-0"
       is_visible="true"
       pattern="m -4996.4247,55.333481 c 0,-2.76 2.24,-5 5,-5 2.76,0 5,2.24 5,5 0,2.76 -2.24,5 -5,5 -2.76,0 -5,-2.24 -5,-5 z"
       copytype="single_stretched"
       prop_scale="1"
       scale_y_rel="false"
       spacing="0"
       normal_offset="0"
       tang_offset="0"
       prop_units="false"
       vertical_pattern="false"
       fuse_tolerance="0" />
    <inkscape:path-effect
       effect="skeletal"
       id="path-effect4233-0"
       is_visible="true"
       pattern="m -4990.3638,53.313176 c 0,-2.76 2.24,-5 5,-5 2.76,0 5,2.24 5,5 0,2.76 -2.24,5 -5,5 -2.76,0 -5,-2.24 -5,-5 z"
       copytype="single_stretched"
       prop_scale="1"
       scale_y_rel="false"
       spacing="0"
       normal_offset="0"
       tang_offset="0"
       prop_units="false"
       vertical_pattern="false"
       fuse_tolerance="0" />
    <inkscape:path-effect
       effect="skeletal"
       id="path-effect5021"
       is_visible="true"
       pattern="m 1.4285717,0.71428529 c 0,-2.75999999 2.24,-4.99999999 5,-4.99999999 2.76,0 5.0000003,2.24 5.0000003,4.99999999 0,2.76000001 -2.2400003,5.00000041 -5.0000003,5.00000041 -2.76,0 -5,-2.2400004 -5,-5.00000041 z"
       copytype="single_stretched"
       prop_scale="1"
       scale_y_rel="false"
       spacing="0"
       normal_offset="0"
       tang_offset="0"
       prop_units="false"
       vertical_pattern="false"
       fuse_tolerance="0" />
    <inkscape:path-effect
       effect="skeletal"
       id="path-effect5259"
       is_visible="true"
       pattern="m -10418.352,-1410.4113 c 0,-2.76 2.24,-5 5,-5 2.76,0 5,2.24 5,5 0,2.76 -2.24,5 -5,5 -2.76,0 -5,-2.24 -5,-5 z"
       copytype="single_stretched"
       prop_scale="1"
       scale_y_rel="false"
       spacing="0"
       normal_offset="0"
       tang_offset="0"
       prop_units="false"
       vertical_pattern="false"
       fuse_tolerance="0" />
    <inkscape:path-effect
       effect="skeletal"
       id="path-effect5263"
       is_visible="true"
       pattern="m -10564.143,-1410.9609 c 0,-2.76 2.24,-5 5,-5 2.76,0 5,2.24 5,5 0,2.76 -2.24,5 -5,5 -2.76,0 -5,-2.24 -5,-5 z"
       copytype="single_stretched"
       prop_scale="1"
       scale_y_rel="false"
       spacing="0"
       normal_offset="0"
       tang_offset="0"
       prop_units="false"
       vertical_pattern="false"
       fuse_tolerance="0" />
    <inkscape:path-effect
       effect="skeletal"
       id="path-effect5224"
       is_visible="true"
       pattern="m -10426.454,-1412.267 c 0,-2.76 2.24,-5 5,-5 2.76,0 5,2.24 5,5 0,2.76 -2.24,5 -5,5 -2.76,0 -5,-2.24 -5,-5 z"
       copytype="single_stretched"
       prop_scale="1"
       scale_y_rel="false"
       spacing="0"
       normal_offset="0"
       tang_offset="0"
       prop_units="false"
       vertical_pattern="false"
       fuse_tolerance="0" />
    <inkscape:path-effect
       effect="skeletal"
       id="path-effect5228"
       is_visible="true"
       pattern="m -10549.858,-1407.3895 c 0,-2.76 2.24,-5 5,-5 2.76,0 5,2.24 5,5 0,2.76 -2.24,5 -5,5 -2.76,0 -5,-2.24 -5,-5 z"
       copytype="single_stretched"
       prop_scale="1"
       scale_y_rel="false"
       spacing="0"
       normal_offset="0"
       tang_offset="0"
       prop_units="false"
       vertical_pattern="false"
       fuse_tolerance="0" />
    <inkscape:path-effect
       effect="skeletal"
       id="path-effect5337"
       is_visible="true"
       pattern="m -10458.758,-1444.7564 c 0,-2.76 2.24,-5 5,-5 2.76,0 5,2.24 5,5 0,2.76 -2.24,5 -5,5 -2.76,0 -5,-2.24 -5,-5 z"
       copytype="single_stretched"
       prop_scale="1"
       scale_y_rel="false"
       spacing="0"
       normal_offset="0"
       tang_offset="0"
       prop_units="false"
       vertical_pattern="false"
       fuse_tolerance="0" />
    <inkscape:path-effect
       effect="skeletal"
       id="path-effect5341"
       is_visible="true"
       pattern="m -10487.33,-1439.0422 c 0,-2.76 2.24,-5 5,-5 2.76,0 5,2.24 5,5 0,2.76 -2.24,5 -5,5 -2.76,0 -5,-2.24 -5,-5 z"
       copytype="single_stretched"
       prop_scale="1"
       scale_y_rel="false"
       spacing="0"
       normal_offset="0"
       tang_offset="0"
       prop_units="false"
       vertical_pattern="false"
       fuse_tolerance="0" />
  </defs>
  <sodipodi:namedview
     id="base"
     pagecolor="#ffffff"
     bordercolor="#666666"
     borderopacity="1.0"
     inkscape:pageopacity="0.0"
     inkscape:pageshadow="2"
     inkscape:zoom="1.4"
     inkscape:cx="109.94113"
     inkscape:cy="69.840949"
     inkscape:document-units="px"
     inkscape:current-layer="layer1"
     showgrid="false"
     fit-margin-top="0"
     fit-margin-left="0"
     fit-margin-right="0"
     fit-margin-bottom="0"
     inkscape:window-width="1914"
     inkscape:window-height="1030"
     inkscape:window-x="0"
     inkscape:window-y="25"
     inkscape:window-maximized="1" />
  <metadata
     id="metadata3838">
    <rdf:RDF>
      <cc:Work
         rdf:about="">
        <dc:format>image/svg+xml</dc:format>
        <dc:type
           rdf:resource="http://purl.org/dc/dcmitype/StillImage" />
        <dc:title></dc:title>
      </cc:Work>
    </rdf:RDF>
  </metadata>
  <g
     inkscape:label="Capa 1"
     inkscape:groupmode="layer"
     id="layer1"
     transform="translate(-656.29815,-356.68202)">
    <g
       id="g5644">
      <path
         id="path3211-8"
         transform="translate(656.29815,356.68202)"
         d="M 176.71875 70.65625 C 173.88244 75.333429 172.25 80.818051 172.25 86.6875 C 172.25 103.79051 186.11574 117.65625 203.21875 117.65625 C 220.32176 117.65625 234.1875 103.79051 234.1875 86.6875 C 234.1875 82.718915 233.42276 78.924607 232.0625 75.4375 L 176.71875 70.65625 z "
         style="fill:#c8ab37;fill-opacity:1;stroke:#000000;stroke-width:3.12821341;stroke-miterlimit:4;stroke-opacity:1;stroke-dasharray:none" />
      <path
         id="path3211-2-10"
         transform="translate(656.29815,356.68202)"
         d="M 101.28125 73.75 L 44.59375 76.0625 C 43.233486 79.549607 42.46875 83.343915 42.46875 87.3125 C 42.46875 104.41551 56.334494 118.28125 73.4375 118.28125 C 90.540506 118.28125 104.40625 104.41551 104.40625 87.3125 C 104.40625 82.451378 103.27737 77.843922 101.28125 73.75 z "
         style="fill:#c8ab37;stroke:#000000;stroke-width:3.12821341;stroke-miterlimit:4;stroke-opacity:1;stroke-dasharray:none" />
      <path
         transform="matrix(0.62564266,0,0,0.62564266,-613.3956,-194.0977)"
         sodipodi:end="11.897713"
         sodipodi:start="5.6167468"
         d="m 2163.3749,1005.9204 a 24.285713,24.285713 0 1 1 -0.033,-0.042 l -19.0559,15.0555 z"
         sodipodi:ry="24.285713"
         sodipodi:rx="24.285713"
         sodipodi:cy="1020.9336"
         sodipodi:cx="2144.2856"
         id="path3396-7"
         style="fill:#000000;fill-opacity:1;fill-rule:evenodd;stroke:none"
         sodipodi:type="arc" />
      <path
         transform="matrix(0.62564266,0,0,0.62564266,-481.6509,-196.8425)"
         sodipodi:end="11.897713"
         sodipodi:start="5.6167468"
         d="m 2163.3749,1005.9204 a 24.285713,24.285713 0 1 1 -0.033,-0.042 l -19.0559,15.0555 z"
         sodipodi:ry="24.285713"
         sodipodi:rx="24.285713"
         sodipodi:cy="1020.9336"
         sodipodi:cx="2144.2856"
         id="path3396-0-7"
         style="fill:#000000;fill-opacity:1;fill-rule:evenodd;stroke:none"
         sodipodi:type="arc" />
      <path
         inkscape:connector-curvature="0"
         inkscape:original-d="m 656.3097,394.4867 c 11.3761,-2.528 60.6717,-29.0718 80.8955,-32.8638 20.224,-3.792 20.224,-3.792 20.224,-3.792"
         inkscape:path-effect="#path-effect5259"
         id="path5257"
         d="m 656.3097,394.4867 c -0.0914,-0.41142 0.36392,-0.91652 1.22251,-1.58149 0.85859,-0.66496 2.10423,-1.52573 3.83484,-2.57278 2.129,-1.30891 4.8494,-2.90341 8.10881,-4.73183 5.8575,-3.28795 13.34035,-7.29415 21.95414,-11.47574 3.90931,-1.89875 8.05044,-3.83662 12.38127,-5.73224 4.0833,-1.78727 8.10813,-3.43447 12.01559,-4.90034 3.81942,-1.43349 7.5624,-2.69898 11.15961,-3.71262 3.21453,-0.91187 6.42056,-1.64305 9.49516,-2.0158 12.32434,-1.39099 20.44495,-1.49534 20.93489,0.007 0.0108,0.0502 0.0117,0.0553 0.0123,0.0584 6.4e-4,0.003 3.8e-4,0.002 3.8e-4,0.002 0,0 -2.2e-4,-0.001 3.4e-4,0.002 5.5e-4,0.003 0.002,0.008 0.01,0.0589 0.0875,1.57752 -7.51935,4.42206 -19.51047,7.59022 -2.49271,0.67113 -5.18172,1.64928 -8.13648,2.77849 -3.25853,1.25455 -6.71201,2.69703 -10.35289,4.25153 -3.72329,1.59038 -7.60839,3.28572 -11.61761,5.04133 -4.25226,1.86204 -8.3938,3.67874 -12.37266,5.37945 -8.72948,3.73233 -16.67463,6.92995 -23.1151,9.10362 -3.57616,1.20731 -6.72328,2.11272 -9.25634,2.63981 -1.97687,0.41302 -3.67154,0.62605 -4.84689,0.56846 -1.17535,-0.0576 -1.82967,-0.34651 -1.9211,-0.75793 z"
         style="fill:#000000;fill-rule:evenodd;stroke:none" />
      <path
         inkscape:connector-curvature="0"
         inkscape:original-d="m 927.8617,391.6148 c 0,0 -53.0876,-30.3358 -69.5195,-30.3358 -16.4318,0 -16.4318,0 -16.4318,0"
         inkscape:path-effect="#path-effect5263"
         id="path5261"
         d="m 927.86169,391.61479 c -1.04728,1.97462 -13.94848,-2.72404 -30.78495,-10.93056 0,0 -10e-6,-1e-5 -10e-6,-1e-5 -3.97628,-1.7981 -8.17038,-3.73415 -12.51123,-5.68844 -3.51612,-1.58298 -6.92634,-3.08315 -10.19655,-4.46371 -3.37769,-1.42371 -6.53253,-2.70135 -9.48717,-3.70998 0,0 0,0 0,0 -2.56006,-0.8316 -4.67865,-1.53835 -6.53958,-1.72442 0,0 0,0 0,0 -6.43822,-0.58763 -11.37226,-1.36122 -14.08761,-2.24369 0,0 0,0 0,0 -0.92045,-0.29914 -1.58595,-0.61079 -1.96867,-0.93195 0,0 0,0 0,0 -0.13807,-0.11586 -0.23934,-0.23296 -0.3025,-0.35115 0,0 0,0 0,0 0,0 0,0 0,0 -0.0232,-0.2178 -0.0413,-0.25682 -0.0542,-0.27702 -0.009,-0.0139 -0.0135,-0.0141 -0.0174,-0.0146 -0.003,-4e-4 -0.001,-2.4e-4 -0.001,-2.4e-4 0,0 -0.001,1.6e-4 0.001,-2.4e-4 0.004,-5e-4 0.009,-6.9e-4 0.0174,-0.0146 0.0129,-0.0202 0.0309,-0.0592 0.0542,-0.27702 0,0 0,0 0,0 0,0 0,0 0,0 0.0632,-0.11819 0.16443,-0.23529 0.3025,-0.35115 0,0 0,0 0,0 0.38272,-0.32116 1.04822,-0.63281 1.96867,-0.93195 0,0 0,0 0,0 2.71535,-0.88247 7.64939,-1.65606 14.08761,-2.24369 0,0 0,0 0,0 2.96394,-0.18607 6.03012,0.23321 8.86531,0.8812 3.46539,0.75201 7.06332,1.85214 10.68527,3.15969 3.53379,1.27435 7.16709,2.75475 10.83369,4.40501 4.52661,2.03734 8.7804,4.18231 12.69955,6.29094 0,0 0,0 0,0 16.32252,9.38007 27.48295,17.44301 26.43567,19.41762 z"
         style="fill:#000000;fill-rule:evenodd;stroke:none" />
      <path
         sodipodi:nodetypes="cssc"
         inkscape:connector-curvature="0"
         inkscape:original-d="m 691.8505,384.3018 c 0,0 -7.1498,39.3261 -7.1498,46.4763 0,7.1502 53.6264,-1.7876 71.5016,0 17.8758,1.7875 1.7881,-40.22 1.7881,-40.22"
         inkscape:path-effect="#path-effect5224"
         id="path5222"
         d="m 691.84906,384.30974 c 0.045,0.008 0.0886,0.0237 0.13068,0.0465 0.0398,0.0272 0.0778,0.0637 0.11403,0.10936 0,0 0,0 0,0 0.0718,0.0905 0.13645,0.21709 0.19417,0.37878 0,0 0,0 0,0 0.11334,0.31745 0.19989,0.7702 0.2608,1.35148 0,0 0,0 0,0 0.11677,1.11448 0.13931,2.7009 0.0767,4.71093 0,0 0,0 0,0 -0.11169,3.58408 -0.49715,8.51312 -1.0813,14.5103 0,0 0,0 0,0 -0.45216,4.64138 -1.03465,9.91131 -1.61806,15.67536 0,0 0,0 0,0 -0.20273,2.00465 -0.40547,4.04827 -0.56337,6.1217 0,0 0,0 0,0 -0.0961,1.34567 -0.20514,2.54409 -0.15392,3.56394 0,0 0,0 0,0 -0.19533,-1.26312 -0.47053,-2.0217 -1.00759,-2.34786 0,0 0,0 0,0 0,0 0,0 -10e-6,0 0,0 0,0 0,0 -0.33877,-0.18579 -0.25826,-0.26346 0.14111,-0.0823 0,0 0,0 0,0 0,0 1e-5,0 1e-5,0 1.31161,0.3802 3.06251,0.37737 5.19151,0.45413 6.14457,0.10675 12.77617,-0.46216 19.85913,-0.98813 1.9058,-0.14421 3.83315,-0.29374 5.78049,-0.44378 6.1392,-0.47301 12.16641,-0.92219 18.00887,-1.21307 3.62914,-0.18122 7.21507,-0.30352 10.72782,-0.29476 2.87077,0.001 5.80917,0.0887 8.73839,0.4538 1.07679,0.0349 1.95958,0.11599 2.13784,-0.16498 0.43668,-0.0708 0.81625,-0.94333 1.27463,-1.98089 0.54457,-1.51154 0.6825,-3.32568 0.7589,-5.21354 0.072,-2.40798 -0.10385,-4.77368 -0.33373,-7.03078 -0.29484,-2.88665 -0.6962,-5.53674 -1.08694,-7.91451 -0.39074,-2.37778 -0.77168,-4.48311 -1.07202,-6.28086 -0.84237,-4.35563 -1.00497,-6.91867 -0.34126,-7.1708 0,0 0,0 0,0 0.004,-0.002 0.004,-0.002 0.004,-0.002 0,0 0,-1e-5 0.004,-0.002 0,0 0,0 0,0 0.67084,-0.23127 2.1053,1.87795 4.13572,5.92675 0.79476,1.68791 1.65926,3.72408 2.52174,6.10553 0.86248,2.38145 1.72378,5.10838 2.46503,8.185 0.57786,2.3919 1.08288,5.0377 1.3105,7.96091 0.197,2.24503 0.18802,4.79841 -0.445,7.59894 -0.42006,2.17909 -1.6058,4.5774 -3.94916,6.64364 -2.65226,1.89491 -5.63732,2.59966 -8.27762,2.26284 -2.36415,-0.16427 -4.91918,-0.0923 -7.67055,0.0139 -3.30174,0.13606 -6.73308,0.37667 -10.28969,0.64788 -5.71488,0.43681 -11.68235,0.9635 -17.85434,1.4389 -1.95773,0.15079 -3.90443,0.29348 -5.83785,0.4235 -7.05145,0.48364 -14.10153,0.89094 -20.91922,0.52014 -2.20537,-0.0829 -4.75941,-0.316 -7.44699,-1.11695 -1e-5,-1e-5 -1e-5,-1e-5 -1e-5,-1e-5 0,0 0,0 0,0 -0.84247,-0.18563 -1.99979,-0.72506 -3.324,-1.7241 0,0 0,0 0,0 0,-1e-5 -10e-6,-1e-5 -10e-6,-2e-5 0,0 0,0 0,0 -1.23677,-0.90361 -2.02548,-2.50373 -2.22081,-4.6652 0,0 0,0 0,0 0.0512,-1.73038 0.2621,-3.22985 0.46003,-4.53149 0.3174,-2.20535 0.68379,-4.31216 1.05531,-6.32795 0,0 0,0 0,0 1.06978,-5.81023 2.21428,-11.03679 3.29464,-15.59167 0,0 0,0 0,0 1.39735,-5.89333 2.71066,-10.67578 3.83363,-14.0888 0,0 0,0 0,0 0.62981,-1.91424 1.20085,-3.39797 1.69816,-4.40383 0,0 0,0 0,0 0.25938,-0.52463 0.49876,-0.91939 0.7161,-1.17744 0,0 0,0 0,0 0.11067,-0.1314 0.21565,-0.22738 0.31465,-0.28704 0,0 0,0 0,0 0.0499,-0.0301 0.0983,-0.0509 0.14519,-0.0625 0.0474,-0.007 0.0937,-0.006 0.13872,0.002 z"
         style="fill:#000000;fill-rule:evenodd;stroke:none" />
      <path
         sodipodi:nodetypes="cssc"
         inkscape:connector-curvature="0"
         inkscape:original-d="m 902.44,388.2471 c 0,0 8.9379,34.8572 8.9379,42.0074 0,7.1502 -54.5204,-7.1502 -75.9705,-3.5751 -21.4508,3.5751 -8.0438,-33.0696 -8.0438,-33.0696"
         inkscape:path-effect="#path-effect5228"
         id="path5226"
         d="m 902.44001,388.24712 c 0.0426,-0.0109 0.0874,-0.0127 0.13429,-0.006 0.0454,0.007 0.0928,0.0218 0.14217,0.045 0.0978,0.0461 0.20324,0.12446 0.31607,0.23436 0,0 0,0 0,0 0.22146,0.21579 0.47137,0.55326 0.74733,1.00662 0,0 0,1e-5 0,1e-5 0.5289,0.86888 1.15383,2.16418 1.8573,3.84648 0,0 0,0 0,0 1.25413,2.99906 2.76278,7.22906 4.39802,12.48276 0,0 0,0 0,0 1.2681,4.07207 2.63123,8.76967 3.91169,14.0465 0,0 0,0 0,0 0.44976,1.85077 0.8949,3.80057 1.27916,5.86432 0,0 0,0 0,0 0.24808,1.24451 0.50527,2.72577 0.56674,4.48711 0,0 0,0 0,0 -0.19601,2.18127 -1.0553,3.8093 -2.4421,4.72608 0,0 0,0 0,0 0,0 -10e-6,0 -10e-6,1e-5 0,0 0,0 0,0 -1.44617,0.92589 -2.66175,1.36853 -3.48936,1.45726 0,0 0,0 0,0 -2.76694,0.55757 -5.35593,0.5553 -7.57732,0.45053 0,0 0,0 0,0 -7.00061,-0.21298 -14.23903,-1.1812 -21.52355,-2.14599 -2.3344,-0.30652 -4.68932,-0.62505 -7.06098,-0.94474 -6.16093,-0.83048 -12.11033,-1.61789 -17.80614,-2.20796 -3.86169,-0.39905 -7.56727,-0.71338 -11.10888,-0.83641 0,0 0,0 0,0 -3.13225,-0.0973 -6.02429,-0.10117 -8.65714,0.24547 0,0 0,0 0,0 -2.68077,0.461 -5.75237,0.28209 -8.72522,-0.86842 -2.54389,-1.11253 -4.45053,-2.95695 -5.6367,-5.10118 0,0 0,0 0,0 -1.26379,-2.38551 -1.75872,-4.70634 -1.88956,-6.76052 0,0 0,-10e-6 0,-10e-6 0,0 0,0 0,0 -0.19966,-2.58904 -0.0119,-4.92759 0.30425,-7.01451 0,0 0,0 0,0 0.40534,-2.70976 1.00185,-5.09442 1.64071,-7.16682 0.63885,-2.0724 1.32131,-3.83293 1.96281,-5.28983 0,0 0,0 0,0 0.76188,-1.73632 1.4788,-3.05169 2.08016,-3.92516 0,0 0,0 0,0 0.32,-0.46481 0.60858,-0.80621 0.85737,-1.01874 0,0 0,0 0,0 0,0 0,0 0,0 0.23578,-0.0706 0.3827,-0.1358 0.47684,-0.18125 0,0 0,0 0,0 0,0 0,0 0,0 0.0746,-0.0131 0.11595,-0.0283 0.13866,-0.0405 0,0 0,0 0,0 0.0114,-0.006 0.0181,-0.0115 0.022,-0.0154 0.005,-0.007 0.005,-0.007 0.005,-0.007 0,0 10e-6,-1e-5 0.002,8.4e-4 -0.002,0.0128 -5e-4,0.0212 0.004,0.0332 0,0 0,0 0,0 0.01,0.0238 0.0319,0.0617 0.0814,0.11906 0,0 0,0 0,0 0,0 0,0 0,0 0.0445,0.0935 0.11865,0.23413 0.26019,0.43484 0,0 0,0 0,0 0,0 0,0 0,0 0.0653,0.31577 0.0889,0.75114 0.0774,1.30268 0,0 0,0 0,0 -0.0216,1.03638 -0.167,2.47634 -0.37208,4.28752 0,0 0,0 0,0 -0.17176,1.52672 -0.39245,3.31161 -0.58159,5.31752 -0.18914,2.00592 -0.348,4.23286 -0.33447,6.63335 0.0146,1.84555 0.10738,3.74816 0.49643,5.5819 0,0 0,0 0,0 0,0 0,0 0,0 0.33536,1.44824 0.73441,2.7995 1.44359,3.69874 0,0 0,0 0,0 0.51255,0.68393 1.24732,1.25823 1.9672,1.42173 0.98888,0.3984 2.48961,0.20296 4.27918,-0.0811 0,0 0,0 0,0 3.35861,-0.65196 6.80294,-0.88058 10.18862,-0.91364 0,0 0,0 0,0 3.88437,-0.0499 7.86346,0.12915 11.88465,0.43443 5.93831,0.4494 12.05688,1.16742 18.27447,2.00521 2.39348,0.32251 4.75343,0.6552 7.07719,0.98678 7.39035,1.04548 14.26586,2.18457 20.65143,2.65805 2.19167,0.12155 3.98054,0.30054 5.36149,0.0455 0.4229,-0.15625 0.46903,-0.0464 0.0447,0.14976 0,0 0,0 0,0 0,0 0,0 -10e-6,1e-5 0,0 0,0 0,0 -0.67023,0.40505 -1.01104,1.21817 -1.20705,2.5283 0,0 0,0 0,0 0.0615,-0.86769 -0.0738,-1.95614 -0.20068,-3.22413 0,0 0,0 0,0 -0.20426,-1.88012 -0.4719,-3.74071 -0.74418,-5.57285 0,0 0,0 0,0 -0.77496,-5.20717 -1.57668,-9.9611 -2.22924,-14.14843 0,0 0,0 0,0 -0.8402,-5.39144 -1.45652,-9.81704 -1.74601,-13.04418 0,0 0,0 0,0 -0.16235,-1.81003 -0.22311,-3.24213 -0.16992,-4.25572 0,0 0,0 0,0 0.0278,-0.52887 0.0865,-0.9436 0.17797,-1.23852 0,0 0,0 0,0 0.0466,-0.15028 0.1016,-0.26942 0.16532,-0.35664 0.0322,-0.044 0.0665,-0.0799 0.10314,-0.10759 0.0378,-0.0285 0.078,-0.0484 0.12059,-0.0593 z"
         style="fill:#000000;fill-rule:evenodd;stroke:none" />
      <path
         inkscape:connector-curvature="0"
         inkscape:original-d="m 701.8133,476.6459 c 0,0 27.8079,1.264 35.3919,1.264 7.5841,0 7.5841,0 7.5841,0"
         inkscape:path-effect="#path-effect5337"
         id="path5335"
         d="m 701.81333,476.6459 c 0.003,-0.0758 0.0142,-0.15087 0.0319,-0.2252 0,0 0,0 0,0 0.0171,-0.0716 0.0408,-0.14245 0.071,-0.2126 0.06,-0.13973 0.1456,-0.2766 0.25564,-0.41043 0,0 0,0 0,0 0,0 0,0 0,0 0.21829,-0.26554 0.53278,-0.51908 0.93498,-0.75913 0,0 0,0 0,0 0.78955,-0.47123 1.91681,-0.89045 3.31732,-1.24646 0,0 0,0 0,0 2.6504,-0.67371 6.27811,-1.12064 10.44542,-1.26784 2.08799,-0.0737 4.30995,-0.0718 6.61097,0.0125 1.78109,0.0652 3.50848,0.17601 5.1582,0.32509 3.27103,0.29296 6.15749,0.74612 8.56644,1.23668 0,0 0,0 0,0 2.91883,0.57679 5.16744,1.33151 6.43476,2.19183 0,0 0,0 0,0 0.43466,0.29507 0.75389,0.60256 0.94514,0.91955 0,0 0,0 0,0 0.0698,0.11577 0.12262,0.2328 0.15771,0.35097 0,0 0,0 0,0 0,0 0,0 0,0 0.0131,0.2204 0.0237,0.28423 0.0318,0.317 0.006,0.0225 0.009,0.0275 0.0125,0.03 0.004,0.003 0.002,0.002 0.002,0.002 0,0 0.002,-0.001 -0.002,0.002 -0.003,0.003 -0.007,0.007 -0.0125,0.03 -0.008,0.0328 -0.0187,0.0966 -0.0318,0.317 0,0 0,0 0,0 0,0 0,0 0,0 -0.0351,0.11817 -0.0879,0.2352 -0.15771,0.35097 0,0 0,0 0,0 -0.19125,0.31699 -0.51048,0.62448 -0.94514,0.91955 0,0 0,0 0,0 -1.26732,0.86032 -3.51593,1.61504 -6.43476,2.19183 0,0 0,0 0,0 -2.56359,0.49056 -5.6206,0.75974 -8.87932,0.84211 -1.67186,0.0419 -3.41784,0.0323 -5.21136,-0.0334 -2.31708,-0.0849 -4.54345,-0.25686 -6.62521,-0.49734 -4.15745,-0.48015 -7.74402,-1.23533 -10.3305,-2.1367 0,0 0,0 0,0 -1.3668,-0.47631 -2.45469,-0.99358 -3.20016,-1.53324 0,0 0,0 0,0 -0.37975,-0.27491 -0.67073,-0.55564 -0.8645,-0.83974 0,0 0,0 0,0 0,0 0,0 0,0 -0.0976,-0.14318 -0.17061,-0.28722 -0.21783,-0.4318 -0.0237,-0.0726 -0.0409,-0.14532 -0.0515,-0.21814 0,0 0,0 0,0 -0.011,-0.0756 -0.0149,-0.15138 -0.0115,-0.22718 z"
         style="fill:#000000;fill-rule:evenodd;stroke:none" />
      <path
         inkscape:connector-curvature="0"
         inkscape:original-d="m 831.825,476.4291 c 7.584,1.2639 54.3515,1.2639 54.3515,1.2639"
         inkscape:path-effect="#path-effect5341"
         id="path5339"
         d="m 831.825,476.4291 c 0.084,-0.50378 0.56496,-0.91554 1.34666,-1.29386 0.7817,-0.37831 1.86247,-0.74462 3.33054,-1.04759 0,0 0,0 0,0 1.90542,-0.41393 4.31863,-0.76751 7.14291,-1.03654 4.3778,-0.41803 9.67914,-0.63367 15.41013,-0.55341 0.95804,0.0134 1.90492,0.035 2.83818,0.0646 6.61255,0.20979 12.52245,0.81216 16.85779,1.67548 0,0 0,0 0,0 2.27488,0.45303 4.11516,0.9775 5.39488,1.55287 0,0 0,0 0,0 0.64973,0.29213 1.15475,0.59738 1.49869,0.91301 0,0 0,0 0,0 0.17305,0.15881 0.30527,0.32025 0.39459,0.48398 0,0 0,0 0,0 0,0 0,0 0,0 0.0448,0.19291 0.0788,0.30548 0.1017,0.37615 0,0 0,0 0,0 0,0 0,0 0,0 0.0115,0.0628 0.0202,0.0952 0.0261,0.11179 0.009,0.0174 0.009,0.0174 0.009,0.0174 0,0 10e-6,4e-5 -2e-5,0.0174 -0.0152,0.0166 -0.024,0.049 -0.0355,0.11178 0,0 0,0 0,0 0,0 0,0 0,0 -0.023,0.0707 -0.0571,0.18321 -0.10208,0.37608 0,0 0,0 0,0 0,0 0,0 0,0 -0.0896,0.16365 -0.22231,0.32493 -0.39593,0.48343 0,0 0,0 0,0 -0.34508,0.31502 -0.85206,0.61902 -1.50418,0.90866 0,0 0,0 0,0 -1.28442,0.57047 -3.13273,1.08522 -5.41778,1.51822 0,0 0,0 0,0 -4.35428,0.82516 -10.29839,1.35494 -16.952,1.39879 -0.93759,0.006 -1.88966,0.003 -2.85373,-0.0105 -5.7671,-0.0807 -11.13281,-0.52422 -15.53823,-1.22874 -2.83619,-0.45367 -5.30091,-1.0194 -7.20786,-1.66344 0,0 0,0 0,0 -1.38972,-0.47545 -2.57281,-0.99981 -3.33047,-1.55389 -0.75766,-0.55408 -1.09771,-1.11789 -1.01375,-1.62167 z"
         style="fill:#000000;fill-rule:evenodd;stroke:none" />
    </g>
  </g>
</svg>
