<?xml version="1.0" encoding="UTF-8" standalone="no"?>
<!-- Created with Inkscape (http://www.inkscape.org/) -->

<svg
   xmlns:dc="http://purl.org/dc/elements/1.1/"
   xmlns:cc="http://creativecommons.org/ns#"
   xmlns:rdf="http://www.w3.org/1999/02/22-rdf-syntax-ns#"
   xmlns:svg="http://www.w3.org/2000/svg"
   xmlns="http://www.w3.org/2000/svg"
   xmlns:sodipodi="http://sodipodi.sourceforge.net/DTD/sodipodi-0.dtd"
   xmlns:inkscape="http://www.inkscape.org/namespaces/inkscape"
   width="42.064125mm"
   height="12.212166mm"
   viewBox="0 0 149.04611 43.271456"
   id="svg8346"
   version="1.1"
   inkscape:version="0.91 r13725"
   sodipodi:docname="ojos-PIX4.svg">
  <defs
     id="defs8348" />
  <sodipodi:namedview
     id="base"
     pagecolor="#ffffff"
     bordercolor="#666666"
     borderopacity="1.0"
     inkscape:pageopacity="0.0"
     inkscape:pageshadow="2"
     inkscape:zoom="3.731879"
     inkscape:cx="77.634394"
     inkscape:cy="-9.9429765"
     inkscape:document-units="px"
     inkscape:current-layer="layer1"
     showgrid="false"
     fit-margin-top="0"
     fit-margin-left="0"
     fit-margin-right="0"
     fit-margin-bottom="0"
     inkscape:window-width="1914"
     inkscape:window-height="1030"
     inkscape:window-x="0"
     inkscape:window-y="26"
     inkscape:window-maximized="1" />
  <metadata
     id="metadata8351">
    <rdf:RDF>
      <cc:Work
         rdf:about="">
        <dc:format>image/svg+xml</dc:format>
        <dc:type
           rdf:resource="http://purl.org/dc/dcmitype/StillImage" />
        <dc:title></dc:title>
      </cc:Work>
    </rdf:RDF>
  </metadata>
  <g
     inkscape:label="Capa 1"
     inkscape:groupmode="layer"
     id="layer1"
     transform="translate(-341.25127,-381.14361)">
    <path
       style="opacity:1;fill:#ffffff;fill-opacity:1;stroke:none;stroke-width:0.97100002;stroke-linecap:round;stroke-linejoin:round;stroke-miterlimit:4;stroke-dasharray:none;stroke-opacity:1"
       d="M 19.232422 28.847656 L 19.232422 33.65625 L 24.039062 33.65625 L 24.039062 38.462891 L 28.847656 38.462891 L 33.65625 38.462891 L 38.462891 38.462891 L 38.462891 33.65625 L 43.271484 33.65625 L 43.271484 28.847656 L 19.232422 28.847656 z "
       transform="translate(341.25126,381.14361)"
       id="rect13391-15-5-4" />
    <path
       style="opacity:1;fill:#ffffff;fill-opacity:1;stroke:none;stroke-width:0.97100002;stroke-linecap:round;stroke-linejoin:round;stroke-miterlimit:4;stroke-dasharray:none;stroke-opacity:1"
       d="M 110.58203 28.847656 L 110.58203 33.65625 L 115.39062 33.65625 L 115.39062 38.462891 L 120.19922 38.462891 L 125.00586 38.462891 L 129.81445 38.462891 L 129.81445 33.65625 L 134.62305 33.65625 L 134.62305 28.847656 L 110.58203 28.847656 z "
       transform="translate(341.25126,381.14361)"
       id="rect13391-15-5-4-6" />
    <path
       style="opacity:1;fill:#000000;fill-opacity:1;stroke:none;stroke-width:0.97100002;stroke-linecap:round;stroke-linejoin:round;stroke-miterlimit:4;stroke-dasharray:none;stroke-opacity:1"
       d="M 9.6152344 0 L 9.6152344 4.8085938 L 14.423828 4.8085938 L 14.423828 0 L 9.6152344 0 z M 14.423828 4.8085938 L 14.423828 9.6152344 L 19.232422 9.6152344 L 19.232422 4.8085938 L 14.423828 4.8085938 z M 19.232422 9.6152344 L 19.232422 14.423828 L 19.232422 19.232422 L 14.423828 19.232422 L 14.423828 14.423828 L 9.6152344 14.423828 L 9.6152344 19.232422 L 9.6152344 24.039062 L 9.6152344 28.847656 L 14.423828 28.847656 L 14.423828 33.65625 L 19.232422 33.65625 L 19.232422 28.847656 L 24.039062 28.847656 L 28.847656 28.847656 L 28.847656 33.65625 L 33.65625 33.65625 L 33.65625 28.847656 L 38.462891 28.847656 L 43.271484 28.847656 L 43.271484 33.65625 L 48.080078 33.65625 L 48.080078 28.847656 L 52.886719 28.847656 L 52.886719 24.039062 L 52.886719 19.232422 L 48.080078 19.232422 L 48.080078 14.423828 L 43.271484 14.423828 L 43.271484 19.232422 L 33.65625 19.232422 L 33.65625 14.423828 L 28.847656 14.423828 L 28.847656 19.232422 L 24.039062 19.232422 L 24.039062 14.423828 L 24.039062 9.6152344 L 19.232422 9.6152344 z M 33.65625 14.423828 L 38.462891 14.423828 L 38.462891 9.6152344 L 33.65625 9.6152344 L 33.65625 14.423828 z M 38.462891 9.6152344 L 43.271484 9.6152344 L 43.271484 4.8085938 L 38.462891 4.8085938 L 38.462891 9.6152344 z M 48.080078 14.423828 L 52.886719 14.423828 L 52.886719 9.6152344 L 48.080078 9.6152344 L 48.080078 14.423828 z M 52.886719 9.6152344 L 57.695312 9.6152344 L 57.695312 4.8085938 L 52.886719 4.8085938 L 52.886719 9.6152344 z M 43.271484 33.65625 L 38.462891 33.65625 L 38.462891 38.462891 L 43.271484 38.462891 L 43.271484 33.65625 z M 38.462891 38.462891 L 33.65625 38.462891 L 28.847656 38.462891 L 24.039062 38.462891 L 24.039062 43.271484 L 28.847656 43.271484 L 33.65625 43.271484 L 38.462891 43.271484 L 38.462891 38.462891 z M 24.039062 38.462891 L 24.039062 33.65625 L 19.232422 33.65625 L 19.232422 38.462891 L 24.039062 38.462891 z M 9.6152344 14.423828 L 9.6152344 9.6152344 L 4.8085938 9.6152344 L 4.8085938 14.423828 L 9.6152344 14.423828 z M 4.8085938 9.6152344 L 4.8085938 4.8085938 L 0 4.8085938 L 0 9.6152344 L 4.8085938 9.6152344 z M 100.9668 0 L 100.9668 4.8085938 L 105.77539 4.8085938 L 105.77539 0 L 100.9668 0 z M 105.77539 4.8085938 L 105.77539 9.6152344 L 110.58203 9.6152344 L 110.58203 4.8085938 L 105.77539 4.8085938 z M 110.58203 9.6152344 L 110.58203 14.423828 L 110.58203 19.232422 L 105.77539 19.232422 L 105.77539 14.423828 L 100.9668 14.423828 L 100.9668 19.232422 L 100.9668 24.039062 L 100.9668 28.847656 L 105.77539 28.847656 L 105.77539 33.65625 L 110.58203 33.65625 L 110.58203 28.847656 L 115.39062 28.847656 L 120.19922 28.847656 L 120.19922 33.65625 L 125.00586 33.65625 L 125.00586 28.847656 L 129.81445 28.847656 L 134.62305 28.847656 L 134.62305 33.65625 L 139.42969 33.65625 L 139.42969 28.847656 L 144.23828 28.847656 L 144.23828 24.039062 L 144.23828 19.232422 L 139.42969 19.232422 L 139.42969 14.423828 L 134.62305 14.423828 L 134.62305 19.232422 L 125.00586 19.232422 L 125.00586 14.423828 L 120.19922 14.423828 L 120.19922 19.232422 L 115.39062 19.232422 L 115.39062 14.423828 L 115.39062 9.6152344 L 110.58203 9.6152344 z M 125.00586 14.423828 L 129.81445 14.423828 L 129.81445 9.6152344 L 125.00586 9.6152344 L 125.00586 14.423828 z M 129.81445 9.6152344 L 134.62305 9.6152344 L 134.62305 4.8085938 L 129.81445 4.8085938 L 129.81445 9.6152344 z M 139.42969 14.423828 L 144.23828 14.423828 L 144.23828 9.6152344 L 139.42969 9.6152344 L 139.42969 14.423828 z M 144.23828 9.6152344 L 149.04688 9.6152344 L 149.04688 4.8085938 L 144.23828 4.8085938 L 144.23828 9.6152344 z M 134.62305 33.65625 L 129.81445 33.65625 L 129.81445 38.462891 L 134.62305 38.462891 L 134.62305 33.65625 z M 129.81445 38.462891 L 125.00586 38.462891 L 120.19922 38.462891 L 115.39062 38.462891 L 115.39062 43.271484 L 120.19922 43.271484 L 125.00586 43.271484 L 129.81445 43.271484 L 129.81445 38.462891 z M 115.39062 38.462891 L 115.39062 33.65625 L 110.58203 33.65625 L 110.58203 38.462891 L 115.39062 38.462891 z M 100.9668 14.423828 L 100.9668 9.6152344 L 96.158203 9.6152344 L 96.158203 14.423828 L 100.9668 14.423828 z M 96.158203 9.6152344 L 96.158203 4.8085938 L 91.351562 4.8085938 L 91.351562 9.6152344 L 96.158203 9.6152344 z "
       id="rect13391-58"
       transform="translate(341.25126,381.14361)" />
  </g>
</svg>
