<?xml version="1.0" encoding="UTF-8" standalone="no"?>
<!-- Created with Inkscape (http://www.inkscape.org/) -->

<svg
   xmlns:dc="http://purl.org/dc/elements/1.1/"
   xmlns:cc="http://creativecommons.org/ns#"
   xmlns:rdf="http://www.w3.org/1999/02/22-rdf-syntax-ns#"
   xmlns:svg="http://www.w3.org/2000/svg"
   xmlns="http://www.w3.org/2000/svg"
   xmlns:sodipodi="http://sodipodi.sourceforge.net/DTD/sodipodi-0.dtd"
   xmlns:inkscape="http://www.inkscape.org/namespaces/inkscape"
   width="8.9688234mm"
   height="2.8029296mm"
   viewBox="0 0 31.779296 9.9316391"
   id="svg8346"
   version="1.1"
   inkscape:version="0.91 r13725"
   sodipodi:docname="bigote-PIX1.svg">
  <defs
     id="defs8348" />
  <sodipodi:namedview
     id="base"
     pagecolor="#ffffff"
     bordercolor="#666666"
     borderopacity="1.0"
     inkscape:pageopacity="0.0"
     inkscape:pageshadow="2"
     inkscape:zoom="6.8381774"
     inkscape:cx="31.161606"
     inkscape:cy="2.8048572"
     inkscape:document-units="px"
     inkscape:current-layer="layer1"
     showgrid="false"
     fit-margin-top="0"
     fit-margin-left="0"
     fit-margin-right="0"
     fit-margin-bottom="0"
     inkscape:window-width="1914"
     inkscape:window-height="1030"
     inkscape:window-x="0"
     inkscape:window-y="26"
     inkscape:window-maximized="1"
     showguides="true"
     inkscape:guide-bbox="true"
     inkscape:snap-global="false"
     inkscape:snap-bbox="true"
     inkscape:bbox-paths="true"
     inkscape:bbox-nodes="true"
     inkscape:snap-bbox-edge-midpoints="true"
     inkscape:snap-bbox-midpoints="true">
    <sodipodi:guide
       position="-26.795605,-100.25705"
       orientation="0,1"
       id="guide4791" />
  </sodipodi:namedview>
  <metadata
     id="metadata8351">
    <rdf:RDF>
      <cc:Work
         rdf:about="">
        <dc:format>image/svg+xml</dc:format>
        <dc:type
           rdf:resource="http://purl.org/dc/dcmitype/StillImage" />
        <dc:title></dc:title>
      </cc:Work>
    </rdf:RDF>
  </metadata>
  <g
     inkscape:label="Capa 1"
     inkscape:groupmode="layer"
     id="layer1"
     transform="translate(-417.26226,-366.84658)">
    <path
       style="opacity:1;fill:#000000;fill-opacity:1;stroke:none;stroke-width:0.97100002;stroke-linecap:round;stroke-linejoin:round;stroke-miterlimit:4;stroke-dasharray:none;stroke-opacity:1"
       d="m 3.9882812,3.9628906 0,1.9863282 -1.9863281,0 -1.9863281,0 0,1.9863281 -1.9863281,0 0,1.9863281 0,1.986328 1.9863281,0 0,-1.986328 1.9863281,0 1.9863281,0 0,-1.9863281 1.9863282,0 1.9863281,0 1.9863281,0 0,-1.9863281 -1.9863281,0 0,-1.9863282 -1.9863281,0 -1.9863282,0 z m 5.9589844,3.9726563 0,1.9863281 1.9863284,0 0,-1.9863281 -1.9863284,0 z m 1.9863284,0 1.986328,0 1.986328,0 1.984375,0 1.986328,0 0,1.9863281 1.986328,0 0,1.986328 1.986328,0 1.986329,0 0,-1.986328 0,-1.9863281 -1.986329,0 -1.986328,0 0,-1.9863281 -1.986328,0 0,-1.9863282 -1.986328,0 -1.984375,0 -1.986328,0 0,1.9863282 -1.986328,0 0,1.9863281 z m 13.902344,3.9726561 0,1.986328 1.986328,0 0,-1.986328 -1.986328,0 z m -27.8066411,0 -1.9863281,0 0,1.986328 1.9863281,0 0,-1.986328 z"
       transform="translate(421.21929,362.88369)"
       id="rect12201"
       inkscape:connector-curvature="0" />
  </g>
</svg>
