<?xml version="1.0" encoding="UTF-8" standalone="no"?>
<!-- Created with Inkscape (http://www.inkscape.org/) -->

<svg
   xmlns:dc="http://purl.org/dc/elements/1.1/"
   xmlns:cc="http://creativecommons.org/ns#"
   xmlns:rdf="http://www.w3.org/1999/02/22-rdf-syntax-ns#"
   xmlns:svg="http://www.w3.org/2000/svg"
   xmlns="http://www.w3.org/2000/svg"
   xmlns:sodipodi="http://sodipodi.sourceforge.net/DTD/sodipodi-0.dtd"
   xmlns:inkscape="http://www.inkscape.org/namespaces/inkscape"
   width="53.622223mm"
   height="62.088886mm"
   viewBox="0 0 190 219.99999"
   id="svg8346"
   version="1.1"
   inkscape:version="0.91 r13725"
   sodipodi:docname="pelo-PIX5.svg">
  <defs
     id="defs8348" />
  <sodipodi:namedview
     id="base"
     pagecolor="#ffffff"
     bordercolor="#666666"
     borderopacity="1.0"
     inkscape:pageopacity="0.0"
     inkscape:pageshadow="2"
     inkscape:zoom="1.0256926"
     inkscape:cx="213.06487"
     inkscape:cy="122.60071"
     inkscape:document-units="px"
     inkscape:current-layer="layer1"
     showgrid="false"
     fit-margin-top="0"
     fit-margin-left="0"
     fit-margin-right="0"
     fit-margin-bottom="0"
     inkscape:window-width="1914"
     inkscape:window-height="1030"
     inkscape:window-x="0"
     inkscape:window-y="26"
     inkscape:window-maximized="1" />
  <metadata
     id="metadata8351">
    <rdf:RDF>
      <cc:Work
         rdf:about="">
        <dc:format>image/svg+xml</dc:format>
        <dc:type
           rdf:resource="http://purl.org/dc/dcmitype/StillImage" />
        <dc:title></dc:title>
      </cc:Work>
    </rdf:RDF>
  </metadata>
  <g
     inkscape:label="Capa 1"
     inkscape:groupmode="layer"
     id="layer1"
     transform="translate(-333.85775,-343.37301)">
    <path
       style="opacity:1;fill:#c87137;fill-opacity:1;stroke:none;stroke-width:0.97100002;stroke-linecap:round;stroke-linejoin:round;stroke-miterlimit:4;stroke-dasharray:none;stroke-opacity:1"
       d="m 58.345703,2.7832031 0,9.9999999 -10,0 0,10 -20,0 0,20 -10,0 0,10 0,10 0,10 -9.9999999,0 0,10 0,139.999997 9.9999999,0 0,-10 10,0 0,-20 10,0 0,-109.999997 10,0 0,-10 0,-10 109.999997,0 0,10 0,10 10,0 0,10 0,9.999997 0,10 0,10 0,10 0,10 0,10 0,10 0,10 0,10 0,10 10,0 0,10 0,10 10,0 0,10 10,0 0,-10 0,-10 0,-10 0,-10 0,-10 0,-10 0,-10 0,-10 0,-10 0,-10 0,-10 0,-10 0,-9.999997 0,-10 0,-10 0,-10 -10,0 0,-10 0,-10 -10,0 0,-20 -20,0 0,-10 -10,0 0,-9.9999999 -89.999997,0 z"
       transform="translate(325.51205,340.58981)"
       id="rect17084-8"
       inkscape:connector-curvature="0" />
  </g>
</svg>
