<?xml version="1.0" encoding="UTF-8" standalone="no"?>
<!-- Created with Inkscape (http://www.inkscape.org/) -->

<svg
   xmlns:dc="http://purl.org/dc/elements/1.1/"
   xmlns:cc="http://creativecommons.org/ns#"
   xmlns:rdf="http://www.w3.org/1999/02/22-rdf-syntax-ns#"
   xmlns:svg="http://www.w3.org/2000/svg"
   xmlns="http://www.w3.org/2000/svg"
   xmlns:sodipodi="http://sodipodi.sourceforge.net/DTD/sodipodi-0.dtd"
   xmlns:inkscape="http://www.inkscape.org/namespaces/inkscape"
   width="58.082104mm"
   height="62.922325mm"
   viewBox="0 0 205.80273 222.95312"
   id="svg8346"
   version="1.1"
   inkscape:version="0.91 r13725"
   sodipodi:docname="pelo-PIX4.svg">
  <defs
     id="defs8348" />
  <sodipodi:namedview
     id="base"
     pagecolor="#ffffff"
     bordercolor="#666666"
     borderopacity="1.0"
     inkscape:pageopacity="0.0"
     inkscape:pageshadow="2"
     inkscape:zoom="1.0256926"
     inkscape:cx="221.41057"
     inkscape:cy="83.772594"
     inkscape:document-units="px"
     inkscape:current-layer="layer1"
     showgrid="false"
     fit-margin-top="0"
     fit-margin-left="0"
     fit-margin-right="0"
     fit-margin-bottom="0"
     inkscape:window-width="1914"
     inkscape:window-height="1030"
     inkscape:window-x="0"
     inkscape:window-y="26"
     inkscape:window-maximized="1" />
  <metadata
     id="metadata8351">
    <rdf:RDF>
      <cc:Work
         rdf:about="">
        <dc:format>image/svg+xml</dc:format>
        <dc:type
           rdf:resource="http://purl.org/dc/dcmitype/StillImage" />
        <dc:title></dc:title>
      </cc:Work>
    </rdf:RDF>
  </metadata>
  <g
     inkscape:label="Capa 1"
     inkscape:groupmode="layer"
     id="layer1"
     transform="translate(-325.51205,-340.58981)">
    <path
       style="opacity:1;fill:#d45500;fill-opacity:1;stroke:none;stroke-width:0.97100002;stroke-linecap:round;stroke-linejoin:round;stroke-miterlimit:4;stroke-dasharray:none;stroke-opacity:1"
       d="m 54.095703,2.2539062 0,8.5761718 -8.576172,0 0,8.574219 -8.574219,0 0,8.576172 -8.576171,0 0,8.574219 -8.574219,0 0,8.574218 -8.576172,0 0,8.576172 0,8.574219 0,8.576172 -8.5742188,0 0,8.574219 0,8.576171 0,8.574219 0,8.574222 -8.5761718,0 0,8.57617 0,8.57422 0,8.57617 0,34.30078 8.5761718,0 0,8.57422 0,8.57422 0,8.57617 0,8.57422 8.5742188,0 0,8.57617 0,8.57422 8.576172,0 0,-8.57422 8.574219,0 0,-8.57617 0,-8.57422 0,-8.57617 0,-8.57422 0,-8.57422 8.576171,0 0,-8.57617 0,-8.57422 0,-8.57617 8.574219,0 0,-8.57422 -8.574219,0 0,-8.57617 8.574219,0 0,-8.57422 -8.574219,0 0,-8.57617 0,-8.574222 0,-8.574219 -8.576171,0 0,-8.576171 8.576171,0 0,-8.574219 0,-8.576172 8.574219,0 0,-8.574219 8.576172,0 0,-8.576172 8.574219,0 0,8.576172 8.574219,0 0,-8.576172 8.576171,0 8.574219,0 0,8.576172 8.576172,0 8.574217,0 0,-8.576172 8.57617,0 0,8.576172 0,8.574219 8.57422,0 0,-8.574219 0,-8.576172 8.57422,0 0,8.576172 8.57617,0 8.57422,0 0,8.574219 0,8.576172 8.57617,0 0,8.574219 0,8.576171 -8.57617,0 0,8.574219 8.57617,0 0,8.574222 0,8.57617 0,8.57422 -8.57617,0 0,8.57617 8.57617,0 0,8.57422 0,8.57617 0,8.57422 0,8.57617 0,8.57422 8.57422,0 0,8.57422 0,8.57617 0,8.57422 0,8.57617 8.57617,0 0,8.57422 0,8.57617 8.57422,0 0,-8.57617 8.57618,0 0,-8.57422 0,-8.57617 0,-25.72461 8.57421,0 0,-8.57422 0,-8.57617 0,-8.57422 0,-8.57617 0,-8.57422 0,-8.57617 0,-8.57422 0,-8.57617 -8.57421,0 0,-34.298831 -8.57618,0 0,-8.576172 -8.57422,0 0,-8.574219 0,-8.576172 -8.57617,0 0,-8.574218 -8.57422,0 0,-8.574219 -8.57617,0 0,-8.576172 -8.57422,0 0,-8.574219 -8.57617,0 0,-8.5761718 -8.57422,0 -8.57422,0 -8.57617,0 -8.574217,0 -8.576172,0 -8.574219,0 -8.576171,0 -8.574219,0 -8.574219,0 z m 94.324217,94.3261718 -8.57422,0 0,8.574222 8.57422,0 0,-8.574222 z m -34.29883,-34.300781 -8.57617,0 0,8.576172 8.57617,0 0,-8.576172 z m -25.726559,-8.574219 -8.574219,0 0,8.574219 8.574219,0 0,-8.574219 z m -25.724609,0 -8.574219,0 0,8.574219 8.574219,0 0,-8.574219 z"
       transform="translate(331.44369,338.3359)"
       id="rect17661-5-5"
       inkscape:connector-curvature="0" />
  </g>
</svg>
