<?xml version="1.0" encoding="UTF-8" standalone="no"?>
<!-- Created with Inkscape (http://www.inkscape.org/) -->

<svg
   xmlns:dc="http://purl.org/dc/elements/1.1/"
   xmlns:cc="http://creativecommons.org/ns#"
   xmlns:rdf="http://www.w3.org/1999/02/22-rdf-syntax-ns#"
   xmlns:svg="http://www.w3.org/2000/svg"
   xmlns="http://www.w3.org/2000/svg"
   xmlns:sodipodi="http://sodipodi.sourceforge.net/DTD/sodipodi-0.dtd"
   xmlns:inkscape="http://www.inkscape.org/namespaces/inkscape"
   width="9.3342781mm"
   height="2.8001735mm"
   viewBox="0 0 33.074214 9.921874"
   id="svg8346"
   version="1.1"
   inkscape:version="0.91 r13725"
   sodipodi:docname="boca-PIX9.svg">
  <defs
     id="defs8348" />
  <sodipodi:namedview
     id="base"
     pagecolor="#ffffff"
     bordercolor="#666666"
     borderopacity="1.0"
     inkscape:pageopacity="0.0"
     inkscape:pageshadow="2"
     inkscape:zoom="11.555121"
     inkscape:cx="20.156067"
     inkscape:cy="5.748031"
     inkscape:document-units="px"
     inkscape:current-layer="layer1"
     showgrid="false"
     fit-margin-top="0"
     fit-margin-left="0"
     fit-margin-right="0"
     fit-margin-bottom="0"
     inkscape:window-width="1914"
     inkscape:window-height="1030"
     inkscape:window-x="0"
     inkscape:window-y="26"
     inkscape:window-maximized="1"
     showguides="true"
     inkscape:guide-bbox="true"
     inkscape:snap-global="false"
     inkscape:snap-bbox="true"
     inkscape:bbox-paths="true"
     inkscape:bbox-nodes="true"
     inkscape:snap-bbox-edge-midpoints="true"
     inkscape:snap-bbox-midpoints="true">
    <sodipodi:guide
       position="-27.58662,-102.95822"
       orientation="0,1"
       id="guide4791" />
  </sodipodi:namedview>
  <metadata
     id="metadata8351">
    <rdf:RDF>
      <cc:Work
         rdf:about="">
        <dc:format>image/svg+xml</dc:format>
        <dc:type
           rdf:resource="http://purl.org/dc/dcmitype/StillImage" />
        <dc:title></dc:title>
      </cc:Work>
    </rdf:RDF>
  </metadata>
  <g
     inkscape:label="Capa 1"
     inkscape:groupmode="layer"
     id="layer1"
     transform="translate(-418.05328,-364.15517)">
    <path
       style="opacity:1;fill:#ff0000;fill-opacity:1;stroke:none;stroke-width:0.97100002;stroke-linecap:round;stroke-linejoin:round;stroke-miterlimit:4;stroke-dasharray:none;stroke-opacity:1"
       d="m 0.10742188,1.2636719 0,3.3066406 3.30859372,0 0,-3.3066406 -3.30859372,0 z m 3.30859372,3.3066406 0,3.3085937 3.3066406,0 3.3066408,0 0,-3.3085937 -3.3066408,0 -3.3066406,0 z m 6.6132814,3.3085937 0,3.3066408 3.308594,0 3.30664,0 3.308594,0 3.306641,0 0,-3.3066408 -3.306641,0 -3.308594,0 -3.30664,0 -3.308594,0 z m 13.230469,0 3.30664,0 3.308594,0 0,-3.3085937 -3.308594,0 -3.30664,0 0,3.3085937 z M 29.875,4.5703125 l 3.306641,0 0,-3.3066406 -3.306641,0 0,3.3066406 z"
       transform="translate(417.94586,362.8915)"
       id="rect10903-0-3"
       inkscape:connector-curvature="0" />
  </g>
</svg>
